<svg width="20" height="20" viewBox="0 0 20 20" fill="none" xmlns="http://www.w3.org/2000/svg">
<path d="M1.6001 5.12446C1.6001 4.00751 1.6001 3.44903 1.78742 3.01044C2.02212 2.46093 2.4588 2.0231 3.00687 1.78779C3.44431 1.59998 4.00132 1.59998 5.11535 1.59998C6.22938 1.59998 6.7864 1.59998 7.22384 1.78779C7.77191 2.0231 8.20859 2.46093 8.44329 3.01044C8.63061 3.44903 8.63061 4.00751 8.63061 5.12446C8.63061 6.24142 8.63061 6.79989 8.44329 7.23848C8.20859 7.78799 7.77191 8.22582 7.22384 8.46113C6.7864 8.64895 6.22938 8.64895 5.11535 8.64895C4.00132 8.64895 3.44431 8.64895 3.00687 8.46113C2.4588 8.22582 2.02212 7.78799 1.78742 7.23848C1.6001 6.79989 1.6001 6.24142 1.6001 5.12446Z" stroke="#4A525D" stroke-width="1.7"/>
<path d="M11.3696 5.12446C11.3696 4.00751 11.3696 3.44903 11.5569 3.01044C11.7916 2.46093 12.2283 2.0231 12.7764 1.78779C13.2138 1.59998 13.7708 1.59998 14.8848 1.59998C15.9989 1.59998 16.5559 1.59998 16.9933 1.78779C17.5414 2.0231 17.9781 2.46093 18.2128 3.01044C18.4001 3.44903 18.4001 4.00751 18.4001 5.12446C18.4001 6.24142 18.4001 6.79989 18.2128 7.23848C17.9781 7.78799 17.5414 8.22582 16.9933 8.46113C16.5559 8.64895 15.9989 8.64895 14.8848 8.64895C13.7708 8.64895 13.2138 8.64895 12.7764 8.46113C12.2283 8.22582 11.7916 7.78799 11.5569 7.23848C11.3696 6.79989 11.3696 6.24142 11.3696 5.12446Z" stroke="#4A525D" stroke-width="1.7"/>
<path d="M11.3696 14.8755C11.3696 13.7585 11.3696 13.2001 11.5569 12.7615C11.7916 12.212 12.2283 11.7741 12.7764 11.5388C13.2138 11.351 13.7708 11.351 14.8848 11.351C15.9989 11.351 16.5559 11.351 16.9933 11.5388C17.5414 11.7741 17.9781 12.212 18.2128 12.7615C18.4001 13.2001 18.4001 13.7585 18.4001 14.8755C18.4001 15.9924 18.4001 16.5509 18.2128 16.9895C17.9781 17.539 17.5414 17.9768 16.9933 18.2122C16.5559 18.4 15.9989 18.4 14.8848 18.4C13.7708 18.4 13.2138 18.4 12.7764 18.2122C12.2283 17.9768 11.7916 17.539 11.5569 16.9895C11.3696 16.5509 11.3696 15.9924 11.3696 14.8755Z" stroke="#4A525D" stroke-width="1.7"/>
<path d="M1.6001 14.8755C1.6001 13.7585 1.6001 13.2001 1.78742 12.7615C2.02212 12.212 2.4588 11.7741 3.00687 11.5388C3.44431 11.351 4.00132 11.351 5.11535 11.351C6.22938 11.351 6.7864 11.351 7.22384 11.5388C7.77191 11.7741 8.20859 12.212 8.44329 12.7615C8.63061 13.2001 8.63061 13.7585 8.63061 14.8755C8.63061 15.9924 8.63061 16.5509 8.44329 16.9895C8.20859 17.539 7.77191 17.9768 7.22384 18.2122C6.7864 18.4 6.22938 18.4 5.11535 18.4C4.00132 18.4 3.44431 18.4 3.00687 18.2122C2.4588 17.9768 2.02212 17.539 1.78742 16.9895C1.6001 16.5509 1.6001 15.9924 1.6001 14.8755Z" stroke="#4A525D" stroke-width="1.7"/>
</svg>
