<svg width="40" height="40" viewBox="0 0 40 40" fill="none" xmlns="http://www.w3.org/2000/svg">
<path d="M11.9914 31.3963L11.5354 32.2862H11.5354L11.9914 31.3963ZM9.00004 22.768L8.00004 22.7603V22.768H9.00004ZM9.58429 28.9755L10.4763 28.5236H10.4763L9.58429 28.9755ZM31 22.768H32L31.9999 22.7555L31 22.768ZM30.4157 28.9755L31.3078 29.4275L30.4157 28.9755ZM28.0086 31.3963L28.4646 32.2862L28.0086 31.3963ZM28.0086 12.2933L27.5526 13.1833V13.1833L28.0086 12.2933ZM30.4157 14.714L31.3078 14.2621L30.4157 14.714ZM11.9914 12.2933L12.4474 13.1833L11.9914 12.2933ZM9.58429 14.714L10.4763 15.166L9.58429 14.714ZM30.9568 17.1275L29.959 17.1941V17.1941L30.9568 17.1275ZM30.9381 17.8162L29.9853 17.5128V17.5128L30.9381 17.8162ZM30.6951 18.205L31.2983 19.0025L31.3436 18.9683L31.3847 18.9292L30.6951 18.205ZM9.06188 17.8162L10.0147 17.5128L9.06188 17.8162ZM9.30495 18.205L8.61534 18.9292L8.65643 18.9683L8.70168 19.0025L9.30495 18.205ZM17.3984 21.7195L17.5598 20.7327H17.5598L17.3984 21.7195ZM9.4455 18.3113L8.84223 19.1088L8.84223 19.1088L9.4455 18.3113ZM22.6016 21.7195L22.4402 20.7327H22.4402L22.6016 21.7195ZM30.5545 18.3113L31.1578 19.1088L31.1578 19.1088L30.5545 18.3113ZM17.7968 12.6896H22.2032V10.6896H17.7968V12.6896ZM22.2032 31H17.7968V33H22.2032V31ZM17.7968 31C16.2378 31 15.129 30.9992 14.261 30.9279C13.4048 30.8575 12.8716 30.7236 12.4474 30.5063L11.5354 32.2862C12.2894 32.6726 13.1165 32.8406 14.0972 32.9212C15.0662 33.0008 16.271 33 17.7968 33V31ZM8.00004 22.768C8.00004 24.3027 7.99541 25.601 8.06947 26.6605C8.14296 27.7117 8.29926 28.6518 8.69225 29.4275L10.4763 28.5236C10.269 28.1143 10.1332 27.5018 10.0646 26.521C9.99662 25.5485 10 24.3355 10 22.768H8.00004ZM12.4474 30.5063C11.5996 30.0719 10.9093 29.3781 10.4763 28.5236L8.69225 29.4275C9.31542 30.6575 10.3103 31.6585 11.5354 32.2862L12.4474 30.5063ZM30 22.768C30 24.3355 30.0034 25.5485 29.9354 26.521C29.8668 27.5018 29.731 28.1143 29.5237 28.5236L31.3078 29.4275C31.7007 28.6518 31.857 27.7117 31.9305 26.6605C32.0046 25.601 32 24.3027 32 22.768H30ZM22.2032 33C23.729 33 24.9338 33.0008 25.9028 32.9212C26.8835 32.8406 27.7106 32.6726 28.4646 32.2862L27.5526 30.5063C27.1284 30.7236 26.5952 30.8575 25.739 30.9279C24.871 30.9992 23.7622 31 22.2032 31V33ZM29.5237 28.5236C29.0907 29.3781 28.4004 30.0719 27.5526 30.5063L28.4646 32.2862C29.6897 31.6585 30.6846 30.6575 31.3078 29.4275L29.5237 28.5236ZM22.2032 12.6896C23.7622 12.6896 24.871 12.6904 25.739 12.7617C26.5952 12.832 27.1284 12.9659 27.5526 13.1833L28.4646 11.4033C27.7106 11.0169 26.8835 10.849 25.9028 10.7684C24.9338 10.6888 23.729 10.6896 22.2032 10.6896V12.6896ZM27.5526 13.1833C28.4004 13.6177 29.0907 14.3114 29.5237 15.166L31.3078 14.2621C30.6846 13.0321 29.6897 12.031 28.4646 11.4033L27.5526 13.1833ZM17.7968 10.6896C16.271 10.6896 15.0662 10.6888 14.0972 10.7684C13.1165 10.849 12.2894 11.0169 11.5354 11.4033L12.4474 13.1833C12.8716 12.9659 13.4048 12.832 14.261 12.7617C15.129 12.6904 16.2378 12.6896 17.7968 12.6896V10.6896ZM11.5354 11.4033C10.3103 12.031 9.31542 13.0321 8.69225 14.2621L10.4763 15.166C10.9093 14.3114 11.5996 13.6177 12.4474 13.1833L11.5354 11.4033ZM10.041 17.1941C10.1064 16.2147 10.2424 15.6276 10.4763 15.166L8.69225 14.2621C8.28048 15.0748 8.11804 15.9739 8.04547 17.0609L10.041 17.1941ZM31.9545 17.0609C31.882 15.9739 31.7195 15.0748 31.3078 14.2621L29.5237 15.166C29.7576 15.6276 29.8936 16.2147 29.959 17.1941L31.9545 17.0609ZM29.959 17.1941C29.9649 17.283 29.9694 17.351 29.9725 17.4098C29.9755 17.4683 29.9764 17.5056 29.9762 17.5311C29.9758 17.5754 29.9721 17.5541 29.9853 17.5128L31.891 18.1197C32.015 17.7304 31.9729 17.3358 31.9545 17.0609L29.959 17.1941ZM29.9853 17.5128C29.9878 17.5047 29.9899 17.5 29.9908 17.4981C29.9917 17.4962 29.9922 17.4955 29.9923 17.4954C29.9923 17.4953 29.9928 17.4945 29.9942 17.4927C29.9956 17.491 29.9991 17.4869 30.0054 17.4808L31.3847 18.9292C31.6151 18.7098 31.7946 18.4224 31.891 18.1197L29.9853 17.5128ZM8.04547 17.0609C8.02711 17.3358 7.98503 17.7304 8.10904 18.1197L10.0147 17.5128C10.0279 17.5541 10.0242 17.5754 10.0238 17.5311C10.0236 17.5056 10.0245 17.4683 10.0275 17.4098C10.0306 17.351 10.0351 17.283 10.041 17.1941L8.04547 17.0609ZM8.10904 18.1197C8.20544 18.4224 8.38495 18.7098 8.61534 18.9292L9.99456 17.4808C10.0009 17.4869 10.0044 17.491 10.0058 17.4927C10.0072 17.4944 10.0077 17.4953 10.0077 17.4954C10.0078 17.4955 10.0083 17.4962 10.0092 17.4981C10.0101 17.5 10.0122 17.5047 10.0147 17.5128L8.10904 18.1197ZM19.541 20.9984H20.459V18.9984H19.541V20.9984ZM20.836 21.3832V23.2296H22.836V21.3832H20.836ZM20.459 23.6144H19.541V25.6144H20.459V23.6144ZM19.164 23.2296V21.3832H17.164V23.2296H19.164ZM19.541 23.6144C19.3381 23.6144 19.164 23.4474 19.164 23.2296H17.164C17.164 24.5413 18.2229 25.6144 19.541 25.6144V23.6144ZM20.836 23.2296C20.836 23.4474 20.6619 23.6144 20.459 23.6144V25.6144C21.7771 25.6144 22.836 24.5413 22.836 23.2296H20.836ZM20.459 20.9984C20.6619 20.9984 20.836 21.1653 20.836 21.3832H22.836C22.836 20.0714 21.7771 18.9984 20.459 18.9984V20.9984ZM19.541 18.9984C18.2229 18.9984 17.164 20.0714 17.164 21.3832H19.164C19.164 21.1653 19.3381 20.9984 19.541 20.9984V18.9984ZM19.098 9H20.9341V7H19.098V9ZM22.6881 10.7696V11.6928H24.6881V10.7696H22.6881ZM15.344 10.7696V11.6928H17.344V10.7696H15.344ZM20.9341 9C21.8975 9 22.6881 9.78695 22.6881 10.7696H24.6881C24.6881 8.69304 23.0127 7 20.9341 7V9ZM19.098 7C17.0194 7 15.344 8.69304 15.344 10.7696H17.344C17.344 9.78695 18.1346 9 19.098 9V7ZM22.4402 20.7327L21.6746 20.8579L21.9975 22.8317L22.7631 22.7064L22.4402 20.7327ZM31.1578 19.1088L31.2983 19.0025L30.0918 17.4075L29.9512 17.5138L31.1578 19.1088ZM17.2369 22.7064L18.0025 22.8317L18.3254 20.8579L17.5598 20.7327L17.2369 22.7064ZM10.0488 17.5138L9.90822 17.4075L8.70168 19.0025L8.84223 19.1088L10.0488 17.5138ZM17.5598 20.7327C14.8317 20.2864 12.2535 19.1815 10.0488 17.5138L8.84223 19.1088C11.3063 20.9727 14.1878 22.2076 17.2369 22.7064L17.5598 20.7327ZM22.7631 22.7064C25.8122 22.2076 28.6937 20.9727 31.1578 19.1088L29.9512 17.5138C27.7465 19.1815 25.1683 20.2864 22.4402 20.7327L22.7631 22.7064ZM31.9999 22.7555L31.938 17.8038L29.9382 17.8287L30 22.7805L31.9999 22.7555ZM10 22.7756L10.0432 17.1351L8.04328 17.1198L8.00007 22.7603L10 22.7756Z" fill="white"/>
</svg>
