<svg width="32" height="32" viewBox="0 0 32 32" fill="none" xmlns="http://www.w3.org/2000/svg">
<path d="M17.6 6.40002H16.96C13.8237 6.40002 12.2556 6.40002 11.0577 7.01039C10.0039 7.54728 9.14725 8.40397 8.61036 9.45768C8 10.6556 8 12.2237 8 15.36V19.2M16.8889 9.60002H18.3111C20.3024 9.60002 21.2981 9.60002 22.0586 9.99636C22.7277 10.345 23.2716 10.9013 23.6125 11.5855C24 12.3634 24 13.3817 24 15.4182V19.7818C24 21.8184 24 22.8367 23.6125 23.6145C23.2716 24.2988 22.7277 24.8551 22.0586 25.2037C21.2981 25.6 20.3024 25.6 18.3111 25.6H16.8889C14.8976 25.6 13.9019 25.6 13.1414 25.2037C12.4723 24.8551 11.9284 24.2988 11.5875 23.6145C11.2 22.8367 11.2 21.8184 11.2 19.7818V15.4182C11.2 13.3817 11.2 12.3634 11.5875 11.5855C11.9284 10.9013 12.4723 10.345 13.1414 9.99636C13.9019 9.60002 14.8976 9.60002 16.8889 9.60002Z" stroke="white" stroke-width="1.7" stroke-linecap="round"/>
</svg>
