<svg width="28" height="28" viewBox="0 0 28 28" fill="none" xmlns="http://www.w3.org/2000/svg">
<g clip-path="url(#clip0_1508_18137)">
<g filter="url(#filter0_d_1508_18137)">
<path d="M7.00092 1.40039C7.00466 2.16971 7.02358 2.62307 7.11926 3.00873C7.44289 4.31317 8.38631 5.33206 9.59413 5.68159C10.0392 5.81039 10.5817 5.81039 11.6667 5.81039H16.3333C17.4183 5.81039 17.9608 5.81039 18.4059 5.68159C19.6137 5.33206 20.5571 4.31317 20.8807 3.00873C20.9764 2.62307 20.9953 2.16971 20.9991 1.40039M20.9991 26.6004C20.9953 25.8311 20.9764 25.3777 20.8807 24.9921C20.5571 23.6876 19.6137 22.6687 18.4059 22.3192C17.9608 22.1904 17.4183 22.1904 16.3333 22.1904H11.6667C10.5817 22.1904 10.0392 22.1904 9.59413 22.3192C8.38631 22.6687 7.44289 23.6876 7.11926 24.9921C7.02358 25.3777 7.00466 25.8311 7.00092 26.6004M11.6667 19.0404H16.3333C17.4183 19.0404 17.9608 19.0404 18.4059 18.9116C19.6137 18.5621 20.5571 17.5432 20.8807 16.2387C21 15.758 21 15.1722 21 14.0004C21 12.8286 21 12.2427 20.8807 11.7621C20.5571 10.4576 19.6137 9.43872 18.4059 9.08919C17.9608 8.96039 17.4183 8.96039 16.3333 8.96039H11.6667C10.5817 8.96039 10.0392 8.96039 9.59413 9.08919C8.38631 9.43872 7.44289 10.4576 7.11926 11.7621C7 12.2427 7 12.8286 7 14.0004C7 15.1722 7 15.758 7.11926 16.2387C7.44289 17.5432 8.38631 18.5621 9.59413 18.9116C10.0392 19.0404 10.5817 19.0404 11.6667 19.0404Z" stroke="#6137DB" stroke-width="1.7" shape-rendering="crispEdges"/>
</g>
</g>
<defs>
<filter id="filter0_d_1508_18137" x="2.1499" y="1.39624" width="23.7002" height="33.2083" filterUnits="userSpaceOnUse" color-interpolation-filters="sRGB">
<feFlood flood-opacity="0" result="BackgroundImageFix"/>
<feColorMatrix in="SourceAlpha" type="matrix" values="0 0 0 0 0 0 0 0 0 0 0 0 0 0 0 0 0 0 127 0" result="hardAlpha"/>
<feOffset dy="4"/>
<feGaussianBlur stdDeviation="2"/>
<feComposite in2="hardAlpha" operator="out"/>
<feColorMatrix type="matrix" values="0 0 0 0 0 0 0 0 0 0 0 0 0 0 0 0 0 0 0.25 0"/>
<feBlend mode="normal" in2="BackgroundImageFix" result="effect1_dropShadow_1508_18137"/>
<feBlend mode="normal" in="SourceGraphic" in2="effect1_dropShadow_1508_18137" result="shape"/>
</filter>
<clipPath id="clip0_1508_18137">
<rect width="28" height="28" fill="white"/>
</clipPath>
</defs>
</svg>
