<svg width="20" height="20" viewBox="0 0 20 20" fill="none" xmlns="http://www.w3.org/2000/svg">
<path d="M12.8002 7.20002L10.0002 10M10.0002 10L7.20021 12.8M10.0002 10L7.20021 7.20002M10.0002 10L12.8002 12.8M18.4001 10.0001C18.4001 14.6393 14.6393 18.4001 10.0001 18.4001C5.36091 18.4001 1.6001 14.6393 1.6001 10.0001C1.6001 5.36091 5.36091 1.6001 10.0001 1.6001C14.6393 1.6001 18.4001 5.36091 18.4001 10.0001Z" stroke="#4A525D" stroke-width="1.7" stroke-linecap="round"/>
<path d="M12.8002 7.20002L10.0002 10M10.0002 10L7.20021 12.8M10.0002 10L7.20021 7.20002M10.0002 10L12.8002 12.8M18.4001 10.0001C18.4001 14.6393 14.6393 18.4001 10.0001 18.4001C5.36091 18.4001 1.6001 14.6393 1.6001 10.0001C1.6001 5.36091 5.36091 1.6001 10.0001 1.6001C14.6393 1.6001 18.4001 5.36091 18.4001 10.0001Z" stroke="black" stroke-opacity="0.2" stroke-width="1.7" stroke-linecap="round"/>
</svg>
