<svg width="20" height="20" viewBox="0 0 20 20" fill="none" xmlns="http://www.w3.org/2000/svg">
<path d="M7.37386 4.53674C8.65616 2.63327 9.29732 1.68154 10.1925 1.60621C10.2971 1.59741 10.4022 1.59741 10.5067 1.60621C11.4019 1.68154 12.0431 2.63327 13.3254 4.53674C13.6705 5.04906 13.8431 5.30521 14.0818 5.49005C14.1115 5.51298 14.1418 5.53502 14.1727 5.55614C14.4221 5.72633 14.7188 5.81146 15.3122 5.98171C17.517 6.61425 18.6194 6.93052 18.9676 7.75948C19.0083 7.85628 19.0408 7.95631 19.0647 8.05854C19.2698 8.93406 18.5636 9.83854 17.1514 11.6475C16.7712 12.1344 16.5812 12.3778 16.4794 12.6622C16.4667 12.6975 16.4551 12.7332 16.4446 12.7692C16.36 13.0592 16.3708 13.368 16.3924 13.9855C16.4728 16.2799 16.5129 17.4271 15.8329 18.0148C15.7535 18.0834 15.6685 18.1452 15.5788 18.1996C14.8103 18.6653 13.7327 18.2726 11.5776 17.4871C10.9975 17.2757 10.7075 17.17 10.4058 17.161C10.3683 17.1599 10.3309 17.1599 10.2934 17.161C9.99174 17.17 9.70171 17.2757 9.12165 17.4871C6.96651 18.2726 5.88894 18.6653 5.12046 18.1996C5.03073 18.1452 4.94571 18.0834 4.86631 18.0148C4.1863 17.4271 4.22646 16.2799 4.30678 13.9855C4.3284 13.368 4.33921 13.0592 4.25458 12.7692C4.24408 12.7332 4.2325 12.6975 4.21986 12.6622C4.11803 12.3778 3.92798 12.1344 3.54786 11.6475C2.13559 9.83854 1.42946 8.93406 1.63452 8.05854C1.65846 7.95631 1.69094 7.85628 1.73159 7.75948C2.07981 6.93052 3.1822 6.61425 5.38698 5.98171C5.9804 5.81146 6.27711 5.72633 6.52651 5.55614C6.55745 5.53502 6.58776 5.51298 6.61738 5.49005C6.85616 5.30521 7.02872 5.04906 7.37386 4.53674Z" stroke="#4A525D" stroke-width="1.7"/>
<path d="M7.37386 4.53674C8.65616 2.63327 9.29732 1.68154 10.1925 1.60621C10.2971 1.59741 10.4022 1.59741 10.5067 1.60621C11.4019 1.68154 12.0431 2.63327 13.3254 4.53674C13.6705 5.04906 13.8431 5.30521 14.0818 5.49005C14.1115 5.51298 14.1418 5.53502 14.1727 5.55614C14.4221 5.72633 14.7188 5.81146 15.3122 5.98171C17.517 6.61425 18.6194 6.93052 18.9676 7.75948C19.0083 7.85628 19.0408 7.95631 19.0647 8.05854C19.2698 8.93406 18.5636 9.83854 17.1514 11.6475C16.7712 12.1344 16.5812 12.3778 16.4794 12.6622C16.4667 12.6975 16.4551 12.7332 16.4446 12.7692C16.36 13.0592 16.3708 13.368 16.3924 13.9855C16.4728 16.2799 16.5129 17.4271 15.8329 18.0148C15.7535 18.0834 15.6685 18.1452 15.5788 18.1996C14.8103 18.6653 13.7327 18.2726 11.5776 17.4871C10.9975 17.2757 10.7075 17.17 10.4058 17.161C10.3683 17.1599 10.3309 17.1599 10.2934 17.161C9.99174 17.17 9.70171 17.2757 9.12165 17.4871C6.96651 18.2726 5.88894 18.6653 5.12046 18.1996C5.03073 18.1452 4.94571 18.0834 4.86631 18.0148C4.1863 17.4271 4.22646 16.2799 4.30678 13.9855C4.3284 13.368 4.33921 13.0592 4.25458 12.7692C4.24408 12.7332 4.2325 12.6975 4.21986 12.6622C4.11803 12.3778 3.92798 12.1344 3.54786 11.6475C2.13559 9.83854 1.42946 8.93406 1.63452 8.05854C1.65846 7.95631 1.69094 7.85628 1.73159 7.75948C2.07981 6.93052 3.1822 6.61425 5.38698 5.98171C5.9804 5.81146 6.27711 5.72633 6.52651 5.55614C6.55745 5.53502 6.58776 5.51298 6.61738 5.49005C6.85616 5.30521 7.02872 5.04906 7.37386 4.53674Z" stroke="black" stroke-opacity="0.2" stroke-width="1.7"/>
</svg>
