<svg width="28" height="28" viewBox="0 0 28 28" fill="none" xmlns="http://www.w3.org/2000/svg">
<path d="M11.3739 8.53674C12.6562 6.63327 13.2973 5.68154 14.1925 5.60621C14.2971 5.59741 14.4022 5.59741 14.5067 5.60621C15.4019 5.68154 16.0431 6.63327 17.3254 8.53674C17.6705 9.04906 17.8431 9.30521 18.0818 9.49005C18.1115 9.51298 18.1418 9.53502 18.1727 9.55614C18.4221 9.72633 18.7188 9.81146 19.3122 9.98171C21.517 10.6142 22.6194 10.9305 22.9676 11.7595C23.0083 11.8563 23.0408 11.9563 23.0647 12.0585C23.2698 12.9341 22.5636 13.8385 21.1514 15.6475C20.7712 16.1344 20.5812 16.3778 20.4794 16.6622C20.4667 16.6975 20.4551 16.7332 20.4446 16.7692C20.36 17.0592 20.3708 17.368 20.3924 17.9855C20.4728 20.2799 20.5129 21.4271 19.8329 22.0148C19.7535 22.0834 19.6685 22.1452 19.5788 22.1996C18.8103 22.6653 17.7327 22.2726 15.5776 21.4871C14.9975 21.2757 14.7075 21.17 14.4058 21.161C14.3683 21.1599 14.3309 21.1599 14.2934 21.161C13.9917 21.17 13.7017 21.2757 13.1217 21.4871C10.9665 22.2726 9.88894 22.6653 9.12046 22.1996C9.03073 22.1452 8.94571 22.0834 8.86631 22.0148C8.1863 21.4271 8.22646 20.2799 8.30678 17.9855C8.3284 17.368 8.33921 17.0592 8.25458 16.7692C8.24408 16.7332 8.2325 16.6975 8.21986 16.6622C8.11803 16.3778 7.92798 16.1344 7.54786 15.6475C6.13559 13.8385 5.42946 12.9341 5.63452 12.0585C5.65846 11.9563 5.69094 11.8563 5.73159 11.7595C6.07981 10.9305 7.1822 10.6142 9.38698 9.98171C9.9804 9.81146 10.2771 9.72633 10.5265 9.55614C10.5575 9.53502 10.5878 9.51298 10.6174 9.49005C10.8562 9.30521 11.0287 9.04906 11.3739 8.53674Z" stroke="#4A525D" stroke-width="1.7"/>
</svg>
