<svg width="22" height="20" viewBox="0 0 22 20" fill="none" xmlns="http://www.w3.org/2000/svg">
<path d="M4.65708 18.5452L4.93031 17.7403L4.65708 18.5452ZM1.65473 15.5429L2.45962 15.2696L1.65473 15.5429ZM20.3453 15.5429L19.5404 15.2696L20.3453 15.5429ZM17.3429 18.5452L17.0697 17.7403L17.3429 18.5452ZM17.3429 5.45469L17.0697 6.25958L17.3429 5.45469ZM20.3453 8.45704L19.5404 8.73027L20.3453 8.45704ZM4.65708 5.45469L4.93031 6.25958L4.65708 5.45469ZM1.65473 8.45704L2.45962 8.73027L1.65473 8.45704ZM8.19999 6.04995H13.8V4.34995H8.19999V6.04995ZM13.8 17.95H8.19999V19.65H13.8V17.95ZM8.19999 17.95C6.26928 17.95 5.51435 17.9386 4.93031 17.7403L4.38386 19.3501C5.30067 19.6613 6.4074 19.65 8.19999 19.65V17.95ZM0.549994 12C0.549994 13.7926 0.538623 14.8993 0.849839 15.8161L2.45962 15.2696C2.26136 14.6856 2.24999 13.9307 2.24999 12H0.549994ZM4.93031 17.7403C3.76746 17.3456 2.85435 16.4325 2.45962 15.2696L0.849839 15.8161C1.41446 17.4794 2.72055 18.7855 4.38386 19.3501L4.93031 17.7403ZM19.75 12C19.75 13.9307 19.7386 14.6856 19.5404 15.2696L21.1502 15.8161C21.4614 14.8993 21.45 13.7925 21.45 12H19.75ZM13.8 19.65C15.5926 19.65 16.6993 19.6613 17.6161 19.3501L17.0697 17.7403C16.4856 17.9386 15.7307 17.95 13.8 17.95V19.65ZM19.5404 15.2696C19.1456 16.4325 18.2325 17.3456 17.0697 17.7403L17.6161 19.3501C19.2794 18.7855 20.5855 17.4794 21.1502 15.8161L19.5404 15.2696ZM13.8 6.04995C15.7307 6.04995 16.4856 6.06132 17.0697 6.25958L17.6161 4.6498C16.6993 4.33858 15.5926 4.34995 13.8 4.34995V6.04995ZM21.45 12C21.45 10.2074 21.4614 9.10063 21.1502 8.18382L19.5404 8.73027C19.7386 9.31431 19.75 10.0692 19.75 12H21.45ZM17.0697 6.25958C18.2325 6.65431 19.1456 7.56742 19.5404 8.73027L21.1502 8.18382C20.5855 6.52051 19.2794 5.21441 17.6161 4.6498L17.0697 6.25958ZM8.19999 4.34995C6.4074 4.34995 5.30067 4.33858 4.38386 4.6498L4.93031 6.25958C5.51435 6.06132 6.26928 6.04995 8.19999 6.04995V4.34995ZM2.24999 12C2.24999 10.0692 2.26136 9.31431 2.45962 8.73027L0.849839 8.18382C0.538623 9.10063 0.549994 10.2074 0.549994 12H2.24999ZM4.38386 4.6498C2.72055 5.21441 1.41446 6.52051 0.849839 8.18382L2.45962 8.73027C2.85435 7.56742 3.76746 6.65431 4.93031 6.25958L4.38386 4.6498ZM10.2 2.04995H11.8V0.349951H10.2V2.04995ZM13.35 3.59995V5.19995H15.05V3.59995H13.35ZM6.94999 3.59995V5.19995H8.64999V3.59995H6.94999ZM11.8 2.04995C12.656 2.04995 13.35 2.74391 13.35 3.59995H15.05C15.05 1.80503 13.5949 0.349951 11.8 0.349951V2.04995ZM10.2 0.349951C8.40507 0.349951 6.94999 1.80503 6.94999 3.59995H8.64999C8.64999 2.74391 9.34395 2.04995 10.2 2.04995V0.349951Z" fill="#170D23" fill-opacity="0.64"/>
<path d="M7 8.39998C7 8.25129 7 8.17694 7.0123 8.11512C7.0628 7.86124 7.26126 7.66277 7.51514 7.61227C7.57697 7.59998 7.65131 7.59998 7.8 7.59998C7.94869 7.59998 8.02303 7.59998 8.08486 7.61227C8.33874 7.66277 8.5372 7.86124 8.5877 8.11512C8.6 8.17694 8.6 8.25129 8.6 8.39998C8.6 8.54867 8.6 8.62301 8.5877 8.68483C8.5372 8.93872 8.33874 9.13718 8.08486 9.18768C8.02303 9.19998 7.94869 9.19998 7.8 9.19998C7.65131 9.19998 7.57697 9.19998 7.51514 9.18768C7.26126 9.13718 7.0628 8.93872 7.0123 8.68483C7 8.62301 7 8.54867 7 8.39998Z" fill="#170D23" fill-opacity="0.64"/>
<path d="M13.4 8.39998C13.4 8.25129 13.4 8.17694 13.4123 8.11512C13.4628 7.86124 13.6613 7.66277 13.9151 7.61227C13.977 7.59998 14.0513 7.59998 14.2 7.59998C14.3487 7.59998 14.423 7.59998 14.4849 7.61227C14.7387 7.66277 14.9372 7.86124 14.9877 8.11512C15 8.17694 15 8.25129 15 8.39998C15 8.54867 15 8.62301 14.9877 8.68483C14.9372 8.93872 14.7387 9.13718 14.4849 9.18768C14.423 9.19998 14.3487 9.19998 14.2 9.19998C14.0513 9.19998 13.977 9.19998 13.9151 9.18768C13.6613 9.13718 13.4628 8.93872 13.4123 8.68483C13.4 8.62301 13.4 8.54867 13.4 8.39998Z" fill="#170D23" fill-opacity="0.64"/>
</svg>
