<svg width="19" height="20" viewBox="0 0 19 20" fill="none" xmlns="http://www.w3.org/2000/svg">
<path d="M5.72304 10.1819C5.40348 9.83797 4.86565 9.81826 4.52177 10.1378C4.17789 10.4574 4.15817 10.9952 4.47774 11.3391L5.72304 10.1819ZM7.64585 13.4996L7.02319 14.0782C7.18401 14.2513 7.4096 14.3496 7.64585 14.3496C7.88209 14.3496 8.10768 14.2513 8.2685 14.0782L7.64585 13.4996ZM14.123 7.77823C14.4426 7.43435 14.4229 6.89652 14.079 6.57696C13.7351 6.25739 13.1973 6.2771 12.8777 6.62098L14.123 7.77823ZM4.47774 11.3391L7.02319 14.0782L8.2685 12.921L5.72304 10.1819L4.47774 11.3391ZM8.2685 14.0782L14.123 7.77823L12.8777 6.62098L7.02319 12.921L8.2685 14.0782ZM16.8504 9.99961C16.8504 14.1694 13.4701 17.5496 9.30039 17.5496V19.2496C14.409 19.2496 18.5504 15.1082 18.5504 9.99961H16.8504ZM9.30039 17.5496C5.13064 17.5496 1.75039 14.1694 1.75039 9.99961H0.0503906C0.0503906 15.1082 4.19176 19.2496 9.30039 19.2496V17.5496ZM1.75039 9.99961C1.75039 5.82986 5.13064 2.44961 9.30039 2.44961V0.749609C4.19176 0.749609 0.0503906 4.89098 0.0503906 9.99961H1.75039ZM9.30039 2.44961C13.4701 2.44961 16.8504 5.82986 16.8504 9.99961H18.5504C18.5504 4.89098 14.409 0.749609 9.30039 0.749609V2.44961Z" fill="#4A525D"/>
<path d="M5.72304 10.1819C5.40348 9.83797 4.86565 9.81826 4.52177 10.1378C4.17789 10.4574 4.15817 10.9952 4.47774 11.3391L5.72304 10.1819ZM7.64585 13.4996L7.02319 14.0782C7.18401 14.2513 7.4096 14.3496 7.64585 14.3496C7.88209 14.3496 8.10768 14.2513 8.2685 14.0782L7.64585 13.4996ZM14.123 7.77823C14.4426 7.43435 14.4229 6.89652 14.079 6.57696C13.7351 6.25739 13.1973 6.2771 12.8777 6.62098L14.123 7.77823ZM4.47774 11.3391L7.02319 14.0782L8.2685 12.921L5.72304 10.1819L4.47774 11.3391ZM8.2685 14.0782L14.123 7.77823L12.8777 6.62098L7.02319 12.921L8.2685 14.0782ZM16.8504 9.99961C16.8504 14.1694 13.4701 17.5496 9.30039 17.5496V19.2496C14.409 19.2496 18.5504 15.1082 18.5504 9.99961H16.8504ZM9.30039 17.5496C5.13064 17.5496 1.75039 14.1694 1.75039 9.99961H0.0503906C0.0503906 15.1082 4.19176 19.2496 9.30039 19.2496V17.5496ZM1.75039 9.99961C1.75039 5.82986 5.13064 2.44961 9.30039 2.44961V0.749609C4.19176 0.749609 0.0503906 4.89098 0.0503906 9.99961H1.75039ZM9.30039 2.44961C13.4701 2.44961 16.8504 5.82986 16.8504 9.99961H18.5504C18.5504 4.89098 14.409 0.749609 9.30039 0.749609V2.44961Z" fill="black" fill-opacity="0.2"/>
</svg>
