<svg width="24" height="25" viewBox="0 0 24 25" stroke="#fff" xmlns="http://www.w3.org/2000/svg">
<path d="M8.47333 3.77329L8.63333 3.85329C9.28 4.18662 9.80666 4.71329 10.14 5.35996L10.22 5.51996C10.54 6.15329 11.4467 6.15329 11.7733 5.51996L11.8533 5.35996C12.1867 4.71329 12.7133 4.18662 13.36 3.85329L13.52 3.77329C14.1533 3.45329 14.1533 2.54662 13.52 2.21996L13.36 2.13996C12.7133 1.80662 12.1867 1.27996 11.8533 0.633291L11.7733 0.473291C11.4533 -0.160042 10.5467 -0.160042 10.22 0.473291L10.14 0.633291C9.80666 1.27996 9.28 1.80662 8.63333 2.13996L8.47333 2.21996C7.84 2.53996 7.84 3.44662 8.47333 3.77329Z" stroke="#fff" fill="#fff" />
<path d="M9.73333 10.02C10.3867 9.68663 10.3867 8.75996 9.73333 8.42662L8.76 7.92662C7.89333 7.47996 7.18666 6.77329 6.74 5.90662L6.24 4.93329C5.90666 4.27996 4.98 4.27996 4.64666 4.93329L4.14666 5.90662C3.7 6.77329 2.99333 7.47996 2.12666 7.92662L1.15333 8.42662C0.499997 8.75996 0.499997 9.68663 1.15333 10.02L2.12666 10.52C2.99333 10.9666 3.7 11.6733 4.14666 12.54L4.64666 13.5133C4.98 14.1666 5.90666 14.1666 6.24 13.5133L6.74 12.54C7.18666 11.6733 7.89333 10.9666 8.76 10.52L9.73333 10.02Z" stroke="#fff" fill="#fff" />
<path d="M22.24 14.0066L21.2533 13.5C20.06 12.8933 19.1067 11.94 18.5 10.7466L17.9933 9.75996C17.5467 8.87996 16.6533 8.33329 15.6667 8.33329C14.68 8.33329 13.7867 8.87996 13.34 9.75996L12.8333 10.7466C12.2267 11.94 11.2733 12.8933 10.08 13.5L9.09333 14.0066C8.21333 14.4533 7.66666 15.3466 7.66666 16.3333C7.66666 17.32 8.21333 18.2133 9.09333 18.66L10.08 19.1666C11.2733 19.7733 12.2267 20.7266 12.8333 21.92L13.34 22.9066C13.7867 23.7866 14.68 24.3333 15.6667 24.3333C16.6533 24.3333 17.5467 23.7866 17.9933 22.9066L18.5 21.92C19.1067 20.7266 20.06 19.7733 21.2533 19.1666L22.24 18.66C23.12 18.2133 23.6667 17.32 23.6667 16.3333C23.6667 15.3466 23.12 14.4533 22.24 14.0066ZM21.3333 16.88L20.3467 17.3866C18.7733 18.1866 17.52 19.44 16.72 21.0133L16.2133 22C16.06 22.3 15.78 22.3333 15.6667 22.3333C15.5533 22.3333 15.2733 22.3 15.12 22L14.6133 21.0133C13.8133 19.44 12.56 18.1866 10.9867 17.3866L10 16.88C9.7 16.7266 9.66666 16.4466 9.66666 16.3333C9.66666 16.22 9.7 15.94 10 15.7866L10.9867 15.28C12.56 14.48 13.8133 13.2266 14.6133 11.6533L15.12 10.6666C15.2733 10.3666 15.5533 10.3333 15.6667 10.3333C15.78 10.3333 16.06 10.3666 16.2133 10.6666L16.72 11.6533C17.52 13.2266 18.7733 14.48 20.3467 15.28L21.3333 15.7866C21.6333 15.94 21.6667 16.22 21.6667 16.3333C21.6667 16.4466 21.6333 16.7266 21.3333 16.88Z" stroke="#fff" fill="#fff" />
</svg>
