<svg width="20" height="20" viewBox="0 0 20 20" fill="none" xmlns="http://www.w3.org/2000/svg">
<path d="M1.6 5.12458C1.6 4.00763 1.6 3.44915 1.78732 3.01056C2.02202 2.46105 2.4587 2.02323 3.00677 1.78791C3.44421 1.6001 4.00123 1.6001 5.11526 1.6001C6.22929 1.6001 6.7863 1.6001 7.22374 1.78791C7.77181 2.02323 8.20849 2.46105 8.44319 3.01056C8.63051 3.44915 8.63051 4.00763 8.63051 5.12458C8.63051 6.24154 8.63051 6.80002 8.44319 7.2386C8.20849 7.78811 7.77181 8.22594 7.22374 8.46125C6.7863 8.64907 6.22929 8.64907 5.11526 8.64907C4.00123 8.64907 3.44421 8.64907 3.00677 8.46125C2.4587 8.22594 2.02202 7.78811 1.78732 7.2386C1.6 6.80002 1.6 6.24154 1.6 5.12458Z" stroke="#6137DB" stroke-width="1.7"/>
<path d="M11.3695 5.12458C11.3695 4.00763 11.3695 3.44915 11.5568 3.01056C11.7915 2.46105 12.2282 2.02323 12.7763 1.78791C13.2137 1.6001 13.7707 1.6001 14.8847 1.6001C15.9988 1.6001 16.5558 1.6001 16.9932 1.78791C17.5413 2.02323 17.978 2.46105 18.2127 3.01056C18.4 3.44915 18.4 4.00763 18.4 5.12458C18.4 6.24154 18.4 6.80002 18.2127 7.2386C17.978 7.78811 17.5413 8.22594 16.9932 8.46125C16.5558 8.64907 15.9988 8.64907 14.8847 8.64907C13.7707 8.64907 13.2137 8.64907 12.7763 8.46125C12.2282 8.22594 11.7915 7.78811 11.5568 7.2386C11.3695 6.80002 11.3695 6.24154 11.3695 5.12458Z" stroke="#6137DB" stroke-width="1.7"/>
<path d="M11.3695 14.8756C11.3695 13.7587 11.3695 13.2002 11.5568 12.7616C11.7915 12.2121 12.2282 11.7743 12.7763 11.5389C13.2137 11.3511 13.7707 11.3511 14.8847 11.3511C15.9988 11.3511 16.5558 11.3511 16.9932 11.5389C17.5413 11.7743 17.978 12.2121 18.2127 12.7616C18.4 13.2002 18.4 13.7587 18.4 14.8756C18.4 15.9926 18.4 16.551 18.2127 16.9896C17.978 17.5391 17.5413 17.977 16.9932 18.2123C16.5558 18.4001 15.9988 18.4001 14.8847 18.4001C13.7707 18.4001 13.2137 18.4001 12.7763 18.2123C12.2282 17.977 11.7915 17.5391 11.5568 16.9896C11.3695 16.551 11.3695 15.9926 11.3695 14.8756Z" stroke="#6137DB" stroke-width="1.7"/>
<path d="M1.6 14.8756C1.6 13.7587 1.6 13.2002 1.78732 12.7616C2.02202 12.2121 2.4587 11.7743 3.00677 11.5389C3.44421 11.3511 4.00123 11.3511 5.11526 11.3511C6.22929 11.3511 6.7863 11.3511 7.22374 11.5389C7.77181 11.7743 8.20849 12.2121 8.44319 12.7616C8.63051 13.2002 8.63051 13.7587 8.63051 14.8756C8.63051 15.9926 8.63051 16.551 8.44319 16.9896C8.20849 17.5391 7.77181 17.977 7.22374 18.2123C6.7863 18.4001 6.22929 18.4001 5.11526 18.4001C4.00123 18.4001 3.44421 18.4001 3.00677 18.2123C2.4587 17.977 2.02202 17.5391 1.78732 16.9896C1.6 16.551 1.6 15.9926 1.6 14.8756Z" stroke="#6137DB" stroke-width="1.7"/>
</svg>
