<svg width="20" height="20" viewBox="0 0 20 20" fill="none" xmlns="http://www.w3.org/2000/svg">
<path d="M1.6001 5.12458C1.6001 4.00763 1.6001 3.44915 1.78742 3.01056C2.02212 2.46105 2.4588 2.02323 3.00687 1.78791C3.44431 1.6001 4.00132 1.6001 5.11535 1.6001C6.22938 1.6001 6.7864 1.6001 7.22384 1.78791C7.77191 2.02323 8.20859 2.46105 8.44329 3.01056C8.63061 3.44915 8.63061 4.00763 8.63061 5.12458C8.63061 6.24154 8.63061 6.80002 8.44329 7.2386C8.20859 7.78811 7.77191 8.22594 7.22384 8.46125C6.7864 8.64907 6.22938 8.64907 5.11535 8.64907C4.00132 8.64907 3.44431 8.64907 3.00687 8.46125C2.4588 8.22594 2.02212 7.78811 1.78742 7.2386C1.6001 6.80002 1.6001 6.24154 1.6001 5.12458Z" stroke="#4A525D" stroke-width="1.7"/>
<path d="M1.6001 5.12458C1.6001 4.00763 1.6001 3.44915 1.78742 3.01056C2.02212 2.46105 2.4588 2.02323 3.00687 1.78791C3.44431 1.6001 4.00132 1.6001 5.11535 1.6001C6.22938 1.6001 6.7864 1.6001 7.22384 1.78791C7.77191 2.02323 8.20859 2.46105 8.44329 3.01056C8.63061 3.44915 8.63061 4.00763 8.63061 5.12458C8.63061 6.24154 8.63061 6.80002 8.44329 7.2386C8.20859 7.78811 7.77191 8.22594 7.22384 8.46125C6.7864 8.64907 6.22938 8.64907 5.11535 8.64907C4.00132 8.64907 3.44431 8.64907 3.00687 8.46125C2.4588 8.22594 2.02212 7.78811 1.78742 7.2386C1.6001 6.80002 1.6001 6.24154 1.6001 5.12458Z" stroke="black" stroke-opacity="0.2" stroke-width="1.7"/>
<path d="M11.3696 5.12458C11.3696 4.00763 11.3696 3.44915 11.5569 3.01056C11.7916 2.46105 12.2283 2.02323 12.7764 1.78791C13.2138 1.6001 13.7708 1.6001 14.8848 1.6001C15.9989 1.6001 16.5559 1.6001 16.9933 1.78791C17.5414 2.02323 17.9781 2.46105 18.2128 3.01056C18.4001 3.44915 18.4001 4.00763 18.4001 5.12458C18.4001 6.24154 18.4001 6.80002 18.2128 7.2386C17.9781 7.78811 17.5414 8.22594 16.9933 8.46125C16.5559 8.64907 15.9989 8.64907 14.8848 8.64907C13.7708 8.64907 13.2138 8.64907 12.7764 8.46125C12.2283 8.22594 11.7916 7.78811 11.5569 7.2386C11.3696 6.80002 11.3696 6.24154 11.3696 5.12458Z" stroke="#4A525D" stroke-width="1.7"/>
<path d="M11.3696 5.12458C11.3696 4.00763 11.3696 3.44915 11.5569 3.01056C11.7916 2.46105 12.2283 2.02323 12.7764 1.78791C13.2138 1.6001 13.7708 1.6001 14.8848 1.6001C15.9989 1.6001 16.5559 1.6001 16.9933 1.78791C17.5414 2.02323 17.9781 2.46105 18.2128 3.01056C18.4001 3.44915 18.4001 4.00763 18.4001 5.12458C18.4001 6.24154 18.4001 6.80002 18.2128 7.2386C17.9781 7.78811 17.5414 8.22594 16.9933 8.46125C16.5559 8.64907 15.9989 8.64907 14.8848 8.64907C13.7708 8.64907 13.2138 8.64907 12.7764 8.46125C12.2283 8.22594 11.7916 7.78811 11.5569 7.2386C11.3696 6.80002 11.3696 6.24154 11.3696 5.12458Z" stroke="black" stroke-opacity="0.2" stroke-width="1.7"/>
<path d="M11.3696 14.8756C11.3696 13.7587 11.3696 13.2002 11.5569 12.7616C11.7916 12.2121 12.2283 11.7743 12.7764 11.5389C13.2138 11.3511 13.7708 11.3511 14.8848 11.3511C15.9989 11.3511 16.5559 11.3511 16.9933 11.5389C17.5414 11.7743 17.9781 12.2121 18.2128 12.7616C18.4001 13.2002 18.4001 13.7587 18.4001 14.8756C18.4001 15.9926 18.4001 16.551 18.2128 16.9896C17.9781 17.5391 17.5414 17.977 16.9933 18.2123C16.5559 18.4001 15.9989 18.4001 14.8848 18.4001C13.7708 18.4001 13.2138 18.4001 12.7764 18.2123C12.2283 17.977 11.7916 17.5391 11.5569 16.9896C11.3696 16.551 11.3696 15.9926 11.3696 14.8756Z" stroke="#4A525D" stroke-width="1.7"/>
<path d="M11.3696 14.8756C11.3696 13.7587 11.3696 13.2002 11.5569 12.7616C11.7916 12.2121 12.2283 11.7743 12.7764 11.5389C13.2138 11.3511 13.7708 11.3511 14.8848 11.3511C15.9989 11.3511 16.5559 11.3511 16.9933 11.5389C17.5414 11.7743 17.9781 12.2121 18.2128 12.7616C18.4001 13.2002 18.4001 13.7587 18.4001 14.8756C18.4001 15.9926 18.4001 16.551 18.2128 16.9896C17.9781 17.5391 17.5414 17.977 16.9933 18.2123C16.5559 18.4001 15.9989 18.4001 14.8848 18.4001C13.7708 18.4001 13.2138 18.4001 12.7764 18.2123C12.2283 17.977 11.7916 17.5391 11.5569 16.9896C11.3696 16.551 11.3696 15.9926 11.3696 14.8756Z" stroke="black" stroke-opacity="0.2" stroke-width="1.7"/>
<path d="M1.6001 14.8756C1.6001 13.7587 1.6001 13.2002 1.78742 12.7616C2.02212 12.2121 2.4588 11.7743 3.00687 11.5389C3.44431 11.3511 4.00132 11.3511 5.11535 11.3511C6.22938 11.3511 6.7864 11.3511 7.22384 11.5389C7.77191 11.7743 8.20859 12.2121 8.44329 12.7616C8.63061 13.2002 8.63061 13.7587 8.63061 14.8756C8.63061 15.9926 8.63061 16.551 8.44329 16.9896C8.20859 17.5391 7.77191 17.977 7.22384 18.2123C6.7864 18.4001 6.22938 18.4001 5.11535 18.4001C4.00132 18.4001 3.44431 18.4001 3.00687 18.2123C2.4588 17.977 2.02212 17.5391 1.78742 16.9896C1.6001 16.551 1.6001 15.9926 1.6001 14.8756Z" stroke="#4A525D" stroke-width="1.7"/>
<path d="M1.6001 14.8756C1.6001 13.7587 1.6001 13.2002 1.78742 12.7616C2.02212 12.2121 2.4588 11.7743 3.00687 11.5389C3.44431 11.3511 4.00132 11.3511 5.11535 11.3511C6.22938 11.3511 6.7864 11.3511 7.22384 11.5389C7.77191 11.7743 8.20859 12.2121 8.44329 12.7616C8.63061 13.2002 8.63061 13.7587 8.63061 14.8756C8.63061 15.9926 8.63061 16.551 8.44329 16.9896C8.20859 17.5391 7.77191 17.977 7.22384 18.2123C6.7864 18.4001 6.22938 18.4001 5.11535 18.4001C4.00132 18.4001 3.44431 18.4001 3.00687 18.2123C2.4588 17.977 2.02212 17.5391 1.78742 16.9896C1.6001 16.551 1.6001 15.9926 1.6001 14.8756Z" stroke="black" stroke-opacity="0.2" stroke-width="1.7"/>
</svg>
