<svg width="28" height="28" viewBox="0 0 28 28" fill="none" xmlns="http://www.w3.org/2000/svg">
<path d="M5.6001 9.12449C5.6001 8.00754 5.6001 7.44906 5.78742 7.01047C6.02212 6.46096 6.4588 6.02313 7.00687 5.78782C7.44431 5.60001 8.00132 5.60001 9.11535 5.60001C10.2294 5.60001 10.7864 5.60001 11.2238 5.78782C11.7719 6.02313 12.2086 6.46096 12.4433 7.01047C12.6306 7.44906 12.6306 8.00754 12.6306 9.12449C12.6306 10.2414 12.6306 10.7999 12.4433 11.2385C12.2086 11.788 11.7719 12.2258 11.2238 12.4612C10.7864 12.649 10.2294 12.649 9.11535 12.649C8.00132 12.649 7.44431 12.649 7.00687 12.4612C6.4588 12.2258 6.02212 11.788 5.78742 11.2385C5.6001 10.7999 5.6001 10.2414 5.6001 9.12449Z" stroke="#4A525D" stroke-width="1.7"/>
<path d="M15.3696 9.12449C15.3696 8.00754 15.3696 7.44906 15.5569 7.01047C15.7916 6.46096 16.2283 6.02313 16.7764 5.78782C17.2138 5.60001 17.7708 5.60001 18.8848 5.60001C19.9989 5.60001 20.5559 5.60001 20.9933 5.78782C21.5414 6.02313 21.9781 6.46096 22.2128 7.01047C22.4001 7.44906 22.4001 8.00754 22.4001 9.12449C22.4001 10.2414 22.4001 10.7999 22.2128 11.2385C21.9781 11.788 21.5414 12.2258 20.9933 12.4612C20.5559 12.649 19.9989 12.649 18.8848 12.649C17.7708 12.649 17.2138 12.649 16.7764 12.4612C16.2283 12.2258 15.7916 11.788 15.5569 11.2385C15.3696 10.7999 15.3696 10.2414 15.3696 9.12449Z" stroke="#4A525D" stroke-width="1.7"/>
<path d="M15.3696 18.8755C15.3696 17.7586 15.3696 17.2001 15.5569 16.7615C15.7916 16.212 16.2283 15.7742 16.7764 15.5388C17.2138 15.351 17.7708 15.351 18.8848 15.351C19.9989 15.351 20.5559 15.351 20.9933 15.5388C21.5414 15.7742 21.9781 16.212 22.2128 16.7615C22.4001 17.2001 22.4001 17.7586 22.4001 18.8755C22.4001 19.9925 22.4001 20.551 22.2128 20.9895C21.9781 21.539 21.5414 21.9769 20.9933 22.2122C20.5559 22.4 19.9989 22.4 18.8848 22.4C17.7708 22.4 17.2138 22.4 16.7764 22.2122C16.2283 21.9769 15.7916 21.539 15.5569 20.9895C15.3696 20.551 15.3696 19.9925 15.3696 18.8755Z" stroke="#4A525D" stroke-width="1.7"/>
<path d="M5.6001 18.8755C5.6001 17.7586 5.6001 17.2001 5.78742 16.7615C6.02212 16.212 6.4588 15.7742 7.00687 15.5388C7.44431 15.351 8.00132 15.351 9.11535 15.351C10.2294 15.351 10.7864 15.351 11.2238 15.5388C11.7719 15.7742 12.2086 16.212 12.4433 16.7615C12.6306 17.2001 12.6306 17.7586 12.6306 18.8755C12.6306 19.9925 12.6306 20.551 12.4433 20.9895C12.2086 21.539 11.7719 21.9769 11.2238 22.2122C10.7864 22.4 10.2294 22.4 9.11535 22.4C8.00132 22.4 7.44431 22.4 7.00687 22.2122C6.4588 21.9769 6.02212 21.539 5.78742 20.9895C5.6001 20.551 5.6001 19.9925 5.6001 18.8755Z" stroke="#4A525D" stroke-width="1.7"/>
</svg>
