<svg width="24" height="25" viewBox="0 0 24 25" fill="none" xmlns="http://www.w3.org/2000/svg">
<path d="M8.47333 3.77354L8.63333 3.85354C9.28 4.18687 9.80666 4.71353 10.14 5.3602L10.22 5.5202C10.54 6.15353 11.4467 6.15353 11.7733 5.5202L11.8533 5.3602C12.1867 4.71353 12.7133 4.18687 13.36 3.85354L13.52 3.77354C14.1533 3.45354 14.1533 2.54687 13.52 2.2202L13.36 2.1402C12.7133 1.80687 12.1867 1.2802 11.8533 0.633535L11.7733 0.473535C11.4533 -0.159798 10.5467 -0.159798 10.22 0.473535L10.14 0.633535C9.80666 1.2802 9.28 1.80687 8.63333 2.1402L8.47333 2.2202C7.84 2.5402 7.84 3.44687 8.47333 3.77354Z" fill="#6137DB"/>
<path d="M9.73333 10.0202C10.3867 9.68687 10.3867 8.7602 9.73333 8.42687L8.76 7.92687C7.89333 7.4802 7.18666 6.77354 6.74 5.90687L6.24 4.93354C5.90666 4.2802 4.98 4.2802 4.64666 4.93354L4.14666 5.90687C3.7 6.77354 2.99333 7.4802 2.12666 7.92687L1.15333 8.42687C0.499997 8.7602 0.499997 9.68687 1.15333 10.0202L2.12666 10.5202C2.99333 10.9669 3.7 11.6735 4.14666 12.5402L4.64666 13.5135C4.98 14.1669 5.90666 14.1669 6.24 13.5135L6.74 12.5402C7.18666 11.6735 7.89333 10.9669 8.76 10.5202L9.73333 10.0202Z" fill="#6137DB"/>
<path d="M22.24 14.0069L21.2533 13.5002C20.06 12.8935 19.1067 11.9402 18.5 10.7469L17.9933 9.7602C17.5467 8.8802 16.6533 8.33354 15.6667 8.33354C14.68 8.33354 13.7867 8.8802 13.34 9.7602L12.8333 10.7469C12.2267 11.9402 11.2733 12.8935 10.08 13.5002L9.09333 14.0069C8.21333 14.4535 7.66666 15.3469 7.66666 16.3335C7.66666 17.3202 8.21333 18.2135 9.09333 18.6602L10.08 19.1669C11.2733 19.7735 12.2267 20.7269 12.8333 21.9202L13.34 22.9069C13.7867 23.7869 14.68 24.3335 15.6667 24.3335C16.6533 24.3335 17.5467 23.7869 17.9933 22.9069L18.5 21.9202C19.1067 20.7269 20.06 19.7735 21.2533 19.1669L22.24 18.6602C23.12 18.2135 23.6667 17.3202 23.6667 16.3335C23.6667 15.3469 23.12 14.4535 22.24 14.0069ZM21.3333 16.8802L20.3467 17.3869C18.7733 18.1869 17.52 19.4402 16.72 21.0135L16.2133 22.0002C16.06 22.3002 15.78 22.3335 15.6667 22.3335C15.5533 22.3335 15.2733 22.3002 15.12 22.0002L14.6133 21.0135C13.8133 19.4402 12.56 18.1869 10.9867 17.3869L10 16.8802C9.7 16.7269 9.66666 16.4469 9.66666 16.3335C9.66666 16.2202 9.7 15.9402 10 15.7869L10.9867 15.2802C12.56 14.4802 13.8133 13.2269 14.6133 11.6535L15.12 10.6669C15.2733 10.3669 15.5533 10.3335 15.6667 10.3335C15.78 10.3335 16.06 10.3669 16.2133 10.6669L16.72 11.6535C17.52 13.2269 18.7733 14.4802 20.3467 15.2802L21.3333 15.7869C21.6333 15.9402 21.6667 16.2202 21.6667 16.3335C21.6667 16.4469 21.6333 16.7269 21.3333 16.8802Z" fill="#6137DB"/>
</svg>
