<svg width="24" height="24" viewBox="0 0 24 24" fill="none" xmlns="http://www.w3.org/2000/svg">
<rect width="24" height="24" rx="12" fill="white"/>
<path d="M9.55288 18.2329C8.75511 17.5011 8.52222 15.9636 8.85459 14.8497C9.43091 15.552 10.2294 15.7745 11.0566 15.9C12.3334 16.0938 13.5875 16.0214 14.7736 15.4357C14.9093 15.3687 15.0347 15.2796 15.1829 15.1892C15.2943 15.5132 15.3232 15.8404 15.2844 16.1733C15.1899 16.9841 14.7877 17.6105 14.1481 18.0852C13.8924 18.2751 13.6217 18.4449 13.3576 18.624C12.5461 19.1743 12.3266 19.8196 12.6315 20.7584C12.6387 20.7812 12.6452 20.8041 12.6616 20.8599C12.2473 20.6738 11.9447 20.403 11.7141 20.0467C11.4705 19.6708 11.3546 19.2549 11.3485 18.8049C11.3454 18.586 11.3454 18.365 11.3161 18.1492C11.2444 17.6229 10.9983 17.3872 10.5344 17.3736C10.0583 17.3597 9.68171 17.655 9.58184 18.1201C9.57422 18.1558 9.56317 18.191 9.55212 18.2325L9.55288 18.2329Z" fill="#FF5D01"/>
<path d="M5 14.664C5 14.664 7.36232 13.5092 9.73123 13.5092L11.5173 7.96262C11.5842 7.69438 11.7794 7.51209 11.9998 7.51209C12.2203 7.51209 12.4155 7.69438 12.4824 7.96262L14.2685 13.5092C17.0741 13.5092 18.9997 14.664 18.9997 14.664C18.9997 14.664 14.9871 3.6953 14.9793 3.67329C14.8641 3.349 14.6697 3.14014 14.4076 3.14014H9.59254C9.33043 3.14014 9.14385 3.349 9.02084 3.67329C9.01218 3.69488 5 14.664 5 14.664Z" fill="#000014"/>
</svg>
