<svg width="32" height="32" viewBox="0 0 32 32" fill="none" xmlns="http://www.w3.org/2000/svg">
<path d="M14.0992 24.7504C13.6298 24.7504 13.2492 25.1309 13.2492 25.6004C13.2492 26.0698 13.6298 26.4504 14.0992 26.4504V24.7504ZM18.6992 26.4504C19.1687 26.4504 19.5492 26.0698 19.5492 25.6004C19.5492 25.1309 19.1687 24.7504 18.6992 24.7504V26.4504ZM11.3228 7.04818L11.5361 7.871L11.3228 7.04818ZM21.4756 7.04818L21.2624 7.871L21.4756 7.04818ZM22.5213 15.6578L21.6727 15.6085L22.5213 15.6578ZM10.2772 15.6578L11.1257 15.6085L10.2772 15.6578ZM15.5492 21.6268V25.6004H17.2492V21.6268H15.5492ZM14.0992 26.4504H18.6992V24.7504H14.0992V26.4504ZM11.5361 7.871C14.7292 7.04352 18.0693 7.04352 21.2624 7.871L21.6888 6.22536C18.216 5.3254 14.5824 5.3254 11.1096 6.22536L11.5361 7.871ZM23.3826 8.4514C23.3826 7.41924 22.7029 6.48815 21.6888 6.22536L21.2624 7.871C21.4907 7.93016 21.6826 8.15615 21.6826 8.4514H23.3826ZM11.1159 8.4514C11.1159 8.15615 11.3078 7.93016 11.5361 7.871L11.1096 6.22536C10.0955 6.48815 9.41589 7.41924 9.41589 8.4514H11.1159ZM24.7492 11.693V14.0771H26.4492V11.693H24.7492ZM24.7492 14.0771C24.7492 14.734 24.2431 15.2139 23.6826 15.2139V16.9139C25.2391 16.9139 26.4492 15.6148 26.4492 14.0771H24.7492ZM23.6826 10.5562C24.2431 10.5562 24.7492 11.0361 24.7492 11.693H26.4492C26.4492 10.1553 25.2391 8.85621 23.6826 8.85621V10.5562ZM8.04922 14.0771V11.693H6.34922V14.0771H8.04922ZM9.11589 15.2139C8.5553 15.2139 8.04922 14.734 8.04922 14.0771H6.34922C6.34922 15.6148 7.55937 16.9139 9.11589 16.9139V15.2139ZM9.11589 8.85621C7.55937 8.85621 6.34922 10.1553 6.34922 11.693H8.04922C8.04922 11.0361 8.5553 10.5562 9.11589 10.5562V8.85621ZM23.6826 8.85621C23.0528 8.85621 22.4726 9.07284 22.0104 9.43274L23.0547 10.7741C23.2332 10.6352 23.4494 10.5562 23.6826 10.5562V8.85621ZM21.6826 8.4514V10.1034H23.3826V8.4514H21.6826ZM21.6826 10.1034V15.2692H23.3826V10.1034H21.6826ZM23.6826 15.2139C23.4467 15.2139 23.2281 15.1331 23.0484 14.991L21.9941 16.3246C22.4589 16.6921 23.0453 16.9139 23.6826 16.9139V15.2139ZM21.6826 15.2692C21.6826 15.3832 21.6792 15.4963 21.6727 15.6085L23.3698 15.7072C23.3783 15.5622 23.3826 15.4162 23.3826 15.2692H21.6826ZM21.6727 15.6085C21.5034 18.5185 19.1816 20.7768 16.3992 20.7768V22.4768C20.1397 22.4768 23.1517 19.4577 23.3698 15.7072L21.6727 15.6085ZM9.75 14.991C9.57033 15.1331 9.35175 15.2139 9.11589 15.2139V16.9139C9.75314 16.9139 10.3395 16.6921 10.8043 16.3246L9.75 14.991ZM9.41589 15.2692C9.41589 15.4162 9.42016 15.5622 9.42859 15.7072L11.1257 15.6085C11.1192 15.4963 11.1159 15.3832 11.1159 15.2692H9.41589ZM9.42859 15.7072C9.64678 19.4577 12.6587 22.4768 16.3992 22.4768V20.7768C13.6168 20.7768 11.295 18.5185 11.1257 15.6085L9.42859 15.7072ZM9.11589 10.5562C9.34907 10.5562 9.56525 10.6352 9.74369 10.7741L10.7881 9.43274C10.3258 9.07284 9.74566 8.85621 9.11589 8.85621V10.5562ZM11.1159 15.2692V10.1034H9.41589V15.2692H11.1159ZM11.1159 10.1034V8.4514H9.41589V10.1034H11.1159Z" fill="#6137DB" fill-opacity="0.64"/>
</svg>
