<svg width="24" height="24" viewBox="0 0 24 24" fill="none" xmlns="http://www.w3.org/2000/svg">
<g clip-path="url(#clip0_1508_18233)">
<path d="M18.375 0H5.625C2.5184 0 0 2.5184 0 5.625V18.375C0 21.4816 2.5184 24 5.625 24H18.375C21.4816 24 24 21.4816 24 18.375V5.625C24 2.5184 21.4816 0 18.375 0Z" fill="#242938"/>
<path d="M7.94564 10.4963C7.94564 10.7245 7.9703 10.9095 8.01342 11.0452C8.06825 11.1979 8.13424 11.3464 8.21086 11.4893C8.2417 11.5387 8.25398 11.588 8.25398 11.6312C8.25398 11.6929 8.21695 11.7546 8.1368 11.8162L7.7482 12.0753C7.6927 12.1122 7.6372 12.1308 7.58789 12.1308C7.5262 12.1308 7.46452 12.0999 7.40283 12.0444C7.31975 11.9551 7.24541 11.8581 7.18083 11.7546C7.1119 11.636 7.04809 11.5146 6.98958 11.3906C6.50855 11.9581 5.90405 12.2418 5.17627 12.2418C4.6582 12.2418 4.24495 12.0938 3.9427 11.7977C3.64055 11.5016 3.48633 11.1069 3.48633 10.6135C3.48633 10.0892 3.67139 9.66366 4.04761 9.34294C4.42383 9.02222 4.92342 8.86181 5.55867 8.86181C5.76839 8.86181 5.9843 8.88038 6.21248 8.91122C6.44067 8.94206 6.67505 8.99137 6.9218 9.04688V8.59659C6.9218 8.12784 6.82308 7.80094 6.63192 7.60978C6.43448 7.41853 6.10148 7.32609 5.62655 7.32609C5.41064 7.32609 5.18864 7.35075 4.96045 7.40625C4.73217 7.46175 4.51017 7.52962 4.29427 7.61597C4.22414 7.64734 4.15205 7.67412 4.07845 7.69613C4.03533 7.7085 4.00439 7.71469 3.97973 7.71469C3.89348 7.71469 3.85017 7.653 3.85017 7.52344V7.22119C3.85017 7.12256 3.86255 7.0485 3.89339 7.00537C3.92423 6.96225 3.97973 6.91903 4.06608 6.87581C4.28198 6.76481 4.54102 6.67238 4.84327 6.59831C5.14542 6.51806 5.46614 6.48113 5.80542 6.48113C6.53939 6.48113 7.07592 6.64762 7.42139 6.98062C7.76058 7.31372 7.93327 7.8195 7.93327 8.49797V10.4963H7.94564ZM5.44158 11.4338C5.64502 11.4338 5.85473 11.3968 6.07683 11.3228C6.29883 11.2488 6.49617 11.113 6.66277 10.9281C6.76139 10.8109 6.83545 10.6813 6.87239 10.5333C6.90942 10.3853 6.93408 10.2064 6.93408 9.99675V9.73762C6.74706 9.69213 6.55764 9.65714 6.3667 9.63281C6.17438 9.60839 5.98072 9.59603 5.78686 9.59578C5.37361 9.59578 5.07145 9.67603 4.86792 9.84253C4.66439 10.009 4.56567 10.2434 4.56567 10.5518C4.56567 10.8417 4.63973 11.0575 4.79386 11.2056C4.94198 11.3598 5.15789 11.4338 5.44158 11.4338ZM10.3942 12.0999C10.2832 12.0999 10.2091 12.0814 10.1598 12.0383C10.1105 12.0012 10.0673 11.9149 10.0304 11.7977L8.58098 7.03003C8.54386 6.90666 8.52539 6.8265 8.52539 6.78328C8.52539 6.68466 8.5747 6.62906 8.67342 6.62906H9.27783C9.39502 6.62906 9.47527 6.64762 9.51839 6.69075C9.5677 6.72778 9.60473 6.81412 9.64177 6.93131L10.6779 11.0144L11.6401 6.93131C11.671 6.80794 11.7079 6.72787 11.7573 6.69075C11.8066 6.65381 11.893 6.62916 12.004 6.62916H12.4974C12.6146 6.62916 12.6948 6.64762 12.7441 6.69075C12.7935 6.72778 12.8367 6.81412 12.8613 6.93131L13.8359 11.0637L14.9028 6.93131C14.9399 6.80794 14.9831 6.72787 15.0262 6.69075C15.0755 6.65381 15.1558 6.62916 15.2668 6.62916H15.8403C15.939 6.62916 15.9945 6.67847 15.9945 6.78328C15.9945 6.81422 15.9884 6.84497 15.9822 6.882C15.9761 6.91903 15.9637 6.96825 15.939 7.03622L14.4526 11.8039C14.4156 11.9272 14.3724 12.0074 14.3231 12.0444C14.2738 12.0814 14.1935 12.1061 14.0887 12.1061H13.5583C13.4411 12.1061 13.3609 12.0876 13.3116 12.0444C13.2622 12.0012 13.2191 11.9211 13.1944 11.7977L12.2384 7.8195L11.2886 11.7915C11.2577 11.9149 11.2207 11.995 11.1714 12.0383C11.122 12.0814 11.0356 12.0999 10.9246 12.0999H10.3942ZM18.3198 12.2664C17.9991 12.2664 17.6784 12.2294 17.37 12.1554C17.0616 12.0814 16.821 12.0012 16.6606 11.9087C16.562 11.8532 16.4941 11.7915 16.4695 11.736C16.4455 11.6816 16.4329 11.6228 16.4325 11.5633V11.2488C16.4325 11.1192 16.4818 11.0575 16.5743 11.0575C16.6113 11.0575 16.6484 11.0637 16.6853 11.0761C16.7223 11.0884 16.7778 11.113 16.8395 11.1378C17.0574 11.2336 17.2848 11.3059 17.518 11.3536C17.7596 11.4027 18.0054 11.4275 18.252 11.4277C18.6405 11.4277 18.9427 11.3598 19.1524 11.2241C19.3621 11.0884 19.4731 10.891 19.4731 10.6382C19.4731 10.4655 19.4176 10.3236 19.3066 10.2064C19.1956 10.0892 18.9859 9.98437 18.6837 9.88566L17.7894 9.60816C17.3391 9.46631 17.006 9.25659 16.8025 8.97909C16.599 8.70769 16.4941 8.40534 16.4941 8.08472C16.4941 7.82569 16.5496 7.5975 16.6606 7.40006C16.7716 7.20272 16.9197 7.03003 17.1047 6.89438C17.2898 6.75244 17.4995 6.64762 17.7462 6.57356C17.9929 6.4995 18.252 6.46875 18.5234 6.46875C18.659 6.46875 18.8009 6.47494 18.9366 6.49341C19.0785 6.51188 19.2079 6.53653 19.3375 6.56128C19.4609 6.59212 19.578 6.62297 19.689 6.66C19.8 6.69694 19.8864 6.73397 19.9481 6.771C20.0344 6.82031 20.0961 6.86962 20.1331 6.92512C20.1701 6.97453 20.1886 7.04231 20.1886 7.12875V7.41863C20.1886 7.54809 20.1393 7.61597 20.0468 7.61597C19.9974 7.61597 19.9172 7.59131 19.8124 7.54191C19.4609 7.38159 19.0661 7.30144 18.6282 7.30144C18.2766 7.30144 17.9991 7.35694 17.8079 7.47412C17.6167 7.59131 17.518 7.77019 17.518 8.02303C17.518 8.19572 17.5797 8.34375 17.703 8.46094C17.8263 8.57812 18.0546 8.69531 18.3815 8.80012L19.2573 9.07763C19.7013 9.21956 20.0221 9.41691 20.2133 9.66984C20.4045 9.92269 20.497 10.2126 20.497 10.5333C20.497 10.7985 20.4415 11.0391 20.3367 11.2488C20.2257 11.4585 20.0776 11.6435 19.8864 11.7915C19.6952 11.9457 19.467 12.0567 19.2018 12.137C18.9242 12.2233 18.6344 12.2664 18.3198 12.2664Z" fill="white"/>
<path fill-rule="evenodd" clip-rule="evenodd" d="M19.4848 15.2646C17.4555 16.7634 14.5074 17.5591 11.9724 17.5591C8.41983 17.5591 5.21864 16.2453 2.80092 14.0619C2.60967 13.8892 2.78245 13.6549 3.01064 13.7905C5.6258 15.3078 8.85155 16.2268 12.1883 16.2268C14.4395 16.2268 16.9128 15.758 19.1887 14.7959C19.5279 14.6417 19.8178 15.0179 19.4848 15.2646Z" fill="#FF9900"/>
<path fill-rule="evenodd" clip-rule="evenodd" d="M20.329 14.3023C20.07 13.9692 18.6144 14.1419 17.9544 14.222C17.7571 14.2468 17.7263 14.074 17.9051 13.9445C19.0646 13.1304 20.9705 13.3648 21.1926 13.6361C21.4146 13.9137 21.1309 15.8195 20.0453 16.7324C19.8788 16.8742 19.7184 16.8002 19.7924 16.6152C20.0392 16.0046 20.5881 14.6291 20.329 14.3023Z" fill="#FF9900"/>
</g>
<defs>
<clipPath id="clip0_1508_18233">
<rect width="24" height="24" rx="12" fill="white"/>
</clipPath>
</defs>
</svg>
