<svg width="24" height="24" viewBox="0 0 24 24" fill="none" xmlns="http://www.w3.org/2000/svg">
<rect width="24" height="24" rx="12" fill="white"/>
<path d="M9.33407 4.59964H14.0686L9.15365 19.1705C9.12852 19.2449 9.09195 19.315 9.04525 19.3781C8.99865 19.4413 8.94244 19.4967 8.87864 19.5425C8.81483 19.5883 8.74443 19.6239 8.66963 19.6479C8.59482 19.6719 8.51682 19.6843 8.43841 19.6843H4.75379C4.63418 19.6843 4.51618 19.6559 4.40977 19.6011C4.30325 19.5465 4.2113 19.4672 4.14155 19.3699C4.07176 19.2726 4.0261 19.1601 4.00835 19.0417C3.99054 18.9233 4.00135 18.8023 4.03955 18.6889L8.61862 5.11307C8.64362 5.03867 8.68023 4.96866 8.72703 4.90546C8.77363 4.84226 8.83004 4.78685 8.89364 4.74105C8.95744 4.69525 9.02785 4.65965 9.10265 4.63565C9.17746 4.61164 9.25546 4.59924 9.33387 4.59924V4.59944L9.33407 4.59964Z" fill="url(#paint0_linear_11916_26849)"/>
<path d="M18.0622 19.6844H13.8109C13.7635 19.6844 13.7161 19.68 13.6693 19.671C13.6227 19.6622 13.5769 19.649 13.5327 19.6316C13.4885 19.6142 13.4461 19.5926 13.4059 19.5674C13.3657 19.542 13.328 19.5129 13.2933 19.4805L8.469 14.9751C8.41797 14.9274 8.38244 14.8656 8.36699 14.7975C8.35157 14.7294 8.35699 14.6582 8.38257 14.5933C8.40815 14.5283 8.45269 14.4725 8.5104 14.4332C8.56821 14.394 8.63641 14.373 8.70621 14.373H16.2139L18.0618 19.6846L18.0622 19.6844Z" fill="#0078D4"/>
<path d="M14.0852 4.59962L10.771 14.374L16.1861 14.3728L18.0436 19.6843H13.8084C13.7646 19.6839 13.7208 19.6799 13.6776 19.6721C13.6344 19.6643 13.592 19.6529 13.5508 19.6377C13.4681 19.6076 13.3913 19.5636 13.3235 19.5075L10.0669 16.4681L9.15529 19.1567C9.13169 19.2239 9.09929 19.2877 9.05888 19.3463C8.97791 19.4642 8.86714 19.5585 8.73786 19.6197C8.6735 19.6502 8.60536 19.6719 8.53525 19.6843H4.75563C4.63482 19.6847 4.51561 19.6559 4.40821 19.6003C4.30078 19.5448 4.20832 19.4642 4.13862 19.3653C4.06892 19.2665 4.02405 19.1523 4.00778 19.0325C3.99158 18.9126 4.00441 18.7906 4.04519 18.6767L8.61686 5.12325C8.64066 5.04745 8.67646 4.97604 8.72286 4.91164C8.76907 4.84723 8.82547 4.79043 8.88947 4.74363C8.95348 4.69682 9.02468 4.66042 9.10009 4.63602C9.17549 4.61162 9.2545 4.59922 9.3339 4.59962H14.0854H14.0852Z" fill="url(#paint1_linear_11916_26849)"/>
<path d="M19.9601 18.6889C19.9983 18.8023 20.0091 18.9232 19.9915 19.0417C19.9737 19.1601 19.9281 19.2725 19.8585 19.3699C19.7887 19.4671 19.6968 19.5464 19.5903 19.6011C19.4839 19.6557 19.3659 19.6843 19.2462 19.6843H13.9695C14.0891 19.6843 14.2071 19.6557 14.3137 19.6011C14.4201 19.5465 14.5121 19.4671 14.5819 19.3699C14.6517 19.2727 14.6973 19.1601 14.7151 19.0417C14.7329 18.9233 14.7221 18.8023 14.6839 18.6889L10.1047 5.11264C10.0543 4.96309 9.95821 4.83311 9.83005 4.74102C9.76645 4.69522 9.69604 4.65981 9.62144 4.63581C9.54683 4.61181 9.46883 4.59961 9.39062 4.59961H14.6671C14.7455 4.59961 14.8234 4.61181 14.8982 4.63581C14.9728 4.65981 15.0432 4.69542 15.107 4.74102C15.1706 4.78682 15.2268 4.84222 15.2734 4.90523C15.32 4.96823 15.3564 5.03824 15.3816 5.11264L19.9609 18.6889H19.9601Z" fill="url(#paint2_linear_11916_26849)"/>
<defs>
<linearGradient id="paint0_linear_11916_26849" x1="11.062" y1="5.71771" x2="6.14169" y2="20.2526" gradientUnits="userSpaceOnUse">
<stop stop-color="#114A8B"/>
<stop offset="1" stop-color="#0669BC"/>
</linearGradient>
<linearGradient id="paint1_linear_11916_26849" x1="12.5957" y1="12.4901" x2="11.4576" y2="12.8761" gradientUnits="userSpaceOnUse">
<stop stop-opacity="0.3"/>
<stop offset="0.1" stop-opacity="0.2"/>
<stop offset="0.3" stop-opacity="0.1"/>
<stop offset="0.6" stop-opacity="0.1"/>
<stop offset="1" stop-opacity="0"/>
</linearGradient>
<linearGradient id="paint2_linear_11916_26849" x1="11.9678" y1="5.29365" x2="17.3681" y2="19.6805" gradientUnits="userSpaceOnUse">
<stop stop-color="#3CCBF4"/>
<stop offset="1" stop-color="#2892DF"/>
</linearGradient>
</defs>
</svg>
