<svg width="24" height="24" viewBox="0 0 24 24" fill="none" xmlns="http://www.w3.org/2000/svg">
<rect width="24" height="24" rx="12" fill="white"/>
<path d="M5.99951 4.54712V12.6086L11.9999 16.029V13.704L7.98571 11.4157V7.82155L11.9999 10.1098V7.9676L5.99951 4.54712Z" fill="#002A41"/>
<path d="M17.9994 4.54712V12.6086L11.9991 16.029V13.704L16.0132 11.4157V7.82155L11.999 10.1098V7.9676L17.9995 4.54712H17.9994Z" fill="#0071B5"/>
<path d="M5.99951 19.4532V11.3917L11.9999 7.97119V10.2963L7.98571 12.5845V15.9958L11.9999 13.7076V16.0327L5.99951 19.4532Z" fill="#0071B5"/>
<path d="M17.9994 19.4532V11.3917L11.9991 7.97119V10.2963L16.0132 12.5845V15.9958L11.999 13.7076V16.0327L17.9994 19.4532Z" fill="#002A41"/>
</svg>
