<svg width="32" height="32" viewBox="0 0 32 32" fill="none" xmlns="http://www.w3.org/2000/svg">
<path d="M9.65699 24.5452L9.93022 23.7403L9.65699 24.5452ZM6.65464 21.5429L7.45953 21.2696L6.65464 21.5429ZM25.3452 21.5429L24.5403 21.2696L25.3452 21.5429ZM22.3428 24.5452L22.0696 23.7403L22.3428 24.5452ZM22.3428 11.4547L22.0696 12.2596L22.3428 11.4547ZM25.3452 14.457L24.5403 14.7303L25.3452 14.457ZM9.65699 11.4547L9.93022 12.2596L9.65699 11.4547ZM6.65464 14.457L7.45953 14.7303L6.65464 14.457ZM13.1999 12.05H18.7999V10.35H13.1999V12.05ZM18.7999 23.95H13.1999V25.65H18.7999V23.95ZM13.1999 23.95C11.2692 23.95 10.5143 23.9386 9.93022 23.7403L9.38377 25.3501C10.3006 25.6613 11.4073 25.65 13.1999 25.65V23.95ZM5.5499 18C5.5499 19.7926 5.53853 20.8993 5.84975 21.8161L7.45953 21.2696C7.26127 20.6856 7.2499 19.9307 7.2499 18H5.5499ZM9.93022 23.7403C8.76737 23.3456 7.85426 22.4325 7.45953 21.2696L5.84975 21.8161C6.41436 23.4794 7.72046 24.7855 9.38377 25.3501L9.93022 23.7403ZM24.7499 18C24.7499 19.9307 24.7385 20.6856 24.5403 21.2696L26.1501 21.8161C26.4613 20.8993 26.4499 19.7925 26.4499 18H24.7499ZM18.7999 25.65C20.5925 25.65 21.6992 25.6613 22.616 25.3501L22.0696 23.7403C21.4855 23.9386 20.7306 23.95 18.7999 23.95V25.65ZM24.5403 21.2696C24.1455 22.4325 23.2324 23.3456 22.0696 23.7403L22.616 25.3501C24.2793 24.7855 25.5854 23.4794 26.1501 21.8161L24.5403 21.2696ZM18.7999 12.05C20.7306 12.05 21.4855 12.0613 22.0696 12.2596L22.616 10.6498C21.6992 10.3386 20.5925 10.35 18.7999 10.35V12.05ZM26.4499 18C26.4499 16.2074 26.4613 15.1006 26.1501 14.1838L24.5403 14.7303C24.7385 15.3143 24.7499 16.0692 24.7499 18H26.4499ZM22.0696 12.2596C23.2324 12.6543 24.1455 13.5674 24.5403 14.7303L26.1501 14.1838C25.5854 12.5205 24.2793 11.2144 22.616 10.6498L22.0696 12.2596ZM13.1999 10.35C11.4073 10.35 10.3006 10.3386 9.38377 10.6498L9.93022 12.2596C10.5143 12.0613 11.2692 12.05 13.1999 12.05V10.35ZM7.2499 18C7.2499 16.0692 7.26127 15.3143 7.45953 14.7303L5.84975 14.1838C5.53853 15.1006 5.5499 16.2074 5.5499 18H7.2499ZM9.38377 10.6498C7.72046 11.2144 6.41436 12.5205 5.84975 14.1838L7.45953 14.7303C7.85426 13.5674 8.76737 12.6543 9.93022 12.2596L9.38377 10.6498ZM15.1999 8.04995H16.7999V6.34995H15.1999V8.04995ZM18.3499 9.59995V11.2H20.0499V9.59995H18.3499ZM11.9499 9.59995V11.2H13.6499V9.59995H11.9499ZM16.7999 8.04995C17.6559 8.04995 18.3499 8.74391 18.3499 9.59995H20.0499C20.0499 7.80503 18.5948 6.34995 16.7999 6.34995V8.04995ZM15.1999 6.34995C13.405 6.34995 11.9499 7.80503 11.9499 9.59995H13.6499C13.6499 8.74391 14.3439 8.04995 15.1999 8.04995V6.34995Z" stroke="#6137DB" fill="#170D23" fill-opacity="0.64"/>
<path d="M12 14.4C12 14.2513 12 14.1769 12.0123 14.1151C12.0628 13.8612 12.2613 13.6628 12.5151 13.6123C12.577 13.6 12.6513 13.6 12.8 13.6C12.9487 13.6 13.023 13.6 13.0849 13.6123C13.3387 13.6628 13.5372 13.8612 13.5877 14.1151C13.6 14.1769 13.6 14.2513 13.6 14.4C13.6 14.5487 13.6 14.623 13.5877 14.6848C13.5372 14.9387 13.3387 15.1372 13.0849 15.1877C13.023 15.2 12.9487 15.2 12.8 15.2C12.6513 15.2 12.577 15.2 12.5151 15.1877C12.2613 15.1372 12.0628 14.9387 12.0123 14.6848C12 14.623 12 14.5487 12 14.4Z" stroke="#6137DB" fill="#170D23" fill-opacity="0.64"/>
<path d="M18.4 14.4C18.4 14.2513 18.4 14.1769 18.4123 14.1151C18.4628 13.8612 18.6613 13.6628 18.9151 13.6123C18.977 13.6 19.0513 13.6 19.2 13.6C19.3487 13.6 19.423 13.6 19.4849 13.6123C19.7387 13.6628 19.9372 13.8612 19.9877 14.1151C20 14.1769 20 14.2513 20 14.4C20 14.5487 20 14.623 19.9877 14.6848C19.9372 14.9387 19.7387 15.1372 19.4849 15.1877C19.423 15.2 19.3487 15.2 19.2 15.2C19.0513 15.2 18.977 15.2 18.9151 15.1877C18.6613 15.1372 18.4628 14.9387 18.4123 14.6848C18.4 14.623 18.4 14.5487 18.4 14.4Z" stroke="#6137DB" fill="#170D23" fill-opacity="0.64"/>
</svg>