<svg width="24" height="26" viewBox="0 0 24 26" fill="none" xmlns="http://www.w3.org/2000/svg">
<path d="M2.47183 12.654L1.61875 12.1322H1.61875L2.47183 12.654ZM21.4519 12.48L22.3181 11.9802V11.9802L21.4519 12.48ZM19.5738 19.176L19.3033 18.2133L19.5738 19.176ZM4.31197 19.0949L4.59297 18.1352H4.59297L4.31197 19.0949ZM8.89505 22.6792C8.49696 22.2964 7.86392 22.3088 7.48111 22.7069C7.0983 23.105 7.11069 23.738 7.50878 24.1208L8.89505 22.6792ZM16.6598 24.1208C17.0579 23.738 17.0703 23.105 16.6875 22.7069C16.3047 22.3088 15.6716 22.2964 15.2735 22.6792L16.6598 24.1208ZM1.00004 15.909L2.00002 15.9027L1.00004 15.909ZM1.78897 17.9007L1.0535 18.5783H1.0535L1.78897 17.9007ZM22.9993 16.0343L21.9997 16.0065V16.0065L22.9993 16.0343ZM22.1795 17.997L21.4546 17.3082L21.4546 17.3082L22.1795 17.997ZM19.2284 4.9738L19.0009 4.00002L19.2284 4.9738ZM18.1138 3.53627L18.9994 4.00065L18.1138 3.53627ZM21.3107 7.85688C21.2316 7.31028 20.7244 6.93125 20.1778 7.01029C19.6312 7.08934 19.2522 7.59652 19.3313 8.14312L21.3107 7.85688ZM15.0957 2.63158C15.6009 2.85484 16.1914 2.62633 16.4146 2.12118C16.6379 1.61604 16.4094 1.02555 15.9043 0.802283L15.0957 2.63158ZM3.3249 13.1758C3.70177 12.5596 4.05087 11.9261 4.30873 11.3309C4.55641 10.7592 4.76491 10.1233 4.76491 9.53333H2.76491C2.76491 9.70506 2.69056 10.0349 2.47356 10.5358C2.26672 11.0132 1.96928 11.5591 1.61875 12.1322L3.3249 13.1758ZM4.76491 9.53333V9.15439H2.76491V9.53333H4.76491ZM19.4037 9.15418V9.53333H21.4037V9.15418H19.4037ZM19.4037 9.53333C19.4037 10.6587 19.9695 11.9119 20.5858 12.9799L22.3181 11.9802C21.7232 10.9494 21.4037 10.0925 21.4037 9.53333H19.4037ZM19.3033 18.2133C17.3568 18.76 14.9119 19.2 12.0843 19.2V21.2C15.1198 21.2 17.7475 20.7277 19.8442 20.1388L19.3033 18.2133ZM12.0843 19.2C9.12318 19.2 6.58178 18.7175 4.59297 18.1352L4.03096 20.0546C6.1739 20.682 8.90546 21.2 12.0843 21.2V19.2ZM8.20192 23.4C7.50878 24.1208 7.50902 24.121 7.50927 24.1213C7.50936 24.1214 7.50962 24.1216 7.5098 24.1218C7.51016 24.1221 7.51056 24.1225 7.51097 24.1229C7.51181 24.1237 7.51275 24.1246 7.5138 24.1256C7.51589 24.1276 7.5184 24.13 7.52132 24.1327C7.52717 24.1382 7.53468 24.1452 7.54381 24.1536C7.56208 24.1705 7.58689 24.1929 7.61797 24.2202C7.68007 24.2747 7.76755 24.3488 7.87823 24.4359C8.09885 24.6095 8.41579 24.8379 8.81142 25.0662C9.5934 25.5173 10.7387 26 12.0843 26V24C11.2114 24 10.4155 23.6827 9.81092 23.3338C9.51327 23.1621 9.27557 22.9905 9.1149 22.8641C9.03492 22.8012 8.97508 22.7503 8.93752 22.7173C8.91877 22.7008 8.90566 22.6889 8.89848 22.6823C8.89488 22.679 8.89278 22.677 8.89219 22.6765C8.8919 22.6762 8.89199 22.6763 8.89247 22.6767C8.8927 22.6769 8.89304 22.6773 8.89347 22.6777C8.89368 22.6779 8.89392 22.6781 8.89419 22.6784C8.89432 22.6785 8.89454 22.6787 8.8946 22.6788C8.89482 22.679 8.89505 22.6792 8.20192 23.4ZM12.0843 26C13.4299 26 14.5752 25.5173 15.3572 25.0662C15.7528 24.8379 16.0697 24.6095 16.2904 24.4359C16.4011 24.3488 16.4885 24.2747 16.5506 24.2202C16.5817 24.1929 16.6065 24.1705 16.6248 24.1536C16.6339 24.1452 16.6414 24.1382 16.6473 24.1327C16.6502 24.13 16.6527 24.1276 16.6548 24.1256C16.6559 24.1246 16.6568 24.1237 16.6576 24.1229C16.658 24.1225 16.6584 24.1221 16.6588 24.1218C16.659 24.1216 16.6592 24.1214 16.6593 24.1213C16.6596 24.121 16.6598 24.1208 15.9667 23.4C15.2735 22.6792 15.2738 22.679 15.274 22.6788C15.2741 22.6787 15.2743 22.6785 15.2744 22.6784C15.2747 22.6781 15.2749 22.6779 15.2751 22.6777C15.2756 22.6773 15.2759 22.6769 15.2761 22.6767C15.2766 22.6763 15.2767 22.6762 15.2764 22.6765C15.2758 22.677 15.2737 22.679 15.2701 22.6823C15.2629 22.6889 15.2498 22.7008 15.2311 22.7173C15.1935 22.7503 15.1337 22.8012 15.0537 22.8641C14.893 22.9905 14.6553 23.1621 14.3577 23.3338C13.7531 23.6827 12.9572 24 12.0843 24V26ZM1.61875 12.1322C1.1368 12.9201 0.73647 13.5725 0.464497 14.1346C0.184599 14.7132 -0.00391817 15.2823 6.181e-05 15.9153L2.00002 15.9027C1.99872 15.6955 2.05374 15.4421 2.26488 15.0056C2.48394 14.5528 2.82214 13.9977 3.3249 13.1758L1.61875 12.1322ZM4.59297 18.1352C3.2279 17.7355 2.87626 17.6051 2.52445 17.2232L1.0535 18.5783C1.85073 19.4437 2.79808 19.6936 4.03096 20.0546L4.59297 18.1352ZM6.181e-05 15.9153C0.00589669 16.8432 0.42399 17.8949 1.0535 18.5783L2.52445 17.2232C2.22874 16.9022 2.0027 16.3278 2.00002 15.9027L6.181e-05 15.9153ZM20.5858 12.9799C21.1186 13.903 21.4841 14.5383 21.7198 15.0461C21.9526 15.5475 22.0049 15.8164 21.9997 16.0065L23.9989 16.062C24.0167 15.4191 23.8189 14.818 23.5339 14.2041C23.2519 13.5965 22.8323 12.8712 22.3181 11.9802L20.5858 12.9799ZM19.8442 20.1388C21.1209 19.7802 22.0986 19.5339 22.9044 18.6858L21.4546 17.3082C21.1014 17.6798 20.7283 17.813 19.3033 18.2133L19.8442 20.1388ZM21.9997 16.0065C21.9872 16.4549 21.7717 16.9744 21.4546 17.3082L22.9044 18.6858C23.558 17.998 23.9726 17.009 23.9989 16.062L21.9997 16.0065ZM12.0843 0C6.95622 0 2.76491 4.08109 2.76491 9.15439H4.76491C4.76491 5.22305 8.02303 2 12.0843 2V0ZM19 4H17C17 5.10457 17.8954 6 19 6V4ZM19 4H21C21 2.89543 20.1046 2 19 2V4ZM19 4L19.0009 4.00002L19.4559 5.94757C20.3404 5.74092 21 4.94869 21 4H19ZM19.0009 4.00002L19 4V6C19.1557 6 19.3085 5.98201 19.4559 5.94757L19.0009 4.00002ZM19 4L18.9994 4.00065L17.2282 3.07189C17.0822 3.35033 17 3.66704 17 4H19ZM18.9994 4.00065L19 4V2C18.2288 2 17.5612 2.43683 17.2282 3.07189L18.9994 4.00065ZM19.3313 8.14312C19.379 8.47295 19.4037 8.81046 19.4037 9.15418H21.4037C21.4037 8.71434 21.372 8.28117 21.3107 7.85688L19.3313 8.14312ZM12.0843 2C13.1601 2 14.1789 2.22635 15.0957 2.63158L15.9043 0.802283C14.7369 0.286336 13.4431 0 12.0843 0V2Z" fill="#170D23" fill-opacity="0.64"/>
</svg>
