<svg width="28" height="28" viewBox="0 0 28 28" fill="none" xmlns="http://www.w3.org/2000/svg">
<path d="M13.4882 7.38835L8.72171 13.8243C8.17293 14.5653 7.89854 14.9358 8.03438 15.2323C8.17022 15.5288 8.61434 15.5288 9.50259 15.5288H11.4317C11.8998 15.5288 12.1339 15.5288 12.2793 15.6831C12.4248 15.8374 12.4248 16.0858 12.4248 16.5824V20.7607C12.4248 22.0263 12.4248 22.659 12.759 22.7817C13.0933 22.9043 13.4618 22.4068 14.1988 21.4116L18.9653 14.9757C19.514 14.2347 19.7884 13.8642 19.6526 13.5677C19.5167 13.2712 19.0726 13.2712 18.1844 13.2712H16.2553C15.7871 13.2712 15.553 13.2712 15.4076 13.1169C15.2622 12.9626 15.2622 12.7142 15.2622 12.2176V8.03928C15.2622 6.77373 15.2622 6.14095 14.9279 6.01831C14.5937 5.89567 14.2252 6.39323 13.4882 7.38835Z" stroke="#4A525D" stroke-width="1.7" stroke-linecap="round"/>
</svg>
