<svg width="24" height="24" viewBox="0 0 24 24" fill="none" xmlns="http://www.w3.org/2000/svg">
<rect width="24" height="24" rx="12" fill="white"/>
<path fill-rule="evenodd" clip-rule="evenodd" d="M6.73866 5C5.7116 5 4.95163 5.87769 4.98566 6.82953C5.01832 7.74399 4.97589 8.92834 4.67052 9.89419C4.36406 10.8627 3.84614 11.4765 3 11.5553V12.4447C3.84614 12.5237 4.36406 13.1371 4.67048 14.1058C4.97589 15.0717 5.01829 16.256 4.98563 17.1705C4.95159 18.1222 5.71157 19 6.7388 19H17.2627C18.2898 19 19.0496 18.1223 19.0156 17.1705C18.9829 16.256 19.0253 15.0717 19.3307 14.1058C19.6372 13.1371 20.1538 12.5234 21 12.4447V11.5553C20.1539 11.4763 19.6372 10.8629 19.3307 9.89419C19.0253 8.92848 18.9829 7.74399 19.0156 6.82953C19.0496 5.87783 18.2898 5 17.2627 5H6.73852H6.73866ZM15.2034 13.6179C15.2034 14.9286 14.2021 15.7234 12.5405 15.7234H9.71186C9.63094 15.7234 9.55334 15.692 9.49613 15.6362C9.43891 15.5803 9.40677 15.5045 9.40677 15.4255V8.57449C9.40677 8.49548 9.43891 8.41972 9.49613 8.36386C9.55334 8.30799 9.63094 8.27661 9.71186 8.27661H12.5244C13.9099 8.27661 14.8192 9.00939 14.8192 10.1344C14.8192 10.9241 14.2075 11.631 13.4282 11.7548V11.796C14.4891 11.9097 15.2034 12.6271 15.2034 13.6179ZM12.232 9.22086H10.6192V11.4451H11.9776C13.0277 11.4451 13.6067 11.0323 13.6067 10.2943C13.6066 9.60273 13.1088 9.22086 12.232 9.22086ZM10.6192 12.3277V14.7789H12.2914C13.3847 14.7789 13.9639 14.3505 13.9639 13.5455C13.9639 12.7405 13.3685 12.3275 12.2211 12.3275H10.6192V12.3277Z" fill="#7952B3"/>
</svg>
