<svg width="24" height="24" viewBox="0 0 24 24" fill="none" xmlns="http://www.w3.org/2000/svg">
<path d="M21.829 7.55245C21.8288 7.1777 21.7487 6.84656 21.5866 6.56236C21.4274 6.28289 21.189 6.04865 20.8692 5.86345C18.2292 4.34126 15.5868 2.82372 12.9477 1.29998C12.2362 0.889234 11.5464 0.904209 10.8402 1.32085C9.78941 1.94055 4.52858 4.95459 2.96092 5.8626C2.31532 6.23633 2.00116 6.80831 2.00101 7.55175C2 10.613 2.00101 13.6741 2 16.7354C2.00016 17.1019 2.07689 17.4266 2.23183 17.7066C2.39112 17.9945 2.63288 18.2352 2.96007 18.4246C4.5278 19.3326 9.78933 22.3464 10.8399 22.9662C11.5464 23.3831 12.2362 23.398 12.9479 22.9871C15.5871 21.4633 18.2297 19.9458 20.87 18.4236C21.1972 18.2343 21.439 17.9935 21.5982 17.7058C21.753 17.4259 21.8298 17.1012 21.83 16.7346C21.83 16.7346 21.83 10.6137 21.829 7.55245Z" fill="#5C8DBC"/>
<path d="M11.944 12.0996L2.23047 17.6924C2.38976 17.9804 2.63152 18.221 2.95871 18.4104C4.52644 19.3184 9.78798 22.3323 10.8385 22.9521C11.545 23.369 12.2349 23.3839 12.9466 22.973C15.5857 21.4492 18.2284 19.9317 20.8687 18.4095C21.1959 18.2202 21.4376 17.9794 21.5969 17.6917L11.944 12.0996Z" fill="#1A4674"/>
<path d="M9.0625 13.7562C9.62773 14.743 10.6903 15.4085 11.9092 15.4085C13.1356 15.4085 14.2042 14.7345 14.7666 13.7372L11.9395 12.0996L9.0625 13.7562Z" fill="#1A4674"/>
<path d="M21.8172 7.56041C21.8171 7.18566 21.7369 6.85452 21.5749 6.57031L11.9336 12.1217L21.5865 17.7138C21.7412 17.4338 21.8181 17.1091 21.8183 16.7425C21.8183 16.7425 21.8183 10.6217 21.8172 7.56041Z" fill="#1B598E"/>
<path d="M21.2867 12.5085H20.5324V13.263H19.778V12.5085H19.0237V11.7543H19.778V11H20.5324V11.7543H21.2867V12.5085ZM18.5343 12.5085H17.7801V13.263H17.0258V12.5085H16.2715V11.7543H17.0258V11H17.7801V11.7543H18.5343V12.5085Z" fill="white"/>
<path d="M14.7747 13.7555C14.2123 14.7528 13.1437 15.4268 11.9173 15.4268C10.6984 15.4268 9.63582 14.7613 9.07059 13.7745C8.78665 13.2794 8.63753 12.7184 8.63812 12.1477C8.63812 10.3367 10.1063 8.86859 11.9173 8.86859C13.1283 8.86859 14.1853 9.52583 14.7533 10.5025L17.6195 8.85206C16.4803 6.88552 14.3534 5.5625 11.9173 5.5625C8.28028 5.5625 5.33203 8.51083 5.33203 12.1477C5.33203 13.3408 5.64944 14.4597 6.20419 15.4248C7.34054 17.4018 9.47351 18.7329 11.9173 18.7329C14.3656 18.7329 16.5019 17.3964 17.6366 15.4136L14.7747 13.7555Z" fill="white"/>
</svg>
