<svg width="24" height="24" viewBox="0 0 24 24" fill="none" xmlns="http://www.w3.org/2000/svg">
<rect width="24" height="24" rx="12" fill="white"/>
<path d="M20 15.3847V12.8513C20 13.448 19.3467 13.996 18.256 14.4293L12 12.8513V15.3847L18.256 16.9627C19.3467 16.53 20 15.982 20 15.3847Z" fill="#D32F2F"/>
<path d="M18.256 11.898C19.3467 11.462 20 10.9167 20 10.3193V7.78267C20 6.38667 16.4167 5.25 12 5.25C7.58 5.25 4 6.386 4 7.782V10.3193C4 11.7173 7.582 12.852 12 12.852V10.3207L18.256 11.898ZM12 17.9167V15.3847C7.58 15.3847 4 14.248 4 12.8527V15.3847C4 16.7827 7.58 17.9167 12 17.9167Z" fill="#D32F2F"/>
</svg>
