<svg width="22" height="20" viewBox="0 0 22 20" fill="none" xmlns="http://www.w3.org/2000/svg">
<path d="M4.65712 18.5455L4.93034 17.7406L4.65712 18.5455ZM1.65476 15.5431L2.45965 15.2699L1.65476 15.5431ZM20.3453 15.5431L19.5404 15.2699L20.3453 15.5431ZM17.3429 18.5455L17.0697 17.7406L17.3429 18.5455ZM17.3429 5.45493L17.0697 6.25982L17.3429 5.45493ZM20.3453 8.45729L19.5404 8.73051L20.3453 8.45729ZM4.65712 5.45493L4.93034 6.25982L4.65712 5.45493ZM1.65476 8.45729L2.45965 8.73051L1.65476 8.45729ZM8.20002 6.0502H13.8V4.3502H8.20002V6.0502ZM13.8 17.9502H8.20002V19.6502H13.8V17.9502ZM8.20002 17.9502C6.26931 17.9502 5.51438 17.9388 4.93034 17.7406L4.38389 19.3504C5.3007 19.6616 6.40743 19.6502 8.20002 19.6502V17.9502ZM0.550024 12.0002C0.550024 13.7928 0.538653 14.8995 0.849869 15.8163L2.45965 15.2699C2.2614 14.6858 2.25002 13.9309 2.25002 12.0002H0.550024ZM4.93034 17.7406C3.76749 17.3458 2.85438 16.4327 2.45965 15.2699L0.849869 15.8163C1.41449 17.4796 2.72058 18.7857 4.38389 19.3504L4.93034 17.7406ZM19.75 12.0002C19.75 13.9309 19.7387 14.6858 19.5404 15.2699L21.1502 15.8163C21.4614 14.8995 21.45 13.7928 21.45 12.0002H19.75ZM13.8 19.6502C15.5926 19.6502 16.6993 19.6616 17.6162 19.3504L17.0697 17.7406C16.4857 17.9388 15.7307 17.9502 13.8 17.9502V19.6502ZM19.5404 15.2699C19.1457 16.4327 18.2326 17.3458 17.0697 17.7406L17.6162 19.3504C19.2795 18.7857 20.5856 17.4796 21.1502 15.8163L19.5404 15.2699ZM13.8 6.0502C15.7307 6.0502 16.4857 6.06157 17.0697 6.25982L17.6162 4.65004C16.6993 4.33882 15.5926 4.3502 13.8 4.3502V6.0502ZM21.45 12.0002C21.45 10.2076 21.4614 9.10087 21.1502 8.18406L19.5404 8.73051C19.7387 9.31455 19.75 10.0695 19.75 12.0002H21.45ZM17.0697 6.25982C18.2326 6.65455 19.1457 7.56767 19.5404 8.73051L21.1502 8.18406C20.5856 6.52075 19.2795 5.21466 17.6162 4.65004L17.0697 6.25982ZM8.20002 4.3502C6.40743 4.3502 5.3007 4.33882 4.38389 4.65004L4.93034 6.25982C5.51438 6.06157 6.26931 6.0502 8.20002 6.0502V4.3502ZM2.25002 12.0002C2.25002 10.0695 2.2614 9.31455 2.45965 8.73051L0.849869 8.18406C0.538653 9.10087 0.550024 10.2076 0.550024 12.0002H2.25002ZM4.38389 4.65004C2.72058 5.21466 1.41449 6.52075 0.849869 8.18406L2.45965 8.73051C2.85438 7.56767 3.76749 6.65455 4.93034 6.25982L4.38389 4.65004ZM10.2 2.0502H11.8V0.350195H10.2V2.0502ZM13.35 3.6002V5.2002H15.05V3.6002H13.35ZM6.95002 3.6002V5.2002H8.65002V3.6002H6.95002ZM11.8 2.0502C12.6561 2.0502 13.35 2.74415 13.35 3.6002H15.05C15.05 1.80527 13.5949 0.350195 11.8 0.350195V2.0502ZM10.2 0.350195C8.4051 0.350195 6.95002 1.80527 6.95002 3.6002H8.65002C8.65002 2.74415 9.34398 2.0502 10.2 2.0502V0.350195Z" fill="#4A525D"/>
<path d="M7 8.40059C7 8.2519 7 8.17755 7.0123 8.11573C7.0628 7.86185 7.26126 7.66338 7.51514 7.61288C7.57697 7.60059 7.65131 7.60059 7.8 7.60059C7.94869 7.60059 8.02303 7.60059 8.08486 7.61288C8.33874 7.66338 8.5372 7.86185 8.5877 8.11573C8.6 8.17755 8.6 8.2519 8.6 8.40059C8.6 8.54928 8.6 8.62362 8.5877 8.68544C8.5372 8.93933 8.33874 9.13779 8.08486 9.18829C8.02303 9.20059 7.94869 9.20059 7.8 9.20059C7.65131 9.20059 7.57697 9.20059 7.51514 9.18829C7.26126 9.13779 7.0628 8.93933 7.0123 8.68544C7 8.62362 7 8.54928 7 8.40059Z" fill="#4A525D"/>
<path d="M13.4 8.40059C13.4 8.2519 13.4 8.17755 13.4123 8.11573C13.4628 7.86185 13.6613 7.66338 13.9151 7.61288C13.977 7.60059 14.0513 7.60059 14.2 7.60059C14.3487 7.60059 14.423 7.60059 14.4849 7.61288C14.7387 7.66338 14.9372 7.86185 14.9877 8.11573C15 8.17755 15 8.2519 15 8.40059C15 8.54928 15 8.62362 14.9877 8.68544C14.9372 8.93933 14.7387 9.13779 14.4849 9.18829C14.423 9.20059 14.3487 9.20059 14.2 9.20059C14.0513 9.20059 13.977 9.20059 13.9151 9.18829C13.6613 9.13779 13.4628 8.93933 13.4123 8.68544C13.4 8.62362 13.4 8.54928 13.4 8.40059Z" fill="#4A525D"/>
</svg>
