<svg width="28" height="28" viewBox="0 0 28 28" fill="none" xmlns="http://www.w3.org/2000/svg">
<path d="M9.72304 14.1819C9.40348 13.838 8.86565 13.8183 8.52177 14.1378C8.17789 14.4574 8.15817 14.9952 8.47774 15.3391L9.72304 14.1819ZM11.6458 17.4996L11.0232 18.0782C11.184 18.2513 11.4096 18.3496 11.6458 18.3496C11.8821 18.3496 12.1077 18.2513 12.2685 18.0782L11.6458 17.4996ZM18.123 11.7782C18.4426 11.4344 18.4229 10.8965 18.079 10.577C17.7351 10.2574 17.1973 10.2771 16.8777 10.621L18.123 11.7782ZM8.47774 15.3391L11.0232 18.0782L12.2685 16.921L9.72304 14.1819L8.47774 15.3391ZM12.2685 18.0782L18.123 11.7782L16.8777 10.621L11.0232 16.921L12.2685 18.0782ZM20.8504 13.9996C20.8504 18.1694 17.4701 21.5496 13.3004 21.5496V23.2496C18.409 23.2496 22.5504 19.1082 22.5504 13.9996H20.8504ZM13.3004 21.5496C9.13064 21.5496 5.75039 18.1694 5.75039 13.9996H4.05039C4.05039 19.1082 8.19176 23.2496 13.3004 23.2496V21.5496ZM5.75039 13.9996C5.75039 9.82986 9.13064 6.44961 13.3004 6.44961V4.74961C8.19176 4.74961 4.05039 8.89098 4.05039 13.9996H5.75039ZM13.3004 6.44961C17.4701 6.44961 20.8504 9.82986 20.8504 13.9996H22.5504C22.5504 8.89098 18.409 4.74961 13.3004 4.74961V6.44961Z" fill="#4A525D"/>
</svg>
