<svg width="20" height="20" viewBox="0 0 20 20" fill="none" xmlns="http://www.w3.org/2000/svg">
<path d="M15.929 4.04961C14.4097 2.53556 12.314 1.59961 9.99961 1.59961C5.36042 1.59961 1.59961 5.36042 1.59961 9.99961C1.59961 12.314 2.53556 14.4097 4.04961 15.929M15.929 4.04961C17.4552 5.57052 18.3996 7.67477 18.3996 9.99961C18.3996 14.6388 14.6388 18.3996 9.99961 18.3996C7.67477 18.3996 5.57052 17.4552 4.04961 15.929M15.929 4.04961L4.04961 15.929" stroke="#4A525D" stroke-width="1.7"/>
<path d="M15.929 4.04961C14.4097 2.53556 12.314 1.59961 9.99961 1.59961C5.36042 1.59961 1.59961 5.36042 1.59961 9.99961C1.59961 12.314 2.53556 14.4097 4.04961 15.929M15.929 4.04961C17.4552 5.57052 18.3996 7.67477 18.3996 9.99961C18.3996 14.6388 14.6388 18.3996 9.99961 18.3996C7.67477 18.3996 5.57052 17.4552 4.04961 15.929M15.929 4.04961L4.04961 15.929" stroke="black" stroke-opacity="0.2" stroke-width="1.7"/>
</svg>
