<svg width="24" height="24" viewBox="0 0 24 24" fill="none" xmlns="http://www.w3.org/2000/svg">
<rect width="24" height="24" rx="12" fill="white"/>
<path d="M9.50383 19.9989C9.50369 19.9989 9.50355 19.9988 9.50341 19.9988C7.50546 19.5611 5.73626 18.3236 5.18427 16.3797C4.63189 14.4343 5.38356 12.4731 6.61139 10.9138C7.2253 10.1347 7.94332 9.43545 8.69021 8.77167C9.3855 8.15365 10.1515 7.58574 10.7813 6.90555C11.4308 6.20385 12.2427 4.94871 11.6264 4C12.7453 4.79556 13.6477 6.12499 13.4968 7.49443C13.3763 8.58711 12.5149 9.69961 13.3586 10.7315C13.8835 11.3729 14.946 11.2384 15.3384 10.6189L15.3096 10.6485C15.3768 10.5467 15.426 10.4351 15.4552 10.3181C15.4572 10.2232 15.4396 10.1171 15.3856 9.99245L15.4884 10.0458C17.4555 11.0165 19.0436 12.712 18.9991 14.9151C18.9454 17.593 16.3238 19.4671 13.7866 20C14.9873 19.5499 16.0577 18.6582 16.2035 17.3762C16.338 16.1934 15.6718 15.1737 14.7696 14.4194C13.9119 13.7018 12.8885 13.2391 11.9557 12.6269C11.4179 12.2741 10.6018 11.5657 10.889 10.8474C10.5153 11.1535 10.2204 11.5817 10.104 12.0389C9.87157 12.9509 10.4623 13.6612 11.073 14.2901C11.6906 14.9251 11.6428 16.0151 10.601 16.2322C10.1551 16.3245 9.68292 16.1544 9.41331 15.8043C9.12328 15.4278 9.18713 15.0428 9.30419 14.6219C8.33042 15.2779 7.54749 16.2761 7.55024 17.4519C7.55249 18.5301 8.49552 19.5839 9.50341 19.9988C9.50357 19.9988 9.50374 19.9988 9.5039 19.9989L9.50383 19.9989Z" fill="#EE4323"/>
</svg>
