<svg width="136" height="32" viewBox="0 0 136 32" fill="none" xmlns="http://www.w3.org/2000/svg">
<g clip-path="url(#clip0_8914_2060)">
<path fill-rule="evenodd" clip-rule="evenodd" d="M8.01184 2V32H0V2H8.01184Z" fill="#170D23"/>
<path fill-rule="evenodd" clip-rule="evenodd" d="M12.0156 2H29.0408C34.5719 2 39.0556 6.47715 39.0556 12C39.0556 17.5229 34.5719 22 29.0408 22H20.0275V32H12.0156V2ZM20.0275 14H29.0408C30.1471 14 31.0438 13.1046 31.0438 12C31.0438 10.8954 30.1471 10 29.0408 10H20.0275V14Z" fill="#170D23"/>
<path fill-rule="evenodd" clip-rule="evenodd" d="M69.1017 2V17.5C69.1017 21.0898 72.0161 24 75.6113 24C79.2065 24 82.121 21.0898 82.121 17.5V2H90.133V17.5C90.133 25.5082 83.6314 32 75.6113 32C67.5913 32 61.0898 25.5082 61.0898 17.5V2H69.1017Z" fill="#170D23"/>
<path fill-rule="evenodd" clip-rule="evenodd" d="M42.0587 16C42.0587 8.268 48.336 2 56.0794 2H58.0824V10H56.0794C52.7608 10 50.0706 12.6863 50.0706 16V17C50.0706 25.2842 43.3449 32 35.0483 32H34.0469V24H35.0483C38.9201 24 42.0587 20.866 42.0587 17V16Z" fill="#170D23"/>
<path d="M135.2 3C135.2 4.65686 133.855 6 132.195 6C130.536 6 129.191 4.65686 129.191 3C129.191 1.34314 130.536 0 132.195 0C133.855 0 135.2 1.34314 135.2 3Z" fill="#170D23"/>
<path d="M98.7368 32.0002L102.56 16.0147L105.402 25.6316C107.097 31.3675 115.234 31.3675 116.929 25.6316L119.77 16.0147L123.594 32.0002H131.83L125.819 6.86379C124.39 0.886152 115.954 0.664826 114.211 6.55933L111.166 16.8668L108.119 6.55934C106.378 0.66486 97.9408 0.886121 96.5112 6.86378L90.5 32.0002H98.7368Z" fill="#170D23"/>
</g>
<defs>
<clipPath id="clip0_8914_2060">
<rect width="135.2" height="32" fill="white"/>
</clipPath>
</defs>
</svg>
