<svg width="98" height="22" viewBox="0 0 98 22" fill="none" xmlns="http://www.w3.org/2000/svg">
<path d="M26.5648 19.2023C26.5648 17.0184 26.5957 14.8326 26.5396 12.6486C26.5184 12.1085 26.3342 11.5874 26.011 11.154C24.1659 8.80549 22.255 6.50735 20.3789 4.18403C19.2908 2.82876 19.3915 1.43284 20.6093 0.528682C21.771 -0.332881 23.1746 -0.0715118 24.2608 1.24503C25.8658 3.19275 27.4495 5.15402 29.0759 7.15013C30.7971 5.04947 32.4524 2.99914 34.1446 0.97979C34.9558 0.0117414 36.0807 -0.222529 37.13 0.263432C38.1794 0.749392 38.8028 1.8491 38.4853 2.9275C38.3022 3.45227 38.0195 3.93676 37.6528 4.35441C35.8174 6.62158 33.9316 8.85196 32.1175 11.1307C31.7897 11.5603 31.6012 12.0798 31.5773 12.6196C31.5192 14.8035 31.5618 16.9894 31.5483 19.1733C31.5483 20.8345 30.5066 21.9903 29.0565 22H29.0391C27.5851 22 26.5802 20.8732 26.5648 19.2023ZM43.1745 21.9613C41.8851 21.9148 40.7931 20.8906 40.7873 19.5896C40.7641 13.8639 40.7641 8.13819 40.7873 2.4125C40.7934 1.78638 41.0448 1.18763 41.4875 0.744874C41.9303 0.302122 42.529 0.0507124 43.1552 0.0446576C43.4744 0.0261249 43.7941 0.0710872 44.0958 0.176943C44.3976 0.282799 44.6753 0.447442 44.913 0.661351C45.1507 0.87526 45.3436 1.13418 45.4805 1.42313C45.6175 1.71209 45.6957 2.02533 45.7108 2.34474C45.7883 4.07173 45.7282 5.80261 45.7282 7.71547L53.1048 1.44252C53.4262 1.16759 53.7398 0.879114 54.0728 0.623549C55.2151 -0.238014 56.6323 -0.12185 57.5442 0.894601C58.4252 1.86265 58.3768 3.20243 57.3158 4.15499C55.7669 5.55091 54.1503 6.87908 52.5627 8.23629L49.3391 10.9875L56.4116 17.0165C56.6827 17.2469 56.9615 17.4657 57.219 17.7077C58.3593 18.7783 58.4639 20.0929 57.4997 21.1268C56.5355 22.1607 55.1551 22.2575 53.9547 21.2488C51.4572 19.1539 48.9906 17.0281 46.5104 14.9158C46.3052 14.7396 46.0961 14.5673 45.7534 14.2808C45.7534 15.8297 45.7534 17.2062 45.7534 18.5808C45.7638 18.9973 45.7451 19.4139 45.6973 19.8277C45.6062 20.413 45.3117 20.9474 44.8655 21.337C44.4193 21.7265 43.85 21.9462 43.2578 21.9574L43.1745 21.9613ZM3.55423 21.6321C1.76335 21.6321 0.843699 20.7318 0.843699 18.9932C0.835955 13.687 0.835955 8.3802 0.843699 3.07271C0.843699 1.33022 1.71494 0.428004 3.531 0.395091C5.90272 0.354433 8.27638 0.350561 10.6462 0.395091C13.3567 0.449302 15.4206 1.64 16.6481 3.96525C17.8755 6.29051 17.6045 8.59059 16.0343 10.728C15.9743 10.8113 15.9298 10.9062 15.862 11.0243C17.4264 13.063 17.9336 15.2992 16.8436 17.667C15.6819 20.2072 13.5793 21.5702 10.6694 21.6225C9.67037 21.6399 8.67134 21.6457 7.67231 21.6457C6.30155 21.6476 4.92886 21.6476 3.55423 21.6321ZM5.69943 13.4153V16.9487C7.53872 16.9487 9.25798 17.001 10.9714 16.9274C11.9007 16.8887 12.4545 16.2866 12.5513 15.3785C12.652 14.4105 12.135 13.518 11.1708 13.456C10.4274 13.4076 9.68198 13.394 8.93271 13.394C7.86399 13.3863 6.78751 13.4153 5.69943 13.4153ZM5.69943 5.11723V8.64093C7.5484 8.64093 9.29863 8.68933 11.0431 8.62157C11.9608 8.58672 12.5416 7.81615 12.5532 6.8965C12.5648 5.97686 12.0072 5.17918 11.0953 5.14046C10.3577 5.10755 9.62003 5.09787 8.8785 5.09787C7.83495 5.09787 6.77783 5.11723 5.70524 5.11723H5.69943ZM79.699 21.454C78.3108 20.8848 77.8403 19.5915 78.4928 18.0736C80.8161 12.6706 83.1465 7.26694 85.4841 1.86265C85.9468 0.78618 86.6457 -0.0114913 87.9293 0.000125256C89.213 0.0117418 89.9022 0.774565 90.3688 1.8704C92.6825 7.29147 95.031 12.6777 97.3562 18.0833C98.0029 19.5857 97.4975 20.9177 96.1113 21.4618C94.7928 21.9806 93.5072 21.3727 92.8451 19.9013C92.4153 18.9506 92.0087 17.9884 91.5866 17.0339C91.5474 16.9693 91.4991 16.9107 91.4434 16.8597H84.3088C83.8597 17.8897 83.426 18.9139 82.9729 19.9303C82.4773 21.0339 81.6061 21.6476 80.6496 21.6476C80.3231 21.6466 79.9999 21.5808 79.699 21.454ZM86.3882 12.0485H89.4647L87.9158 8.49572L86.3882 12.0485ZM63.0757 21.6186C61.3603 21.6186 60.4058 20.6912 60.4039 19.0358C60.3935 13.6612 60.3935 8.28533 60.4039 2.90814C60.4039 1.27408 61.3719 0.329261 63.0815 0.31958C66.5316 0.300219 69.9817 0.300219 73.4318 0.31958C75.0291 0.31958 76.1424 1.34765 76.1037 2.71066C76.0727 4.04076 74.9962 4.96815 73.4299 4.9759C70.7426 4.98751 68.0572 4.9759 65.2983 4.9759V8.58284C65.6739 8.59833 66.0534 8.62931 66.4329 8.63124H68.9808C70.4677 8.63124 71.9546 8.63125 73.4338 8.64093C75.0388 8.65448 76.1288 9.65544 76.0998 11.0301C76.0688 12.3563 74.9923 13.2779 73.4144 13.2876C71.1143 13.2992 68.8143 13.2876 66.5161 13.2876H65.3022V16.9507H66.4445C68.7794 16.9507 71.1163 16.939 73.4512 16.9507C75.0446 16.9623 76.1482 17.9748 76.1153 19.3437C76.0727 20.6796 74.9827 21.6147 73.4338 21.6205C71.6874 21.6205 69.9398 21.6205 68.1908 21.6205C66.4832 21.6257 64.7781 21.625 63.0757 21.6186Z" fill="#241E33"/>
</svg>
