<svg width="24" height="26" viewBox="0 0 24 26" fill="none" xmlns="http://www.w3.org/2000/svg">
<path d="M11 25H19.8C20.9201 25 21.4802 25 21.908 24.782C22.2843 24.5903 22.5903 24.2843 22.782 23.908C23 23.4802 23 22.9201 23 21.8V18.4C23 16.1598 23 15.0397 22.564 14.184C22.1805 13.4314 21.5686 12.8195 20.816 12.436C19.9603 12 18.8402 12 16.6 12H13M13 12V7C13 5.13623 13 4.20435 12.6955 3.46927C12.2895 2.48915 11.5108 1.71046 10.5307 1.30448C9.79565 1 8.86377 1 7 1C5.13623 1 4.20435 1 3.46927 1.30448C2.48915 1.71046 1.71046 2.48915 1.30448 3.46927C1 4.20435 1 5.13623 1 7V21.8C1 22.9201 1 23.4802 1.21799 23.908C1.40973 24.2843 1.71569 24.5903 2.09202 24.782C2.51984 25 3.07989 25 4.2 25H13V12Z" stroke="#4A525D" stroke-width="2"/>
<path d="M4 5.7C4 5.3134 4.3134 5 4.7 5H5.3C5.6866 5 6 5.3134 6 5.7V6.3C6 6.6866 5.6866 7 5.3 7H4.7C4.3134 7 4 6.6866 4 6.3V5.7Z" fill="#4A525D"/>
<path d="M8 17.7C8 17.3134 8.3134 17 8.7 17H9.3C9.6866 17 10 17.3134 10 17.7V18.3C10 18.6866 9.6866 19 9.3 19H8.7C8.3134 19 8 18.6866 8 18.3V17.7Z" fill="#4A525D"/>
<path d="M15.5 21.2C15.5 20.8134 15.8134 20.5 16.2 20.5H16.8C17.1866 20.5 17.5 20.8134 17.5 21.2V21.8C17.5 22.1866 17.1866 22.5 16.8 22.5H16.2C15.8134 22.5 15.5 22.1866 15.5 21.8V21.2Z" fill="#4A525D"/>
<path d="M15.5 18.2C15.5 17.8134 15.8134 17.5 16.2 17.5H16.8C17.1866 17.5 17.5 17.8134 17.5 18.2V18.8C17.5 19.1866 17.1866 19.5 16.8 19.5H16.2C15.8134 19.5 15.5 19.1866 15.5 18.8V18.2Z" fill="#4A525D"/>
<path d="M15.5 15.2C15.5 14.8134 15.8134 14.5 16.2 14.5H16.8C17.1866 14.5 17.5 14.8134 17.5 15.2V15.8C17.5 16.1866 17.1866 16.5 16.8 16.5H16.2C15.8134 16.5 15.5 16.1866 15.5 15.8V15.2Z" fill="#4A525D"/>
<path d="M18.5 21.2C18.5 20.8134 18.8134 20.5 19.2 20.5H19.8C20.1866 20.5 20.5 20.8134 20.5 21.2V21.8C20.5 22.1866 20.1866 22.5 19.8 22.5H19.2C18.8134 22.5 18.5 22.1866 18.5 21.8V21.2Z" fill="#4A525D"/>
<path d="M18.5 18.2C18.5 17.8134 18.8134 17.5 19.2 17.5H19.8C20.1866 17.5 20.5 17.8134 20.5 18.2V18.8C20.5 19.1866 20.1866 19.5 19.8 19.5H19.2C18.8134 19.5 18.5 19.1866 18.5 18.8V18.2Z" fill="#4A525D"/>
<path d="M18.5 15.2C18.5 14.8134 18.8134 14.5 19.2 14.5H19.8C20.1866 14.5 20.5 14.8134 20.5 15.2V15.8C20.5 16.1866 20.1866 16.5 19.8 16.5H19.2C18.8134 16.5 18.5 16.1866 18.5 15.8V15.2Z" fill="#4A525D"/>
<path d="M4 12C4 11.7207 4 11.5811 4.03928 11.4688C4.10964 11.2677 4.26773 11.1096 4.4688 11.0393C4.58107 11 4.72071 11 5 11C5.27929 11 5.41893 11 5.5312 11.0393C5.73227 11.1096 5.89036 11.2677 5.96072 11.4688C6 11.5811 6 11.7207 6 12C6 12.2793 6 12.4189 5.96072 12.5312C5.89036 12.7323 5.73227 12.8904 5.5312 12.9607C5.41893 13 5.27929 13 5 13C4.72071 13 4.58107 13 4.4688 12.9607C4.26773 12.8904 4.10964 12.7323 4.03928 12.5312C4 12.4189 4 12.2793 4 12Z" fill="#4A525D"/>
<path d="M4 21C4 20.7207 4 20.5811 4.03928 20.4688C4.10964 20.2677 4.26773 20.1096 4.4688 20.0393C4.58107 20 4.72071 20 5 20C5.27929 20 5.41893 20 5.5312 20.0393C5.73227 20.1096 5.89036 20.2677 5.96072 20.4688C6 20.5811 6 20.7207 6 21C6 21.2793 6 21.4189 5.96072 21.5312C5.89036 21.7323 5.73227 21.8904 5.5312 21.9607C5.41893 22 5.27929 22 5 22C4.72071 22 4.58107 22 4.4688 21.9607C4.26773 21.8904 4.10964 21.7323 4.03928 21.5312C4 21.4189 4 21.2793 4 21Z" fill="#4A525D"/>
<path d="M4 9C4 8.72071 4 8.58107 4.03928 8.4688C4.10964 8.26773 4.26773 8.10964 4.4688 8.03928C4.58107 8 4.72071 8 5 8C5.27929 8 5.41893 8 5.5312 8.03928C5.73227 8.10964 5.89036 8.26773 5.96072 8.4688C6 8.58107 6 8.72071 6 9C6 9.27929 6 9.41893 5.96072 9.5312C5.89036 9.73227 5.73227 9.89036 5.5312 9.96072C5.41893 10 5.27929 10 5 10C4.72071 10 4.58107 10 4.4688 9.96072C4.26773 9.89036 4.10964 9.73227 4.03928 9.5312C4 9.41893 4 9.27929 4 9Z" fill="#4A525D"/>
<path d="M4 18C4 17.7207 4 17.5811 4.03928 17.4688C4.10964 17.2677 4.26773 17.1096 4.4688 17.0393C4.58107 17 4.72071 17 5 17C5.27929 17 5.41893 17 5.5312 17.0393C5.73227 17.1096 5.89036 17.2677 5.96072 17.4688C6 17.5811 6 17.7207 6 18C6 18.2793 6 18.4189 5.96072 18.5312C5.89036 18.7323 5.73227 18.8904 5.5312 18.9607C5.41893 19 5.27929 19 5 19C4.72071 19 4.58107 19 4.4688 18.9607C4.26773 18.8904 4.10964 18.7323 4.03928 18.5312C4 18.4189 4 18.2793 4 18Z" fill="#4A525D"/>
<path d="M4 15C4 14.7207 4 14.5811 4.03928 14.4688C4.10964 14.2677 4.26773 14.1096 4.4688 14.0393C4.58107 14 4.72071 14 5 14C5.27929 14 5.41893 14 5.5312 14.0393C5.73227 14.1096 5.89036 14.2677 5.96072 14.4688C6 14.5811 6 14.7207 6 15C6 15.2793 6 15.4189 5.96072 15.5312C5.89036 15.7323 5.73227 15.8904 5.5312 15.9607C5.41893 16 5.27929 16 5 16C4.72071 16 4.58107 16 4.4688 15.9607C4.26773 15.8904 4.10964 15.7323 4.03928 15.5312C4 15.4189 4 15.2793 4 15Z" fill="#4A525D"/>
<path d="M8 6C8 5.72071 8 5.58107 8.03928 5.4688C8.10964 5.26773 8.26773 5.10964 8.4688 5.03928C8.58107 5 8.72071 5 9 5C9.27929 5 9.41893 5 9.5312 5.03928C9.73227 5.10964 9.89036 5.26773 9.96072 5.4688C10 5.58107 10 5.72071 10 6C10 6.27929 10 6.41893 9.96072 6.5312C9.89036 6.73227 9.73227 6.89036 9.5312 6.96072C9.41893 7 9.27929 7 9 7C8.72071 7 8.58107 7 8.4688 6.96072C8.26773 6.89036 8.10964 6.73227 8.03928 6.5312C8 6.41893 8 6.27929 8 6Z" fill="#4A525D"/>
<path d="M8 12C8 11.7207 8 11.5811 8.03928 11.4688C8.10964 11.2677 8.26773 11.1096 8.4688 11.0393C8.58107 11 8.72071 11 9 11C9.27929 11 9.41893 11 9.5312 11.0393C9.73227 11.1096 9.89036 11.2677 9.96072 11.4688C10 11.5811 10 11.7207 10 12C10 12.2793 10 12.4189 9.96072 12.5312C9.89036 12.7323 9.73227 12.8904 9.5312 12.9607C9.41893 13 9.27929 13 9 13C8.72071 13 8.58107 13 8.4688 12.9607C8.26773 12.8904 8.10964 12.7323 8.03928 12.5312C8 12.4189 8 12.2793 8 12Z" fill="#4A525D"/>
<path d="M8 21C8 20.7207 8 20.5811 8.03928 20.4688C8.10964 20.2677 8.26773 20.1096 8.4688 20.0393C8.58107 20 8.72071 20 9 20C9.27929 20 9.41893 20 9.5312 20.0393C9.73227 20.1096 9.89036 20.2677 9.96072 20.4688C10 20.5811 10 20.7207 10 21C10 21.2793 10 21.4189 9.96072 21.5312C9.89036 21.7323 9.73227 21.8904 9.5312 21.9607C9.41893 22 9.27929 22 9 22C8.72071 22 8.58107 22 8.4688 21.9607C8.26773 21.8904 8.10964 21.7323 8.03928 21.5312C8 21.4189 8 21.2793 8 21Z" fill="#4A525D"/>
<path d="M8 9C8 8.72071 8 8.58107 8.03928 8.4688C8.10964 8.26773 8.26773 8.10964 8.4688 8.03928C8.58107 8 8.72071 8 9 8C9.27929 8 9.41893 8 9.5312 8.03928C9.73227 8.10964 9.89036 8.26773 9.96072 8.4688C10 8.58107 10 8.72071 10 9C10 9.27929 10 9.41893 9.96072 9.5312C9.89036 9.73227 9.73227 9.89036 9.5312 9.96072C9.41893 10 9.27929 10 9 10C8.72071 10 8.58107 10 8.4688 9.96072C8.26773 9.89036 8.10964 9.73227 8.03928 9.5312C8 9.41893 8 9.27929 8 9Z" fill="#4A525D"/>
<path d="M8 15C8 14.7207 8 14.5811 8.03928 14.4688C8.10964 14.2677 8.26773 14.1096 8.4688 14.0393C8.58107 14 8.72071 14 9 14C9.27929 14 9.41893 14 9.5312 14.0393C9.73227 14.1096 9.89036 14.2677 9.96072 14.4688C10 14.5811 10 14.7207 10 15C10 15.2793 10 15.4189 9.96072 15.5312C9.89036 15.7323 9.73227 15.8904 9.5312 15.9607C9.41893 16 9.27929 16 9 16C8.72071 16 8.58107 16 8.4688 15.9607C8.26773 15.8904 8.10964 15.7323 8.03928 15.5312C8 15.4189 8 15.2793 8 15Z" fill="#4A525D"/>
</svg>
