<svg width="136" height="22" viewBox="0 0 136 22" fill="none" xmlns="http://www.w3.org/2000/svg">
<path d="M1.88473 0.664607C0.977643 1.2332 0.333296 2.13854 0.0931845 3.18183C-0.146927 4.22512 0.0368261 5.32105 0.604094 6.22896C1.14836 7.08379 1.92955 7.52881 2.8452 7.93541C2.8452 7.93541 6.64869 10.0132 7.83007 11.8477L9.32842 14.1721C10.3497 15.7505 10.0168 18.1549 10.0168 18.1549C10.0552 19.2946 10.148 19.7301 10.6187 20.444C11.1237 21.2068 11.9094 21.7396 12.8049 21.9266C13.7005 22.1137 14.6337 21.9398 15.4018 21.4429C15.774 21.1978 16.0941 20.8817 16.3439 20.5126C16.5937 20.1436 16.7682 19.7289 16.8574 19.2923C16.9466 18.8556 16.9488 18.4057 16.8638 17.9683C16.7789 17.5308 16.6085 17.1144 16.3623 16.743C15.9013 16.0226 15.4851 15.8081 14.4638 15.3023C14.4638 15.3023 12.1362 14.6171 11.1149 13.0355L9.61656 10.7144C8.43517 8.87988 8.10861 4.56094 8.10861 4.56094C8.10861 3.55244 8.03177 2.63999 7.4683 1.80757C6.8781 0.918315 5.96027 0.298456 4.91492 0.083149C3.86957 -0.132158 2.7815 0.0745506 1.88793 0.658204L1.88473 0.664607Z" fill="#241E33"/>
<path d="M39.8612 4.30332C39.0618 3.59277 38.0136 3.22758 36.9457 3.28757C35.8779 3.34756 34.8772 3.82786 34.1624 4.62348C33.49 5.38225 33.2787 6.25629 33.1411 7.25198C33.1411 7.25198 33.0546 11.6093 31.028 13.3062C30.1348 14.3083 28.4764 16.0243 27.0357 15.3616C26.2673 15.0126 25.5469 13.9721 24.9322 13.018L23.4339 10.6969C22.2525 8.86237 21.9259 4.54344 21.9259 4.54344C21.9259 3.53494 21.8491 2.62249 21.2856 1.79007C20.6919 0.906407 19.774 0.292263 18.7306 0.0807183C17.6873 -0.130826 16.6026 0.0772697 15.7116 0.659914C14.8052 1.22908 14.1614 2.1344 13.9214 3.17743C13.6813 4.22047 13.8646 5.31613 14.431 6.22427C14.9753 7.07909 15.7597 7.52411 16.6721 7.93071C16.6721 7.93071 20.4756 10.0085 21.6602 11.8431L23.1585 14.1674C24.1798 15.7458 23.8437 18.1502 23.8437 18.1502C23.8853 19.2899 23.9781 19.7254 24.4488 20.4393C24.8935 21.1107 25.5597 21.6047 26.3313 21.8352C26.8119 21.9814 27.3185 22.0213 27.8161 21.9522C28.3136 21.8831 28.7902 21.7066 29.2127 21.435C29.5269 21.2355 29.8042 20.9831 30.0323 20.689C30.5126 20.1063 30.6118 19.6357 30.8039 18.5792C30.8039 18.5792 31.0793 15.9155 32.3183 14.4972C33.759 12.858 37.8154 11.3564 37.8154 11.3564C38.7759 11.0843 39.6275 10.7609 40.287 9.99574C40.9844 9.18396 41.3312 8.12867 41.2514 7.06146C41.1716 5.99425 40.6716 5.00231 39.8612 4.30332Z" fill="#241E33"/>
<path d="M52.9719 16.5532L48.832 5.31641H51.7934L54.6418 14.2137L57.5293 5.31641H60.2297L56.0942 16.5532H52.9719Z" fill="#241E33"/>
<path d="M61.6184 16.5532L57.4785 5.31641H60.4356L63.2883 14.2137L66.1627 5.31641H68.8632L64.7277 16.5532H61.6184Z" fill="#241E33"/>
<path d="M70.459 11.0001C70.459 7.80387 72.7333 5.12077 76.3992 5.12077C77.1682 5.09337 77.9348 5.22326 78.6518 5.50249C79.3689 5.78171 80.0214 6.2044 80.5694 6.74466C81.1174 7.28491 81.5493 7.93136 81.8387 8.64439C82.1281 9.35743 82.2689 10.122 82.2524 10.8914C82.257 11.2144 82.2352 11.5373 82.1872 11.8568H73.49C73.526 12.6197 73.8566 13.3388 74.4122 13.8628C74.9678 14.3868 75.7051 14.6747 76.4688 14.666C77.6081 14.666 78.7648 14.0659 79.1301 13.144L81.5958 13.831C80.7826 15.5444 78.8518 16.7664 76.3774 16.7664C72.7551 16.7664 70.459 14.1224 70.459 11.0001ZM79.278 9.99122C79.2475 9.23604 78.9238 8.52247 78.3758 8.00203C77.8277 7.48158 77.0984 7.19522 76.3427 7.20376C75.5911 7.19661 74.8667 7.4846 74.3251 8.00582C73.7836 8.52704 73.4681 9.2399 73.4465 9.99122H79.278Z" fill="#241E33"/>
<path d="M93.3633 16.5613V0.90625H96.2334V16.5613H93.3633Z" fill="#241E33"/>
<path d="M86.0391 16.5613V0.90625H88.9135V16.5613H86.0391Z" fill="#241E33"/>
<path d="M107.936 15.9823C106.933 16.4515 105.846 16.7133 104.74 16.752C103.153 16.752 101.826 15.9823 101.826 13.9863V7.53292H100.365V5.32382H101.826V1.67969H104.701V5.32382H107.097V7.53292H104.718V13.0209C104.7 13.1678 104.715 13.317 104.762 13.4574C104.809 13.5978 104.887 13.7259 104.99 13.8322C105.093 13.9386 105.219 14.0205 105.357 14.072C105.496 14.1235 105.645 14.1432 105.792 14.1298C106.336 14.0984 106.868 13.9594 107.358 13.721L107.936 15.9823Z" fill="#241E33"/>
<path d="M109.986 11.0001C109.986 7.80387 112.261 5.12077 115.927 5.12077C116.696 5.09337 117.462 5.22326 118.179 5.50249C118.896 5.78171 119.549 6.2044 120.097 6.74466C120.645 7.28491 121.077 7.93136 121.366 8.64439C121.655 9.35743 121.796 10.122 121.78 10.8914C121.784 11.2144 121.763 11.5373 121.715 11.8568H113.017C113.053 12.6204 113.385 13.3402 113.941 13.8643C114.498 14.3884 115.236 14.6758 116 14.666C117.135 14.666 118.292 14.0659 118.657 13.144L121.123 13.831C120.31 15.5444 118.379 16.7664 115.905 16.7664C112.282 16.7664 109.986 14.1224 109.986 11.0001ZM118.823 9.99122C118.791 9.23565 118.467 8.52208 117.918 8.00174C117.369 7.4814 116.639 7.19518 115.883 7.20376C115.131 7.19661 114.407 7.4846 113.865 8.00582C113.324 8.52704 113.008 9.2399 112.987 9.99122H118.823Z" fill="#241E33"/>
<path d="M135.808 21.0808C134.673 21.0808 132.933 20.8286 132.933 19.1283V14.5623C132.552 15.2439 131.99 15.8074 131.31 16.191C130.63 16.5745 129.857 16.7633 129.076 16.7366C126.202 16.7366 124.162 14.1274 124.162 10.8833C124.162 7.63926 126.436 5.12141 129.415 5.12141C130.193 5.11215 130.96 5.3053 131.641 5.68191C132.322 6.05852 132.893 6.60565 133.299 7.26962V5.3171H135.808V21.0808ZM132.933 12.4619V9.80487C132.754 9.18164 132.385 8.62975 131.878 8.22601C131.37 7.82226 130.75 7.58676 130.102 7.55229C128.363 7.55229 127.102 9.17867 127.102 10.9833C127.102 12.788 128.345 14.3057 130.146 14.3057C131.368 14.3231 132.29 13.5708 132.933 12.4793V12.4619Z" fill="#241E33"/>
</svg>
