<svg width="115" height="24" viewBox="0 0 115 24" fill="none" xmlns="http://www.w3.org/2000/svg">
<g clip-path="url(#clip0_18940_18402)">
<path d="M20.6316 5.84248C20.6316 2.61665 18.0094 0 14.7767 0H0.625L3.2611 2.6305H14.7767C16.5526 2.6305 18.0094 4.07035 18.0094 5.85634C18.0094 7.62846 16.5664 9.08215 14.7767 9.08215H13.4447H9.72647L16.8439 16.1845H20.5622L15.956 11.588C18.6198 11.0342 20.6316 8.68063 20.6316 5.84248Z" fill="url(#paint0_linear_18940_18402)"/>
<path d="M23.0039 21.2651C23.0039 20.4622 23.6005 19.8945 24.433 19.8945C24.9186 19.8945 25.3209 20.0883 25.529 20.476L25.1544 20.7114C24.9879 20.4483 24.7104 20.3237 24.4191 20.3237C23.8919 20.3237 23.4895 20.6975 23.4895 21.2651C23.4895 21.8467 23.8919 22.2204 24.4191 22.2204C24.7104 22.2204 24.9741 22.0958 25.1544 21.8328L25.529 22.0682C25.3209 22.4419 24.9186 22.6496 24.433 22.6496C23.6005 22.6496 23.0039 22.0682 23.0039 21.2651Z" fill="#241E33"/>
<path d="M25.875 21.2651C25.875 20.4622 26.4716 19.8945 27.2763 19.8945C28.081 19.8945 28.6776 20.4622 28.6776 21.2651C28.6776 22.0682 28.081 22.6496 27.2763 22.6496C26.4716 22.6496 25.875 22.0682 25.875 21.2651ZM28.192 21.2651C28.192 20.6837 27.8035 20.3237 27.2902 20.3237C26.763 20.3237 26.3745 20.6975 26.3745 21.2651C26.3745 21.8467 26.763 22.2204 27.2902 22.2204C27.8035 22.2204 28.192 21.8467 28.192 21.2651Z" fill="#241E33"/>
<path d="M31.9378 21.0596V22.6102H31.4522V21.115C31.4522 20.5889 31.1886 20.3258 30.7169 20.3258C30.1897 20.3258 29.8567 20.6304 29.8567 21.2258V22.6102H29.3711V19.9105H29.8428V20.312C30.0371 20.0351 30.3839 19.8828 30.814 19.8828C31.4661 19.8967 31.9378 20.2705 31.9378 21.0596Z" fill="#241E33"/>
<path d="M35.4066 21.0596V22.6102H34.921V21.115C34.921 20.5889 34.6574 20.3258 34.1857 20.3258C33.6584 20.3258 33.3254 20.6304 33.3254 21.2258V22.6102H32.8398V19.9105H33.3116V20.312C33.5058 20.0351 33.8527 19.8828 34.2827 19.8828C34.9487 19.8967 35.4066 20.2705 35.4066 21.0596Z" fill="#241E33"/>
<path d="M38.7619 21.4313H36.5698C36.6253 21.902 37.0137 22.2204 37.5548 22.2204C37.8739 22.2204 38.1376 22.1097 38.3318 21.8882L38.5954 22.2066C38.3456 22.4974 37.9849 22.6496 37.5271 22.6496C36.653 22.6496 36.0703 22.0682 36.0703 21.2651C36.0703 20.4622 36.653 19.8945 37.43 19.8945C38.2069 19.8945 38.7619 20.4483 38.7619 21.279C38.7757 21.3206 38.7757 21.3759 38.7619 21.4313ZM36.5698 21.0713H38.304C38.2485 20.6144 37.9156 20.296 37.43 20.296C36.9721 20.296 36.6253 20.6144 36.5698 21.0713Z" fill="#241E33"/>
<path d="M39.207 21.2651C39.207 20.4622 39.8036 19.8945 40.6361 19.8945C41.1217 19.8945 41.524 20.0883 41.7321 20.476L41.3576 20.7114C41.191 20.4483 40.9136 20.3237 40.6222 20.3237C40.095 20.3237 39.6926 20.6975 39.6926 21.2651C39.6926 21.8467 40.095 22.2204 40.6222 22.2204C40.9136 22.2204 41.1772 22.0958 41.3576 21.8328L41.7321 22.0682C41.524 22.4419 41.1217 22.6496 40.6361 22.6496C39.8036 22.6496 39.207 22.0682 39.207 21.2651Z" fill="#241E33"/>
<path d="M43.9223 22.457C43.7699 22.5816 43.548 22.6508 43.3257 22.6508C42.7847 22.6508 42.4657 22.3463 42.4657 21.8063V20.3249H42.0078V19.9234H42.4657V19.3281H42.9514V19.9234H43.7282V20.3249H42.9514V21.7925C42.9514 22.0832 43.1038 22.2493 43.3813 22.2493C43.5202 22.2493 43.6588 22.2078 43.7699 22.1248L43.9223 22.457Z" fill="#241E33"/>
<path d="M44.3438 22.2914C44.3438 22.0838 44.4966 21.9453 44.6907 21.9453C44.8709 21.9453 45.0237 22.0838 45.0237 22.2914C45.0237 22.4991 44.8709 22.6376 44.6907 22.6376C44.4966 22.6514 44.3438 22.4991 44.3438 22.2914Z" fill="#241E33"/>
<path d="M46.7578 22.333L46.9662 21.9453C47.202 22.1115 47.5629 22.2222 47.9094 22.2222C48.3675 22.2222 48.5477 22.0838 48.5477 21.8623C48.5477 21.2531 46.8412 21.7792 46.8412 20.7131C46.8412 20.2286 47.2715 19.9102 47.965 19.9102C48.3119 19.9102 48.7144 20.0071 48.9502 20.1594L48.7422 20.547C48.4921 20.3947 48.2286 20.3393 47.965 20.3393C47.5351 20.3393 47.3267 20.4916 47.3267 20.7131C47.3267 21.35 49.0471 20.8239 49.0471 21.8761C49.0471 22.3607 48.6033 22.6791 47.882 22.6791C47.4239 22.6514 46.9801 22.513 46.7578 22.333Z" fill="#241E33"/>
<path d="M52.223 21.0571V22.6077H51.7375V21.1125C51.7375 20.5864 51.4739 20.3233 51.0019 20.3233C50.4748 20.3233 50.1421 20.6279 50.1421 21.2232V22.6077H49.6562V18.8281H50.1421V20.2957C50.3501 20.0326 50.6832 19.8941 51.0992 19.8941C51.7514 19.8941 52.223 20.268 52.223 21.0571Z" fill="#241E33"/>
<path d="M55.2741 20.9904V22.6241H54.8164V22.2642C54.6501 22.5133 54.3587 22.6518 53.9284 22.6518C53.3179 22.6518 52.9297 22.3195 52.9297 21.8626C52.9297 21.4335 53.2072 21.0735 54.0118 21.0735H54.7886V20.9766C54.7886 20.5613 54.5528 20.3259 54.0674 20.3259C53.7482 20.3259 53.4152 20.4367 53.2072 20.6166L52.9987 20.2567C53.2762 20.0351 53.6787 19.9106 54.1225 19.9106C54.8442 19.8967 55.2741 20.2428 55.2741 20.9904ZM54.7747 21.7934V21.4196H54.0257C53.5398 21.4196 53.4013 21.6135 53.4013 21.835C53.4013 22.098 53.6232 22.278 53.9979 22.278C54.3722 22.2642 54.6501 22.098 54.7747 21.7934Z" fill="#241E33"/>
<path d="M57.6344 19.8945V20.3653C57.5927 20.3653 57.551 20.3653 57.5232 20.3653C56.996 20.3653 56.6769 20.6837 56.6769 21.279V22.6219H56.1914V19.9222H56.663V20.3791C56.8158 20.0468 57.1624 19.8945 57.6344 19.8945Z" fill="#241E33"/>
<path d="M60.6449 21.4313H58.4529C58.5081 21.902 58.8967 22.2204 59.4378 22.2204C59.7569 22.2204 60.0205 22.1097 60.2146 21.8882L60.4782 22.2066C60.2285 22.4974 59.8681 22.6496 59.41 22.6496C58.5359 22.6496 57.9531 22.0682 57.9531 21.2651C57.9531 20.4622 58.5359 19.8945 59.3127 19.8945C60.09 19.8945 60.6449 20.4483 60.6449 21.279C60.6588 21.3206 60.6449 21.3759 60.6449 21.4313ZM58.4529 21.0713H60.1868C60.1316 20.6144 59.7986 20.296 59.3127 20.296C58.8411 20.296 58.4942 20.6144 58.4529 21.0713Z" fill="#241E33"/>
<path d="M61.1016 22.2914C61.1016 22.0838 61.254 21.9453 61.4485 21.9453C61.6287 21.9453 61.7811 22.0838 61.7811 22.2914C61.7811 22.4991 61.6287 22.6376 61.4485 22.6376C61.254 22.6514 61.1016 22.4991 61.1016 22.2914Z" fill="#241E33"/>
<path d="M66.2934 21.4313H64.1014C64.1565 21.902 64.5451 22.2204 65.0862 22.2204C65.4054 22.2204 65.6689 22.1097 65.863 21.8882L66.127 22.2066C65.8769 22.4974 65.5165 22.6496 65.0584 22.6496C64.1843 22.6496 63.6016 22.0682 63.6016 21.2651C63.6016 20.4622 64.1843 19.8945 64.9616 19.8945C65.7384 19.8945 66.2934 20.4483 66.2934 21.279C66.3072 21.3206 66.3072 21.3759 66.2934 21.4313ZM64.1014 21.0713H65.8357C65.7801 20.6144 65.447 20.296 64.9616 20.296C64.5035 20.296 64.1565 20.6144 64.1014 21.0713Z" fill="#241E33"/>
<path d="M68.636 22.6099L67.8591 21.5715L67.0684 22.6099H66.5273L67.5956 21.2254L66.5825 19.9102H67.1236L67.873 20.8793L68.6082 19.9102H69.1492L68.1227 21.2254L69.2048 22.6099H68.636Z" fill="#241E33"/>
<path d="M72.5213 21.2651C72.5213 22.0958 71.9385 22.6496 71.1478 22.6496C70.7592 22.6496 70.4261 22.4974 70.2042 22.2066V23.6049H69.7188V19.9222H70.1903V20.3514C70.4122 20.0468 70.7592 19.8945 71.1617 19.8945C71.9524 19.8945 72.5213 20.4345 72.5213 21.2651ZM72.0219 21.2651C72.0219 20.6975 71.6333 20.3237 71.1061 20.3237C70.5929 20.3237 70.2042 20.6975 70.2042 21.2651C70.2042 21.8467 70.5929 22.2204 71.1061 22.2204C71.6333 22.2204 72.0219 21.8467 72.0219 21.2651Z" fill="#241E33"/>
<path d="M74.6578 19.8945V20.3653C74.6161 20.3653 74.5748 20.3653 74.5471 20.3653C74.0199 20.3653 73.7007 20.6837 73.7007 21.279V22.6219H73.2148V19.9222H73.6868V20.3791C73.8393 20.0468 74.1862 19.8945 74.6578 19.8945Z" fill="#241E33"/>
<path d="M77.6718 21.4313H75.4798C75.5354 21.902 75.924 22.2204 76.4651 22.2204C76.7843 22.2204 77.0478 22.1097 77.2419 21.8882L77.5055 22.2066C77.2558 22.4974 76.895 22.6496 76.4373 22.6496C75.5632 22.6496 74.9805 22.0682 74.9805 21.2651C74.9805 20.4622 75.5632 19.8945 76.34 19.8945C77.1169 19.8945 77.6718 20.4483 77.6718 21.279C77.6718 21.3206 77.6718 21.3759 77.6718 21.4313ZM75.4798 21.0713H77.2142C77.1586 20.6144 76.8255 20.296 76.34 20.296C75.8685 20.296 75.5215 20.6144 75.4798 21.0713Z" fill="#241E33"/>
<path d="M78.0156 22.333L78.2236 21.9453C78.4594 22.1115 78.8203 22.2222 79.1672 22.2222C79.6249 22.2222 79.8051 22.0838 79.8051 21.8623C79.8051 21.2531 78.099 21.7792 78.099 20.7131C78.099 20.2286 78.5289 19.9102 79.2228 19.9102C79.5693 19.9102 79.9718 20.0071 80.2076 20.1594L79.9996 20.547C79.7499 20.3947 79.4864 20.3393 79.2228 20.3393C78.7925 20.3393 78.5845 20.4916 78.5845 20.7131C78.5845 21.35 80.3049 20.8239 80.3049 21.8761C80.3049 22.3607 79.8607 22.6791 79.1394 22.6791C78.6813 22.6514 78.2375 22.513 78.0156 22.333Z" fill="#241E33"/>
<path d="M80.5664 22.333L80.7748 21.9453C81.0106 22.1115 81.371 22.2222 81.718 22.2222C82.1761 22.2222 82.3563 22.0838 82.3563 21.8623C82.3563 21.2531 80.6498 21.7792 80.6498 20.7131C80.6498 20.2286 81.0797 19.9102 81.7736 19.9102C82.1205 19.9102 82.5226 20.0071 82.7588 20.1594L82.5504 20.547C82.3007 20.3947 82.0371 20.3393 81.7736 20.3393C81.3437 20.3393 81.1352 20.4916 81.1352 20.7131C81.1352 21.35 82.8557 20.8239 82.8557 21.8761C82.8557 22.3607 82.4119 22.6791 81.6902 22.6791C81.2325 22.6514 80.7887 22.513 80.5664 22.333Z" fill="#241E33"/>
<path d="M83.2344 22.2914C83.2344 22.0838 83.3872 21.9453 83.5813 21.9453C83.762 21.9453 83.9144 22.0838 83.9144 22.2914C83.9144 22.4991 83.762 22.6376 83.5813 22.6376C83.4011 22.6514 83.2344 22.4991 83.2344 22.2914Z" fill="#241E33"/>
<path d="M26.4984 4.76172H23.8761L20.4492 12.4317L22.2945 14.273L24.3756 9.26126L25.1664 7.35069L26.984 11.7256L27.8164 13.7331L28.2881 14.8407L28.5517 15.4914L28.8292 16.1836H31.6179L26.4984 4.76172Z" fill="#241E33"/>
<path d="M48.5616 4.76385L44.8159 16.1858H41.9715L39.4464 8.44655L36.8519 16.1858H34.0216L30.2617 4.76385H33.0088L35.5894 12.7938L38.2949 4.76385H40.7506L43.3591 12.8492L46.0226 4.75H48.5616V4.76385Z" fill="#241E33"/>
<path d="M48.9062 10.4664C48.9062 7.01902 51.5564 4.55469 55.1218 4.55469C57.1058 4.55469 58.7568 5.2746 59.8389 6.57599L58.1324 8.14046C57.3694 7.25439 56.3985 6.79751 55.2608 6.79751C53.1239 6.79751 51.5976 8.29275 51.5976 10.4525C51.5976 12.6123 53.1239 14.1075 55.2608 14.1075C56.4124 14.1075 57.3694 13.6506 58.1324 12.7507L59.8389 14.3152C58.7568 15.6304 57.1058 16.3504 55.1079 16.3504C51.5564 16.3781 48.9062 13.9137 48.9062 10.4664Z" fill="#241E33"/>
<path d="M73.0195 15.0646L73.9214 13.071C74.8928 13.777 76.3219 14.2616 77.6953 14.2616C79.2633 14.2616 79.9012 13.7355 79.9012 13.0433C79.9012 10.9112 73.2418 12.3787 73.2418 8.12842C73.2418 6.19014 74.8094 4.57031 78.0701 4.57031C79.513 4.57031 80.9837 4.91642 82.0381 5.58097L81.2195 7.58846C80.1509 6.97928 79.0549 6.68854 78.0423 6.68854C76.4743 6.68854 75.8637 7.27002 75.8637 7.98993C75.8637 10.0944 82.5235 8.64067 82.5235 12.8356C82.5235 14.7462 80.9421 16.3799 77.6675 16.3799C75.8637 16.3799 74.0326 15.8399 73.0195 15.0646Z" fill="#241E33"/>
<path d="M86.5612 6.90766H82.8984V4.76172H92.874V6.92151H89.2113V16.1975H86.5612V6.90766Z" fill="#241E33"/>
<path d="M102.947 14.0654V16.1836H94.2891V4.76172H102.947V6.87999H96.9253V9.35818H102.239V11.421H96.9253V14.0654H102.947Z" fill="#241E33"/>
<path d="M111.7 16.1836L109.494 12.9994H109.369H107.066V16.1836H104.402V4.76172H109.355C112.407 4.76172 114.322 6.34003 114.322 8.9013C114.322 10.6181 113.462 11.8779 111.964 12.5148L114.53 16.1836H111.7ZM109.217 6.90766H107.052V10.8949H109.217C110.84 10.8949 111.658 10.1473 111.658 8.9013C111.658 7.64142 110.84 6.90766 109.217 6.90766Z" fill="#241E33"/>
<path d="M67.5969 4.76172H64.9885L59.8828 16.1836H62.6024L63.615 13.7331L65.3355 9.62121L66.279 7.35069L67.2222 9.62121L69.3729 14.7715H69.359L69.9418 16.1836H72.7165L67.5969 4.76172Z" fill="#241E33"/>
<path d="M2.27344 9.06641L9.39088 16.1688H13.1092L5.99172 9.06641H2.27344Z" fill="url(#paint1_linear_18940_18402)"/>
</g>
<defs>
<linearGradient id="paint0_linear_18940_18402" x1="10.6283" y1="0" x2="10.6283" y2="16.1845" gradientUnits="userSpaceOnUse">
<stop stop-color="#241E33"/>
<stop offset="1" stop-color="#3C364A"/>
</linearGradient>
<linearGradient id="paint1_linear_18940_18402" x1="7.69131" y1="9.06641" x2="7.69131" y2="16.1688" gradientUnits="userSpaceOnUse">
<stop stop-color="#241E33"/>
<stop offset="1" stop-color="#3C364A"/>
</linearGradient>
<clipPath id="clip0_18940_18402">
<rect width="114.105" height="24" fill="white" transform="translate(0.625)"/>
</clipPath>
</defs>
</svg>
