<svg width="87" height="22" viewBox="0 0 87 22" fill="none" xmlns="http://www.w3.org/2000/svg">
<path d="M8.36203 17.2765C5.97433 17.2765 4.11464 16.611 2.78303 15.2798C1.46675 13.9487 0.808594 12.0615 0.808594 9.61846V0.503906H5.35445V9.47749C5.35445 12.1085 6.37229 13.424 8.40801 13.424C10.4284 13.424 11.4385 12.1085 11.4385 9.47749V0.503906H15.9155V9.61846C15.9155 12.0615 15.2497 13.9487 13.9181 15.2798C12.6018 16.611 10.7498 17.2765 8.36203 17.2765Z" fill="#241E33"/>
<path d="M25.7899 4C26.9225 4 27.948 4.27408 28.8663 4.82223C29.7999 5.35466 30.5346 6.12202 31.0704 7.1243C31.6214 8.11093 31.8969 9.26204 31.8969 10.5776C31.8969 11.893 31.6214 13.0519 31.0704 14.0542C30.5346 15.0409 29.7999 15.8082 28.8663 16.3563C27.948 16.8888 26.9225 17.155 25.7899 17.155C24.3358 17.155 23.1802 16.7087 22.3231 15.816V21.5009H17.9609V4.21142H22.1164V5.47999C22.9277 4.49335 24.1521 4 25.7899 4ZM24.8715 13.6078C25.6368 13.6078 26.2644 13.3417 26.7542 12.8092C27.244 12.261 27.4888 11.5172 27.4888 10.5775C27.4888 9.63786 27.244 8.9018 26.7542 8.36929C26.2644 7.82121 25.6368 7.54713 24.8715 7.54713C24.1062 7.54713 23.4787 7.82121 22.9889 8.36929C22.4992 8.9018 22.2542 9.63786 22.2542 10.5775C22.2542 11.5171 22.4992 12.261 22.9889 12.8092C23.4787 13.3417 24.1062 13.6078 24.8715 13.6078Z" fill="#241E33"/>
<path d="M48.8667 0.503906V16.9477H45.1245L38.0302 8.18548V16.9477H33.5762V0.503906H37.3185L44.4128 9.26607V0.503906H48.8667Z" fill="#241E33"/>
<path d="M63.7537 10.6009C63.7537 10.6323 63.7307 11.0002 63.6848 11.705H54.639C54.8227 12.3628 55.1748 12.8718 55.6952 13.2319C56.231 13.5765 56.8968 13.7487 57.6926 13.7487C58.2895 13.7487 58.8024 13.6626 59.2308 13.4904C59.6747 13.3181 60.1185 13.0362 60.5624 12.6447L62.8583 15.0877C61.6492 16.4659 59.8814 17.155 57.5548 17.155C56.1007 17.155 54.8227 16.8731 53.7207 16.3093C52.6186 15.7455 51.7614 14.9625 51.1493 13.9602C50.5524 12.9579 50.2539 11.8225 50.2539 10.554C50.2539 9.30112 50.5446 8.18138 51.1263 7.19475C51.7232 6.19247 52.542 5.40947 53.583 4.84566C54.6239 4.28186 55.7948 4 57.0956 4C58.3354 4 59.4604 4.26622 60.4706 4.79872C61.4808 5.31551 62.2766 6.07508 62.8583 7.07736C63.4552 8.06392 63.7537 9.23846 63.7537 10.6009ZM57.1186 7.17124C56.445 7.17124 55.8788 7.36701 55.4196 7.75848C54.9757 8.15001 54.6927 8.68252 54.5702 9.35592H59.667C59.5445 8.68252 59.2537 8.15001 58.7946 7.75848C58.3506 7.36701 57.7921 7.17124 57.1186 7.17124Z" fill="#241E33"/>
<path d="M70.012 17.155C68.9711 17.155 67.9457 17.0376 66.9356 16.8027C65.9254 16.5521 65.114 16.2311 64.502 15.8395L65.8106 12.7857C66.3768 13.1459 67.0504 13.4356 67.8309 13.6548C68.6116 13.8585 69.3844 13.9602 70.1498 13.9602C70.8538 13.9602 71.3514 13.8898 71.6421 13.7488C71.9483 13.5922 72.1013 13.373 72.1013 13.091C72.1013 12.8092 71.9176 12.6134 71.5503 12.5038C71.1982 12.3785 70.6319 12.261 69.8514 12.1514C68.8563 12.0262 68.0069 11.8617 67.3029 11.6581C66.6141 11.4545 66.0172 11.0787 65.5121 10.5305C65.007 9.98246 64.7545 9.21503 64.7545 8.2284C64.7545 7.4141 64.9918 6.69368 65.4662 6.06722C65.9406 5.42519 66.6294 4.92397 67.5325 4.5638C68.4509 4.18791 69.5452 4 70.8157 4C71.7187 4 72.6142 4.09395 73.5018 4.28186C74.3895 4.46985 75.132 4.73606 75.729 5.08059L74.4202 8.11094C73.3181 7.48455 72.1243 7.17132 70.8386 7.17132C70.1498 7.17132 69.6448 7.25748 69.3233 7.42975C69.0019 7.58636 68.8412 7.79778 68.8412 8.064C68.8412 8.36158 69.0171 8.573 69.3692 8.69824C69.7214 8.80792 70.3028 8.92538 71.1141 9.05063C72.1396 9.20724 72.989 9.38737 73.6626 9.59092C74.3361 9.79448 74.9176 10.1704 75.4071 10.7185C75.9129 11.251 76.165 12.0027 76.165 12.9737C76.165 13.7723 75.9277 14.4927 75.4531 15.1348C74.9793 15.7613 74.2747 16.2546 73.3412 16.6147C72.4228 16.9749 71.313 17.155 70.012 17.155Z" fill="#241E33"/>
<path d="M86.6238 16.425C86.2567 16.6599 85.8051 16.84 85.269 16.9653C84.7484 17.0906 84.19 17.1532 83.5931 17.1532C81.9705 17.1532 80.7232 16.746 79.8512 15.9317C78.9784 15.1173 78.5423 13.9036 78.5423 12.2905V8.01518H76.7285V4.67946H78.5423V1.36719H82.9049V4.67946H85.7517V8.01518H82.9049V12.2436C82.9049 12.6978 83.0191 13.0579 83.249 13.3242C83.4937 13.5748 83.8155 13.7001 84.213 13.7001C84.718 13.7001 85.1622 13.5669 85.5448 13.3007L86.6238 16.425Z" fill="#241E33"/>
</svg>
