<svg width="136" height="32" viewBox="0 0 136 32" fill="none" xmlns="http://www.w3.org/2000/svg">
<g clip-path="url(#clip0_7431_920)">
<path fill-rule="evenodd" clip-rule="evenodd" d="M8.01184 2V32H0V2H8.01184Z" fill="white"/>
<path fill-rule="evenodd" clip-rule="evenodd" d="M12.0195 2H29.0447C34.5758 2 39.0595 6.47715 39.0595 12C39.0595 17.5229 34.5758 22 29.0447 22H20.0314V32H12.0195V2ZM20.0314 14H29.0447C30.151 14 31.0477 13.1046 31.0477 12C31.0477 10.8954 30.151 10 29.0447 10H20.0314V14Z" fill="white"/>
<path fill-rule="evenodd" clip-rule="evenodd" d="M69.1017 2V17.5C69.1017 21.0898 72.0161 24 75.6113 24C79.2065 24 82.121 21.0898 82.121 17.5V2H90.133V17.5C90.133 25.5082 83.6314 32 75.6113 32C67.5913 32 61.0898 25.5082 61.0898 17.5V2H69.1017Z" fill="white"/>
<path fill-rule="evenodd" clip-rule="evenodd" d="M42.0626 16C42.0626 8.268 48.3399 2 56.0833 2H58.0863V10H56.0833C52.7647 10 50.0745 12.6863 50.0745 16V17C50.0745 25.2842 43.3488 32 35.0522 32H34.0508V24H35.0522C38.924 24 42.0626 20.866 42.0626 17V16Z" fill="white"/>
<path d="M135.2 3C135.2 4.65686 133.855 6 132.195 6C130.536 6 129.191 4.65686 129.191 3C129.191 1.34314 130.536 0 132.195 0C133.855 0 135.2 1.34314 135.2 3Z" fill="white"/>
<path d="M98.7368 32.0007L102.56 16.0152L105.402 25.6321C107.097 31.368 115.234 31.368 116.929 25.6321L119.77 16.0152L123.594 32.0007H131.83L125.819 6.86428C124.39 0.886641 115.954 0.665314 114.211 6.55982L111.166 16.8673L108.119 6.55982C106.378 0.665349 97.9408 0.886609 96.5112 6.86427L90.5 32.0007H98.7368Z" fill="white"/>
</g>
<defs>
<clipPath id="clip0_7431_920">
<rect width="135.2" height="32" fill="white"/>
</clipPath>
</defs>
</svg>
