<svg width="177" height="30" viewBox="0 0 177 30" fill="none" xmlns="http://www.w3.org/2000/svg">
<path d="M0.199219 15.2H7.21842C8.82002 15.2 10.4792 15.1024 11.8424 14.2624C12.908 13.6058 13.8051 12.7088 14.4616 11.6432C15.3016 10.28 15.3992 8.6208 15.3992 7.0192V0H4.99922C3.72618 0 2.50528 0.505713 1.60511 1.40589C0.704932 2.30606 0.199219 3.52696 0.199219 4.8L0.199219 15.2ZM37.3632 1.6C37.3632 2.02435 37.1946 2.43131 36.8946 2.73137C36.5945 3.03143 36.1876 3.2 35.7632 3.2C35.3389 3.2 34.9319 3.03143 34.6318 2.73137C34.3318 2.43131 34.1632 2.02435 34.1632 1.6C34.1632 1.17565 34.3318 0.768687 34.6318 0.468629C34.9319 0.168571 35.3389 0 35.7632 0C36.1876 0 36.5945 0.168571 36.8946 0.468629C37.1946 0.768687 37.3632 1.17565 37.3632 1.6ZM169.568 9.6832C174.041 9.6832 176.199 12.8072 176.199 16.4256V23.2216H171.518V17.232C171.518 15.592 170.92 14.2384 169.204 14.2384C167.488 14.2384 166.916 15.592 166.916 17.232V23.2208H162.235V17.232C162.235 15.592 161.663 14.2384 159.946 14.2384C158.23 14.2384 157.632 15.592 157.632 17.232V23.2208H152.952V16.4248C152.952 12.8064 155.11 9.6824 159.582 9.6824C162.027 9.6824 163.795 10.6456 164.602 12.2336C165.459 10.6456 167.332 9.6816 169.568 9.6816V9.6832ZM144.541 19.056C146.049 19.056 146.699 17.676 146.699 16.0352V10.2032H151.379V16.608C151.379 20.4352 149.143 23.612 144.541 23.612C139.938 23.612 137.702 20.436 137.702 16.608V10.2032H142.382V16.0352C142.382 17.6752 143.032 19.056 144.541 19.056ZM130.819 23.6376C127.881 23.6376 125.982 22.6224 124.864 20.644L128.245 18.7432C128.713 19.576 129.414 19.9928 130.585 19.9928C131.547 19.9928 131.989 19.6544 131.989 19.2376C131.989 17.6496 125.124 19.264 125.124 14.2136C125.124 11.7656 127.204 9.7872 130.741 9.7872C133.835 9.7872 135.526 11.2968 136.28 12.7552L132.899 14.6816C132.614 13.9008 131.729 13.432 130.845 13.432C130.169 13.432 129.805 13.7184 129.805 14.1088C129.805 15.7232 136.67 14.2392 136.67 19.1336C136.67 21.8672 133.991 23.6376 130.819 23.6376ZM114.466 29.2096H109.785V16.6864C109.785 12.7024 112.775 9.8128 116.936 9.8128C120.993 9.8128 124.087 12.9112 124.087 16.6864C124.087 20.852 121.33 23.612 117.196 23.612C116.234 23.612 115.272 23.3256 114.466 22.8824V29.2096ZM116.936 19.212C118.418 19.212 119.406 18.0664 119.406 16.712C119.406 15.3328 118.418 14.2128 116.936 14.2128C115.454 14.2128 114.466 15.3328 114.466 16.7128C114.466 18.0664 115.454 19.212 116.936 19.212ZM105.096 8.824C103.562 8.824 102.288 7.548 102.288 6.012C102.288 4.476 103.562 3.2 105.096 3.2C106.63 3.2 107.905 4.476 107.905 6.012C107.905 7.548 106.63 8.824 105.096 8.824ZM102.756 10.2032H107.437V23.2216H102.756V10.2032ZM93.7752 23.612C89.7184 23.612 86.624 20.488 86.624 16.6864C86.624 12.9112 89.7184 9.7872 93.7752 9.7872C97.832 9.7872 100.926 12.9112 100.926 16.6864C100.926 20.488 97.832 23.612 93.7752 23.612ZM93.7752 19.212C95.2576 19.212 96.2456 18.0664 96.2456 16.712C96.2456 15.3328 95.2576 14.1872 93.7752 14.1872C92.2928 14.1872 91.3048 15.3328 91.3048 16.712C91.3048 18.0664 92.2928 19.212 93.7752 19.212ZM77.7856 29.6C74.5616 29.6 72.2208 28.168 71.0248 25.616L74.8992 23.5336C75.3152 24.4192 76.0952 25.3304 77.7072 25.3304C79.3984 25.3304 80.516 24.2624 80.6464 22.388C80.0224 22.9352 79.0336 23.3512 77.552 23.3512C73.9368 23.3512 71.024 20.5656 71.024 16.66C71.024 12.8856 74.1192 9.8128 78.176 9.8128C82.3368 9.8128 85.3272 12.7032 85.3272 16.6864V21.8416C85.3272 26.528 82.076 29.6 77.7856 29.6ZM78.0976 18.952C79.5016 18.952 80.568 17.988 80.568 16.556C80.568 15.1504 79.5024 14.2128 78.0976 14.2128C76.7192 14.2128 75.6272 15.1504 75.6272 16.5568C75.6272 17.9888 76.7192 18.9512 78.0976 18.9512V18.952ZM63.0848 23.612C59.028 23.612 55.9328 20.488 55.9328 16.6864C55.9328 12.9112 59.028 9.7872 63.0848 9.7872C67.1408 9.7872 70.236 12.9112 70.236 16.6864C70.236 20.488 67.1416 23.612 63.0848 23.612ZM63.0848 19.212C64.5672 19.212 65.5552 18.0664 65.5552 16.712C65.5552 15.3328 64.5672 14.1872 63.0848 14.1872C61.6024 14.1872 60.6144 15.3328 60.6144 16.712C60.6144 18.0664 61.6024 19.212 63.0848 19.212ZM47.4096 5.648V18.7952H55.1592V23.2216H46.7592C43.7952 23.2216 42.5992 21.6592 42.5992 19.1856V5.648H47.4096Z" fill="white"/>
</svg>
