<svg width="199" height="185" viewBox="0 0 199 185" fill="none" xmlns="http://www.w3.org/2000/svg">
<path d="M135.318 33.6671C138.164 23.5595 142.762 12.288 151.246 5.46488C152.961 4.08657 155.324 2.34309 156.794 0.907227C152.781 1.01241 148.088 1.44406 144.081 1.69214C134.412 2.28851 94.0013 4.78317 83.465 5.43313C76.6251 5.85585 69.7851 6.27758 62.9452 6.7003C54.9591 7.19347 48.5508 15.9972 45.0162 22.3549C41.0291 29.5263 38.7379 37.5411 37.2078 45.5629C35.1339 56.4356 32.8069 109.255 32.2641 114.146C31.3026 122.802 27.896 136.653 16.9072 136.748C21.319 136.747 104.311 137.341 110.772 137.335C118.311 137.328 122.749 131.361 125.265 124.931C128.348 117.05 129.16 82.9747 129.573 74.1422C129.988 65.2909 134.034 38.2268 135.318 33.6671Z" fill="url(#paint0_radial_2843_42072)"/>
<path d="M135.318 33.6671C138.164 23.5595 142.762 12.288 151.246 5.46488C152.961 4.08657 155.324 2.34309 156.794 0.907227C152.781 1.01241 148.088 1.44406 144.081 1.69214C134.412 2.28851 94.0013 4.78317 83.465 5.43313C76.6251 5.85585 69.7851 6.27758 62.9452 6.7003C54.9591 7.19347 48.5508 15.9972 45.0162 22.3549C41.0291 29.5263 38.7379 37.5411 37.2078 45.5629C35.1339 56.4356 32.8069 109.255 32.2641 114.146C31.3026 122.802 27.896 136.653 16.9072 136.748C21.319 136.747 104.311 137.341 110.772 137.335C118.311 137.328 122.749 131.361 125.265 124.931C128.348 117.05 129.16 82.9747 129.573 74.1422C129.988 65.2909 134.034 38.2268 135.318 33.6671Z" fill="url(#paint1_linear_2843_42072)"/>
<path d="M108.53 143.406C104.237 142.425 101.348 139.833 98.9993 136.188C97.2588 133.487 95.7594 130.583 95.2057 127.397C94.6451 124.176 95.3913 121.803 98.4903 120.054C95.3556 120.059 5.89246 120.85 4.55086 120.861C1.77638 120.886 0.368304 123.668 0.313727 126.079C0.25915 128.504 1.04208 130.955 1.97385 133.168C3.30453 136.327 5.38539 139.291 8.14995 141.353C10.59 143.172 13.7833 144.258 16.8743 144.266C16.8743 144.266 111.404 144.492 111.414 144.492C110.242 144.184 109.553 143.64 108.53 143.406Z" fill="url(#paint2_linear_2843_42072)"/>
<path d="M160.695 3.39657C159.925 1.55585 157.867 0.283718 155.912 1.14801C152.428 2.69303 149.315 5.23035 146.559 8.50297C140.314 15.9204 136.657 25.6708 134.181 34.929C131.981 43.1522 130.695 51.7257 129.929 60.198C129.369 66.391 129.061 72.6157 128.84 78.8305C128.528 87.5727 128.383 96.3268 127.93 105.063C127.582 111.745 126.965 119.063 124.405 125.312C121.41 132.621 109.823 142.858 104.005 131.714C102.5 128.83 102.642 125.568 101.552 122.583C101.22 121.674 100.643 120.679 99.7274 120.262C97.2169 119.121 94.8711 122.011 94.5268 124.169C93.733 129.151 96.7079 135.495 99.9587 139.187C102.167 141.696 105.414 143.653 108.7 144.262C111.517 144.785 114.798 144.392 117.468 143.362C123.765 140.935 128.238 135.24 130.853 129.206C132.963 124.338 134.059 118.902 134.664 113.649C135.978 102.253 135.817 90.7124 136.223 79.2602C136.439 73.1942 136.735 67.1253 137.279 61.0792C137.986 53.2221 139.105 45.3462 140.933 37.6678C142.806 29.7988 145.641 21.1806 150.884 14.8736C153.205 12.0812 155.906 9.90113 159.058 8.499C161.11 7.58608 161.469 5.24623 160.695 3.39657Z" fill="url(#paint3_linear_2843_42072)"/>
<path d="M82.6013 31.0263C80.1017 31.0263 78.0506 29.0259 78 26.5163C77.9484 23.974 79.9667 21.8704 82.51 21.8188L111.844 21.3514C114.386 21.3047 116.49 23.3181 116.542 25.8604C116.594 28.4027 114.575 30.5064 112.033 30.558L82.6986 31.0254C82.6658 31.0254 82.6331 31.0263 82.6013 31.0263Z" fill="url(#paint4_linear_2843_42072)"/>
<path d="M65.9955 32.4304C69.4415 32.4304 72.2351 29.6368 72.2351 26.1908C72.2351 22.7447 69.4415 19.9512 65.9955 19.9512C62.5494 19.9512 59.7559 22.7447 59.7559 26.1908C59.7559 29.6368 62.5494 32.4304 65.9955 32.4304Z" fill="url(#paint5_radial_2843_42072)"/>
<path d="M59.223 53.9358C62.669 53.9358 65.4626 51.1422 65.4626 47.6962C65.4626 44.2501 62.669 41.4565 59.223 41.4565C55.777 41.4565 52.9834 44.2501 52.9834 47.6962C52.9834 51.1422 55.777 53.9358 59.223 53.9358Z" fill="url(#paint6_radial_2843_42072)"/>
<path d="M56.64 75.4411C60.086 75.4411 62.8796 72.6476 62.8796 69.2015C62.8796 65.7555 60.086 62.9619 56.64 62.9619C53.194 62.9619 50.4004 65.7555 50.4004 69.2015C50.4004 72.6476 53.194 75.4411 56.64 75.4411Z" fill="url(#paint7_radial_2843_42072)"/>
<path d="M55.992 96.947C59.4381 96.947 62.2317 94.1534 62.2317 90.7074C62.2317 87.2613 59.4381 84.4678 55.992 84.4678C52.546 84.4678 49.7524 87.2613 49.7524 90.7074C49.7524 94.1534 52.546 96.947 55.992 96.947Z" fill="url(#paint8_radial_2843_42072)"/>
<path d="M75.8244 52.5321C73.3258 52.5321 71.2747 50.5326 71.2231 48.0221C71.1715 45.4798 73.1899 43.3771 75.7322 43.3245L105.066 42.8572C107.61 42.7996 109.711 44.8239 109.763 47.3662C109.815 49.9085 107.796 52.0112 105.254 52.0637L75.9207 52.5311C75.889 52.5321 75.8562 52.5321 75.8244 52.5321Z" fill="url(#paint9_linear_2843_42072)"/>
<path d="M73.2458 74.0421C70.7462 74.0421 68.6961 72.0426 68.6445 69.5321C68.5929 66.9898 70.6113 64.8871 73.1536 64.8345L102.487 64.3671C105.032 64.3165 107.132 66.3339 107.185 68.8762C107.236 71.4184 105.218 73.5211 102.676 73.5737L73.3421 74.0411C73.3103 74.0411 73.2776 74.0421 73.2458 74.0421Z" fill="url(#paint10_linear_2843_42072)"/>
<path d="M72.5979 95.548C70.0993 95.548 68.0482 93.5485 67.9966 91.0379C67.945 88.4956 69.9633 86.393 72.5056 86.3404L95.3881 85.873C97.9334 85.8105 100.033 87.8397 100.086 90.382C100.137 92.9243 98.119 95.027 95.5767 95.0796L72.6941 95.547C72.6624 95.548 72.6296 95.548 72.5979 95.548Z" fill="url(#paint11_linear_2843_42072)"/>
<g opacity="0.4" filter="url(#filter0_f_2843_42072)">
<path d="M155.749 90.4446C163.623 111.256 153.561 134.349 133.274 142.025C112.988 149.7 90.1597 139.051 82.2858 118.24C74.4119 97.4284 84.4748 74.3355 104.76 66.66C125.046 58.9846 147.876 69.633 155.749 90.4446Z" fill="url(#paint12_radial_2843_42072)"/>
</g>
<path d="M129.41 123.926C149.613 123.926 165.99 107.549 165.99 87.3464C165.99 67.1442 149.613 50.7671 129.41 50.7671C109.208 50.7671 92.8311 67.1442 92.8311 87.3464C92.8311 107.549 109.208 123.926 129.41 123.926Z" fill="url(#paint13_radial_2843_42072)"/>
<path d="M129.41 123.926C149.613 123.926 165.99 107.549 165.99 87.3464C165.99 67.1442 149.613 50.7671 129.41 50.7671C109.208 50.7671 92.8311 67.1442 92.8311 87.3464C92.8311 107.549 109.208 123.926 129.41 123.926Z" fill="url(#paint14_radial_2843_42072)"/>
<path opacity="0.09" d="M102.88 79.0662C102.338 80.3254 101.594 81.4269 100.424 81.2919C99.5447 81.1907 98.9781 80.2917 98.7628 79.4333C98.2438 77.3604 99.0118 75.1853 99.9972 73.29C102.041 69.3604 105.05 65.6224 108.723 63.1119C109.305 62.714 109.946 62.3578 110.649 62.2952C111.351 62.2327 112.125 62.5314 112.443 63.1615C113.389 65.0429 109.397 68.3225 108.303 69.5758C106.565 71.5634 105.103 73.7901 103.96 76.1706C103.656 76.8047 103.341 77.9935 102.88 79.0662Z" fill="white"/>
<path d="M125.682 102.44C124.447 102.417 123.272 101.905 122.414 101.016L110.425 88.5785C108.64 86.7268 108.695 83.7787 110.546 81.9936C112.399 80.2084 115.346 80.263 117.131 82.1146L125.889 91.2001L143.84 73.8963C145.692 72.1112 148.64 72.1658 150.425 74.0174C152.21 75.8691 152.156 78.8172 150.304 80.6023L129.001 101.138C128.11 101.993 126.917 102.462 125.682 102.44Z" fill="white"/>
<defs>
<filter id="filter0_f_2843_42072" x="39.6055" y="24.168" width="158.824" height="160.349" filterUnits="userSpaceOnUse" color-interpolation-filters="sRGB">
<feFlood flood-opacity="0" result="BackgroundImageFix"/>
<feBlend mode="normal" in="SourceGraphic" in2="BackgroundImageFix" result="shape"/>
<feGaussianBlur stdDeviation="20" result="effect1_foregroundBlur_2843_42072"/>
</filter>
<radialGradient id="paint0_radial_2843_42072" cx="0" cy="0" r="1" gradientUnits="userSpaceOnUse" gradientTransform="translate(-202.522 63.9582) scale(377.296 377.296)">
<stop offset="0.6262" stop-color="#BED8D9"/>
<stop offset="0.6284" stop-color="#C1DADB"/>
<stop offset="0.6485" stop-color="#D7E7E9"/>
<stop offset="0.6705" stop-color="#E7F1F3"/>
<stop offset="0.6955" stop-color="#F0F6F9"/>
<stop offset="0.7302" stop-color="#F3F8FB"/>
<stop offset="0.8171" stop-color="#F3F8FB"/>
<stop offset="0.8246" stop-color="#F3F8FB"/>
<stop offset="0.8491" stop-color="#EAF3F5"/>
<stop offset="0.8889" stop-color="#D2E4E6"/>
<stop offset="0.9152" stop-color="#BED8D9"/>
<stop offset="0.9464" stop-color="#B9D2D3"/>
<stop offset="0.9878" stop-color="#ABC1C4"/>
<stop offset="1" stop-color="#A6BBBE"/>
</radialGradient>
<linearGradient id="paint1_linear_2843_42072" x1="86.8509" y1="0.907217" x2="86.8509" y2="137.335" gradientUnits="userSpaceOnUse">
<stop stop-color="#BED8D9"/>
<stop offset="0.2142" stop-color="#F3F8FB"/>
<stop offset="0.8243" stop-color="#BED8D9"/>
<stop offset="0.9143" stop-color="#B2CACC"/>
<stop offset="0.9878" stop-color="#A6BBBE"/>
</linearGradient>
<linearGradient id="paint2_linear_2843_42072" x1="55.8618" y1="114.839" x2="55.8618" y2="151.412" gradientUnits="userSpaceOnUse">
<stop stop-color="#BED8D9"/>
<stop offset="0.0269" stop-color="#C2DBDC"/>
<stop offset="0.174" stop-color="#D6E7E9"/>
<stop offset="0.2746" stop-color="#DDEBEE"/>
<stop offset="0.3967" stop-color="#D4E6E8"/>
<stop offset="0.5844" stop-color="#BED8D9"/>
<stop offset="0.695" stop-color="#AECCD1"/>
<stop offset="0.9099" stop-color="#85ACBB"/>
<stop offset="0.9983" stop-color="#729EB1"/>
</linearGradient>
<linearGradient id="paint3_linear_2843_42072" x1="184.044" y1="7.01727" x2="82.8986" y2="146.293" gradientUnits="userSpaceOnUse">
<stop stop-color="#E3ECF1"/>
<stop offset="0.0365" stop-color="#D5E4E8"/>
<stop offset="0.0912" stop-color="#C8DDDF"/>
<stop offset="0.1616" stop-color="#C0D9DA"/>
<stop offset="0.3014" stop-color="#BED8D9"/>
<stop offset="0.3956" stop-color="#ABC9CF"/>
<stop offset="0.5863" stop-color="#79A3B5"/>
<stop offset="0.6111" stop-color="#729EB1"/>
<stop offset="0.6764" stop-color="#93B7C2"/>
<stop offset="0.7683" stop-color="#BED8D9"/>
<stop offset="0.8702" stop-color="#C0D9DB"/>
<stop offset="0.9269" stop-color="#C8DEE0"/>
<stop offset="0.9722" stop-color="#D6E5E9"/>
<stop offset="1" stop-color="#E3ECF1"/>
</linearGradient>
<linearGradient id="paint4_linear_2843_42072" x1="97.2707" y1="18.5901" x2="97.2707" y2="36.1418" gradientUnits="userSpaceOnUse">
<stop offset="0.1413" stop-color="#A6BBBE"/>
<stop offset="0.1587" stop-color="#A9BEC1"/>
<stop offset="0.2752" stop-color="#B8D1D3"/>
<stop offset="0.3567" stop-color="#BED8D9"/>
<stop offset="0.4731" stop-color="#BAD3D5"/>
<stop offset="0.6036" stop-color="#AFC6C8"/>
<stop offset="0.6766" stop-color="#A6BBBE"/>
<stop offset="0.7373" stop-color="#9CAFB2"/>
<stop offset="0.8458" stop-color="#809093"/>
<stop offset="0.8983" stop-color="#717F82"/>
</linearGradient>
<radialGradient id="paint5_radial_2843_42072" cx="0" cy="0" r="1" gradientUnits="userSpaceOnUse" gradientTransform="translate(64.661 25.0058) scale(8.40145)">
<stop stop-color="#8962FB"/>
<stop offset="1" stop-color="#6137DB"/>
</radialGradient>
<radialGradient id="paint6_radial_2843_42072" cx="0" cy="0" r="1" gradientUnits="userSpaceOnUse" gradientTransform="translate(57.8886 46.5112) scale(8.40145)">
<stop stop-color="#8962FB"/>
<stop offset="1" stop-color="#6137DB"/>
</radialGradient>
<radialGradient id="paint7_radial_2843_42072" cx="0" cy="0" r="1" gradientUnits="userSpaceOnUse" gradientTransform="translate(55.3055 68.0165) scale(8.40145)">
<stop stop-color="#8962FB"/>
<stop offset="1" stop-color="#6137DB"/>
</radialGradient>
<radialGradient id="paint8_radial_2843_42072" cx="0" cy="0" r="1" gradientUnits="userSpaceOnUse" gradientTransform="translate(54.6576 89.5224) scale(8.40145)">
<stop stop-color="#8962FB"/>
<stop offset="1" stop-color="#6137DB"/>
</radialGradient>
<linearGradient id="paint9_linear_2843_42072" x1="90.4933" y1="38.165" x2="90.4933" y2="57.6081" gradientUnits="userSpaceOnUse">
<stop offset="0.1413" stop-color="#A6BBBE"/>
<stop offset="0.1587" stop-color="#A9BEC1"/>
<stop offset="0.2752" stop-color="#B8D1D3"/>
<stop offset="0.3567" stop-color="#BED8D9"/>
<stop offset="0.4731" stop-color="#BAD3D5"/>
<stop offset="0.6036" stop-color="#AFC6C8"/>
<stop offset="0.6766" stop-color="#A6BBBE"/>
<stop offset="0.7373" stop-color="#9CAFB2"/>
<stop offset="0.8458" stop-color="#809093"/>
<stop offset="0.8983" stop-color="#717F82"/>
</linearGradient>
<linearGradient id="paint10_linear_2843_42072" x1="87.9149" y1="60.9832" x2="87.9149" y2="78.0076" gradientUnits="userSpaceOnUse">
<stop offset="0.1413" stop-color="#A6BBBE"/>
<stop offset="0.1587" stop-color="#A9BEC1"/>
<stop offset="0.2752" stop-color="#B8D1D3"/>
<stop offset="0.3567" stop-color="#BED8D9"/>
<stop offset="0.4731" stop-color="#BAD3D5"/>
<stop offset="0.6036" stop-color="#AFC6C8"/>
<stop offset="0.6766" stop-color="#A6BBBE"/>
<stop offset="0.7373" stop-color="#9CAFB2"/>
<stop offset="0.8458" stop-color="#809093"/>
<stop offset="0.8983" stop-color="#717F82"/>
</linearGradient>
<linearGradient id="paint11_linear_2843_42072" x1="84.0414" y1="81.3681" x2="84.0414" y2="100.88" gradientUnits="userSpaceOnUse">
<stop offset="0.1413" stop-color="#A6BBBE"/>
<stop offset="0.1587" stop-color="#A9BEC1"/>
<stop offset="0.2752" stop-color="#B8D1D3"/>
<stop offset="0.3567" stop-color="#BED8D9"/>
<stop offset="0.4731" stop-color="#BAD3D5"/>
<stop offset="0.6036" stop-color="#AFC6C8"/>
<stop offset="0.6766" stop-color="#A6BBBE"/>
<stop offset="0.7373" stop-color="#9CAFB2"/>
<stop offset="0.8458" stop-color="#809093"/>
<stop offset="0.8983" stop-color="#717F82"/>
</linearGradient>
<radialGradient id="paint12_radial_2843_42072" cx="0" cy="0" r="1" gradientUnits="userSpaceOnUse" gradientTransform="translate(119.018 104.342) rotate(-20.7207) scale(39.2719 40.29)">
<stop offset="0.2813" stop-color="#729EB1"/>
<stop offset="1" stop-color="#ABC0C3"/>
</radialGradient>
<radialGradient id="paint13_radial_2843_42072" cx="0" cy="0" r="1" gradientUnits="userSpaceOnUse" gradientTransform="translate(124.55 85.3667) rotate(7.19821) scale(47.4447 47.4447)">
<stop offset="0.00581592" stop-color="#75D982"/>
<stop offset="0.1298" stop-color="#71D17A"/>
<stop offset="0.4658" stop-color="#67BF67"/>
<stop offset="0.7358" stop-color="#51AA59"/>
<stop offset="0.8379" stop-color="#48A153"/>
<stop offset="0.9301" stop-color="#4AA354"/>
<stop offset="0.9634" stop-color="#51A959"/>
<stop offset="0.987" stop-color="#5CB560"/>
<stop offset="1" stop-color="#67BF67"/>
</radialGradient>
<radialGradient id="paint14_radial_2843_42072" cx="0" cy="0" r="1" gradientUnits="userSpaceOnUse" gradientTransform="translate(124.55 85.3667) rotate(7.19821) scale(47.4447 47.4447)">
<stop offset="0.00581592" stop-color="#6137DB"/>
<stop offset="1" stop-color="#7F56F6"/>
</radialGradient>
</defs>
</svg>
