<svg width="93" height="20" viewBox="0 0 93 20" fill="none" xmlns="http://www.w3.org/2000/svg">
<path d="M0.634766 0.292831C2.95862 0.292831 5.23654 0.119519 7.47731 0.333451C10.8396 0.654553 13.3739 3.4028 13.0846 6.8253C13.0248 7.53282 12.6923 8.21728 12.4557 9.01258C13.3047 9.01258 14.1949 9.01258 15.1407 9.01258C15.1407 12.7176 15.1407 16.305 15.1407 19.9415C10.3176 19.9415 5.48722 19.9415 0.634766 19.9415C0.634766 13.3904 0.634766 6.85245 0.634766 0.292831ZM11.7639 16.5212C11.7639 15.3354 11.7441 14.1976 11.7729 13.0608C11.786 12.5406 11.6041 12.3657 11.0837 12.3706C8.87297 12.3918 6.662 12.3785 4.45104 12.3828C4.31202 12.383 4.17301 12.4237 4.04073 12.4443C4.04073 13.8211 4.04073 15.1531 4.04073 16.5212C6.60158 16.5212 9.1263 16.5212 11.7639 16.5212ZM4.04787 3.72451C4.04787 5.49741 4.04787 7.19315 4.04787 8.94726C4.95341 8.94726 5.8175 8.92032 6.67936 8.9538C7.90967 9.00136 8.71109 8.39386 9.21081 7.34196C10.1119 5.44495 8.48124 3.66491 6.95126 3.71859C6.01041 3.75146 5.06752 3.72451 4.04787 3.72451Z" fill="#241E33"/>
<path d="M41.3106 0.328125C43.4413 0.328125 45.4704 0.328125 47.5781 0.328125C47.5781 2.317 47.5961 4.27361 47.5732 6.22982C47.5495 8.26564 47.4693 10.3158 46.8022 12.2524C45.9283 14.7887 44.4461 16.8592 42.024 18.2278C39.1658 19.8424 36.0974 20.1152 32.8099 19.9621C32.8099 19.0151 32.7784 18.0559 32.8429 17.1032C32.8529 16.9566 33.3079 16.7215 33.5515 16.7284C35.3103 16.7774 37.0315 16.5798 38.6781 15.9576C41.6678 14.8279 43.3654 12.6061 43.8239 9.48738C44.0298 8.08621 43.9896 6.6487 44.0609 5.23447C43.4915 6.41762 43.0443 7.63222 42.3647 8.69861C41.0675 10.734 39.0533 11.7218 36.7213 12.0723C35.6324 12.236 34.5256 12.2816 33.4272 12.382C32.993 12.4218 32.797 12.2573 32.7988 11.791C32.8127 8.03681 32.8103 4.28239 32.8148 0.527972C32.8148 0.482042 32.8397 0.436111 32.8668 0.342618C34.0055 0.342618 35.157 0.342618 36.3797 0.342618C36.3797 3.20967 36.3797 6.05794 36.3797 8.96888C37.9759 8.75495 39.1176 8.00456 39.9688 6.73811C40.8715 5.39512 41.1577 3.87678 41.301 2.31802C41.3596 1.68092 41.3106 1.03381 41.3106 0.328125Z" fill="#241E33"/>
<path d="M77.8704 19.978C76.635 19.978 75.5192 19.978 74.3234 19.978C74.3234 17.4706 74.3234 14.9763 74.3234 12.4332C72.248 12.4332 70.252 12.4332 68.2015 12.4332C68.2015 14.919 68.2015 17.3947 68.2015 19.9321C66.9991 19.9321 65.8476 19.9321 64.5893 19.9321C64.5893 19.6936 64.5893 19.4317 64.5893 19.1698C64.5893 15.0451 64.6218 10.92 64.5785 6.79569C64.5464 3.74186 66.5939 1.00668 69.5269 0.219134C72.7728 -0.652514 76.357 1.14488 77.3987 4.39019C77.6918 5.30389 77.8378 6.30108 77.8498 7.26234C77.899 11.2125 77.8704 15.1637 77.8704 19.1145C77.8704 19.3815 77.8704 19.6487 77.8704 19.978ZM68.1714 9.09872C70.115 9.09872 71.9712 9.1075 73.827 9.08239C73.9805 9.08035 74.2599 8.8507 74.2624 8.7225C74.2812 7.75961 74.3636 6.77487 74.1973 5.83749C73.978 4.60269 72.8847 3.39055 70.7543 3.56855C69.632 3.66225 68.2325 4.89909 68.181 6.02019C68.1355 7.0084 68.1714 8.00049 68.1714 9.09872Z" fill="#241E33"/>
<path d="M30.5654 19.977C29.3765 19.977 28.3105 19.977 27.1645 19.977C27.1645 17.468 27.1645 14.9737 27.1645 12.4322C25.0393 12.4322 22.9935 12.4322 20.8938 12.4322C20.8938 14.9226 20.8938 17.3986 20.8938 19.9343C19.741 19.9343 18.6391 19.9343 17.4337 19.9343C17.4337 19.6906 17.4337 19.4283 17.4337 19.1658C17.4337 15.0161 17.4394 10.8665 17.4317 6.71689C17.4266 3.8923 18.7001 1.86995 21.2242 0.634737C24.3771 -0.908102 28.4871 0.503277 29.9322 3.7C30.3116 4.5394 30.5241 5.52475 30.5378 6.44723C30.6005 10.6703 30.5654 14.8951 30.5654 19.1192C30.5654 19.386 30.5654 19.6528 30.5654 19.977ZM23.9668 9.10055C24.8113 9.10055 25.6568 9.12403 26.4993 9.08422C26.713 9.07422 27.0972 8.86376 27.0974 8.74495C27.099 7.73899 27.15 6.70831 26.9512 5.73317C26.7081 4.54021 25.8446 3.77737 24.628 3.59753C23.3458 3.40809 22.2033 3.71735 21.4274 4.88275C20.6247 6.08857 20.9027 7.4434 20.8989 8.75393C20.8985 8.86886 21.243 9.07606 21.4343 9.08443C22.277 9.12117 23.1223 9.10055 23.9668 9.10055Z" fill="#241E33"/>
<path d="M57.8618 3.72641C55.3312 3.72641 52.9203 3.70661 50.5099 3.73968C49.8679 3.74846 49.6134 3.57944 49.6565 2.90559C49.7101 2.06824 49.6693 1.22497 49.6693 0.339844C53.8585 0.339844 57.9933 0.339844 62.2033 0.339844C62.2033 1.32438 62.209 2.28666 62.1968 3.24895C62.1951 3.38245 62.1304 3.53188 62.0527 3.64497C59.7647 6.97499 57.4756 10.304 55.1762 13.6261C54.5159 14.5802 53.824 15.5123 53.0669 16.565C56.2367 16.565 59.2554 16.565 62.3131 16.565C62.3131 17.7087 62.3131 18.7929 62.3131 19.9346C57.8398 19.9346 53.357 19.9346 48.7777 19.9346C48.7777 18.9401 48.7221 17.9265 48.8067 16.9246C48.8377 16.5576 49.1816 16.2057 49.4146 15.8689C51.0895 13.4456 52.7709 11.027 54.4534 8.60887C55.5639 7.01337 56.6784 5.42133 57.8618 3.72641Z" fill="#241E33"/>
<path d="M87.5624 3.72621C87.5624 9.18188 87.5624 14.5414 87.5624 19.9462C86.3596 19.9462 85.2085 19.9462 84.0235 19.9462C84.0235 14.5422 84.0235 9.16453 84.0235 3.72621C82.6511 3.72621 81.2373 3.70294 79.8249 3.73744C79.246 3.75152 79.0161 3.58679 79.0478 2.9801C79.0927 2.11703 79.0592 1.24987 79.0592 0.339844C83.5458 0.339844 87.9782 0.339844 92.4879 0.339844C92.4879 1.32132 92.4836 2.28299 92.4897 3.24466C92.4928 3.72049 92.1801 3.72948 91.8328 3.72825C90.4441 3.72335 89.0554 3.72621 87.5624 3.72621Z" fill="#241E33"/>
</svg>
