<svg width="160" height="22" viewBox="0 0 160 22" fill="none" xmlns="http://www.w3.org/2000/svg">
<g clip-path="url(#clip0_18940_18378)">
<path d="M25.2359 20.0555L21.0601 12.8244C20.9746 12.6784 20.8524 12.5574 20.7056 12.4735C20.5587 12.3895 20.3924 12.3456 20.2233 12.3462H18.6024C17.3687 12.3462 16.8635 11.4728 17.4867 10.4033L18.298 8.99914C18.3826 8.85226 18.4272 8.68573 18.4272 8.51622C18.4272 8.3467 18.3826 8.18017 18.298 8.03329L14.1157 0.802094C13.4989 -0.267365 12.49 -0.267365 11.8732 0.802094L7.88867 7.70975L16.1367 22H24.1138C25.3475 22 25.8527 21.125 25.2359 20.0555Z" fill="#241E33"/>
<path d="M11.532 16.8983C11.4865 16.8179 11.4209 16.7506 11.3415 16.7031C11.2622 16.6555 11.1719 16.6295 11.0794 16.6274L10.2076 16.6131C9.54455 16.6035 9.26564 16.1222 9.58918 15.542L10.0131 14.7802C10.0578 14.6991 10.0805 14.6078 10.0791 14.5153C10.0777 14.4228 10.0522 14.3322 10.0052 14.2526L7.7021 10.268L7.0566 9.15234L0.753007 20.0541C0.445398 20.5897 0.416709 21.0741 0.620719 21.4265C0.823135 21.7787 1.25825 21.997 1.87506 21.997H14.4807L13.8351 20.8813L11.532 16.8983Z" fill="#241E33"/>
<path d="M47.6976 4.53309L45.4976 6.73309C44.3756 5.61109 42.8356 4.97309 41.2296 4.97309C37.9076 4.97309 35.2016 7.67909 35.2016 11.0011C35.2016 14.3231 37.9076 17.0291 41.2296 17.0291C42.8356 17.0291 44.3756 16.3911 45.4976 15.2691L47.6976 17.4691C45.9816 19.1851 43.6496 20.1311 41.2296 20.1311C36.1916 20.1311 32.0996 16.0391 32.0996 11.0011C32.0996 5.96309 36.1916 1.87109 41.2296 1.87109C43.6496 1.87109 45.9816 2.81709 47.6976 4.53309ZM52.7538 8.14109C53.5458 7.26109 54.6678 6.73309 56.2078 6.73309C56.7358 6.73309 57.7478 6.90909 57.7478 6.90909V9.92309C57.7478 9.92309 57.1538 9.81309 56.2078 9.81309C54.2938 9.81309 52.7538 11.3531 52.7538 13.2671V19.8011H49.6738V7.04109H52.7538V8.14109ZM67.2072 12.2991C66.9652 11.1991 66.2832 10.3851 65.4252 10.0111C65.0952 9.85709 64.7212 9.79109 64.3472 9.79109C63.5332 9.79109 62.6972 10.1431 61.9712 10.8691C61.5752 11.2651 61.3112 11.7711 61.1352 12.2991H67.2072ZM59.8152 8.71309V8.69109C61.1792 7.32709 62.7852 6.73309 64.3252 6.73309C65.1172 6.73309 65.9092 6.88709 66.6352 7.19509C68.7032 8.07509 70.3532 10.1651 70.3752 13.2011V14.5431H61.1352C61.5972 15.9951 62.9172 17.0291 64.4792 17.0291C66.4152 17.0291 68.1752 16.2811 68.1752 16.2811L69.4952 18.8111C69.4952 18.8111 68.0872 20.1311 64.4792 20.1311C60.8712 20.1311 57.9672 17.1391 57.9672 13.4211C57.9672 11.6611 58.6272 9.96709 59.8152 8.71309ZM81.9814 13.2011C81.8494 11.3311 80.3974 9.81309 78.5494 9.81309C76.6134 9.81309 75.0734 11.4631 75.0734 13.4431C75.0734 15.4231 76.6134 17.0731 78.5494 17.0731C80.3974 17.0731 81.8494 15.5551 81.9814 13.6851V13.2011ZM81.9814 8.18509V2.20109H85.0614V19.8231H81.9814V18.7011C81.1894 19.6031 80.0674 20.1311 78.5494 20.1311C74.9414 20.1311 72.0154 17.1391 72.0154 13.4431C72.0154 9.74709 74.9414 6.75509 78.5494 6.75509C80.0674 6.75509 81.1894 7.28309 81.9814 8.18509ZM90.3157 7.04109V19.8231H87.2357V7.04109H90.3157ZM88.7757 2.17909C89.8097 2.17909 90.6457 3.01509 90.6457 4.02709C90.6457 5.06109 89.8097 5.89709 88.7757 5.89709C87.7417 5.89709 86.9277 5.06109 86.9277 4.02709C86.9277 3.01509 87.7417 2.17909 88.7757 2.17909ZM94.3591 15.5331V10.1211H92.6211V7.06309H94.3591V4.00509L97.4391 3.67509V7.06309H101.113V10.1211H97.4391V15.5331C97.4391 16.3691 98.1211 17.0731 98.9571 17.0731C99.7931 17.0731 101.113 16.9191 101.113 16.9191L101.487 19.8451C101.487 19.8451 99.9251 20.1311 98.9571 20.1311C96.4271 20.1311 94.3591 18.0631 94.3591 15.5331ZM110.578 2.20109C113.064 2.42109 115.022 4.48909 115.022 7.04109C115.022 8.51509 114.384 9.81309 113.35 10.7151C114.824 11.5511 115.836 13.1351 115.836 14.9611C115.836 17.6451 113.636 19.8231 110.952 19.8231H103.449V2.17909H110.578V2.20109ZM110.952 11.9031H105.253V18.0191H110.952C112.646 18.0191 114.01 16.6551 114.01 14.9611C114.01 13.2671 112.646 11.9031 110.952 11.9031ZM110.534 3.98309H105.253V10.0991H110.534C112.052 9.92309 113.24 8.60309 113.24 7.04109C113.24 5.47909 112.052 4.15909 110.534 3.98309ZM123.989 8.53709C121.349 8.53709 119.215 10.7371 119.215 13.4431C119.215 16.1491 121.349 18.3271 123.989 18.3271C126.629 18.3271 128.763 16.1491 128.763 13.4431C128.763 10.7371 126.629 8.53709 123.989 8.53709ZM123.989 6.73309C127.597 6.73309 130.523 9.74709 130.523 13.4431C130.523 17.1391 127.597 20.1311 123.989 20.1311C120.381 20.1311 117.455 17.1391 117.455 13.4431C117.455 9.74709 120.381 6.73309 123.989 6.73309ZM138.706 8.53709C136.066 8.53709 133.932 10.7371 133.932 13.4431C133.932 16.1491 136.066 18.3271 138.706 18.3271C141.346 18.3271 143.48 16.1491 143.48 13.4431C143.48 10.7371 141.346 8.53709 138.706 8.53709ZM138.706 6.73309C142.314 6.73309 145.24 9.74709 145.24 13.4431C145.24 17.1391 142.314 20.1311 138.706 20.1311C135.098 20.1311 132.172 17.1391 132.172 13.4431C132.172 9.74709 135.098 6.73309 138.706 6.73309ZM148.801 13.0031L154.323 7.04109H156.765L151.903 12.3211L157.843 19.8231H155.511L150.649 13.6631L148.801 15.6431V19.8231H146.997V2.17909H148.801V13.0031Z" fill="#241E33"/>
</g>
<defs>
<clipPath id="clip0_18940_18378">
<rect width="159.5" height="22" fill="white" transform="translate(0.490234)"/>
</clipPath>
</defs>
</svg>
