<svg width="18" height="22" viewBox="0 0 18 22" fill="none" xmlns="http://www.w3.org/2000/svg">
<path d="M10.6 1.40039H9.96C6.82371 1.40039 5.25556 1.40039 4.05765 2.01075C3.00395 2.54765 2.14725 3.40434 1.61036 4.45804C1 5.65595 1 7.2241 1 10.3604V14.2004M9.88889 4.60039H11.3111C13.3024 4.60039 14.2981 4.60039 15.0586 4.99673C15.7277 5.34536 16.2716 5.90165 16.6125 6.58588C17 7.36374 17 8.38203 17 10.4186V14.7822C17 16.8187 17 17.837 16.6125 18.6149C16.2716 19.2991 15.7277 19.8554 15.0586 20.204C14.2981 20.6004 13.3024 20.6004 11.3111 20.6004H9.88889C7.89759 20.6004 6.90194 20.6004 6.14137 20.204C5.47235 19.8554 4.92842 19.2991 4.58753 18.6149C4.2 17.837 4.2 16.8188 4.2 14.7822V10.4186C4.2 8.38202 4.2 7.36374 4.58753 6.58588C4.92842 5.90165 5.47235 5.34536 6.14137 4.99673C6.90194 4.60039 7.89759 4.60039 9.88889 4.60039Z" stroke="#170D23" stroke-width="1.7" stroke-linecap="round"/>
</svg>
