<svg width="90" height="100" viewBox="0 0 90 100" fill="none" xmlns="http://www.w3.org/2000/svg">
<path d="M89.2904 29.4137C89.2897 27.7368 88.9311 26.255 88.2058 24.9832C87.4934 23.7326 86.4265 22.6845 84.9954 21.8558C73.1823 15.0443 61.3578 8.25366 49.5486 1.43525C46.3648 -0.402757 43.278 -0.33575 40.1179 1.52864C35.4159 4.30163 11.8749 17.7888 4.85998 21.8519C1.97103 23.5243 0.565266 26.0838 0.564572 29.4105C0.560059 43.1088 0.564572 56.8067 0.560059 70.5053C0.560753 72.1455 0.904121 73.5984 1.59745 74.8511C2.31023 76.1395 3.39207 77.2165 4.85616 78.064C11.8714 82.1271 35.4156 95.6132 40.1165 98.3869C43.278 100.252 46.3649 100.319 49.5496 98.4803C61.3592 91.6616 73.1844 84.8713 84.9992 78.0598C86.4633 77.2127 87.5451 76.135 88.2579 74.8476C88.9502 73.595 89.2942 72.142 89.2949 70.5015C89.2949 70.5015 89.2949 43.1123 89.2904 29.4137Z" fill="#5C8DBC"/>
<path d="M45.0635 49.8245L1.59766 74.8511C2.31043 76.1395 3.39227 77.2165 4.85636 78.064C11.8716 82.1271 35.4158 95.6133 40.1168 98.387C43.2783 100.252 46.3651 100.319 49.5499 98.4804C61.3594 91.6616 73.1847 84.8713 84.9995 78.0598C86.4636 77.2127 87.5454 76.135 88.2582 74.8477L45.0635 49.8245Z" fill="#1A4674"/>
<path d="M32.189 57.2375C34.7182 61.653 39.473 64.6312 44.9273 64.6312C50.4153 64.6312 55.1971 61.6152 57.7135 57.1525L45.063 49.8245L32.189 57.2375Z" fill="#1A4674"/>
<path d="M89.2906 29.4137C89.2899 27.7368 88.9313 26.255 88.206 24.9833L45.0635 49.8246L88.2581 74.8478C88.9504 73.5951 89.2945 72.1422 89.2952 70.5017C89.2952 70.5017 89.2952 43.1124 89.2906 29.4137Z" fill="#1B598E"/>
<path d="M86.9153 51.6131H83.5399V54.9892H80.1639V51.6131H76.7889V48.2381H80.1639V44.8628H83.5399V48.2381H86.9153V51.6131ZM74.5988 51.6131H71.2238V54.9892H67.8485V51.6131H64.4731V48.2381H67.8485V44.8628H71.2238V48.2381H74.5988V51.6131Z" fill="white"/>
<path d="M57.7137 57.1527C55.1973 61.6154 50.4155 64.6314 44.9275 64.6314C39.4732 64.6314 34.7185 61.6533 32.1892 57.2377C30.9186 55.0221 30.2513 52.512 30.254 49.9579C30.254 41.8542 36.8238 35.2847 44.9275 35.2847C50.3468 35.2847 55.0765 38.2258 57.6183 42.5962L70.4437 35.2108C65.346 26.411 55.8285 20.4907 44.9275 20.4907C28.6527 20.4907 15.46 33.6839 15.46 49.9579C15.46 55.297 16.8803 60.3038 19.3627 64.6224C24.4476 73.4688 33.9921 79.4255 44.9275 79.4255C55.883 79.4255 65.4425 73.4448 70.5201 64.5724L57.7137 57.1527Z" fill="white"/>
</svg>
