<svg width="24" height="24" viewBox="0 0 24 24" fill="none" xmlns="http://www.w3.org/2000/svg">
<path d="M22.3528 7.05598C22.3527 6.65243 22.2663 6.29584 22.0918 5.98988C21.9204 5.68884 21.6636 5.43661 21.3192 5.23717C18.4764 3.598 15.6309 1.96384 12.789 0.322996C12.0229 -0.119319 11.28 -0.10311 10.5195 0.345555C9.38801 1.01279 3.7229 4.25846 2.03477 5.23625C1.33955 5.6388 1.00125 6.25473 1.00109 7.05523C1 10.3517 1.00109 13.6482 1 16.9447C1 17.3393 1.0828 17.6891 1.24965 17.9904C1.42118 18.3005 1.68152 18.5597 2.03385 18.7636C3.72206 19.7414 9.38793 22.9868 10.5192 23.6543C11.28 24.1032 12.0229 24.1193 12.7893 23.6769C15.6312 22.036 18.4769 20.4018 21.3201 18.7626C21.6725 18.5588 21.9328 18.2994 22.1043 17.9896C22.2709 17.6882 22.3539 17.3385 22.3539 16.9437C22.3539 16.9437 22.3539 10.3525 22.3528 7.05598Z" fill="#A179DC"/>
<path d="M11.71 11.9678L1.25 17.9904C1.42153 18.3005 1.68187 18.5596 2.0342 18.7636C3.72242 19.7414 9.38828 22.9868 10.5196 23.6543C11.2804 24.1032 12.0232 24.1192 12.7896 23.6768C15.6316 22.0359 18.4773 20.4017 21.3205 18.7626C21.6728 18.5587 21.9332 18.2994 22.1047 17.9896L11.71 11.9678Z" fill="#280068"/>
<path d="M22.3532 7.05597C22.353 6.65242 22.2667 6.29583 22.0922 5.98987L11.71 11.9679L22.1047 17.9896C22.2713 17.6882 22.3541 17.3385 22.3543 16.9437C22.3543 16.9437 22.3543 10.3525 22.3532 7.05597Z" fill="#390091"/>
<path d="M17.8692 9.71637V10.8421H18.995V9.71637H19.5579V10.8421H20.6836V11.405H19.5579V12.5307H20.6836V13.0935H19.5579V14.2193H18.995V13.0935H17.8692V14.2193H17.3063V13.0935H16.1807V12.5307H17.3063V11.405H16.1807V10.8421H17.3063V9.71637H17.8692ZM18.995 11.4049H17.8692V12.5307H18.995V11.4049Z" fill="white"/>
<path d="M11.7332 4.06271C14.6695 4.06271 17.2331 5.65735 18.6062 8.02767L18.5929 8.00486L15.1381 9.99402C14.4575 8.84161 13.2097 8.06384 11.7783 8.0478L11.7332 8.04755C9.55041 8.04755 7.78082 9.81715 7.78082 11.9999C7.78011 12.6879 7.95984 13.364 8.30209 13.9608C8.98336 15.1502 10.2641 15.9523 11.7332 15.9523C13.2115 15.9523 14.4995 15.14 15.1773 13.9379L15.1608 13.9668L18.6103 15.9651C17.2522 18.3154 14.7238 19.9051 11.8216 19.9368L11.7332 19.9373C8.78768 19.9373 6.21685 18.3328 4.84713 15.9499C4.17847 14.7866 3.7959 13.438 3.7959 11.9999C3.7959 7.61635 7.34945 4.06262 11.7332 4.06262L11.7332 4.06271Z" fill="white"/>
</svg>
