<svg width="24" height="24" viewBox="0 0 24 24" fill="none" xmlns="http://www.w3.org/2000/svg">
<path d="M11.4764 5.3465H13.6553V15.3329C12.5392 15.544 11.7176 15.6271 10.8287 15.6271C8.16749 15.6243 6.78223 14.4354 6.78223 12.1521C6.78223 9.95206 8.25161 8.52427 10.5286 8.52427C10.882 8.52427 11.1511 8.55208 11.4764 8.63538V5.3465ZM11.5528 10.435C11.2976 10.3517 11.0873 10.3239 10.8181 10.3239C9.71605 10.3239 9.07951 10.9961 9.07951 12.1742C9.07951 13.3211 9.68804 13.9545 10.8041 13.9545C11.0452 13.9545 11.2415 13.9409 11.5528 13.8992V10.435Z" fill="white"/>
<path d="M17.2182 8.79238V13.7924C17.2182 15.5143 17.0892 16.3424 16.7107 17.0563C16.3573 17.7427 15.8918 18.1755 14.93 18.6535L12.9082 17.7008C13.87 17.2538 14.3355 16.8588 14.6328 16.256C14.944 15.6397 15.0421 14.9257 15.0421 13.048V8.79242H17.2182V8.79238ZM14.8226 5.3465H17.0014V7.56039H14.8226V5.3465Z" fill="white"/>
</svg>
