<svg width="24" height="24" viewBox="0 0 24 24" fill="none" xmlns="http://www.w3.org/2000/svg">
<path d="M11.4762 5.34644H13.655V15.3328C12.539 15.5439 11.7174 15.627 10.8284 15.627C8.16725 15.6242 6.78198 14.4353 6.78198 12.152C6.78198 9.952 8.25137 8.52421 10.5284 8.52421C10.8817 8.52421 11.1509 8.55201 11.4762 8.63532V5.34644ZM11.5525 10.435C11.2973 10.3516 11.087 10.3239 10.8178 10.3239C9.71581 10.3239 9.07926 10.9961 9.07926 12.1741C9.07926 13.3211 9.68779 13.9544 10.8038 13.9544C11.045 13.9544 11.2413 13.9408 11.5525 13.8991V10.435Z" fill="white"/>
<path d="M17.218 8.79232V13.7924C17.218 15.5143 17.089 16.3423 16.7104 17.0563C16.3571 17.7426 15.8916 18.1754 14.9298 18.6534L12.908 17.7007C13.8698 17.2537 14.3353 16.8587 14.6325 16.256C14.9438 15.6396 15.0419 14.9257 15.0419 13.0479V8.79236H17.218V8.79232ZM14.8223 5.34644H17.0012V7.56033H14.8223V5.34644Z" fill="white"/>
</svg>
