<svg width="24" height="24" viewBox="0 0 24 24" fill="none" xmlns="http://www.w3.org/2000/svg">
<rect width="24" height="24" rx="12" fill="white"/>
<path d="M20.8225 10.2965C20.7737 10.2577 20.3179 9.9136 19.3568 9.9136C19.1031 9.91471 18.8498 9.93647 18.5996 9.97869C18.4136 8.70372 17.3595 8.08211 17.3122 8.05422L17.0541 7.9054L16.8844 8.15033C16.6718 8.47935 16.5167 8.84205 16.4256 9.22301C16.2535 9.9508 16.3581 10.6344 16.7278 11.2188C16.2814 11.4676 15.5652 11.5288 15.4203 11.5342H3.56345C3.25375 11.5347 3.00244 11.7849 3.00076 12.0946C2.98693 13.1333 3.16291 14.1659 3.52004 15.1414C3.92849 16.2125 4.53615 17.0015 5.32672 17.4844C6.21261 18.0269 7.6519 18.3369 9.28339 18.3369C10.0204 18.3393 10.7561 18.2725 11.4807 18.1378C12.488 17.9528 13.4573 17.6007 14.3484 17.0961C15.0827 16.6708 15.7436 16.1299 16.3055 15.494C17.2448 14.4306 17.8044 13.2463 18.2206 12.1938H18.3865C19.415 12.1938 20.0475 11.7822 20.3962 11.4373C20.628 11.2174 20.809 10.9494 20.9264 10.6522L21 10.4368L20.8225 10.2965Z" fill="#2496ED"/>
<path d="M4.66216 11.187H6.25104C6.32767 11.187 6.38976 11.1249 6.38976 11.0483V9.63304C6.39019 9.55641 6.32842 9.49396 6.25182 9.49353C6.25156 9.49353 6.25129 9.49353 6.25104 9.49353H4.66216C4.58553 9.49353 4.52344 9.55565 4.52344 9.63226V9.63304V11.0483C4.52344 11.1249 4.58553 11.187 4.66216 11.187Z" fill="#2496ED"/>
<path d="M6.85242 11.187H8.4413C8.51793 11.187 8.58002 11.1249 8.58002 11.0483V9.63304C8.58045 9.55641 8.51868 9.49396 8.44205 9.49353C8.4418 9.49353 8.44152 9.49353 8.44127 9.49353H6.8524C6.77534 9.49353 6.71289 9.55598 6.71289 9.63304V11.0483C6.71334 11.1251 6.77567 11.187 6.85242 11.187Z" fill="#2496ED"/>
<path d="M9.07528 11.187H10.6641C10.7408 11.187 10.8029 11.1249 10.8029 11.0483V9.63304C10.8033 9.55641 10.7415 9.49396 10.6649 9.49353C10.6647 9.49353 10.6644 9.49353 10.6641 9.49353H9.07525C8.99862 9.49353 8.93652 9.55565 8.93652 9.63226V9.63304V11.0483C8.93655 11.1249 8.99867 11.187 9.07528 11.187Z" fill="#2496ED"/>
<path d="M11.2715 11.187H12.8604C12.9372 11.187 12.9995 11.1251 12.9999 11.0483V9.63304C12.9999 9.55598 12.9375 9.49353 12.8604 9.49353H11.2715C11.1949 9.49353 11.1328 9.55565 11.1328 9.63226V9.63304V11.0483C11.1328 11.1249 11.1949 11.187 11.2715 11.187Z" fill="#2496ED"/>
<path d="M6.8524 9.15101H8.44127C8.518 9.15058 8.58 9.08823 8.58 9.0115V7.59625C8.58 7.51962 8.51788 7.45752 8.44127 7.45752H6.8524C6.77567 7.45752 6.71332 7.51949 6.71289 7.59625V9.0115C6.71332 9.08838 6.77552 9.15058 6.8524 9.15101Z" fill="#2496ED"/>
<path d="M9.07525 9.15101H10.6641C10.7409 9.15058 10.8028 9.08823 10.8028 9.0115V7.59625C10.8028 7.51962 10.7407 7.45752 10.6641 7.45752H9.07525C8.99862 7.45752 8.93652 7.51964 8.93652 7.59625V9.0115C8.93652 9.08823 8.99852 9.15058 9.07525 9.15101Z" fill="#2496ED"/>
<path d="M11.2715 9.15101H12.8604C12.9373 9.15058 12.9995 9.08838 12.9999 9.0115V7.59625C12.9995 7.51949 12.9372 7.45752 12.8604 7.45752H11.2715C11.1949 7.45752 11.1328 7.51964 11.1328 7.59625V9.0115C11.1328 9.08823 11.1948 9.15058 11.2715 9.15101Z" fill="#2496ED"/>
<path d="M11.2715 7.11417H12.8604C12.9372 7.11417 12.9995 7.05217 12.9999 6.97544V5.55938C12.9995 5.48262 12.9372 5.42065 12.8604 5.42065H11.2715C11.1949 5.42065 11.1328 5.48275 11.1328 5.55938V6.97542C11.1328 7.05205 11.1949 7.11417 11.2715 7.11417Z" fill="#2496ED"/>
<path d="M13.4874 11.187H15.0762C15.153 11.187 15.2153 11.1251 15.2157 11.0483V9.63304C15.2157 9.55598 15.1533 9.49353 15.0762 9.49353H13.4874C13.4108 9.49353 13.3486 9.55565 13.3486 9.63226V9.63304V11.0483C13.3486 11.1249 13.4108 11.187 13.4874 11.187Z" fill="#2496ED"/>
</svg>
