<svg width="40" height="40" viewBox="0 0 40 40" fill="none" xmlns="http://www.w3.org/2000/svg">
<path d="M32.998 18.999C32.998 18.4467 32.5503 17.999 31.998 17.999C31.4458 17.999 30.998 18.4467 30.998 18.999H32.998ZM8.99805 18.999C8.99805 18.4467 8.55033 17.999 7.99805 17.999C7.44576 17.999 6.99805 18.4467 6.99805 18.999H8.99805ZM11.2741 30.3451L11.7281 29.4541H11.7281L11.2741 30.3451ZM8.65201 27.723L7.761 28.177H7.761L8.65201 27.723ZM31.3441 27.723L30.4531 27.269L31.3441 27.723ZM28.722 30.3451L29.176 31.2361L28.722 30.3451ZM20.998 8.99902C20.998 8.44674 20.5503 7.99902 19.998 7.99902C19.4458 7.99902 18.998 8.44674 18.998 8.99902H20.998ZM19.998 23.999L19.2909 24.7061C19.6815 25.0967 20.3146 25.0967 20.7052 24.7061L19.998 23.999ZM24.7052 20.7061C25.0957 20.3156 25.0957 19.6824 24.7052 19.2919C24.3146 18.9014 23.6815 18.9014 23.2909 19.2919L24.7052 20.7061ZM16.7052 19.2919C16.3146 18.9014 15.6815 18.9014 15.2909 19.2919C14.9004 19.6824 14.9004 20.3156 15.2909 20.7061L16.7052 19.2919ZM30.998 18.999V21.399H32.998V18.999H30.998ZM22.398 29.999H17.598V31.999H22.398V29.999ZM8.99805 21.399V18.999H6.99805V21.399H8.99805ZM17.598 29.999C15.9014 29.999 14.689 29.9982 13.7387 29.9206C12.8 29.8439 12.2054 29.6972 11.7281 29.4541L10.8201 31.2361C11.6263 31.6469 12.5135 31.8272 13.5758 31.914C14.6265 31.9998 15.9344 31.999 17.598 31.999V29.999ZM6.99805 21.399C6.99805 23.0627 6.99727 24.3706 7.08311 25.4212C7.16991 26.4836 7.35022 27.3708 7.761 28.177L9.54301 27.269C9.29983 26.7917 9.15316 26.1971 9.07647 25.2584C8.99882 24.308 8.99805 23.0957 8.99805 21.399H6.99805ZM11.7281 29.4541C10.7873 28.9747 10.0224 28.2098 9.54301 27.269L7.761 28.177C8.43211 29.4941 9.50298 30.565 10.8201 31.2361L11.7281 29.4541ZM30.998 21.399C30.998 23.0957 30.9973 24.308 30.9196 25.2584C30.8429 26.1971 30.6963 26.7917 30.4531 27.269L32.2351 28.177C32.6459 27.3708 32.8262 26.4836 32.913 25.4212C32.9988 24.3706 32.998 23.0627 32.998 21.399H30.998ZM22.398 31.999C24.0617 31.999 25.3696 31.9998 26.4203 31.914C27.4826 31.8272 28.3698 31.6469 29.176 31.2361L28.268 29.4541C27.7907 29.6972 27.1961 29.8439 26.2574 29.9206C25.3071 29.9982 24.0947 29.999 22.398 29.999V31.999ZM30.4531 27.269C29.9737 28.2098 29.2088 28.9747 28.268 29.4541L29.176 31.2361C30.4931 30.565 31.564 29.4941 32.2351 28.177L30.4531 27.269ZM18.998 8.99902V23.999H20.998V8.99902H18.998ZM20.7052 24.7061L24.7052 20.7061L23.2909 19.2919L19.2909 23.2919L20.7052 24.7061ZM20.7052 23.2919L16.7052 19.2919L15.2909 20.7061L19.2909 24.7061L20.7052 23.2919Z" fill="white"/>
</svg>
