<svg width="22" height="22" viewBox="0 0 22 22" fill="none" xmlns="http://www.w3.org/2000/svg">
<path d="M1.43288 11.8004C1.8394 16.728 5.96749 20.6004 11 20.6004C13.0899 20.6004 15.0238 19.9326 16.6 18.7987M1.43288 11.8004C1.41112 11.5366 1.40002 11.2698 1.40002 11.0004C1.40002 7.78835 2.97751 4.94475 5.40002 3.20207M1.43288 11.8004H2.20002H3.80002C4.70854 11.8004 5.49915 11.3175 5.90666 10.6055C6.22489 10.0494 6.73728 9.50474 7.40002 9.50474H8.20002C9.30459 9.50474 10.2 8.64824 10.2 7.5917C10.2 6.53515 9.30459 5.67865 8.20002 5.67865H7.80002C6.47454 5.67865 5.40002 4.65085 5.40002 3.383V3.20207M5.40002 3.20207C6.97621 2.0682 8.91013 1.40039 11 1.40039C15.7568 1.40039 19.7056 4.86005 20.4673 9.40039M20.4673 9.40039C20.5546 9.92072 20.6 10.4553 20.6 11.0004C20.6 14.2124 19.0225 17.056 16.6 18.7987M20.4673 9.40039H19.8H18.2C17.2915 9.40039 16.5009 9.9052 16.0934 10.6496C15.7752 11.231 15.2628 11.8004 14.6 11.8004H13.8C12.6955 11.8004 11.8 12.6958 11.8 13.8004C11.8 14.905 12.6955 15.8004 13.8 15.8004H14.2C15.5255 15.8004 16.6 16.8749 16.6 18.2004V18.7987" stroke="#4A525D" stroke-width="1.7"/>
</svg>
