<svg width="24" height="24" viewBox="0 0 24 24" fill="none" xmlns="http://www.w3.org/2000/svg">
<rect width="24" height="24" rx="12" fill="white"/>
<path d="M9.80701 7.13359C7.5761 6.72728 5.81217 7.15264 5.10917 8.37015C4.58458 9.27868 4.73433 10.4834 5.47262 11.7712C5.48755 11.7973 5.50749 11.8202 5.53127 11.8386C5.55506 11.8569 5.58223 11.8705 5.61125 11.8783C5.64026 11.8862 5.67053 11.8883 5.70035 11.8844C5.73016 11.8806 5.75893 11.8709 5.785 11.856C5.83765 11.8257 5.87615 11.7759 5.89204 11.7173C5.90793 11.6587 5.89991 11.5962 5.86974 11.5435C5.20463 10.3836 5.075 9.34392 5.50544 8.59891C6.08935 7.58747 7.66255 7.20806 9.72487 7.58375C9.76215 7.59112 9.80068 7.58909 9.83698 7.57785C9.87328 7.5666 9.9062 7.5465 9.93279 7.51934C9.95938 7.49219 9.97879 7.45885 9.98927 7.42232C9.99974 7.38579 10.001 7.34723 9.99281 7.31011C9.98297 7.26549 9.95999 7.22483 9.92683 7.19338C9.89368 7.16193 9.85187 7.14112 9.80679 7.13363L9.80701 7.13359ZM6.63273 13.3363C7.53472 14.3277 8.70666 15.2575 10.0432 16.0292C13.2792 17.8976 16.7243 18.3969 18.4221 17.2392C18.471 17.2045 18.5044 17.1521 18.515 17.0931C18.5256 17.0341 18.5126 16.9732 18.4788 16.9237C18.4451 16.8742 18.3932 16.8399 18.3344 16.8282C18.2756 16.8165 18.2146 16.8283 18.1644 16.8611C16.6448 17.8973 13.3723 17.4229 10.272 15.6329C8.97528 14.8842 7.84055 13.984 6.9712 13.0285C6.94097 12.9942 6.90117 12.9698 6.85692 12.9583C6.81267 12.9468 6.76599 12.9488 6.7229 12.9641C6.68708 12.9768 6.655 12.9983 6.62955 13.0265C6.6041 13.0548 6.58608 13.0889 6.57714 13.1258C6.56819 13.1628 6.56858 13.2014 6.57829 13.2381C6.588 13.2749 6.60671 13.3086 6.63273 13.3363Z" fill="#2DD0ED"/>
<path d="M17.8805 13.058C19.3412 11.3324 19.8513 9.59673 19.1499 8.38165C18.6337 7.4876 17.5423 7.01555 16.0921 6.99672C16.0314 6.99594 15.9729 7.01928 15.9294 7.0616C15.886 7.10392 15.8611 7.16177 15.8602 7.22243C15.8595 7.26769 15.8724 7.31213 15.897 7.3501C15.9216 7.38807 15.957 7.41786 15.9986 7.43568C16.0262 7.44755 16.0559 7.45388 16.086 7.45428C17.3903 7.47114 18.3306 7.8779 18.7536 8.61045C19.3362 9.61973 18.8815 11.1675 17.5313 12.7625C17.5112 12.7853 17.4959 12.8119 17.4862 12.8407C17.4765 12.8696 17.4727 12.9 17.4749 12.9304C17.4771 12.9607 17.4854 12.9903 17.4992 13.0174C17.513 13.0445 17.5321 13.0685 17.5553 13.0882C17.5786 13.1078 17.6055 13.1226 17.6345 13.1317C17.6635 13.1408 17.694 13.144 17.7242 13.1412C17.7545 13.1384 17.7839 13.1296 17.8107 13.1153C17.8376 13.101 17.8613 13.0815 17.8805 13.058ZM14.1265 7.20974C12.8057 7.4928 11.4 8.04604 10.05 8.82544C6.70917 10.7542 4.52991 13.5981 4.8327 15.6604C4.83646 15.6907 4.84623 15.7198 4.86142 15.7462C4.87662 15.7726 4.89693 15.7958 4.92118 15.8142C4.94542 15.8326 4.97311 15.8461 5.00261 15.8537C5.03211 15.8613 5.06284 15.8629 5.09298 15.8585C5.12312 15.854 5.15207 15.8436 5.17814 15.8279C5.2042 15.8121 5.22685 15.7913 5.24476 15.7666C5.26267 15.742 5.27548 15.714 5.28243 15.6843C5.28938 15.6547 5.29033 15.6239 5.28524 15.5939C5.01662 13.763 7.08221 11.0671 10.2786 9.22171C11.5882 8.46554 12.9495 7.93 14.2224 7.65699C14.2799 7.64254 14.3296 7.60632 14.3609 7.55596C14.3923 7.50561 14.4028 7.44505 14.3904 7.38706C14.378 7.32907 14.3435 7.27817 14.2943 7.24509C14.245 7.21202 14.1849 7.19934 14.1265 7.20974Z" fill="#2DD0ED"/>
<path d="M8.71472 17.0902C9.47879 19.2226 10.728 20.5357 12.1331 20.5357C13.1577 20.5357 14.1057 19.8373 14.845 18.6076C14.8616 18.5818 14.8728 18.553 14.8781 18.5228C14.8833 18.4926 14.8824 18.4617 14.8755 18.4319C14.8668 18.3945 14.8489 18.3599 14.8234 18.3312C14.7978 18.3026 14.7655 18.2809 14.7293 18.268C14.6931 18.2552 14.6543 18.2516 14.6164 18.2577C14.5786 18.2638 14.5428 18.2793 14.5125 18.3029C14.4883 18.3217 14.4681 18.3451 14.4531 18.3718C13.7887 19.477 12.9725 20.0784 12.1331 20.0784C10.9662 20.0784 9.85165 18.9071 9.1456 16.9358C9.13592 16.907 9.12057 16.8803 9.10047 16.8574C9.08037 16.8345 9.05592 16.8159 9.02853 16.8026C9.00114 16.7893 8.97137 16.7816 8.94097 16.7799C8.91057 16.7783 8.88015 16.7828 8.85149 16.7931C8.82284 16.8034 8.79653 16.8193 8.77409 16.8399C8.75165 16.8604 8.73354 16.8853 8.72081 16.9129C8.70809 16.9406 8.701 16.9705 8.69997 17.0009C8.69897 17.0314 8.70407 17.0617 8.71494 17.0902H8.71472ZM15.6912 16.6729C16.0865 15.4097 16.2987 13.952 16.2987 12.4331C16.2987 8.64335 14.9724 5.37626 13.0831 4.53731C13.0278 4.51408 12.9657 4.51344 12.91 4.53551C12.8543 4.55758 12.8095 4.60061 12.7852 4.65536C12.7609 4.71011 12.759 4.77221 12.78 4.82832C12.801 4.88443 12.8431 4.93008 12.8974 4.95546C14.5825 5.70379 15.8414 8.80427 15.8414 12.4331C15.8414 13.9065 15.6356 15.3182 15.2546 16.5363C15.2448 16.5652 15.2408 16.5957 15.243 16.6262C15.2451 16.6566 15.2534 16.6863 15.2672 16.7135C15.288 16.7545 15.3207 16.7883 15.361 16.8104C15.4013 16.8326 15.4473 16.8421 15.493 16.8377C15.5388 16.8333 15.5822 16.8152 15.6175 16.7858C15.6529 16.7564 15.6785 16.7171 15.6912 16.6729ZM19.9995 16.4489C20.0004 16.3045 19.9728 16.1614 19.9182 16.0278C19.8636 15.8941 19.7831 15.7726 19.6813 15.6702C19.5795 15.5678 19.4585 15.4865 19.3252 15.431C19.192 15.3756 19.049 15.347 18.9046 15.347C18.7603 15.347 18.6173 15.3756 18.484 15.4311C18.3507 15.4865 18.2297 15.5678 18.128 15.6702C18.0262 15.7726 17.9457 15.8942 17.8911 16.0278C17.8365 16.1614 17.8089 16.3046 17.8098 16.4489C17.8117 16.7381 17.9278 17.0148 18.133 17.2186C18.3381 17.4224 18.6155 17.5368 18.9047 17.5368C19.1938 17.5368 19.4713 17.4224 19.6764 17.2186C19.8815 17.0147 19.9977 16.7381 19.9995 16.4489ZM19.5419 16.4489C19.5419 16.6179 19.4748 16.78 19.3552 16.8995C19.2357 17.019 19.0737 17.0862 18.9046 17.0862C18.7786 17.0862 18.6554 17.0488 18.5506 16.9788C18.4458 16.9088 18.3641 16.8092 18.3159 16.6928C18.2677 16.5763 18.2551 16.4482 18.2797 16.3246C18.3043 16.201 18.3649 16.0874 18.4541 15.9983C18.5432 15.9092 18.6567 15.8485 18.7803 15.8239C18.904 15.7993 19.0321 15.8119 19.1485 15.8602C19.265 15.9084 19.3645 15.9901 19.4345 16.0949C19.5046 16.1997 19.5419 16.3229 19.5419 16.4489ZM5.34585 17.5438C5.48964 17.5438 5.63202 17.5155 5.76486 17.4605C5.89771 17.4054 6.01841 17.3248 6.12008 17.2231C6.22175 17.1215 6.3024 17.0008 6.35742 16.8679C6.41243 16.7351 6.44074 16.5927 6.44072 16.4489C6.44074 16.3051 6.41242 16.1627 6.3574 16.0299C6.30238 15.897 6.22173 15.7763 6.12005 15.6747C6.01838 15.573 5.89767 15.4923 5.76482 15.4373C5.63198 15.3823 5.48959 15.354 5.34581 15.354C5.20203 15.354 5.05965 15.3823 4.92682 15.4374C4.79398 15.4924 4.67328 15.573 4.57162 15.6747C4.46995 15.7764 4.38931 15.8971 4.33429 16.0299C4.27928 16.1627 4.25096 16.3051 4.25098 16.4489C4.25096 16.5927 4.27928 16.7351 4.33429 16.8679C4.38931 17.0007 4.46996 17.1214 4.57163 17.2231C4.6733 17.3248 4.794 17.4054 4.92685 17.4605C5.05969 17.5155 5.20207 17.5438 5.34585 17.5438ZM5.34585 17.0862C5.17679 17.0862 5.01465 17.0191 4.89511 16.8995C4.77556 16.78 4.7084 16.6178 4.7084 16.4488C4.7084 16.2797 4.77556 16.1176 4.89511 15.998C5.01465 15.8785 5.17679 15.8113 5.34585 15.8113C5.51491 15.8113 5.67705 15.8785 5.79659 15.998C5.91614 16.1176 5.9833 16.2797 5.9833 16.4488C5.9833 16.6178 5.91614 16.78 5.79659 16.8995C5.67705 17.0191 5.51491 17.0862 5.34585 17.0862Z" fill="#2DD0ED"/>
<path d="M12.1331 5.6541C12.3496 5.65412 12.5613 5.58991 12.7414 5.46959C12.9214 5.34928 13.0617 5.17826 13.1446 4.97818C13.2134 4.81184 13.2402 4.63108 13.2226 4.45191C13.2049 4.27274 13.1433 4.1007 13.0433 3.951C12.9433 3.80131 12.8079 3.67859 12.6491 3.5937C12.4903 3.50882 12.3131 3.46439 12.1331 3.46436C11.9165 3.46432 11.7048 3.52851 11.5247 3.6488C11.3447 3.7691 11.2043 3.9401 11.1214 4.14017C11.0386 4.34024 11.0169 4.5604 11.0591 4.77279C11.1014 4.98519 11.2057 5.18028 11.3589 5.33338C11.4605 5.43505 11.5812 5.5157 11.7141 5.57072C11.8469 5.62574 11.9893 5.65406 12.1331 5.65406V5.6541ZM12.1331 5.19649C12.007 5.19648 11.8838 5.1591 11.779 5.08908C11.6742 5.01905 11.5925 4.91953 11.5443 4.8031C11.5122 4.72578 11.4957 4.6429 11.4957 4.55921C11.4957 4.47551 11.5122 4.39263 11.5443 4.31531C11.5763 4.23799 11.6232 4.16773 11.6824 4.10856C11.7416 4.04938 11.8118 4.00244 11.8891 3.97043C11.9762 3.93436 12.0702 3.91806 12.1643 3.92268C12.2585 3.92731 12.3504 3.95275 12.4335 3.99718C12.5167 4.04161 12.5889 4.10392 12.645 4.17962C12.7012 4.25533 12.7398 4.34254 12.7582 4.43497C12.7766 4.52741 12.7743 4.62277 12.7514 4.7142C12.7285 4.80562 12.6856 4.89083 12.6258 4.96368C12.566 5.03654 12.4908 5.09522 12.4056 5.13552C12.3204 5.17582 12.2273 5.19672 12.1331 5.19672V5.19649ZM12.3003 13.2076C12.0949 13.2519 11.8803 13.2129 11.7037 13.099C11.572 13.0141 11.4684 12.8921 11.406 12.7483C11.3437 12.6045 11.3254 12.4455 11.3534 12.2913C11.3815 12.1371 11.4546 11.9947 11.5636 11.8821C11.6726 11.7695 11.8126 11.6917 11.9658 11.6587C12.1698 11.6179 12.3816 11.659 12.5555 11.773C12.7295 11.8871 12.8516 12.065 12.8956 12.2683C12.9395 12.4716 12.9017 12.6841 12.7903 12.8598C12.6789 13.0354 12.5029 13.1603 12.3003 13.2074V13.2076Z" fill="#2DD0ED"/>
</svg>
