<svg width="24" height="20" viewBox="0 0 24 20" fill="none" xmlns="http://www.w3.org/2000/svg">
<path d="M5.99998 5.2002L9.33742 7.42516C10.628 8.28555 11.2733 8.71575 12 8.71575C12.7266 8.71575 13.3719 8.28555 14.6625 7.42516L18 5.2002M10.08 18.8002H14.72C17.4082 18.8002 18.7524 18.8002 19.7791 18.277C20.6823 17.8168 21.4166 17.0825 21.8768 16.1794C22.4 15.1526 22.4 13.8084 22.4 11.1202V8.8802C22.4 6.19194 22.4 4.84782 21.8768 3.82104C21.4166 2.91786 20.6823 2.18356 19.7791 1.72336C18.7524 1.2002 17.4082 1.2002 14.72 1.2002H10.08C7.39172 1.2002 5.2476 1.2002 4.22082 1.72336C3.31764 2.18356 2.58334 2.91786 2.12314 3.82104C1.59998 4.84782 1.59998 6.19194 1.59998 8.8802V11.1202C1.59998 13.8084 1.59998 15.1526 2.12314 16.1794C2.58334 17.0825 3.31764 17.8168 4.22082 18.277C5.2476 18.8002 7.39172 18.8002 10.08 18.8002Z" stroke="#4A525D" stroke-width="1.7" stroke-linecap="round"/>
</svg>
