<svg width="24" height="24" viewBox="0 0 24 24" fill="none" xmlns="http://www.w3.org/2000/svg">
<g clip-path="url(#clip0_11916_22979)">
<rect width="24" height="24" rx="12" fill="white"/>
<g clip-path="url(#clip1_11916_22979)">
<path d="M12 0C18.6274 0 24 5.37262 24 12C24 18.6274 18.6274 24 12 24C5.37262 24 0 18.6274 0 12C0 5.37262 5.37262 0 12 0Z" fill="#E05C43"/>
<path fill-rule="evenodd" clip-rule="evenodd" d="M12.2371 4.524C13.7832 4.49344 14.8758 4.91269 15.8159 6.24713C17.866 11.3301 10.5383 13.9534 10.2445 14.0565L10.2353 14.0595C10.2353 14.0595 10.0141 15.4401 12.1156 15.387C14.7018 15.387 17.4207 13.3824 18.455 12.5351C18.5752 12.4363 18.7283 12.3865 18.8836 12.3958C19.0389 12.405 19.185 12.4725 19.2927 12.5848L20.0671 13.3892C20.1759 13.5014 20.2381 13.6508 20.2411 13.8071C20.244 13.9634 20.1875 14.115 20.083 14.2313C19.4099 14.9807 17.8304 16.5193 15.4525 17.5133C15.4525 17.5133 11.485 19.3504 8.81129 17.6108C7.21697 16.5739 6.77841 15.3324 6.6001 14.0411C6.60104 14.0411 4.66435 13.9429 3.42066 13.4573C2.1766 12.9713 3.42985 11.5052 3.42985 11.5052C3.42985 11.5052 3.81235 10.899 4.53985 11.5052C5.26791 12.1104 6.62672 11.8374 6.62672 11.8374C6.74785 10.8814 6.94922 9.61969 7.54247 8.28806C8.78597 5.49713 10.6904 4.554 12.2371 4.524ZM13.147 7.32056C12.3278 6.53119 9.96254 8.10844 9.87122 11.7174C9.87122 11.7174 10.5695 11.9301 12.1156 10.8681C13.6625 9.80663 13.9662 8.10844 13.147 7.32056Z" fill="white"/>
</g>
</g>
<defs>
<clipPath id="clip0_11916_22979">
<rect width="24" height="24" rx="12" fill="white"/>
</clipPath>
<clipPath id="clip1_11916_22979">
<rect width="24" height="24" fill="white"/>
</clipPath>
</defs>
</svg>
