<svg width="24" height="24" viewBox="0 0 24 24" fill="none" xmlns="http://www.w3.org/2000/svg">
<rect width="24" height="24" rx="12" fill="white"/>
<path d="M8.78127 17.3568C8.17177 16.8529 7.52159 16.3698 7.07731 15.6897C6.14238 14.4902 5.42256 13.1014 4.9304 11.642C4.63302 10.693 4.53115 9.67556 4.14772 8.76321C3.74663 8.10059 4.21644 7.37622 4.90713 7.16564C5.21456 7.10363 5.75527 6.79884 5.10266 7.01663C4.51759 7.46788 4.46093 6.60717 5.06081 6.55263C5.47035 6.49546 5.62109 6.14317 5.48098 5.82606C5.04156 5.52479 6.5469 5.19379 5.78942 4.7443C5.00038 3.84973 6.89317 3.6775 6.42612 4.69346C6.31438 5.47474 7.74875 4.55026 7.41596 5.45258C7.75411 5.88579 8.68259 5.55109 8.65957 6.15891C9.15232 6.19454 9.32147 6.6303 9.784 6.66373C10.2634 6.89129 11.1324 7.07055 11.2956 7.63835C10.82 8.03401 9.71863 6.82083 9.66573 7.91631C9.80936 9.53447 9.77278 11.2014 10.3362 12.7423C10.6026 13.6754 11.2485 14.4099 11.8319 15.1366C12.3902 15.8483 13.1462 16.3493 13.9169 16.7712C14.5928 17.1063 15.3216 17.3285 16.0583 17.4679C16.3571 17.2277 16.8847 16.3347 17.3509 16.7113C17.373 17.1344 16.4257 17.5958 17.3063 17.549C17.8234 17.3851 18.1821 17.9693 18.6079 17.4423C19.0002 17.9307 20.2386 17.1303 19.9594 18.1286C19.5819 18.3845 19.0314 18.2298 18.6534 18.5819C18.03 18.2547 17.5337 18.8747 16.8436 18.7963C16.0772 18.9405 15.2976 18.9988 14.5205 19C13.2458 18.8942 11.9441 18.8496 10.7314 18.3831C10.0484 18.1746 9.38166 17.7657 8.78127 17.3568ZM9.85782 17.847C10.5249 18.1501 11.1772 18.4697 11.9082 18.566C13.0681 18.7356 14.2657 18.9963 15.4297 18.7585C14.9029 18.5085 14.3583 18.8558 13.8335 18.5797C13.2041 18.722 12.5286 18.5435 11.8886 18.4555C11.161 18.1148 10.3757 17.8806 9.69419 17.4385C8.84271 17.1116 10.1346 17.8576 10.3645 17.9181C10.8969 18.2356 9.77923 17.7553 9.62162 17.6233C9.17584 17.3605 9.119 17.4154 9.57751 17.6822C9.66983 17.7391 9.76098 17.7986 9.85782 17.847ZM8.58851 16.9043C9.23493 17.1559 8.58567 16.4267 8.28954 16.4689C8.1583 16.2296 7.78817 16.0785 8.04923 15.95C7.57951 16.1213 7.55716 15.2984 7.33644 15.416C6.83952 15.251 7.1431 14.667 6.55117 14.3083C6.4971 13.9303 5.96309 13.6025 5.79285 13.0324C5.71752 12.7404 5.18937 11.9022 5.51387 12.6823C5.79009 13.4333 6.27605 14.0765 6.68049 14.7188C6.99453 15.3304 7.3654 15.9696 7.93733 16.3512C8.13017 16.5456 8.31632 16.8433 8.58851 16.9043ZM6.72644 14.7557C6.74904 14.6531 6.84462 14.9777 6.72644 14.7557V14.7557ZM9.36266 17.2059C9.15684 17.121 9.50578 17.1385 9.36266 17.2059V17.2059ZM9.71353 17.3405C9.55341 17.4443 9.6772 17.1547 9.71353 17.3405V17.3405ZM10.1528 17.533C9.83054 17.401 10.3619 17.3237 10.1528 17.533V17.533ZM10.9056 17.9739C10.4989 17.8994 11.0326 17.7765 10.9056 17.9739V17.9739ZM9.46008 16.9149C9.04049 16.9119 9.78484 16.6941 9.46008 16.9149V16.9149ZM9.78953 17.0875C9.67209 17.1399 9.78032 16.9708 9.78953 17.0875V17.0875ZM11.4362 18.1677C11.701 18.3434 12.9822 18.5525 12.1799 18.2397C12.0457 18.2695 10.6924 17.8375 11.4362 18.1677ZM8.82195 16.0279C8.41099 15.8986 8.79626 15.9109 8.82195 16.0279V16.0279ZM9.58864 16.4975C9.1745 16.3847 9.7881 16.3513 9.58864 16.4975V16.4975ZM10.2335 16.913C9.76893 16.7991 10.5197 16.7995 10.2335 16.913V16.913ZM8.51009 15.671C8.82061 15.9212 9.76283 15.703 8.98575 15.5214C8.63204 15.3234 7.83496 15.1877 8.37826 15.6409L8.51009 15.671ZM10.6702 17.0565C10.1276 16.9242 10.7996 16.8248 10.6702 17.0565V17.0565ZM10.0138 16.5083C10.7734 16.7341 9.37504 16.0034 9.82635 16.4252L9.92637 16.4727L10.0138 16.5083ZM11.3299 17.3076C10.6801 17.2034 12.0493 17.3148 11.3299 17.3076V17.3076ZM8.23321 15.2335C8.05576 15.2453 8.20508 15.0927 8.23321 15.2335V15.2335ZM12.5468 18.025C12.312 18.2142 12.5659 17.7706 12.5468 18.025V18.025ZM9.46083 16.0235C9.2361 16.018 9.41731 15.8896 9.46083 16.0235V16.0235ZM8.30142 15.1451C7.73603 14.9538 8.71448 15.119 8.30142 15.1451V15.1451ZM6.9279 14.212C6.47852 13.838 6.87651 14.004 6.9279 14.212V14.212ZM10.5337 16.6169C10.458 16.5262 10.4981 16.6367 10.5337 16.6169V16.6169ZM12.778 18.0643C12.6558 18.1167 12.7708 17.9257 12.778 18.0643V18.0643ZM10.3351 16.4013C9.98287 16.3473 10.3755 16.2228 10.3351 16.4013V16.4013ZM8.66309 15.2877C8.17093 15.0694 8.97027 15.2532 8.66309 15.2877V15.2877ZM11.4914 17.1347C11.0248 17.0374 11.9702 16.9353 11.4914 17.1347V17.1347ZM10.0202 16.0852C10.572 16.16 9.36366 15.6907 9.89917 16.0431L10.0202 16.0852ZM11.9381 17.3245C12.4533 17.0008 12.2835 18.0825 12.8122 17.416C13.3336 17.0157 12.3618 17.9107 13.0045 17.4872C13.4694 17.1605 14.156 17.6421 14.5897 17.7992C14.9016 17.7831 15.2049 18.0827 15.5247 17.9005C16.1402 17.7263 14.3209 17.642 14.7978 17.3329C14.2345 17.5052 13.8185 17.1275 13.5413 16.7484C12.9095 16.5951 12.179 16.2557 11.8637 15.6681C11.7351 15.4475 12.0495 15.6991 11.7527 15.3385C11.372 14.9827 11.1819 14.5788 10.9264 14.1462C10.6211 13.975 10.5855 13.4712 10.5546 14.1293C10.5571 13.714 10.186 13.4344 10.0955 13.5506C10.0939 13.1506 10.4925 13.3511 10.2135 13.0552C10.1534 12.6406 9.95567 12.2086 9.89616 11.7406C9.80375 11.5149 9.8831 11.0317 9.58086 11.5425C9.4708 12.0823 9.54437 10.8791 9.71562 11.2759C9.94035 10.8711 9.63485 10.9186 9.62238 10.9748C9.76885 10.6333 9.71503 10.1487 9.58413 10.3336C9.66222 9.97155 9.70742 9.00115 9.46736 9.17312C9.61292 8.79453 9.74332 7.44079 9.11164 7.95695C8.85568 7.96073 8.41241 8.05459 8.20291 8.1641C8.85995 8.54471 8.13678 8.30159 7.86936 8.24107C7.83454 8.59327 7.56963 8.44092 7.23868 8.44435C7.76725 8.51314 6.9813 9.01259 6.67806 8.81854C6.28425 9.01637 7.01788 9.5101 6.68593 9.66271C6.72669 9.89291 6.08262 9.57968 6.13317 10.1111C5.75083 9.94217 6.08052 10.7417 6.27178 10.4713C6.92213 10.6562 6.72962 11.0779 6.74611 11.4784C6.64023 11.7118 6.22298 10.9298 6.6532 10.9661C6.31388 10.3866 6.27781 10.7566 5.99582 11.0258C5.9302 11.0453 6.71514 11.4088 6.22256 11.5885C6.65596 11.6588 6.66827 12.0573 6.75657 12.3095C7.01696 12.5946 6.96373 11.9946 7.27534 12.3373C7.07815 12.0321 6.23068 11.4772 6.91292 11.6551C6.90932 11.3479 6.78955 11.1001 6.99863 11.1062C7.20562 10.7121 6.78185 12.0776 7.24848 11.5768C7.37762 11.5176 7.4096 11.1824 7.64187 11.6084C7.97901 11.9571 7.76365 12.2098 7.2879 11.8905C7.37302 12.194 7.92427 12.3024 7.82065 12.7769C7.93055 13.1942 8.08414 13.0406 8.21806 13.0164C8.32318 13.4219 8.38278 13.1237 8.3878 12.9308C8.86882 13.039 8.75616 13.3379 8.90674 13.5466C9.23819 13.7039 8.43216 12.4808 9.00132 13.1789C9.60011 13.747 9.22589 13.9841 8.68853 13.8932C9.02861 13.8641 9.13834 14.3763 9.5637 14.3583C9.95165 14.5522 10.2142 15.2971 9.54562 14.987C9.31377 14.7673 8.49301 14.4962 9.16337 14.9142C9.78241 15.2154 10.2741 15.3957 10.8712 15.7739C11.2986 16.0945 11.4831 16.4618 11.6451 16.5343C11.286 16.7147 10.5628 16.3904 11.0998 16.291C10.7649 16.2269 10.3881 16.049 10.7089 16.4875C10.9817 16.7268 11.6755 16.7015 11.7998 16.7285C11.6944 16.9727 11.5135 16.9921 11.8041 17.0111C11.4798 17.1926 11.9081 17.2208 11.9381 17.3245ZM11.2751 15.3568C11.0778 15.14 11.0269 14.7339 11.24 15.0873C11.3494 15.1334 11.5904 15.7508 11.2751 15.3568ZM13.4343 16.7982C13.4379 16.8965 13.5574 16.7899 13.4343 16.7982V16.7982ZM10.9636 14.8252C10.9561 14.4975 11.035 15.078 10.9636 14.8252V14.8252ZM10.7491 14.5218C10.5009 14.0179 11.0619 14.6644 10.7491 14.5218V14.5218ZM8.14833 12.6354C8.22007 12.8974 8.29406 12.5946 8.14833 12.6354V12.6354ZM10.2181 13.8144C10.3076 13.4611 10.3233 14.1109 10.2181 13.8144V13.8144ZM8.75583 12.7459C8.65279 12.551 8.97144 12.9288 8.75583 12.7459V12.7459ZM10.0107 13.1687C9.77571 12.6152 10.1771 12.8664 10.0627 13.2593L10.0107 13.1687ZM7.84668 11.652C7.74155 11.4703 7.56771 10.9376 7.6237 10.775C7.67434 11.0398 8.15972 11.9149 7.86183 11.1374C7.53255 10.4857 8.2553 11.349 8.32971 11.5115C8.36428 11.6733 8.12657 11.4673 8.28761 11.8465C7.99382 11.4148 8.11418 12.0849 7.84668 11.652ZM7.17792 11.1677C7.20537 10.7454 7.331 11.4571 7.17792 11.1677V11.1677ZM7.47873 11.2765C7.62228 10.9578 7.72213 11.7207 7.47873 11.2765V11.2765ZM6.75498 10.6881C6.50597 10.4281 6.32585 10.1885 6.7667 10.5268C6.93661 10.5337 6.38921 9.98167 6.80754 10.3515C7.24747 10.4357 7.02475 11.1093 6.75498 10.6881ZM7.13515 10.6777C7.2119 10.8259 7.27978 10.5271 7.13515 10.6777V10.6777ZM7.36909 10.7565C7.14979 10.3246 7.63509 10.9376 7.36909 10.7565V10.7565ZM6.90405 10.2894C6.18021 9.61249 7.8137 10.6435 7.02232 10.415L6.90405 10.2894ZM8.97814 11.5559C8.66485 11.3585 8.89511 10.1663 9.00191 10.9817C9.30641 10.8782 8.98508 11.4028 9.21225 11.3979C9.17642 11.7289 9.07489 11.848 8.97814 11.5559ZM9.74525 12.0324C9.77597 11.6731 9.80986 12.278 9.74525 12.0324V12.0324ZM9.612 11.8941C9.61551 12.0747 9.64648 11.7406 9.612 11.8941V11.8941ZM7.04609 10.0671C6.58105 9.39276 8.39759 10.7491 7.34389 10.2381C7.23383 10.2078 7.10133 10.1971 7.04609 10.0671ZM8.52331 10.8901C8.47928 10.3223 8.62157 10.9843 8.52331 10.8901V10.8901ZM9.64489 11.6463C9.65134 11.8602 9.73169 11.3228 9.64489 11.6463V11.6463ZM7.11732 9.80961C7.39369 9.7476 8.26275 10.3198 7.46467 9.97322C7.37595 9.86995 7.18696 9.91693 7.11732 9.80961ZM9.49072 11.053C9.52026 10.4724 9.65569 10.7062 9.49172 11.1361L9.49072 11.053ZM7.32297 9.60774C7.43554 9.43419 7.02399 8.82285 7.38231 9.38845C7.53716 9.51775 7.83053 9.60501 7.57147 9.65937C7.97893 10.0372 7.47212 9.76176 7.32297 9.60774ZM9.37337 10.8716C9.442 11.2591 9.45121 10.2103 9.37337 10.8716V10.8716ZM7.08785 8.99684C7.1333 9.11735 7.1739 8.95814 7.08785 8.99684V8.99684ZM7.6227 9.33136C7.7603 9.02789 7.87656 9.66984 7.6227 9.33136V9.33136ZM9.13122 10.2133C9.1298 10.0967 9.15968 10.3829 9.13122 10.2133V10.2133ZM9.04384 10.01C8.83442 9.46709 9.23861 10.2975 9.04384 10.01V10.01ZM8.91528 9.65409C8.88012 9.42979 9.03472 9.93593 8.91528 9.65409V9.65409ZM9.12453 9.29662C8.98082 9.03053 9.30599 8.12408 9.34223 8.68616C9.19057 9.1243 9.29846 9.36936 9.40425 8.78177C9.59969 8.31936 9.36207 9.69429 9.12453 9.29662ZM9.33955 7.94842C9.35345 8.04588 9.40216 7.86767 9.33955 7.94842V7.94842ZM8.98048 15.3843C8.89527 15.3062 8.99119 15.434 8.98048 15.3843V15.3843ZM9.72014 15.7775C10.1316 15.8885 10.1295 15.7102 9.75764 15.6573C9.55759 15.4617 8.92649 15.2543 9.49147 15.6331C9.5288 15.7326 9.64707 15.7304 9.72014 15.7775ZM8.25924 14.7578C8.48598 14.9354 9.11306 15.2613 8.58215 14.8255C8.76119 14.6068 8.23957 14.4905 8.41258 14.3443C7.97248 14.0613 8.06539 14.0864 8.37374 14.0954C7.84475 13.8469 8.45007 13.8655 8.42162 13.7382C8.21764 13.6959 7.40859 13.3602 7.8846 13.7657C7.40073 13.5065 7.76926 13.8623 7.62303 13.8246C7.1282 13.6829 8.06363 14.2207 7.54436 14.0872C7.82827 14.3237 8.30854 14.6927 7.66446 14.3374C7.57959 14.4658 8.12532 14.6603 8.25924 14.7578ZM9.03288 15.2248C8.57169 14.8357 9.97367 15.5434 9.03288 15.2248V15.2248ZM12.9933 17.7463C12.8647 17.9136 13.0054 17.5501 12.9933 17.7463V17.7463ZM13.4003 17.9263C13.6174 17.7053 13.4092 18.2784 13.76 17.8722C13.7638 17.5814 13.7491 17.4097 13.3569 17.7629C13.2488 17.8259 13.2004 18.0939 13.4003 17.9263ZM6.93887 13.6617C6.47165 13.3877 6.87216 13.3864 6.93887 13.6617V13.6617ZM7.37352 13.961C6.79767 13.7064 7.21207 13.6798 7.37352 13.961V13.961ZM9.84627 15.5282C10.0877 15.7536 10.9551 15.6936 10.1395 15.556C10.0187 15.3683 9.37245 15.4135 9.84627 15.5282ZM13.2455 17.7345C12.8856 17.8807 13.6171 17.4068 13.2455 17.7345V17.7345ZM14.0183 18.2926C13.8582 18.3386 14.0206 18.1874 14.0183 18.2926V18.2926ZM14.0195 18.1454C13.6208 18.1725 14.4309 17.6872 14.0195 18.1454V18.1454ZM5.86985 12.7212C5.51915 12.1952 5.65181 11.9589 5.31366 11.5295C5.24963 11.2012 4.73346 10.456 5.04666 11.2454C5.33359 11.7071 5.41879 12.4219 5.86985 12.7212ZM13.8905 17.9998C13.5798 17.7757 14.6476 17.4856 13.8905 17.9998V17.9998ZM14.4684 18.2376C14.2286 18.1661 14.8475 17.8955 14.4684 18.2376V18.2376ZM6.81005 13.0804C6.52991 13.0588 6.91853 12.9108 6.81005 13.0804V13.0804ZM14.3477 18.0752C14.7148 17.8265 14.2632 17.8647 14.2812 18.098L14.3477 18.0752ZM9.36642 14.7755C9.17257 14.7899 9.35387 14.6076 9.36642 14.7755V14.7755ZM9.67427 14.9617C9.52386 14.9944 9.57642 14.7539 9.67427 14.9617V14.9617ZM14.9367 18.2433C15.407 17.8867 14.6517 18.175 14.838 18.3108L14.9367 18.2433ZM14.7567 18.1518C14.3522 18.3013 15.1397 17.8144 14.7567 18.1518V18.1518ZM15.6766 18.7957C15.3642 18.7371 15.9339 18.6146 15.6766 18.7957V18.7957ZM7.04584 12.9581C7.39068 13.0393 8.42354 13.8504 7.8142 13.0143C7.502 12.9171 7.68924 12.1153 7.37093 12.2573C7.58461 12.6324 7.5467 12.7921 7.09807 12.5555C6.53418 12.2663 6.78118 12.6989 6.89133 12.8181C6.74125 12.854 7.09003 12.9551 7.04584 12.9581ZM5.47521 11.6544C5.53689 11.3862 4.90688 10.1784 5.17765 11.0493C5.27541 11.2317 5.26554 11.5774 5.47521 11.6544ZM8.35809 13.5223C8.18056 13.3663 8.34972 13.5002 8.35809 13.5223V13.5223ZM8.79525 13.6292C8.31205 13.5138 8.795 13.3451 8.79525 13.6292V13.6292ZM12.5836 16.1391C12.298 16.1345 12.5114 15.9449 12.5836 16.1391V16.1391ZM12.7656 16.2787C12.6606 16.2997 12.7388 16.1701 12.7656 16.2787V16.2787ZM14.2671 17.2727C14.0869 17.2583 14.4116 17.1606 14.2671 17.2727V17.2727ZM6.25973 11.865C5.8172 11.7451 6.67279 11.6969 6.25973 11.865V11.865ZM12.2501 15.8312C11.9868 15.9009 12.2455 15.5501 12.2501 15.8312V15.8312ZM6.09651 11.4653C5.8511 11.4033 6.36184 11.3711 6.09651 11.4653V11.4653ZM6.86672 11.8574C6.78528 11.8924 6.86186 11.765 6.86672 11.8574V11.8574ZM16.2604 17.9112C16.6016 17.8385 17.3791 18.0937 17.5048 17.8162C17.0905 17.8056 16.0712 17.5089 16.023 17.8869L16.1137 17.9019L16.2604 17.9112ZM7.11146 11.9222C6.9002 11.9116 7.1174 11.6375 7.11146 11.9222V11.9222ZM5.0865 10.446C4.73672 10.3639 4.99452 9.90338 5.0865 10.446V10.446ZM5.56945 10.5736C5.12743 10.4168 5.57531 10.3994 5.56945 10.5736V10.5736ZM5.84533 10.7161C5.76556 10.6481 5.78289 10.8017 5.84533 10.7161V10.7161ZM7.58169 11.8866C7.38817 11.8281 7.66346 11.8077 7.58169 11.8866V11.8866ZM5.66161 10.3947C5.10224 10.3333 5.6149 9.98492 5.66161 10.3947V10.3947ZM4.67152 9.71972C4.57501 9.79096 4.65737 9.5306 4.67152 9.71972V9.71972ZM4.81875 9.60281C4.69236 9.6314 4.79472 9.37851 4.81875 9.60281V9.60281ZM5.63231 10.1133C5.9764 9.9712 5.00573 9.81946 5.562 10.0864L5.63231 10.1133ZM16.5215 17.1818C16.2417 17.1162 16.7417 16.9697 16.5215 17.1818V17.1818ZM17.837 17.8984C17.6149 17.9345 17.9253 17.6241 17.837 17.8984V17.8984ZM5.71568 9.66509C5.44281 9.71778 5.75183 9.39971 5.71568 9.66509V9.66509ZM4.55794 8.84994C4.49575 8.47531 4.50428 7.81771 5.09906 8.03999C4.30508 8.20562 5.64855 9.07706 5.47889 8.38902C5.81277 8.40617 6.132 8.18169 5.95682 8.52246C6.61461 8.44611 7.07061 7.84665 7.70598 7.93065C8.2009 7.86178 8.74202 7.80961 9.27536 7.60026C9.71394 7.56701 10.136 7.07091 9.89566 6.77676C9.29762 6.72363 8.67171 6.80227 8.01073 6.94037C7.27836 7.10029 6.61294 7.40437 5.87404 7.53482C5.15371 7.6365 6.01884 7.81498 5.8126 7.85474C5.4367 7.99187 6.26081 8.08432 5.7638 8.22875C5.45688 8.16744 5.13748 8.05661 5.26855 7.71664C4.57853 7.81076 3.9722 8.11168 4.51734 8.84959L4.55794 8.84994ZM6.22055 7.96012C6.38235 7.33383 7.08727 8.47549 6.48572 8.04324C6.4139 7.98677 6.29572 7.94068 6.22055 7.96012ZM6.25203 7.65638C6.37615 7.75895 6.48555 7.4736 6.25203 7.65638V7.65638ZM6.54849 7.6614C6.56958 7.37315 7.2273 7.81392 6.65697 7.76519L6.54849 7.6614ZM6.9541 7.48996C6.99662 7.65181 7.10225 7.30814 6.9541 7.48996V7.48996ZM7.05789 7.41695C7.30447 7.10556 8.45443 7.21816 7.61265 7.3866C7.38708 7.20804 7.21424 7.49189 7.05789 7.41695ZM8.55863 7.17382C8.52105 6.32323 9.30415 7.47615 8.55863 7.17382V7.17382ZM8.98441 7.17145C9.1401 6.74272 9.58856 6.99939 9.0564 7.08524C9.06803 7.1309 9.04083 7.30656 8.98441 7.17145ZM5.54769 9.44501C5.05386 9.18526 6.01289 9.14567 5.54769 9.44501V9.44501ZM5.8917 9.54546C5.53723 9.47157 6.05474 9.3632 5.8917 9.54546V9.54546ZM4.87817 8.78951C4.56363 8.70788 5.14392 8.57489 4.87817 8.78951V8.78951ZM18.6135 17.8199C18.4104 17.9321 18.6212 17.571 18.6135 17.8199V17.8199ZM17.2178 16.8189C17.0385 16.844 17.2575 16.5323 17.2178 16.8189V16.8189ZM18.9973 17.9165C19.3689 17.9178 20.1233 17.7951 19.3147 17.7955C19.1879 17.8164 18.5754 17.8119 18.9973 17.9165ZM6.19419 9.3698C6.49492 9.34807 6.66475 9.02112 6.13602 9.03994C5.31659 8.95075 6.85893 9.33479 6.03089 9.22493C5.91957 9.30233 6.18783 9.39118 6.19419 9.3698ZM6.45902 9.51063C6.36611 9.61847 6.42763 9.3077 6.45902 9.51063V9.51063ZM6.77323 8.63013C6.59269 8.58465 6.9038 8.46001 6.77323 8.63013V8.63013ZM5.77301 6.87308C6.30978 6.68115 7.04383 6.46555 7.29719 6.96755C7.03931 6.6413 7.19315 6.32015 7.43672 6.79717C7.78123 7.27982 7.95365 6.57761 7.72967 6.41576C7.98495 6.74914 8.27539 6.90668 7.90058 6.43687C8.30787 5.92203 7.08509 6.50425 6.80721 6.49845C6.67346 6.56143 5.42666 6.83244 5.77301 6.87308ZM6.08764 6.23993C6.39373 5.99715 7.14628 6.38436 6.66341 5.99865C6.61612 5.95484 5.60586 6.29112 6.08764 6.23993ZM7.20361 6.28831C7.56185 6.29798 7.0491 5.78252 7.47597 6.01615C7.40592 5.7754 6.97896 5.73027 6.77021 5.63413C6.6522 5.85421 7.01052 6.29121 7.20361 6.28831ZM6.28325 5.22379C6.06604 5.31333 6.40721 5.04725 6.28325 5.22379V5.22379ZM6.73941 5.33858C7.31677 5.25809 6.59227 5.07733 6.62307 5.33207L6.73941 5.33858ZM5.88776 4.63813C5.48123 4.08045 6.65228 4.73181 6.23922 4.14792C5.89161 3.85703 5.55765 4.47532 5.88776 4.63813ZM11.1048 7.5912C11.2912 7.24384 10.335 7.12298 10.9792 7.46806C11.0384 7.48899 11.0251 7.61522 11.1048 7.5912Z" fill="black"/>
</svg>
