<svg width="24" height="24" viewBox="0 0 24 24" fill="none" xmlns="http://www.w3.org/2000/svg">
<g clip-path="url(#clip0_2843_40987)">
<path d="M12 0C18.6276 0 24 5.3724 24 12V20.4C24 21.3548 23.6207 22.2705 22.9456 22.9456C22.2705 23.6207 21.3548 24 20.4 24H12.6V18.7356C12.6 17.5344 12.6732 16.29 13.3032 15.2676C13.7542 14.5349 14.3576 13.9078 15.0723 13.4288C15.7871 12.9498 16.5965 12.6301 17.4456 12.4914L17.6754 12.4542C17.7701 12.4218 17.8524 12.3606 17.9106 12.2792C17.9688 12.1977 18.0002 12.1001 18.0002 12C18.0002 11.8999 17.9688 11.8023 17.9106 11.7208C17.8524 11.6394 17.7701 11.5782 17.6754 11.5458L17.4456 11.5086C16.2049 11.3059 15.0592 10.7187 14.1703 9.82973C13.2813 8.94079 12.6941 7.7951 12.4914 6.5544L12.4542 6.3246C12.4218 6.22986 12.3606 6.14762 12.2792 6.08939C12.1977 6.03116 12.1001 5.99985 12 5.99985C11.8999 5.99985 11.8023 6.03116 11.7208 6.08939C11.6394 6.14762 11.5782 6.22986 11.5458 6.3246L11.5086 6.5544C11.37 7.40356 11.0503 8.21297 10.5713 8.92771C10.0923 9.64244 9.46513 10.2458 8.7324 10.6968C7.71 11.3268 6.4656 11.4 5.2644 11.4H0.0144043C0.328204 5.0514 5.574 0 12 0Z" fill="#495B02"/>
<path d="M0 12.6H5.2644C6.4656 12.6 7.71 12.6732 8.7324 13.3032C9.53158 13.7957 10.2043 14.4684 10.6968 15.2676C11.3268 16.29 11.4 17.5344 11.4 18.7356V24H3.6C2.64522 24 1.72955 23.6207 1.05442 22.9456C0.379285 22.2705 0 21.3548 0 20.4L0 12.6ZM24 1.2C24 1.51826 23.8736 1.82348 23.6485 2.04853C23.4235 2.27357 23.1183 2.4 22.8 2.4C22.4817 2.4 22.1765 2.27357 21.9515 2.04853C21.7264 1.82348 21.6 1.51826 21.6 1.2C21.6 0.88174 21.7264 0.576516 21.9515 0.351472C22.1765 0.126428 22.4817 0 22.8 0C23.1183 0 23.4235 0.126428 23.6485 0.351472C23.8736 0.576516 24 0.88174 24 1.2Z" fill="#495B02"/>
</g>
<defs>
<clipPath id="clip0_2843_40987">
<rect width="24" height="24" fill="white"/>
</clipPath>
</defs>
</svg>
