<svg width="20" height="20" viewBox="0 0 20 20" fill="none" xmlns="http://www.w3.org/2000/svg">
<path d="M11.3956 3.25339L11.7572 2.89185C13.0184 1.63062 13.649 1 14.4327 1C15.2163 1 15.8469 1.63062 17.1082 2.89185C18.3694 4.15308 19 4.7837 19 5.56734C19 6.35097 18.3694 6.98159 17.1082 8.24282L16.7466 8.60435M11.3956 3.25339L2.11271 12.5363C1.55555 13.0935 1.27698 13.3721 1.13281 13.727C0.988654 14.0819 0.994053 14.4758 1.00485 15.2636L1.03006 17.1042C1.04197 17.9738 1.04793 18.4087 1.31963 18.6804C1.59133 18.9521 2.02616 18.958 2.89582 18.9699L4.73636 18.9952C5.52422 19.006 5.91816 19.0113 6.27305 18.8672C6.62794 18.723 6.90651 18.4444 7.46367 17.8873L16.7466 8.60435M11.3956 3.25339L16.7466 8.60435M11.4211 18.9952L19 18.9952" stroke="white" stroke-width="2" stroke-linecap="round"/>
</svg>
