<svg width="28" height="28" viewBox="0 0 28 28" fill="none" xmlns="http://www.w3.org/2000/svg">
<path d="M5.62836 14.6996C5.98407 19.0113 9.59614 22.3996 13.9996 22.3996C15.8283 22.3996 17.5204 21.8153 18.8996 20.8231M5.62836 14.6996C5.60932 14.4688 5.59961 14.2353 5.59961 13.9996C5.59961 11.1891 6.97991 8.70093 9.09961 7.17608M5.62836 14.6996H6.29961H7.69961C8.49456 14.6996 9.18634 14.2771 9.54291 13.6541C9.82137 13.1675 10.2697 12.6909 10.8496 12.6909H11.5496C12.5161 12.6909 13.2996 11.9415 13.2996 11.017C13.2996 10.0925 12.5161 9.34309 11.5496 9.34309H11.1996C10.0398 9.34309 9.09961 8.44376 9.09961 7.33439V7.17608M9.09961 7.17608C10.4788 6.18394 12.171 5.59961 13.9996 5.59961C18.1618 5.59961 21.617 8.62681 22.2835 12.5996M22.2835 12.5996C22.3599 13.0549 22.3996 13.5226 22.3996 13.9996C22.3996 16.8101 21.0193 19.2983 18.8996 20.8231M22.2835 12.5996H21.6996H20.2996C19.5047 12.5996 18.8129 13.0413 18.4563 13.6927C18.1778 14.2014 17.7295 14.6996 17.1496 14.6996H16.4496C15.4831 14.6996 14.6996 15.4831 14.6996 16.4496C14.6996 17.4161 15.4831 18.1996 16.4496 18.1996H16.7996C17.9594 18.1996 18.8996 19.1398 18.8996 20.2996V20.8231" stroke="#4A525D" stroke-width="1.7"/>
</svg>
