<svg width="24" height="24" viewBox="0 0 24 24" fill="none" xmlns="http://www.w3.org/2000/svg">
<rect width="24" height="24" rx="12" fill="white"/>
<path d="M3.50932 10.5264C3.47037 10.5264 3.46063 10.5069 3.4801 10.4777L3.68459 10.2148C3.70407 10.1856 3.75276 10.1661 3.79171 10.1661H7.268C7.30695 10.1661 7.31669 10.1953 7.29722 10.2245L7.13168 10.4777C7.1122 10.5069 7.06352 10.5361 7.0343 10.5361L3.50932 10.5264ZM2.03895 11.4222C2 11.4222 1.99026 11.4027 2.00974 11.3735L2.21423 11.1106C2.2337 11.0814 2.28239 11.0619 2.32134 11.0619H6.76165C6.8006 11.0619 6.82008 11.0911 6.81034 11.1204L6.73244 11.3541C6.7227 11.393 6.68375 11.4125 6.6448 11.4125L2.03895 11.4222ZM4.39543 12.3181C4.35648 12.3181 4.34675 12.2889 4.36622 12.2596L4.50255 12.0162C4.52202 11.987 4.56097 11.9578 4.59992 11.9578H6.54743C6.58638 11.9578 6.60585 11.987 6.60585 12.0259L6.58638 12.2596C6.58638 12.2986 6.54743 12.3278 6.51821 12.3278L4.39543 12.3181ZM14.503 10.3511C13.8895 10.5069 13.4708 10.6237 12.8671 10.7795C12.721 10.8185 12.7113 10.8282 12.5847 10.6822C12.4386 10.5166 12.3315 10.4095 12.127 10.3121C11.5136 10.0103 10.9196 10.0979 10.3645 10.4582C9.70239 10.8867 9.36157 11.5196 9.37131 12.3083C9.38105 13.0873 9.91661 13.73 10.6859 13.8371C11.348 13.9248 11.9031 13.6911 12.3413 13.1944C12.4289 13.0873 12.5068 12.9705 12.6042 12.8342H10.7248C10.5203 12.8342 10.4717 12.7076 10.5398 12.542C10.6664 12.2402 10.9001 11.7338 11.0364 11.4806C11.0656 11.4222 11.1338 11.3248 11.2799 11.3248H14.8243C14.8049 11.5878 14.8049 11.8507 14.7659 12.1136C14.6588 12.8147 14.3959 13.4574 13.9674 14.0221C13.2663 14.9472 12.351 15.5217 11.1922 15.6775C10.238 15.8041 9.35184 15.6191 8.57283 15.0348C7.85226 14.4895 7.44328 13.769 7.33617 12.8731C7.20958 11.8117 7.52118 10.8574 8.16386 10.02C8.85522 9.11442 9.77055 8.53991 10.8904 8.33542C11.8057 8.16988 12.6821 8.277 13.4708 8.81256C13.9869 9.15337 14.3569 9.62078 14.6004 10.1856C14.6588 10.2732 14.6198 10.3219 14.503 10.3511Z" fill="#00ACD7"/>
<path d="M17.7257 15.736C16.8396 15.7165 16.0313 15.4633 15.3497 14.8791C14.7752 14.3825 14.4149 13.7495 14.2981 12.9997C14.1228 11.8994 14.4247 10.9256 15.0868 10.059C15.7976 9.1242 16.6545 8.63733 17.8133 8.43284C18.8065 8.25756 19.7413 8.35494 20.5885 8.92945C21.3578 9.45528 21.8349 10.1661 21.9615 11.1009C22.127 12.4155 21.7473 13.4866 20.8417 14.4019C20.199 15.0544 19.4103 15.4633 18.5047 15.6483C18.2418 15.697 17.9788 15.7068 17.7257 15.736ZM20.0432 11.802C20.0335 11.6754 20.0335 11.5781 20.014 11.4807C19.8387 10.5167 18.9526 9.97137 18.0275 10.1856C17.1219 10.3901 16.5377 10.9646 16.3235 11.8799C16.1482 12.6395 16.5182 13.4087 17.2193 13.7203C17.7549 13.954 18.2904 13.9248 18.8065 13.6619C19.5758 13.2627 19.9945 12.6395 20.0432 11.802Z" fill="#00ACD7"/>
</svg>
