<svg width="24" height="24" viewBox="0 0 24 24" fill="none" xmlns="http://www.w3.org/2000/svg">
<rect width="24" height="24" rx="12" fill="white"/>
<path fill-rule="evenodd" clip-rule="evenodd" d="M13.536 4.29193L17.2326 6.66639C17.3393 6.54077 17.4618 6.43295 17.5962 6.34627C18.3629 5.85595 19.3407 6.14707 19.786 7C20.2268 7.85293 19.9651 8.94073 19.1984 9.43614C19.065 9.52162 18.9212 9.58531 18.7715 9.62526V14.3759C18.9196 14.4159 19.0618 14.4792 19.1939 14.5638C19.9651 15.0592 20.2268 16.1471 19.7815 17C19.3407 17.8529 18.3583 18.144 17.5916 17.6537C17.4431 17.5589 17.3093 17.4381 17.1954 17.2959L13.5212 19.6557C13.5751 19.837 13.6024 20.0266 13.6022 20.2175C13.6022 21.1981 12.8861 22 12 22C11.1139 22 10.3978 21.2032 10.3978 20.2175C10.3978 20.0423 10.4204 19.8731 10.4626 19.7132L6.76701 17.3394C6.66146 17.4626 6.54071 17.5684 6.40839 17.6537C5.63714 18.144 4.65926 17.8529 4.21852 17C3.77783 16.1471 4.03952 15.0592 4.80614 14.5638C4.93821 14.4792 5.08042 14.4159 5.22851 14.3759V9.62526C5.07879 9.58531 4.93501 9.52162 4.80158 9.43614C4.03489 8.94588 3.7732 7.85293 4.21395 7C4.6547 6.14707 5.63708 5.85595 6.40376 6.34627C6.53745 6.43249 6.65932 6.53961 6.76564 6.66438L10.4633 4.28929C10.4197 4.1247 10.3977 3.95399 10.3978 3.78241C10.3978 2.79682 11.1139 2 12 2C12.8861 2 13.6022 2.79675 13.6022 3.78241C13.6022 3.95958 13.5791 4.13055 13.536 4.29193ZM13.1509 5.02353L16.8563 7.40355C16.7973 7.63301 16.7804 7.87332 16.8065 8.1102C16.8327 8.34707 16.9014 8.57568 17.0086 8.78241C17.2342 9.21892 17.6016 9.50831 18.0094 9.62109V14.3777C17.9886 14.3833 17.9679 14.3895 17.9474 14.396L13.1078 5.07116C13.1224 5.05558 13.1368 5.03973 13.1509 5.0236V5.02353ZM10.8932 5.0722L6.0537 14.3969C6.03277 14.3902 6.01173 14.3839 5.99057 14.3781V9.62109C6.39839 9.50831 6.76582 9.21892 6.99139 8.78241C7.09878 8.57528 7.16757 8.3462 7.19363 8.10884C7.21969 7.87148 7.2025 7.63071 7.14307 7.40091L10.8474 5.02158C10.8624 5.03876 10.8776 5.05565 10.8932 5.07213V5.0722ZM12.4477 5.4946L17.2861 14.8172C17.1752 14.9349 17.0802 15.0697 17.004 15.2175C16.9279 15.3644 16.8711 15.5227 16.8351 15.6874H7.16501C7.12899 15.5227 7.07209 15.3644 6.99601 15.2175C6.91951 15.0707 6.82469 14.9367 6.71439 14.8195L11.5537 5.49501C11.6988 5.54149 11.849 5.56499 12 5.56482C12.1554 5.56482 12.3056 5.54035 12.4477 5.4946ZM13.1849 19.0167L16.8662 16.6521C16.8552 16.6135 16.8453 16.5745 16.8367 16.5352H7.16295C7.15782 16.5583 7.15226 16.5813 7.14632 16.6042L10.8457 18.9804C10.9951 18.8075 11.1744 18.6702 11.3727 18.5764C11.5711 18.4827 11.7845 18.4347 12 18.4351C12.2231 18.4347 12.4437 18.4862 12.6478 18.5864C12.8519 18.6865 13.0348 18.8331 13.1849 19.0167Z" fill="#E535AB"/>
</svg>
