<svg width="13" height="12" viewBox="0 0 13 12" fill="none" xmlns="http://www.w3.org/2000/svg">
<path d="M4.81358 2.48776C5.63792 1.26411 6.05009 0.652278 6.62559 0.60385C6.69279 0.598196 6.76034 0.598196 6.82754 0.60385C7.40303 0.652278 7.81521 1.26411 8.63955 2.48776C8.86142 2.81711 8.97235 2.98178 9.12585 3.10061C9.1449 3.11535 9.16438 3.12952 9.18427 3.14309C9.3446 3.2525 9.53534 3.30723 9.91682 3.41667C11.3342 3.82331 12.0429 4.02662 12.2667 4.55953C12.2929 4.62175 12.3137 4.68606 12.3291 4.75178C12.4609 5.31461 12.007 5.89606 11.0991 7.05896C10.8548 7.37195 10.7326 7.52845 10.6671 7.71129C10.659 7.73398 10.6515 7.75691 10.6448 7.78004C10.5904 7.96648 10.5973 8.16498 10.6112 8.56196C10.6629 10.0369 10.6887 10.7744 10.2515 11.1522C10.2005 11.1963 10.1458 11.2361 10.0882 11.271C9.59413 11.5704 8.90141 11.318 7.51596 10.813C7.14307 10.6771 6.95662 10.6092 6.76267 10.6033C6.7386 10.6026 6.71452 10.6026 6.69046 10.6033C6.4965 10.6092 6.31005 10.6771 5.93716 10.813C4.55171 11.318 3.85899 11.5704 3.36496 11.271C3.30728 11.2361 3.25263 11.1963 3.20159 11.1522C2.76443 10.7744 2.79025 10.0369 2.84189 8.56196C2.85579 8.16498 2.86273 7.96648 2.80833 7.78004C2.80158 7.75691 2.79413 7.73398 2.78601 7.71129C2.72055 7.52845 2.59837 7.37195 2.35401 7.05896C1.44612 5.89606 0.992178 5.31461 1.124 4.75178C1.1394 4.68606 1.16027 4.62175 1.18641 4.55953C1.41026 4.02662 2.11894 3.82331 3.5363 3.41667C3.91778 3.30723 4.10852 3.2525 4.26885 3.14309C4.28875 3.12952 4.30823 3.11535 4.32728 3.10061C4.48077 2.98178 4.59171 2.81711 4.81358 2.48776Z" stroke="#85FF66" stroke-width="1.2"/>
</svg>
