<svg width="24" height="24" viewBox="0 0 24 24" fill="none" xmlns="http://www.w3.org/2000/svg">
<g clip-path="url(#clip0_11916_23056)">
<path d="M21.6989 9.86304C22.8532 9.80753 23.875 10.703 23.9746 11.8583C24.4064 17.4472 19.3836 23.6975 12.1758 23.8977C11.0205 23.9298 10.0583 23.0168 10.0262 21.8585C9.99432 20.7 10.9046 19.7351 12.0599 19.7029C16.8416 19.5701 19.8709 15.4399 19.7093 12.0593C19.6539 10.9019 20.5446 9.91856 21.6989 9.86304Z" fill="url(#paint0_linear_11916_23056)"/>
<path d="M2.11415 9.74402C3.26977 9.74402 4.20651 10.6835 4.20651 11.8423C4.20651 16.6788 8.09546 19.8089 11.9797 19.7131C13.135 19.6846 14.0945 20.6006 14.1229 21.759C14.1514 22.9175 13.2379 23.8797 12.0827 23.9083C6.00863 24.058 0.000976562 19.195 0.000976562 11.8423C0.000976562 10.6835 0.958537 9.74402 2.11415 9.74402Z" fill="url(#paint1_linear_11916_23056)"/>
<path d="M16.4717 12.0049C16.4717 10.8186 17.4395 9.85681 18.6332 9.85681H21.783C22.9768 9.85681 23.9744 10.8186 23.9744 12.0049C23.9744 13.1913 22.9768 14.153 21.783 14.153H18.6331C17.4395 14.153 16.4717 13.1913 16.4717 12.0049Z" fill="url(#paint2_linear_11916_23056)"/>
<path d="M9.8623 12.0081C9.8623 10.8199 10.8238 9.85681 12.0086 9.85681C13.1935 9.85681 14.1551 10.8199 14.1551 12.0081C14.1551 13.1962 13.1935 14.1593 12.0086 14.1593C10.8238 14.1593 9.8623 13.1961 9.8623 12.0081Z" fill="url(#paint3_linear_11916_23056)"/>
<path d="M14.0956 1.95692C14.1435 3.11469 13.2464 4.09223 12.0918 4.14033C7.10762 4.34796 4.06483 8.26531 4.2129 11.985C4.25904 13.1428 3.37913 14.119 2.22445 14.1652C1.06977 14.2115 0.0543466 13.277 0.00830192 12.119C-0.233081 6.05761 4.81401 0.0653342 11.9181 -0.0523563C13.0727 -0.100464 14.0476 0.799142 14.0954 1.95692H14.0956Z" fill="url(#paint4_linear_11916_23056)"/>
</g>
<defs>
<linearGradient id="paint0_linear_11916_23056" x1="12.9515" y1="28.9205" x2="19.4359" y2="29.754" gradientUnits="userSpaceOnUse">
<stop stop-color="#1A7D75"/>
<stop offset="1" stop-color="#1A8864"/>
</linearGradient>
<linearGradient id="paint1_linear_11916_23056" x1="0.831243" y1="11.319" x2="-2.46137" y2="19.9762" gradientUnits="userSpaceOnUse">
<stop offset="0.013" stop-color="#168A81"/>
<stop offset="1" stop-color="#31A97F"/>
</linearGradient>
<linearGradient id="paint2_linear_11916_23056" x1="5.64514" y1="12.1524" x2="8.59449" y2="16.6244" gradientUnits="userSpaceOnUse">
<stop stop-color="#27A59B"/>
<stop offset="1" stop-color="#64D8A2"/>
</linearGradient>
<linearGradient id="paint3_linear_11916_23056" x1="3.70569" y1="12.4586" x2="9.67246" y2="17.6274" gradientUnits="userSpaceOnUse">
<stop stop-color="#27A59B"/>
<stop offset="1" stop-color="#64D8A2"/>
</linearGradient>
<linearGradient id="paint4_linear_11916_23056" x1="29.4418" y1="-20.2369" x2="12.1083" y2="-26.0875" gradientUnits="userSpaceOnUse">
<stop stop-color="#27A59B"/>
<stop offset="1" stop-color="#64D8A2"/>
</linearGradient>
<clipPath id="clip0_11916_23056">
<rect width="24" height="24" rx="12" fill="white"/>
</clipPath>
</defs>
</svg>
