<svg width="24" height="24" viewBox="0 0 24 24" fill="none" xmlns="http://www.w3.org/2000/svg">
<path d="M12.3862 0L2 6.01076L2.0013 18.0139L12.4109 24L22.7969 17.9892L22.7971 5.99258L12.3861 0H12.3862Z" fill="#0E83CD"/>
<path d="M7.51416 17.1968L7.51498 12.0064L7.51579 6.81587L8.45878 6.2644L9.36201 6.79893L9.37178 8.9199L9.38156 11.041H15.4172L15.427 8.92137L15.4368 6.8017L16.354 6.27166L17.2839 6.81596L17.2834 12.0029L17.283 17.19L16.3624 17.7041L15.4367 17.1833L15.4269 15.0741L15.4172 12.9649H9.38156L9.37178 15.0735L9.37455 17.1927L8.44892 17.7356L7.51432 17.1968H7.51416Z" fill="white"/>
</svg>
