<svg width="24" height="24" viewBox="0 0 24 24" fill="none" xmlns="http://www.w3.org/2000/svg">
<rect width="24" height="24" rx="12" fill="white"/>
<path d="M10.77 10.5429C12.5873 9.51365 15.0763 8.10364 15.0763 4H12.0624C12.0624 6.296 10.966 6.91699 9.30632 7.85703C7.48899 8.88671 5 10.2961 5 14.4001H8.01385C8.01385 12.104 9.11027 11.483 10.77 10.5429Z" fill="#FF3C00"/>
<path d="M15.9863 9.59991C15.9863 11.896 14.8898 12.517 13.2301 13.4569C11.4133 14.4862 8.92383 15.896 8.92383 20H11.9376C11.9376 17.7039 13.034 17.0829 14.6937 16.1429C16.511 15.1136 18.9999 13.7039 18.9999 9.59991H15.9863Z" fill="#FF3C00"/>
</svg>
