<svg width="16" height="16" viewBox="0 0 16 16" fill="none" xmlns="http://www.w3.org/2000/svg">
<path d="M4.15564 2.02774L4.68597 2.55807L4.15564 2.02774ZM2.02774 4.15564L1.49741 3.62531L1.49741 3.62531L2.02774 4.15564ZM2.02774 11.8459L1.49741 12.3762H1.49741L2.02774 11.8459ZM4.15564 13.9738L4.68597 13.4435H4.68597L4.15564 13.9738ZM13.9738 4.15564L13.4435 4.68597L13.4435 4.68597L13.9738 4.15564ZM11.8459 2.02774L12.3762 1.49741L12.3762 1.49741L11.8459 2.02774ZM10.9025 1.1866L11.2943 0.547116V0.547116L10.9025 1.1866ZM10.1457 0.873122L9.97059 1.6024V1.6024L10.1457 0.873122ZM15.1284 5.85588L15.8577 5.6808L15.8577 5.6808L15.1284 5.85588ZM14.815 5.09909L15.4544 4.70722L15.4544 4.70721L14.815 5.09909ZM14.815 10.9025L15.4544 11.2943L15.4544 11.2943L14.815 10.9025ZM15.1284 10.1457L15.8577 10.3208L15.8577 10.3208L15.1284 10.1457ZM10.1457 15.1284L10.3208 15.8577L10.3208 15.8577L10.1457 15.1284ZM10.9025 14.815L11.2943 15.4544L11.2943 15.4544L10.9025 14.815ZM5.09909 14.815L4.70721 15.4544L4.70722 15.4544L5.09909 14.815ZM5.85588 15.1284L5.6808 15.8577L5.6808 15.8577L5.85588 15.1284ZM0.873122 10.1457L1.6024 9.97059H1.6024L0.873122 10.1457ZM1.1866 10.9025L1.82608 10.5106L1.1866 10.9025ZM1.1866 5.09909L1.82608 5.49096L1.1866 5.09909ZM0.873122 5.85588L0.143844 5.6808L0.143844 5.6808L0.873122 5.85588ZM5.09909 1.1866L5.49096 1.82608L5.09909 1.1866ZM5.85588 0.873122L5.6808 0.143844L5.6808 0.143844L5.85588 0.873122ZM8.75078 4.40078C8.75078 3.98657 8.41499 3.65078 8.00078 3.65078C7.58657 3.65078 7.25078 3.98657 7.25078 4.40078H8.75078ZM7.25078 9.20078C7.25078 9.61499 7.58657 9.95078 8.00078 9.95078C8.41499 9.95078 8.75078 9.61499 8.75078 9.20078H7.25078ZM3.62531 1.49741L1.49741 3.62531L2.55807 4.68597L4.68597 2.55807L3.62531 1.49741ZM0.0507812 7.11778V8.88378H1.55078V7.11778H0.0507812ZM1.49741 12.3762L3.62531 14.5042L4.68597 13.4435L2.55807 11.3156L1.49741 12.3762ZM7.11778 15.9508H8.88378V14.4508H7.11778V15.9508ZM12.3762 14.5042L14.5042 12.3762L13.4435 11.3156L11.3156 13.4435L12.3762 14.5042ZM15.9508 8.88378V7.11778H14.4508V8.88378H15.9508ZM14.5042 3.62531L12.3762 1.49741L11.3156 2.55807L13.4435 4.68597L14.5042 3.62531ZM8.88378 0.0507812H7.11778V1.55078H8.88378V0.0507812ZM12.3762 1.49741C11.9487 1.06984 11.6519 0.766197 11.2943 0.547116L10.5106 1.82608C10.6815 1.93082 10.8375 2.08001 11.3156 2.55807L12.3762 1.49741ZM8.88378 1.55078C9.55986 1.55078 9.77567 1.5556 9.97059 1.6024L10.3208 0.143844C9.91305 0.0459612 9.48847 0.0507812 8.88378 0.0507812V1.55078ZM11.2943 0.547116C10.993 0.362443 10.6644 0.226354 10.3208 0.143844L9.97059 1.6024C10.1612 1.64816 10.3434 1.72365 10.5106 1.82608L11.2943 0.547116ZM15.9508 7.11778C15.9508 6.51309 15.9556 6.08851 15.8577 5.6808L14.3992 6.03096C14.446 6.22589 14.4508 6.44169 14.4508 7.11778H15.9508ZM13.4435 4.68597C13.9216 5.16403 14.0707 5.32004 14.1755 5.49096L15.4544 4.70721C15.2354 4.3497 14.9317 4.05289 14.5042 3.62531L13.4435 4.68597ZM15.8577 5.6808C15.7752 5.33712 15.6391 5.00857 15.4544 4.70722L14.1755 5.49096C14.2779 5.65811 14.3534 5.84035 14.3992 6.03097L15.8577 5.6808ZM14.5042 12.3762C14.9317 11.9487 15.2354 11.6519 15.4544 11.2943L14.1755 10.5106C14.0707 10.6815 13.9216 10.8375 13.4435 11.3156L14.5042 12.3762ZM14.4508 8.88378C14.4508 9.55987 14.446 9.77567 14.3992 9.9706L15.8577 10.3208C15.9556 9.91305 15.9508 9.48847 15.9508 8.88378H14.4508ZM15.4544 11.2943C15.6391 10.993 15.7752 10.6644 15.8577 10.3208L14.3992 9.97059C14.3534 10.1612 14.2779 10.3434 14.1755 10.5106L15.4544 11.2943ZM8.88378 15.9508C9.48847 15.9508 9.91305 15.9556 10.3208 15.8577L9.9706 14.3992C9.77567 14.446 9.55987 14.4508 8.88378 14.4508V15.9508ZM11.3156 13.4435C10.8375 13.9216 10.6815 14.0707 10.5106 14.1755L11.2943 15.4544C11.6519 15.2354 11.9487 14.9317 12.3762 14.5042L11.3156 13.4435ZM10.3208 15.8577C10.6644 15.7752 10.993 15.6391 11.2943 15.4544L10.5106 14.1755C10.3434 14.2779 10.1612 14.3534 9.97059 14.3992L10.3208 15.8577ZM3.62531 14.5042C4.05289 14.9317 4.3497 15.2354 4.70721 15.4544L5.49096 14.1755C5.32004 14.0707 5.16403 13.9216 4.68597 13.4435L3.62531 14.5042ZM7.11778 14.4508C6.44169 14.4508 6.22589 14.446 6.03096 14.3992L5.6808 15.8577C6.08851 15.9556 6.51309 15.9508 7.11778 15.9508V14.4508ZM4.70722 15.4544C5.00857 15.6391 5.33712 15.7752 5.6808 15.8577L6.03097 14.3992C5.84035 14.3534 5.65811 14.2779 5.49096 14.1755L4.70722 15.4544ZM0.0507812 8.88378C0.0507812 9.48847 0.0459612 9.91305 0.143844 10.3208L1.6024 9.97059C1.5556 9.77567 1.55078 9.55986 1.55078 8.88378H0.0507812ZM2.55807 11.3156C2.08001 10.8375 1.93082 10.6815 1.82608 10.5106L0.547116 11.2943C0.766198 11.6519 1.06983 11.9487 1.49741 12.3762L2.55807 11.3156ZM0.143844 10.3208C0.226354 10.6644 0.362443 10.993 0.547116 11.2943L1.82608 10.5106C1.72365 10.3434 1.64816 10.1612 1.6024 9.97059L0.143844 10.3208ZM1.49741 3.62531C1.06983 4.05289 0.766198 4.34971 0.547116 4.70722L1.82608 5.49096C1.93082 5.32004 2.08001 5.16403 2.55807 4.68597L1.49741 3.62531ZM1.55078 7.11778C1.55078 6.4417 1.5556 6.22589 1.6024 6.03097L0.143844 5.6808C0.0459612 6.08851 0.0507812 6.51309 0.0507812 7.11778H1.55078ZM0.547116 4.70722C0.362443 5.00857 0.226354 5.33712 0.143844 5.6808L1.6024 6.03097C1.64816 5.84034 1.72365 5.65811 1.82608 5.49096L0.547116 4.70722ZM4.68597 2.55807C5.16403 2.08001 5.32004 1.93082 5.49096 1.82608L4.70722 0.547116C4.34971 0.766198 4.05289 1.06983 3.62531 1.49741L4.68597 2.55807ZM7.11778 0.0507812C6.51309 0.0507812 6.08851 0.0459612 5.6808 0.143844L6.03097 1.6024C6.22589 1.5556 6.4417 1.55078 7.11778 1.55078V0.0507812ZM5.49096 1.82608C5.65811 1.72365 5.84034 1.64816 6.03097 1.6024L5.6808 0.143844C5.33712 0.226354 5.00857 0.362443 4.70722 0.547116L5.49096 1.82608ZM7.25078 4.40078V9.20078H8.75078V4.40078H7.25078Z" fill="#6137DB"/>
<circle cx="8.00039" cy="11.6" r="0.6" fill="#6137DB"/>
</svg>
