<svg width="16" height="16" viewBox="0 0 16 16" fill="none" xmlns="http://www.w3.org/2000/svg">
<path d="M4.15619 2.02664L4.68652 2.55697L4.15619 2.02664ZM2.02829 4.15455L1.49796 3.62421L1.49796 3.62422L2.02829 4.15455ZM2.02829 11.8448L1.49796 12.3752H1.49796L2.02829 11.8448ZM4.15619 13.9727L4.68652 13.4424H4.68652L4.15619 13.9727ZM13.9744 4.15454L13.444 4.68487L13.444 4.68487L13.9744 4.15454ZM11.8465 2.02664L12.3768 1.49631L12.3768 1.49631L11.8465 2.02664ZM10.903 1.1855L11.2949 0.546017V0.546017L10.903 1.1855ZM10.1462 0.872023L9.97114 1.6013V1.6013L10.1462 0.872023ZM15.129 5.85478L15.8583 5.6797L15.8583 5.6797L15.129 5.85478ZM14.8155 5.09799L15.455 4.70612L15.455 4.70612L14.8155 5.09799ZM14.8155 10.9014L15.455 11.2932L15.455 11.2932L14.8155 10.9014ZM15.129 10.1446L15.8583 10.3197L15.8583 10.3197L15.129 10.1446ZM10.1462 15.1273L10.3213 15.8566L10.3213 15.8566L10.1462 15.1273ZM10.903 14.8139L11.2949 15.4533L11.2949 15.4533L10.903 14.8139ZM5.09964 14.8139L4.70776 15.4533L4.70776 15.4533L5.09964 14.8139ZM5.85643 15.1273L5.68135 15.8566L5.68135 15.8566L5.85643 15.1273ZM0.873671 10.1446L1.60295 9.96949H1.60295L0.873671 10.1446ZM1.18715 10.9014L1.82663 10.5095L1.18715 10.9014ZM1.18715 5.09799L1.82663 5.48986L1.18715 5.09799ZM0.873671 5.85478L0.144394 5.6797L0.144394 5.6797L0.873671 5.85478ZM5.09964 1.1855L5.49151 1.82498L5.09964 1.1855ZM5.85643 0.872023L5.68135 0.142746L5.68135 0.142746L5.85643 0.872023ZM8.75133 4.39968C8.75133 3.98547 8.41554 3.64968 8.00133 3.64968C7.58712 3.64968 7.25133 3.98547 7.25133 4.39968H8.75133ZM7.25133 9.19968C7.25133 9.61389 7.58712 9.94968 8.00133 9.94968C8.41554 9.94968 8.75133 9.61389 8.75133 9.19968H7.25133ZM3.62586 1.49631L1.49796 3.62421L2.55862 4.68488L4.68652 2.55697L3.62586 1.49631ZM0.0513306 7.11668V8.88268H1.55133V7.11668H0.0513306ZM1.49796 12.3752L3.62586 14.5031L4.68652 13.4424L2.55862 11.3145L1.49796 12.3752ZM7.11833 15.9497H8.88433V14.4497H7.11833V15.9497ZM12.3768 14.5031L14.5047 12.3751L13.444 11.3145L11.3161 13.4424L12.3768 14.5031ZM15.9513 8.88268V7.11668H14.4513V8.88268H15.9513ZM14.5047 3.62421L12.3768 1.49631L11.3161 2.55697L13.444 4.68487L14.5047 3.62421ZM8.88433 0.0496826H7.11833V1.54968H8.88433V0.0496826ZM12.3768 1.49631C11.9492 1.06874 11.6524 0.765099 11.2949 0.546017L10.5111 1.82498C10.6821 1.92972 10.8381 2.07891 11.3161 2.55697L12.3768 1.49631ZM8.88433 1.54968C9.56041 1.54968 9.77622 1.5545 9.97114 1.6013L10.3213 0.142746C9.9136 0.0448626 9.48902 0.0496826 8.88433 0.0496826V1.54968ZM11.2949 0.546017C10.9935 0.361344 10.665 0.225255 10.3213 0.142746L9.97114 1.6013C10.1618 1.64706 10.344 1.72255 10.5111 1.82498L11.2949 0.546017ZM15.9513 7.11668C15.9513 6.512 15.9561 6.08741 15.8583 5.6797L14.3997 6.02987C14.4465 6.22479 14.4513 6.4406 14.4513 7.11668H15.9513ZM13.444 4.68487C13.9221 5.16294 14.0713 5.31894 14.176 5.48987L15.455 4.70612C15.2359 4.34861 14.9323 4.05179 14.5047 3.62421L13.444 4.68487ZM15.8583 5.6797C15.7758 5.33602 15.6397 5.00747 15.455 4.70612L14.176 5.48986C14.2785 5.65702 14.3539 5.83925 14.3997 6.02987L15.8583 5.6797ZM14.5047 12.3751C14.9323 11.9476 15.2359 11.6508 15.455 11.2932L14.176 10.5095C14.0713 10.6804 13.9221 10.8364 13.444 11.3145L14.5047 12.3751ZM14.4513 8.88268C14.4513 9.55877 14.4465 9.77457 14.3997 9.9695L15.8583 10.3197C15.9561 9.91195 15.9513 9.48737 15.9513 8.88268H14.4513ZM15.455 11.2932C15.6397 10.9919 15.7758 10.6633 15.8583 10.3197L14.3997 9.96949C14.3539 10.1601 14.2785 10.3423 14.176 10.5095L15.455 11.2932ZM8.88433 15.9497C9.48902 15.9497 9.9136 15.9545 10.3213 15.8566L9.97114 14.3981C9.77622 14.4449 9.56042 14.4497 8.88433 14.4497V15.9497ZM11.3161 13.4424C10.8381 13.9205 10.6821 14.0696 10.5111 14.1744L11.2949 15.4533C11.6524 15.2343 11.9492 14.9306 12.3768 14.5031L11.3161 13.4424ZM10.3213 15.8566C10.665 15.7741 10.9935 15.638 11.2949 15.4533L10.5111 14.1744C10.344 14.2768 10.1618 14.3523 9.97114 14.3981L10.3213 15.8566ZM3.62586 14.5031C4.05344 14.9306 4.35025 15.2343 4.70776 15.4533L5.49151 14.1744C5.32059 14.0696 5.16458 13.9205 4.68652 13.4424L3.62586 14.5031ZM7.11833 14.4497C6.44224 14.4497 6.22644 14.4449 6.03151 14.3981L5.68135 15.8566C6.08906 15.9545 6.51364 15.9497 7.11833 15.9497V14.4497ZM4.70776 15.4533C5.00912 15.638 5.33767 15.7741 5.68135 15.8566L6.03152 14.3981C5.8409 14.3523 5.65866 14.2768 5.49151 14.1744L4.70776 15.4533ZM0.0513306 8.88268C0.0513306 9.48737 0.0465105 9.91195 0.144394 10.3197L1.60295 9.96949C1.55615 9.77457 1.55133 9.55877 1.55133 8.88268H0.0513306ZM2.55862 11.3145C2.08056 10.8364 1.93137 10.6804 1.82663 10.5095L0.547665 11.2932C0.766748 11.6508 1.07038 11.9476 1.49796 12.3752L2.55862 11.3145ZM0.144394 10.3197C0.226903 10.6633 0.362992 10.9919 0.547665 11.2932L1.82663 10.5095C1.7242 10.3423 1.64871 10.1601 1.60295 9.96949L0.144394 10.3197ZM1.49796 3.62422C1.07038 4.05179 0.766748 4.34861 0.547665 4.70612L1.82663 5.48986C1.93137 5.31894 2.08056 5.16294 2.55862 4.68488L1.49796 3.62422ZM1.55133 7.11668C1.55133 6.4406 1.55615 6.2248 1.60295 6.02987L0.144394 5.6797C0.0465105 6.08741 0.0513306 6.51199 0.0513306 7.11668H1.55133ZM0.547665 4.70612C0.362992 5.00748 0.226903 5.33602 0.144394 5.6797L1.60295 6.02987C1.64871 5.83925 1.7242 5.65702 1.82663 5.48986L0.547665 4.70612ZM4.68652 2.55697C5.16458 2.07891 5.32059 1.92972 5.49151 1.82498L4.70776 0.546017C4.35025 0.7651 4.05344 1.06873 3.62586 1.49631L4.68652 2.55697ZM7.11833 0.0496826C6.51364 0.0496826 6.08906 0.0448626 5.68135 0.142746L6.03152 1.6013C6.22644 1.5545 6.44225 1.54968 7.11833 1.54968V0.0496826ZM5.49151 1.82498C5.65866 1.72255 5.84089 1.64706 6.03152 1.6013L5.68135 0.142746C5.33767 0.225255 5.00912 0.361344 4.70776 0.546017L5.49151 1.82498ZM7.25133 4.39968V9.19968H8.75133V4.39968H7.25133Z" fill="#6137DB"/>
</svg>
