<svg width="24" height="24" viewBox="0 0 24 24" fill="none" xmlns="http://www.w3.org/2000/svg">
<g clip-path="url(#clip0_11916_14123)">
<path d="M12.0002 23.3899C18.2906 23.3899 23.39 18.2905 23.39 12C23.39 5.70963 18.2906 0.610229 12.0002 0.610229C5.70975 0.610229 0.610352 5.70963 0.610352 12C0.610352 18.2905 5.70975 23.3899 12.0002 23.3899Z" fill="white"/>
<path d="M12 0C5.37258 0 0 5.37258 0 12C0 18.6275 5.37258 24 12 24C18.6275 24 24 18.6275 24 12C24 5.37258 18.6275 0 12 0ZM12 1.22034C17.9534 1.22034 22.7797 6.04656 22.7797 12C22.7797 17.9534 17.9534 22.7797 12 22.7797C6.04656 22.7797 1.22034 17.9534 1.22034 12C1.22034 6.04656 6.04656 1.22034 12 1.22034Z" fill="#4000BF"/>
<path fill-rule="evenodd" clip-rule="evenodd" d="M12.1361 3.45764C16.854 3.45764 20.6785 7.28217 20.6785 12C20.6785 16.7178 16.854 20.5424 12.1361 20.5424C7.4183 20.5424 3.59375 16.7178 3.59375 12C3.59375 10.847 3.82218 9.74734 4.23626 8.74384C4.84087 9.56719 5.81591 10.1017 6.91578 10.1017C8.75051 10.1017 10.2378 8.61439 10.2378 6.77967C10.2378 5.6798 9.70331 4.70477 8.87989 4.10017C9.88346 3.68608 10.9831 3.45764 12.1361 3.45764Z" fill="url(#paint0_linear_11916_14123)"/>
</g>
<defs>
<linearGradient id="paint0_linear_11916_14123" x1="12.1361" y1="20.5424" x2="12.1361" y2="3.45764" gradientUnits="userSpaceOnUse">
<stop stop-color="#7400E1"/>
<stop offset="1" stop-color="#4000BF"/>
</linearGradient>
<clipPath id="clip0_11916_14123">
<rect width="24" height="24" rx="12" fill="white"/>
</clipPath>
</defs>
</svg>
