<svg width="24" height="24" viewBox="0 0 24 24" fill="none" xmlns="http://www.w3.org/2000/svg">
<g clip-path="url(#clip0_9900_9808)">
<path d="M0 24H24V0H0V24Z" fill="#FF3366"/>
<path d="M8.40009 7.53595C9.16809 7.53595 9.79209 6.95995 9.79209 6.14395C9.79209 5.37595 9.16809 4.75195 8.40009 4.75195C7.63209 4.75195 7.00809 5.32795 7.00809 6.14395C7.00809 6.95995 7.63209 7.53595 8.40009 7.53595ZM5.52009 14.928C5.42409 15.264 5.37609 15.648 5.37609 15.984C5.37609 17.184 6.04809 18 7.44009 18C8.59209 18 9.55209 17.328 10.2241 16.176L9.79209 17.856H12.0961L13.3921 12.576C13.7281 11.232 14.3521 10.56 15.3121 10.56C16.0801 10.56 16.5601 11.04 16.5601 11.808C16.5601 12.048 16.5601 12.288 16.4641 12.528L15.7921 14.976C15.6961 15.312 15.6481 15.696 15.6481 15.984C15.6481 17.136 16.3201 18 17.7601 18C18.9601 18 19.9201 17.232 20.4961 15.36L19.5841 15.024C19.1521 16.272 18.7201 16.512 18.4321 16.512C18.1441 16.512 17.9521 16.32 17.9521 15.888C17.9521 15.696 18.0001 15.504 18.0481 15.264L18.7201 12.912C18.8641 12.336 18.9601 11.856 18.9601 11.424C18.9601 9.64795 17.9041 8.73595 16.6081 8.73595C15.4081 8.73595 14.1601 9.83995 13.5361 10.992L13.9681 8.92795H10.4641L9.98409 10.752H11.6161L10.5601 14.736C9.74409 16.512 8.30409 16.512 8.11209 16.512C7.82409 16.464 7.63209 16.32 7.63209 15.936C7.63209 15.696 7.68009 15.408 7.77609 14.976L9.31209 8.83195H5.42409L4.94409 10.656H6.57609L5.52009 14.928Z" fill="white"/>
</g>
<defs>
<clipPath id="clip0_9900_9808">
<rect width="24" height="24" rx="12" fill="white"/>
</clipPath>
</defs>
</svg>
