<svg width="24" height="24" viewBox="0 0 24 24" fill="none" xmlns="http://www.w3.org/2000/svg">
<path fill-rule="evenodd" clip-rule="evenodd" d="M22.8245 6.79184L22.9225 7.02041C23.6408 8.60408 24 10.2694 24 12C24 18.6122 18.6122 24 12 24C5.38775 24 0 18.6122 0 12C0 5.38775 5.38775 0 12 0C13.9429 0 15.7877 0.457143 17.4857 1.30613L17.7142 1.42041L17.5183 1.58367C17.0286 1.97551 16.6531 2.4653 16.4082 3.03674L16.3429 3.2L16.1959 3.13469C14.8735 2.51429 13.4694 2.18776 12 2.18776C6.57959 2.18776 2.18776 6.57959 2.18776 12C2.18776 17.4204 6.57959 21.8123 12 21.8123C17.4204 21.8123 21.8123 17.4041 21.8123 12C21.8123 10.7102 21.5674 9.43673 21.0612 8.2449L20.996 8.08162L21.1591 8.0163C21.7306 7.80405 22.253 7.4449 22.6613 6.98776L22.8245 6.79184ZM19.853 7.02043C21.2326 7.02043 22.351 5.90205 22.351 4.52247C22.351 3.14288 21.2326 2.02451 19.853 2.02451C18.4735 2.02451 17.3551 3.14288 17.3551 4.52247C17.3551 5.90205 18.4735 7.02043 19.853 7.02043ZM11.9999 6.53065C8.97952 6.53065 6.53055 8.9796 6.53055 12.0001C6.53055 15.0205 8.97952 17.4694 11.9999 17.4694C15.0203 17.4694 17.4693 15.0205 17.4693 12.0001C17.4693 8.9796 15.0203 6.53065 11.9999 6.53065Z" fill="#3880FF"/>
</svg>
