<svg width="32" height="32" viewBox="0 0 32 32" fill="none" xmlns="http://www.w3.org/2000/svg">
<g clip-path="url(#clip0_2801_29255)">
<rect x="4" y="4" width="24" height="24" rx="12" fill="#F7DF1E"/>
<path d="M22.7782 5.22266H7.22266V20.7782H22.7782V5.22266Z" fill="#F7DF1E"/>
<path d="M17.6719 17.3751C17.9853 17.8867 18.3929 18.2627 19.1139 18.2627C19.7196 18.2627 20.1065 17.96 20.1065 17.5417C20.1065 17.0405 19.709 16.863 19.0423 16.5714L18.6769 16.4146C17.6221 15.9652 16.9213 15.4022 16.9213 14.2121C16.9213 13.1158 17.7566 12.2812 19.0621 12.2812C19.9914 12.2812 20.6596 12.6047 21.1411 13.4516L20.0028 14.1825C19.7522 13.7331 19.4818 13.5561 19.0621 13.5561C18.6339 13.5561 18.3626 13.8277 18.3626 14.1825C18.3626 14.621 18.6342 14.7985 19.2613 15.0701L19.6268 15.2267C20.8687 15.7593 21.57 16.3022 21.57 17.523C21.57 18.839 20.5361 19.56 19.1477 19.56C17.7902 19.56 16.9132 18.9131 16.484 18.0652L17.6719 17.3751ZM12.5082 17.5017C12.7379 17.9091 12.9468 18.2536 13.449 18.2536C13.9292 18.2536 14.2322 18.0657 14.2322 17.3351V12.3647H15.6939V17.3548C15.6939 18.8684 14.8065 19.5573 13.5112 19.5573C12.3408 19.5573 11.6631 18.9516 11.3184 18.2221L12.5082 17.5017Z" fill="#170D23"/>
</g>
<defs>
<clipPath id="clip0_2801_29255">
<rect x="4" y="4" width="24" height="24" rx="12" fill="white"/>
</clipPath>
</defs>
</svg>
