<svg width="24" height="24" viewBox="0 0 24 24" fill="none" xmlns="http://www.w3.org/2000/svg">
<rect width="24" height="24" rx="12" fill="white"/>
<path d="M18.124 11.7169C18.124 10.9221 17.4797 10.2777 16.6848 10.2777C16.6337 10.2777 16.5833 10.2804 16.5335 10.2857L18.5103 4.45557H10.1099L12.0838 10.2806C12.0547 10.2788 12.0255 10.2778 11.9964 10.2778C11.2015 10.2778 10.5572 10.922 10.5572 11.7169C10.5572 12.3594 10.9782 12.9033 11.5593 13.0884C11.2524 13.62 10.8662 14.0989 10.4277 14.5126C9.83145 15.0751 9.14906 15.5017 8.411 15.7645C7.53226 15.313 7.11733 14.3091 7.49172 13.4289C7.53402 13.3295 7.57719 13.2287 7.61844 13.1284C8.25503 12.9798 8.72946 12.4091 8.72946 11.7272C8.72946 10.9324 8.08509 10.2881 7.29023 10.2881C6.49536 10.2881 5.85105 10.9324 5.85105 11.7272C5.85105 12.2147 6.09352 12.6452 6.46425 12.9055C6.10804 13.7166 5.58441 14.5654 5.42126 15.5492C5.22574 16.7281 5.42061 17.9796 6.4403 18.6864C8.81509 20.3323 11.3929 17.666 14.1109 16.9957C15.0959 16.7529 16.1772 16.792 17.045 16.2894C17.6967 15.9119 18.1264 15.2864 18.2483 14.5841C18.3688 13.8903 18.1932 13.1995 17.7893 12.6394C18.006 12.3809 18.1245 12.0542 18.124 11.7169Z" fill="#99425B"/>
<path d="M17.9017 14.524C17.7959 15.1337 17.4193 15.6663 16.8686 15.9853C16.3552 16.2826 15.74 16.3714 15.0886 16.4653C14.7397 16.5156 14.3789 16.5677 14.0264 16.6545C13.0944 16.8844 12.1917 17.3328 11.3188 17.7664C9.5717 18.6342 8.06295 19.3835 6.64031 18.3975C5.5982 17.6753 5.6463 16.339 5.76771 15.6067C5.88023 14.9283 6.18445 14.3035 6.47859 13.6993C6.5287 13.5966 6.57841 13.4937 6.62771 13.3906C6.77598 13.4499 6.93156 13.4889 7.09025 13.5066C6.7908 14.4949 7.26173 15.5694 8.25009 16.0772L8.38541 16.1467L8.52861 16.0957C9.31 15.8174 10.03 15.3709 10.6686 14.7683C11.0814 14.3789 11.4364 13.948 11.7281 13.4876C11.8168 13.501 11.9064 13.5077 11.9961 13.5077C12.9032 13.5077 13.6544 12.8295 13.7707 11.9536C14.142 11.94 14.5364 11.9399 14.9099 11.9535C15.026 12.8295 15.7773 13.5077 16.6845 13.5077C17.0638 13.5077 17.4157 13.3889 17.7055 13.1869C17.9067 13.5988 17.9819 14.0623 17.9017 14.524ZM7.29 10.6396C7.88977 10.6396 8.37768 11.1276 8.37768 11.7274C8.37768 11.9428 8.31446 12.1437 8.20593 12.3128C8.02514 12.5948 7.71781 12.7881 7.36472 12.8122C7.34001 12.8138 7.31509 12.815 7.29 12.815C7.15632 12.815 7.02829 12.7907 6.9099 12.7464C6.67147 12.6567 6.47181 12.4867 6.34535 12.2656C6.25145 12.1017 6.20211 11.9162 6.20225 11.7274C6.20225 11.1276 6.69022 10.6396 7.29 10.6396ZM10.9084 11.717C10.9084 11.1721 11.3113 10.7196 11.8347 10.6414C11.8874 10.6334 11.9413 10.6293 11.9961 10.6293C12.3448 10.6293 12.6553 10.7945 12.8544 11.0504C12.9042 11.1143 12.9468 11.1834 12.9814 11.2567C13.049 11.4007 13.084 11.5579 13.0838 11.717C13.0838 11.8039 13.0733 11.8885 13.054 11.9696C12.9479 12.4133 12.5696 12.7525 12.1059 12.7992C12.0698 12.8028 12.0332 12.8047 11.9961 12.8047C11.7869 12.8049 11.5821 12.7443 11.4066 12.6304C11.1072 12.4364 10.9084 12.0996 10.9084 11.717ZM15.4481 10.4235C15.2114 10.6495 15.0411 10.9359 14.9556 11.2517C14.5456 11.2366 14.1352 11.2366 13.7252 11.2517C13.6332 10.9103 13.4424 10.6091 13.1858 10.3803L14.3113 8.10447L15.4481 10.4235ZM10.5998 4.80723H18.0197L16.2672 9.97585C16.1918 9.99391 16.1176 10.0169 16.0452 10.0446L14.314 6.51304L12.5779 10.0235C12.5023 9.99753 12.4249 9.97668 12.3464 9.96111L10.5998 4.80723ZM17.7722 11.7171C17.7722 11.8261 17.7559 11.9314 17.726 12.0308C17.6549 12.2649 17.5072 12.4683 17.3067 12.6085C17.1244 12.7364 16.9072 12.8049 16.6845 12.8047C16.1823 12.8047 15.7587 12.4625 15.6341 11.999C15.6093 11.9071 15.5968 11.8123 15.5968 11.7171C15.5968 11.5684 15.6268 11.4266 15.6811 11.2974C15.7091 11.2313 15.7435 11.1681 15.784 11.1088C15.9797 10.8199 16.31 10.6294 16.6845 10.6294C16.7189 10.6294 16.7527 10.6311 16.7863 10.6343C17.3385 10.6857 17.7722 11.1516 17.7722 11.7171H17.7722ZM18.4752 11.7171C18.4752 10.8428 17.8453 10.1134 17.0157 9.95755L19.0003 4.10413H9.61931L11.607 9.96938C10.8062 10.1476 10.2054 10.8632 10.2054 11.717C10.2054 12.3581 10.5442 12.9212 11.052 13.2376C10.8077 13.6015 10.5182 13.9439 10.1863 14.257C9.65991 14.7535 9.07355 15.1301 8.4414 15.3779C7.80464 14.9779 7.53548 14.2236 7.81499 13.5665L7.83691 13.515L7.87799 13.4184C8.57737 13.1744 9.08067 12.5088 9.08067 11.7274C9.08067 10.7399 8.27737 9.93662 7.29 9.93662C6.30262 9.93662 5.49921 10.7399 5.49921 11.7274C5.49921 12.2257 5.7041 12.677 6.03379 13.002C5.9723 13.1323 5.90988 13.2621 5.84654 13.3915C5.54506 14.0107 5.20343 14.7124 5.07419 15.4917C4.81758 17.0393 5.23153 18.2765 6.23984 18.9753C6.85167 19.3993 7.47303 19.5661 8.09828 19.5661C9.2756 19.5661 10.4666 18.9746 11.6315 18.396C12.4704 17.9793 13.3379 17.5485 14.1948 17.3371C14.5136 17.2585 14.8417 17.2111 15.189 17.1611C15.8778 17.0617 16.59 16.959 17.2209 16.5936C17.9522 16.17 18.4528 15.4595 18.5943 14.6443C18.7159 13.9444 18.5696 13.2435 18.213 12.6489C18.3848 12.3685 18.4756 12.0459 18.4752 11.717V11.7171Z" fill="white"/>
</svg>
