<svg width="22" height="20" viewBox="0 0 22 20" fill="none" xmlns="http://www.w3.org/2000/svg">
<path d="M4.65699 18.5455L4.93022 17.7406L4.65699 18.5455ZM1.65464 15.5431L2.45953 15.2699L1.65464 15.5431ZM20.3452 15.5431L19.5403 15.2699L20.3452 15.5431ZM17.3428 18.5455L17.0696 17.7406L17.3428 18.5455ZM17.3428 5.45493L17.0696 6.25982L17.3428 5.45493ZM20.3452 8.45729L19.5403 8.73051L20.3452 8.45729ZM4.65699 5.45493L4.93022 6.25982L4.65699 5.45493ZM1.65464 8.45729L2.45953 8.73051L1.65464 8.45729ZM8.1999 6.0502H13.7999V4.3502H8.1999V6.0502ZM13.7999 17.9502H8.1999V19.6502H13.7999V17.9502ZM8.1999 17.9502C6.26919 17.9502 5.51426 17.9388 4.93022 17.7406L4.38377 19.3504C5.30058 19.6616 6.4073 19.6502 8.1999 19.6502V17.9502ZM0.549902 12.0002C0.549902 13.7928 0.538531 14.8995 0.849747 15.8163L2.45953 15.2699C2.26127 14.6858 2.2499 13.9309 2.2499 12.0002H0.549902ZM4.93022 17.7406C3.76737 17.3458 2.85426 16.4327 2.45953 15.2699L0.849747 15.8163C1.41436 17.4796 2.72046 18.7857 4.38377 19.3504L4.93022 17.7406ZM19.7499 12.0002C19.7499 13.9309 19.7385 14.6858 19.5403 15.2699L21.1501 15.8163C21.4613 14.8995 21.4499 13.7928 21.4499 12.0002H19.7499ZM13.7999 19.6502C15.5925 19.6502 16.6992 19.6616 17.616 19.3504L17.0696 17.7406C16.4855 17.9388 15.7306 17.9502 13.7999 17.9502V19.6502ZM19.5403 15.2699C19.1455 16.4327 18.2324 17.3458 17.0696 17.7406L17.616 19.3504C19.2793 18.7857 20.5854 17.4796 21.1501 15.8163L19.5403 15.2699ZM13.7999 6.0502C15.7306 6.0502 16.4855 6.06157 17.0696 6.25982L17.616 4.65004C16.6992 4.33882 15.5925 4.3502 13.7999 4.3502V6.0502ZM21.4499 12.0002C21.4499 10.2076 21.4613 9.10087 21.1501 8.18406L19.5403 8.73051C19.7385 9.31455 19.7499 10.0695 19.7499 12.0002H21.4499ZM17.0696 6.25982C18.2324 6.65455 19.1455 7.56767 19.5403 8.73051L21.1501 8.18406C20.5854 6.52075 19.2793 5.21466 17.616 4.65004L17.0696 6.25982ZM8.1999 4.3502C6.4073 4.3502 5.30058 4.33882 4.38377 4.65004L4.93022 6.25982C5.51426 6.06157 6.26919 6.0502 8.1999 6.0502V4.3502ZM2.2499 12.0002C2.2499 10.0695 2.26127 9.31455 2.45953 8.73051L0.849747 8.18406C0.538531 9.10087 0.549902 10.2076 0.549902 12.0002H2.2499ZM4.38377 4.65004C2.72046 5.21466 1.41436 6.52075 0.849747 8.18406L2.45953 8.73051C2.85426 7.56767 3.76737 6.65455 4.93022 6.25982L4.38377 4.65004ZM10.1999 2.0502H11.7999V0.350195H10.1999V2.0502ZM13.3499 3.6002V5.2002H15.0499V3.6002H13.3499ZM6.9499 3.6002V5.2002H8.6499V3.6002H6.9499ZM11.7999 2.0502C12.6559 2.0502 13.3499 2.74415 13.3499 3.6002H15.0499C15.0499 1.80527 13.5948 0.350195 11.7999 0.350195V2.0502ZM10.1999 0.350195C8.40498 0.350195 6.9499 1.80527 6.9499 3.6002H8.6499C8.6499 2.74415 9.34386 2.0502 10.1999 2.0502V0.350195Z" fill="#6137DB"/>
<path d="M7 8.4001C7 8.25141 7 8.17706 7.0123 8.11524C7.0628 7.86136 7.26126 7.6629 7.51514 7.6124C7.57697 7.6001 7.65131 7.6001 7.8 7.6001C7.94869 7.6001 8.02303 7.6001 8.08486 7.6124C8.33874 7.6629 8.5372 7.86136 8.5877 8.11524C8.6 8.17706 8.6 8.25141 8.6 8.4001C8.6 8.54879 8.6 8.62313 8.5877 8.68496C8.5372 8.93884 8.33874 9.1373 8.08486 9.1878C8.02303 9.2001 7.94869 9.2001 7.8 9.2001C7.65131 9.2001 7.57697 9.2001 7.51514 9.1878C7.26126 9.1373 7.0628 8.93884 7.0123 8.68496C7 8.62313 7 8.54879 7 8.4001Z" fill="#6137DB"/>
<path d="M13.4 8.4001C13.4 8.25141 13.4 8.17706 13.4123 8.11524C13.4628 7.86136 13.6613 7.6629 13.9151 7.6124C13.977 7.6001 14.0513 7.6001 14.2 7.6001C14.3487 7.6001 14.423 7.6001 14.4849 7.6124C14.7387 7.6629 14.9372 7.86136 14.9877 8.11524C15 8.17706 15 8.25141 15 8.4001C15 8.54879 15 8.62313 14.9877 8.68496C14.9372 8.93884 14.7387 9.1373 14.4849 9.1878C14.423 9.2001 14.3487 9.2001 14.2 9.2001C14.0513 9.2001 13.977 9.2001 13.9151 9.1878C13.6613 9.1373 13.4628 8.93884 13.4123 8.68496C13.4 8.62313 13.4 8.54879 13.4 8.4001Z" fill="#6137DB"/>
</svg>
