<svg width="22" height="20" viewBox="0 0 22 20" fill="#F4F1FC" xmlns="http://www.w3.org/2000/svg">
<path d="M4.65699 18.5452L4.93022 17.7403L4.65699 18.5452ZM1.65464 15.5429L2.45953 15.2696L1.65464 15.5429ZM20.3452 15.5429L19.5403 15.2696L20.3452 15.5429ZM17.3428 18.5452L17.0696 17.7403L17.3428 18.5452ZM17.3428 5.45469L17.0696 6.25958L17.3428 5.45469ZM20.3452 8.45704L19.5403 8.73027L20.3452 8.45704ZM4.65699 5.45469L4.93022 6.25958L4.65699 5.45469ZM1.65464 8.45704L2.45953 8.73027L1.65464 8.45704ZM8.1999 6.04995H13.7999V4.34995H8.1999V6.04995ZM13.7999 17.95H8.1999V19.65H13.7999V17.95ZM8.1999 17.95C6.26919 17.95 5.51426 17.9386 4.93022 17.7403L4.38377 19.3501C5.30058 19.6613 6.4073 19.65 8.1999 19.65V17.95ZM0.549902 12C0.549902 13.7926 0.538531 14.8993 0.849747 15.8161L2.45953 15.2696C2.26127 14.6856 2.2499 13.9307 2.2499 12H0.549902ZM4.93022 17.7403C3.76737 17.3456 2.85426 16.4325 2.45953 15.2696L0.849747 15.8161C1.41436 17.4794 2.72046 18.7855 4.38377 19.3501L4.93022 17.7403ZM19.7499 12C19.7499 13.9307 19.7385 14.6856 19.5403 15.2696L21.1501 15.8161C21.4613 14.8993 21.4499 13.7925 21.4499 12H19.7499ZM13.7999 19.65C15.5925 19.65 16.6992 19.6613 17.616 19.3501L17.0696 17.7403C16.4855 17.9386 15.7306 17.95 13.7999 17.95V19.65ZM19.5403 15.2696C19.1455 16.4325 18.2324 17.3456 17.0696 17.7403L17.616 19.3501C19.2793 18.7855 20.5854 17.4794 21.1501 15.8161L19.5403 15.2696ZM13.7999 6.04995C15.7306 6.04995 16.4855 6.06132 17.0696 6.25958L17.616 4.6498C16.6992 4.33858 15.5925 4.34995 13.7999 4.34995V6.04995ZM21.4499 12C21.4499 10.2074 21.4613 9.10063 21.1501 8.18382L19.5403 8.73027C19.7385 9.31431 19.7499 10.0692 19.7499 12H21.4499ZM17.0696 6.25958C18.2324 6.65431 19.1455 7.56742 19.5403 8.73027L21.1501 8.18382C20.5854 6.52051 19.2793 5.21441 17.616 4.6498L17.0696 6.25958ZM8.1999 4.34995C6.4073 4.34995 5.30058 4.33858 4.38377 4.6498L4.93022 6.25958C5.51426 6.06132 6.26919 6.04995 8.1999 6.04995V4.34995ZM2.2499 12C2.2499 10.0692 2.26127 9.31431 2.45953 8.73027L0.849747 8.18382C0.538531 9.10063 0.549902 10.2074 0.549902 12H2.2499ZM4.38377 4.6498C2.72046 5.21441 1.41436 6.52051 0.849747 8.18382L2.45953 8.73027C2.85426 7.56742 3.76737 6.65431 4.93022 6.25958L4.38377 4.6498ZM10.1999 2.04995H11.7999V0.349951H10.1999V2.04995ZM13.3499 3.59995V5.19995H15.0499V3.59995H13.3499ZM6.9499 3.59995V5.19995H8.6499V3.59995H6.9499ZM11.7999 2.04995C12.6559 2.04995 13.3499 2.74391 13.3499 3.59995H15.0499C15.0499 1.80503 13.5948 0.349951 11.7999 0.349951V2.04995ZM10.1999 0.349951C8.40498 0.349951 6.9499 1.80503 6.9499 3.59995H8.6499C8.6499 2.74391 9.34386 2.04995 10.1999 2.04995V0.349951Z" stroke="#ACA7BA"
stroke-width="1" fill="#ACA7BA" fill-opacity="0.64"/>
<path d="M7 8.39998C7 8.25129 7 8.17694 7.0123 8.11512C7.0628 7.86124 7.26126 7.66277 7.51514 7.61227C7.57697 7.59998 7.65131 7.59998 7.8 7.59998C7.94869 7.59998 8.02303 7.59998 8.08486 7.61227C8.33874 7.66277 8.5372 7.86124 8.5877 8.11512C8.6 8.17694 8.6 8.25129 8.6 8.39998C8.6 8.54867 8.6 8.62301 8.5877 8.68483C8.5372 8.93872 8.33874 9.13718 8.08486 9.18768C8.02303 9.19998 7.94869 9.19998 7.8 9.19998C7.65131 9.19998 7.57697 9.19998 7.51514 9.18768C7.26126 9.13718 7.0628 8.93872 7.0123 8.68483C7 8.62301 7 8.54867 7 8.39998Z"  stroke="#ACA7BA" stroke-width="1"   fill="#ACA7BA" fill-opacity="0.64"/>
<path d="M13.4 8.39998C13.4 8.25129 13.4 8.17694 13.4123 8.11512C13.4628 7.86124 13.6613 7.66277 13.9151 7.61227C13.977 7.59998 14.0513 7.59998 14.2 7.59998C14.3487 7.59998 14.423 7.59998 14.4849 7.61227C14.7387 7.66277 14.9372 7.86124 14.9877 8.11512C15 8.17694 15 8.25129 15 8.39998C15 8.54867 15 8.62301 14.9877 8.68483C14.9372 8.93872 14.7387 9.13718 14.4849 9.18768C14.423 9.19998 14.3487 9.19998 14.2 9.19998C14.0513 9.19998 13.977 9.19998 13.9151 9.18768C13.6613 9.13718 13.4628 8.93872 13.4123 8.68483C13.4 8.62301 13.4 8.54867 13.4 8.39998Z"  stroke="#ACA7BA" stroke-width="1"  fill="#ACA7BA" fill-opacity="0.64"/>
</svg>
