<svg width="24" height="24" viewBox="0 0 24 24" fill="none" xmlns="http://www.w3.org/2000/svg">
<rect width="24" height="24" rx="12" fill="white"/>
<path d="M4.9372 14.8148C4.95253 14.8495 4.96986 14.8815 4.98853 14.9135C4.9972 14.9322 5.0092 14.9515 5.01986 14.9688C5.0372 15.0035 5.05587 15.0368 5.07387 15.0702L5.17853 15.2462C5.19787 15.2788 5.21654 15.3108 5.23854 15.3428C5.2752 15.4055 5.31854 15.4668 5.35654 15.5295C5.37387 15.5555 5.38987 15.5815 5.40921 15.6075C5.48254 15.7215 5.54921 15.8162 5.62054 15.9082C5.67121 15.9769 5.72188 16.0442 5.77655 16.1115C5.79455 16.1369 5.81455 16.1622 5.83321 16.1875L5.98055 16.3662C5.99855 16.3869 6.01655 16.4109 6.03588 16.4322C6.10122 16.5109 6.17055 16.5869 6.23989 16.6642C6.23989 16.6655 6.24189 16.6669 6.24322 16.6689C6.32922 16.7769 6.42189 16.8729 6.52323 16.9582L6.52589 16.9609C6.57923 17.0155 6.63256 17.0695 6.68923 17.1229L6.75657 17.1875C6.83057 17.2569 6.90457 17.3255 6.98257 17.3922C6.9839 17.3922 6.98457 17.3935 6.9859 17.3942L7.0239 17.4275C7.09191 17.4869 7.16057 17.5455 7.23058 17.6002L7.31391 17.6702C7.37058 17.7155 7.42925 17.7582 7.48725 17.8029L7.57792 17.8722C7.63992 17.9189 7.70592 17.9642 7.76925 18.0096C7.79259 18.0262 7.81592 18.0429 7.83992 18.0582L7.85925 18.0736L8.04659 18.1962L8.12659 18.2496C8.2246 18.3122 8.32193 18.3709 8.41927 18.4296C8.44727 18.4436 8.47527 18.4589 8.50127 18.4749C8.57327 18.5162 8.64794 18.5582 8.7206 18.5962C8.76061 18.6189 8.80194 18.6382 8.84327 18.6589C8.89328 18.6869 8.94528 18.7142 8.99861 18.7422C9.01328 18.7469 9.02528 18.7516 9.03728 18.7582L9.03994 18.7556C9.06194 18.7656 9.08261 18.7762 9.10395 18.7869C9.18395 18.8269 9.26728 18.8649 9.35395 18.9022C9.36995 18.9089 9.38729 18.9156 9.40462 18.9249C9.50062 18.9669 9.59662 19.0069 9.69596 19.0456C9.71863 19.0522 9.74263 19.0636 9.76596 19.0722C9.85596 19.1062 9.94863 19.1409 10.0406 19.1736L10.074 19.1856C10.176 19.2202 10.2766 19.2536 10.3806 19.2849C10.4046 19.2916 10.4293 19.3002 10.4546 19.3069C10.5606 19.3389 10.6633 19.3769 10.7706 19.3969C17.6194 20.6389 19.6095 15.2995 19.6095 15.2995C17.9375 17.4662 14.9701 18.0376 12.16 17.4015C12.056 17.3775 11.952 17.3442 11.8467 17.3135C11.698 17.2715 11.5506 17.225 11.4047 17.1742L11.468 17.1935L11.4267 17.1775C11.336 17.1469 11.2487 17.1129 11.16 17.0789C11.1383 17.0697 11.1163 17.0612 11.094 17.0535L11.0867 17.0515C10.9887 17.0122 10.8933 16.9722 10.7986 16.9302C10.778 16.9235 10.7606 16.9142 10.74 16.9062C10.6278 16.8573 10.5167 16.8062 10.4066 16.7529L10.4986 16.7935C10.4746 16.7829 10.4511 16.7714 10.428 16.7589C10.3653 16.7295 10.3026 16.6962 10.2413 16.6649C10.1946 16.6427 10.1486 16.6192 10.1033 16.5942L10.1166 16.6009C10.0413 16.5609 9.96596 16.5175 9.88996 16.4769C9.86729 16.4609 9.84129 16.4475 9.81529 16.4329C9.70233 16.3672 9.59074 16.2992 9.48062 16.2289L9.52262 16.2542C9.4944 16.2368 9.46683 16.2183 9.43995 16.1989L9.44395 16.2015C9.3723 16.1575 9.30204 16.1113 9.23328 16.0629C9.21061 16.0482 9.18995 16.0322 9.16661 16.0162C9.09478 15.9672 9.0241 15.9165 8.95461 15.8642L8.97061 15.8755C8.94261 15.8528 8.91261 15.8315 8.88261 15.8095C8.82394 15.7635 8.76461 15.7195 8.70594 15.6715L8.62727 15.6088C8.54343 15.5421 8.46118 15.4734 8.3806 15.4028L8.37993 15.4022L8.14859 15.1922L8.08193 15.1295C8.02726 15.0742 7.97126 15.0215 7.91526 14.9668L7.85059 14.9002C7.78156 14.8318 7.71421 14.7618 7.64858 14.6902L7.64458 14.6855L7.63325 14.6762C7.56266 14.5986 7.4931 14.5202 7.42458 14.4408C7.40658 14.4202 7.38991 14.3982 7.37124 14.3762L7.21991 14.1928C7.15169 14.1071 7.08501 14.0202 7.0199 13.9321L6.99324 13.8948C5.43454 11.7774 4.87053 8.85539 6.11789 6.45801L5.01653 7.8507C3.59984 9.87674 3.77517 12.5115 4.85853 14.6628C4.8832 14.7155 4.91053 14.7648 4.9372 14.8148Z" fill="#1266A9"/>
<path d="M9.70866 11.8961L9.70132 11.8854L9.69531 11.8774L9.70866 11.8961Z" fill="black"/>
<path d="M10.4543 12.7708L10.5143 12.8308C10.5903 12.9041 10.6683 12.9754 10.7477 13.0468L10.7577 13.0554C10.8377 13.1261 10.9277 13.2001 11.0203 13.2721L11.0343 13.2828C11.057 13.2981 11.0763 13.3161 11.0983 13.3314C11.1917 13.4034 11.2857 13.4721 11.3837 13.5408L11.3937 13.5468C11.435 13.5768 11.479 13.6041 11.5257 13.6334C11.5443 13.6454 11.5657 13.6614 11.5857 13.6734C11.6563 13.7188 11.7257 13.7608 11.797 13.8041C11.8083 13.8088 11.8183 13.8148 11.829 13.8194C11.889 13.8561 11.9543 13.8914 12.017 13.9234C12.039 13.9368 12.0604 13.9468 12.083 13.9594C12.1277 13.9814 12.1717 14.0048 12.2144 14.0274L12.2357 14.0368C12.3257 14.0808 12.4177 14.1221 12.5077 14.1628C12.5304 14.1715 12.5497 14.1788 12.569 14.1881C12.643 14.2201 12.7184 14.2508 12.7924 14.2788C12.8257 14.2901 12.857 14.3035 12.8884 14.3135C12.9564 14.3388 13.0277 14.3621 13.095 14.3855L13.1884 14.4155C13.2857 14.4455 13.3844 14.4848 13.4877 14.5008C18.7765 15.3715 20.0005 11.3201 20.0005 11.3201C18.8985 12.8981 16.7658 13.6501 14.4931 13.0628C14.3796 13.0342 14.2671 13.0019 14.1557 12.9661L14.1937 12.9768C14.1617 12.9681 14.1337 12.9581 14.1031 12.9488C14.0337 12.9248 13.9624 12.9014 13.8951 12.8768L13.7991 12.8408C13.7244 12.8108 13.6484 12.7828 13.5757 12.7508C13.553 12.7408 13.5324 12.7341 13.515 12.7241C13.4217 12.6821 13.3277 12.6408 13.2364 12.5968L13.099 12.5254L13.0197 12.4854C12.9584 12.4534 12.9017 12.4201 12.843 12.3861C12.8281 12.3791 12.8136 12.371 12.7997 12.3621L12.8017 12.3628C12.731 12.3187 12.6577 12.2761 12.5897 12.2314C12.567 12.2187 12.5464 12.2034 12.525 12.1901L12.3864 12.1001C12.2904 12.0334 12.1964 11.9621 12.101 11.8927C12.0797 11.8734 12.059 11.8574 12.0384 11.8401C11.039 11.0581 10.251 9.98937 9.87698 8.77935C9.48297 7.52132 9.56964 6.11063 10.2503 4.96594L9.41363 6.14463C8.38628 7.61199 8.44428 9.57336 9.2443 11.1254C9.3903 11.4121 9.5383 11.6541 9.70164 11.8847C9.85364 12.1021 10.0216 12.3568 10.2243 12.5314C10.2963 12.6134 10.3737 12.6914 10.4543 12.7708Z" fill="#1266A9"/>
<path d="M13.1104 4.86856C12.5043 5.75324 12.4463 6.85193 12.8637 7.82728C13.307 8.8633 14.213 9.67665 15.2691 10.062C15.3124 10.0787 15.3544 10.0927 15.3991 10.1087L15.4577 10.1267C15.5191 10.146 15.5811 10.1687 15.6444 10.1827C18.5651 10.7433 19.3558 8.69063 19.5685 8.38863C18.8731 9.38198 17.7071 9.62065 16.2764 9.27464C16.152 9.24431 16.0296 9.20646 15.9097 9.16131L15.9317 9.16864C15.7826 9.11704 15.6366 9.05694 15.4944 8.98864L15.5197 8.99997C15.2464 8.86664 15.0117 8.72263 14.7937 8.5573C13.515 7.59061 12.7243 5.74991 13.559 4.25055L13.1104 4.86856Z" fill="#1266A9"/>
</svg>
