<svg width="24" height="24" viewBox="0 0 24 24" fill="none" xmlns="http://www.w3.org/2000/svg">
<g clip-path="url(#clip0_11913_13367)">
<path d="M11.9795 17.865C17.2894 25.1034 22.4858 15.8446 22.4781 10.2766C22.4692 3.6937 15.7968 0.0144653 11.9752 0.0144653C5.84115 0.0143716 -0.000488281 5.08386 -0.000488281 12.0201C-0.000488281 19.7297 6.6958 24.0002 11.9752 24.0002C10.7805 23.8281 6.79912 22.9751 6.74568 13.8048C6.70958 7.60272 8.76886 5.12474 11.9666 6.2148C12.0382 6.24133 15.4937 7.6045 15.4937 12.0575C15.4937 16.4916 11.9795 17.8649 11.9795 17.8649V17.865Z" fill="url(#paint0_linear_11913_13367)"/>
<path d="M11.9727 6.20981C8.46411 5.00049 4.16602 7.89229 4.16602 13.6843C4.16602 23.1418 11.1743 24.0002 12.0239 24.0002C18.158 24.0002 23.9996 18.9306 23.9996 11.9945C23.9996 4.28488 17.3033 0.0144426 12.0239 0.0144426C13.4862 -0.188063 19.9052 1.59699 19.9052 10.3702C19.9052 16.0915 15.1122 19.2062 11.9947 17.8755C11.9231 17.8489 8.46749 16.4858 8.46749 12.0328C8.46749 7.59856 11.9727 6.20981 11.9727 6.20981Z" fill="url(#paint1_linear_11913_13367)"/>
</g>
<defs>
<linearGradient id="paint0_linear_11913_13367" x1="3.54911" y1="3.54924" x2="21.4775" y2="19.2952" gradientUnits="userSpaceOnUse">
<stop/>
<stop offset="1" stop-color="white"/>
</linearGradient>
<linearGradient id="paint1_linear_11913_13367" x1="20.4565" y1="20.457" x2="1.0517" y2="7.20562" gradientUnits="userSpaceOnUse">
<stop/>
<stop offset="1" stop-color="white"/>
</linearGradient>
<clipPath id="clip0_11913_13367">
<rect width="24" height="24" rx="12" fill="white"/>
</clipPath>
</defs>
</svg>
