<svg width="24" height="24" viewBox="0 0 24 24" fill="none" xmlns="http://www.w3.org/2000/svg">
<path d="M19.3892 6.86941C19.2863 6.5401 19.0393 6.27254 18.7306 6.10788L12.4531 3.10291C12.2884 3.02058 12.1032 3 11.9386 3C11.7739 3 11.5887 3 11.424 3.04116L5.1465 6.06672C4.83777 6.21079 4.61136 6.47836 4.52904 6.82825L2.98539 13.5997C2.92364 13.9496 3.00597 14.2995 3.21179 14.5877L7.55459 19.9596C7.80157 20.2065 8.15147 20.3712 8.50136 20.3918H15.4169C15.7874 20.4329 16.1373 20.2683 16.3637 19.9596L20.7065 14.5877C20.9123 14.2995 20.9946 13.9496 20.9535 13.5997L19.3892 6.86941Z" fill="white" stroke="white" stroke-width="5" stroke-miterlimit="10"/>
<path d="M12.2295 3.55012L12.2295 3.55019L12.2372 3.5539L18.504 6.55372C18.706 6.66391 18.8472 6.82741 18.907 7.00339L20.4595 13.6831C20.4799 13.9032 20.4267 14.1135 20.3072 14.2862L15.9748 19.6452L15.9674 19.6544L15.9605 19.6639C15.8317 19.8395 15.6514 19.9148 15.4721 19.8948L15.4446 19.8918H15.4169H8.51787C8.30795 19.876 8.08585 19.7752 7.925 19.6224L3.61104 14.2862C3.48937 14.1103 3.44223 13.9043 3.47595 13.6974L5.01574 6.94277C5.01586 6.94227 5.01598 6.94178 5.0161 6.94128C5.06291 6.74421 5.18558 6.60024 5.35794 6.51981L5.35795 6.51984L5.36358 6.51713L11.5877 3.51731C11.6756 3.50196 11.7865 3.5 11.9386 3.5C12.0694 3.5 12.165 3.51789 12.2295 3.55012Z" fill="#326DE6" stroke="white"/>
<mask id="path-4-inside-1_11950_5992" fill="white">
<path d="M18.4211 13.3322C18.4006 13.3322 18.38 13.3322 18.38 13.3116C18.38 13.291 18.3388 13.291 18.2976 13.291C18.2153 13.2704 18.133 13.2704 18.0507 13.2704C18.0095 13.2704 17.9683 13.2704 17.9272 13.2499H17.9066C17.6802 13.2293 17.4332 13.1881 17.2068 13.1264C17.1451 13.1058 17.0833 13.044 17.0627 12.9823L16.8981 12.9411C16.9804 12.3443 16.9392 11.7268 16.8157 11.1299C16.6717 10.533 16.4247 9.95675 16.0954 9.4422L16.2189 9.31871V9.29812C16.2189 9.23638 16.2394 9.15405 16.2806 9.11289C16.4658 8.94823 16.6511 8.82474 16.8569 8.70125C16.8981 8.68066 16.9392 8.66008 16.9804 8.6395C17.0627 8.59834 17.1245 8.55717 17.2068 8.51601C17.2274 8.49543 17.248 8.49543 17.2685 8.47484C17.2891 8.45426 17.2685 8.45426 17.2685 8.43368C17.4538 8.28961 17.4949 8.04262 17.3509 7.85738C17.2891 7.77506 17.1656 7.71331 17.0627 7.71331C16.9598 7.71331 16.8569 7.75447 16.7746 7.81622L16.754 7.8368C16.7334 7.85738 16.7128 7.87797 16.6923 7.87797C16.6305 7.93971 16.5688 8.00146 16.5276 8.0632C16.507 8.10437 16.4658 8.12495 16.4453 8.14553C16.3012 8.31019 16.116 8.47484 15.9307 8.59834C15.8896 8.61892 15.8484 8.6395 15.8072 8.6395C15.7866 8.6395 15.7455 8.6395 15.7249 8.61892H15.7043L15.5397 8.72183C15.375 8.55717 15.1898 8.39252 15.0251 8.22786C14.2636 7.63098 13.3168 7.26051 12.3495 7.1576L12.3289 6.99294V7.01352C12.2671 6.97236 12.2465 6.91061 12.226 6.84887C12.226 6.62247 12.226 6.39606 12.2671 6.14908V6.1285C12.2671 6.08733 12.2877 6.04617 12.2877 6.00501C12.3083 5.92268 12.3083 5.84035 12.3289 5.75802V5.63453C12.3495 5.42871 12.1848 5.22289 11.979 5.20231C11.8555 5.18173 11.732 5.24347 11.6291 5.34638C11.5468 5.42871 11.5056 5.53162 11.5056 5.63453V5.73744C11.5056 5.81977 11.5262 5.9021 11.5468 5.98442C11.5673 6.02559 11.5673 6.06675 11.5673 6.10792V6.1285C11.6085 6.3549 11.6085 6.5813 11.6085 6.82829C11.5879 6.89003 11.5673 6.95178 11.5056 6.99294V7.0341L11.485 7.19876C11.2586 7.21934 11.0322 7.26051 10.7852 7.30167C9.81787 7.50749 8.93284 8.02204 8.25364 8.74241L8.13014 8.66008H8.10956C8.08898 8.66008 8.0684 8.68066 8.02723 8.68066C7.98607 8.68066 7.94491 8.66008 7.90374 8.6395C7.7185 8.49543 7.53327 8.33077 7.38919 8.16611C7.36861 8.12495 7.32745 8.10437 7.30686 8.08379C7.24512 8.02204 7.20395 7.96029 7.14221 7.89855C7.12163 7.87797 7.10104 7.87797 7.08046 7.85738C7.05988 7.8368 7.05988 7.8368 7.05988 7.8368C6.97755 7.77506 6.87464 7.73389 6.77173 7.73389C6.64824 7.73389 6.54533 7.77506 6.48358 7.87797C6.36009 8.0632 6.40126 8.31019 6.56591 8.45426C6.58649 8.45426 6.58649 8.47484 6.58649 8.47484C6.58649 8.47484 6.62766 8.51601 6.64824 8.51601C6.70999 8.55717 6.79231 8.59834 6.87464 8.6395C6.91581 8.66008 6.95697 8.68066 6.99813 8.70125C7.20395 8.82474 7.40977 8.94823 7.57443 9.11289C7.61559 9.15405 7.65676 9.23638 7.63618 9.29812V9.27754L7.75967 9.40103C7.73909 9.4422 7.7185 9.46278 7.69792 9.50394C7.05988 10.5125 6.79231 11.7062 6.97755 12.8794L6.8129 12.9206C6.8129 12.9411 6.79231 12.9411 6.79231 12.9411C6.77173 13.0029 6.70999 13.044 6.64824 13.0852C6.42184 13.147 6.19544 13.1881 5.94845 13.2087C5.90729 13.2087 5.86612 13.2087 5.82496 13.2293C5.74263 13.2293 5.6603 13.2499 5.57798 13.2499C5.55739 13.2499 5.53681 13.2704 5.49565 13.2704C5.47507 13.2704 5.47507 13.2704 5.45448 13.291C5.22808 13.3322 5.08401 13.538 5.12517 13.7644C5.16634 13.9497 5.35157 14.0731 5.53681 14.0526C5.57798 14.0526 5.59856 14.0526 5.63972 14.032C5.6603 14.032 5.6603 14.032 5.6603 14.0114C5.6603 13.9908 5.72205 14.0114 5.74263 14.0114C5.82496 13.9908 5.90729 13.9497 5.96903 13.9291C6.0102 13.9085 6.05136 13.8879 6.09253 13.8879H6.11311C6.33951 13.8056 6.54533 13.7438 6.79231 13.7027H6.8129C6.87464 13.7027 6.93639 13.7233 6.97755 13.7644C6.99813 13.7644 6.99813 13.785 6.99813 13.785L7.18337 13.7644C7.4921 14.7112 8.0684 15.555 8.8711 16.1725C9.05633 16.3166 9.22099 16.4401 9.42681 16.543L9.3239 16.6871C9.3239 16.7076 9.34448 16.7076 9.34448 16.7076C9.38564 16.7694 9.38564 16.8517 9.36506 16.9135C9.28273 17.1193 9.15924 17.3251 9.03575 17.5103V17.5309C9.01517 17.5721 8.99459 17.5927 8.95342 17.6338C8.91226 17.675 8.8711 17.7573 8.80935 17.8396C8.78877 17.8602 8.78877 17.8808 8.76819 17.9014C8.76819 17.9014 8.76819 17.922 8.7476 17.922C8.64469 18.1278 8.72702 18.3748 8.91226 18.4777C8.95342 18.4983 9.01517 18.5189 9.05633 18.5189C9.22099 18.5189 9.36506 18.4159 9.44739 18.2719C9.44739 18.2719 9.44739 18.2513 9.46797 18.2513C9.46797 18.2307 9.48855 18.2101 9.50914 18.1895C9.52972 18.1072 9.57088 18.0455 9.59146 17.9631L9.63263 17.8396C9.69438 17.6132 9.79729 17.4074 9.9002 17.2016C9.94136 17.1399 10.0031 17.0987 10.0649 17.0781C10.0854 17.0781 10.0854 17.0781 10.0854 17.0575L10.1678 16.8929C10.7441 17.1193 11.3409 17.2222 11.9584 17.2222C12.3289 17.2222 12.6993 17.181 13.0698 17.0781C13.2962 17.037 13.5226 16.9546 13.7284 16.8929L13.8108 17.037C13.8314 17.037 13.8314 17.037 13.8314 17.0575C13.8931 17.0781 13.9548 17.1193 13.996 17.181C14.0989 17.3868 14.2018 17.5927 14.2636 17.8191V17.8396L14.3047 17.9631C14.3253 18.0455 14.3459 18.1278 14.3871 18.1895C14.4077 18.2101 14.4077 18.2307 14.4282 18.2513C14.4282 18.2513 14.4282 18.2719 14.4488 18.2719C14.5311 18.4159 14.6752 18.5189 14.8399 18.5189C14.9016 18.5189 14.9428 18.4983 15.0045 18.4777C15.0869 18.4365 15.1692 18.3542 15.1898 18.2513C15.2103 18.1484 15.2103 18.0455 15.1692 17.9426C15.1692 17.922 15.1486 17.922 15.1486 17.922C15.1486 17.9014 15.128 17.8808 15.1074 17.8602C15.0663 17.7779 15.0251 17.7162 14.9634 17.6544C14.9428 17.6132 14.9222 17.5927 14.881 17.5515V17.5103C14.737 17.3251 14.6341 17.1193 14.5517 16.9135C14.5311 16.8517 14.5311 16.7694 14.5723 16.7076C14.5723 16.6871 14.5929 16.6871 14.5929 16.6871L14.5311 16.5224C15.5808 15.8844 16.3835 14.8964 16.754 13.7233L16.9187 13.7438C16.9392 13.7438 16.9392 13.7233 16.9392 13.7233C16.9804 13.6821 17.0421 13.6615 17.1039 13.6615H17.1245C17.3509 13.7027 17.5773 13.7644 17.7831 13.8467H17.8037C17.8448 13.8673 17.886 13.8879 17.9272 13.8879C18.0095 13.9291 18.0712 13.9702 18.1536 13.9908C18.1742 13.9908 18.1947 14.0114 18.2359 14.0114C18.2565 14.0114 18.2565 14.0114 18.2771 14.032C18.3182 14.0526 18.3388 14.0526 18.38 14.0526C18.5652 14.0526 18.7299 13.9291 18.7916 13.7644C18.771 13.538 18.6064 13.3734 18.4211 13.3322ZM12.4729 12.6942L11.9172 12.9617L11.3615 12.6942L11.2174 12.0973L11.6085 11.6033H12.226L12.617 12.0973L12.4729 12.6942ZM15.8278 11.3563C15.9307 11.7885 15.9513 12.2208 15.9101 12.653L13.9548 12.0973C13.7696 12.0561 13.6667 11.8709 13.7079 11.6856C13.7284 11.6239 13.749 11.5827 13.7902 11.5416L15.3338 10.142C15.5602 10.5125 15.7249 10.9241 15.8278 11.3563ZM14.7164 9.38045L13.0287 10.5742C12.8846 10.6565 12.6788 10.636 12.5759 10.4919C12.5347 10.4507 12.5141 10.4096 12.5141 10.3478L12.3906 8.26902C13.2962 8.37193 14.0989 8.76299 14.7164 9.38045ZM10.991 8.33077L11.4027 8.24844L11.2998 10.3066C11.2998 10.4919 11.1351 10.636 10.9499 10.636C10.8881 10.636 10.847 10.6154 10.7852 10.5948L9.07692 9.38045C9.61205 8.8659 10.2707 8.49543 10.991 8.33077ZM8.48004 10.142L10.0031 11.5004C10.1472 11.6239 10.1678 11.8297 10.0443 11.9738C10.0031 12.0355 9.96194 12.0561 9.87961 12.0767L7.88316 12.653C7.82141 11.7885 8.02723 10.9035 8.48004 10.142ZM8.13014 13.6203L10.1678 13.2704C10.3324 13.2704 10.4971 13.3734 10.5177 13.538C10.5382 13.5998 10.5382 13.6821 10.4971 13.7438L9.71496 15.6374C8.99459 15.164 8.41829 14.4436 8.13014 13.6203ZM12.8023 16.1725C12.5141 16.2343 12.226 16.2754 11.9172 16.2754C11.485 16.2754 11.0322 16.1931 10.6206 16.0696L11.6291 14.2378C11.732 14.1143 11.8966 14.0731 12.0407 14.1555C12.1025 14.1966 12.1436 14.2378 12.2054 14.2995L13.1933 16.0902C13.0698 16.1108 12.9463 16.1313 12.8023 16.1725ZM15.3133 14.3819C15.0045 14.8758 14.5723 15.3081 14.0783 15.6168L13.2756 13.6821C13.2345 13.5174 13.3168 13.3528 13.4609 13.291C13.5226 13.2704 13.5844 13.2499 13.6461 13.2499L15.7043 13.5998C15.6014 13.8879 15.4779 14.1555 15.3133 14.3819Z"/>
</mask>
<path d="M18.4211 13.3322C18.4006 13.3322 18.38 13.3322 18.38 13.3116C18.38 13.291 18.3388 13.291 18.2976 13.291C18.2153 13.2704 18.133 13.2704 18.0507 13.2704C18.0095 13.2704 17.9683 13.2704 17.9272 13.2499H17.9066C17.6802 13.2293 17.4332 13.1881 17.2068 13.1264C17.1451 13.1058 17.0833 13.044 17.0627 12.9823L16.8981 12.9411C16.9804 12.3443 16.9392 11.7268 16.8157 11.1299C16.6717 10.533 16.4247 9.95675 16.0954 9.4422L16.2189 9.31871V9.29812C16.2189 9.23638 16.2394 9.15405 16.2806 9.11289C16.4658 8.94823 16.6511 8.82474 16.8569 8.70125C16.8981 8.68066 16.9392 8.66008 16.9804 8.6395C17.0627 8.59834 17.1245 8.55717 17.2068 8.51601C17.2274 8.49543 17.248 8.49543 17.2685 8.47484C17.2891 8.45426 17.2685 8.45426 17.2685 8.43368C17.4538 8.28961 17.4949 8.04262 17.3509 7.85738C17.2891 7.77506 17.1656 7.71331 17.0627 7.71331C16.9598 7.71331 16.8569 7.75447 16.7746 7.81622L16.754 7.8368C16.7334 7.85738 16.7128 7.87797 16.6923 7.87797C16.6305 7.93971 16.5688 8.00146 16.5276 8.0632C16.507 8.10437 16.4658 8.12495 16.4453 8.14553C16.3012 8.31019 16.116 8.47484 15.9307 8.59834C15.8896 8.61892 15.8484 8.6395 15.8072 8.6395C15.7866 8.6395 15.7455 8.6395 15.7249 8.61892H15.7043L15.5397 8.72183C15.375 8.55717 15.1898 8.39252 15.0251 8.22786C14.2636 7.63098 13.3168 7.26051 12.3495 7.1576L12.3289 6.99294V7.01352C12.2671 6.97236 12.2465 6.91061 12.226 6.84887C12.226 6.62247 12.226 6.39606 12.2671 6.14908V6.1285C12.2671 6.08733 12.2877 6.04617 12.2877 6.00501C12.3083 5.92268 12.3083 5.84035 12.3289 5.75802V5.63453C12.3495 5.42871 12.1848 5.22289 11.979 5.20231C11.8555 5.18173 11.732 5.24347 11.6291 5.34638C11.5468 5.42871 11.5056 5.53162 11.5056 5.63453V5.73744C11.5056 5.81977 11.5262 5.9021 11.5468 5.98442C11.5673 6.02559 11.5673 6.06675 11.5673 6.10792V6.1285C11.6085 6.3549 11.6085 6.5813 11.6085 6.82829C11.5879 6.89003 11.5673 6.95178 11.5056 6.99294V7.0341L11.485 7.19876C11.2586 7.21934 11.0322 7.26051 10.7852 7.30167C9.81787 7.50749 8.93284 8.02204 8.25364 8.74241L8.13014 8.66008H8.10956C8.08898 8.66008 8.0684 8.68066 8.02723 8.68066C7.98607 8.68066 7.94491 8.66008 7.90374 8.6395C7.7185 8.49543 7.53327 8.33077 7.38919 8.16611C7.36861 8.12495 7.32745 8.10437 7.30686 8.08379C7.24512 8.02204 7.20395 7.96029 7.14221 7.89855C7.12163 7.87797 7.10104 7.87797 7.08046 7.85738C7.05988 7.8368 7.05988 7.8368 7.05988 7.8368C6.97755 7.77506 6.87464 7.73389 6.77173 7.73389C6.64824 7.73389 6.54533 7.77506 6.48358 7.87797C6.36009 8.0632 6.40126 8.31019 6.56591 8.45426C6.58649 8.45426 6.58649 8.47484 6.58649 8.47484C6.58649 8.47484 6.62766 8.51601 6.64824 8.51601C6.70999 8.55717 6.79231 8.59834 6.87464 8.6395C6.91581 8.66008 6.95697 8.68066 6.99813 8.70125C7.20395 8.82474 7.40977 8.94823 7.57443 9.11289C7.61559 9.15405 7.65676 9.23638 7.63618 9.29812V9.27754L7.75967 9.40103C7.73909 9.4422 7.7185 9.46278 7.69792 9.50394C7.05988 10.5125 6.79231 11.7062 6.97755 12.8794L6.8129 12.9206C6.8129 12.9411 6.79231 12.9411 6.79231 12.9411C6.77173 13.0029 6.70999 13.044 6.64824 13.0852C6.42184 13.147 6.19544 13.1881 5.94845 13.2087C5.90729 13.2087 5.86612 13.2087 5.82496 13.2293C5.74263 13.2293 5.6603 13.2499 5.57798 13.2499C5.55739 13.2499 5.53681 13.2704 5.49565 13.2704C5.47507 13.2704 5.47507 13.2704 5.45448 13.291C5.22808 13.3322 5.08401 13.538 5.12517 13.7644C5.16634 13.9497 5.35157 14.0731 5.53681 14.0526C5.57798 14.0526 5.59856 14.0526 5.63972 14.032C5.6603 14.032 5.6603 14.032 5.6603 14.0114C5.6603 13.9908 5.72205 14.0114 5.74263 14.0114C5.82496 13.9908 5.90729 13.9497 5.96903 13.9291C6.0102 13.9085 6.05136 13.8879 6.09253 13.8879H6.11311C6.33951 13.8056 6.54533 13.7438 6.79231 13.7027H6.8129C6.87464 13.7027 6.93639 13.7233 6.97755 13.7644C6.99813 13.7644 6.99813 13.785 6.99813 13.785L7.18337 13.7644C7.4921 14.7112 8.0684 15.555 8.8711 16.1725C9.05633 16.3166 9.22099 16.4401 9.42681 16.543L9.3239 16.6871C9.3239 16.7076 9.34448 16.7076 9.34448 16.7076C9.38564 16.7694 9.38564 16.8517 9.36506 16.9135C9.28273 17.1193 9.15924 17.3251 9.03575 17.5103V17.5309C9.01517 17.5721 8.99459 17.5927 8.95342 17.6338C8.91226 17.675 8.8711 17.7573 8.80935 17.8396C8.78877 17.8602 8.78877 17.8808 8.76819 17.9014C8.76819 17.9014 8.76819 17.922 8.7476 17.922C8.64469 18.1278 8.72702 18.3748 8.91226 18.4777C8.95342 18.4983 9.01517 18.5189 9.05633 18.5189C9.22099 18.5189 9.36506 18.4159 9.44739 18.2719C9.44739 18.2719 9.44739 18.2513 9.46797 18.2513C9.46797 18.2307 9.48855 18.2101 9.50914 18.1895C9.52972 18.1072 9.57088 18.0455 9.59146 17.9631L9.63263 17.8396C9.69438 17.6132 9.79729 17.4074 9.9002 17.2016C9.94136 17.1399 10.0031 17.0987 10.0649 17.0781C10.0854 17.0781 10.0854 17.0781 10.0854 17.0575L10.1678 16.8929C10.7441 17.1193 11.3409 17.2222 11.9584 17.2222C12.3289 17.2222 12.6993 17.181 13.0698 17.0781C13.2962 17.037 13.5226 16.9546 13.7284 16.8929L13.8108 17.037C13.8314 17.037 13.8314 17.037 13.8314 17.0575C13.8931 17.0781 13.9548 17.1193 13.996 17.181C14.0989 17.3868 14.2018 17.5927 14.2636 17.8191V17.8396L14.3047 17.9631C14.3253 18.0455 14.3459 18.1278 14.3871 18.1895C14.4077 18.2101 14.4077 18.2307 14.4282 18.2513C14.4282 18.2513 14.4282 18.2719 14.4488 18.2719C14.5311 18.4159 14.6752 18.5189 14.8399 18.5189C14.9016 18.5189 14.9428 18.4983 15.0045 18.4777C15.0869 18.4365 15.1692 18.3542 15.1898 18.2513C15.2103 18.1484 15.2103 18.0455 15.1692 17.9426C15.1692 17.922 15.1486 17.922 15.1486 17.922C15.1486 17.9014 15.128 17.8808 15.1074 17.8602C15.0663 17.7779 15.0251 17.7162 14.9634 17.6544C14.9428 17.6132 14.9222 17.5927 14.881 17.5515V17.5103C14.737 17.3251 14.6341 17.1193 14.5517 16.9135C14.5311 16.8517 14.5311 16.7694 14.5723 16.7076C14.5723 16.6871 14.5929 16.6871 14.5929 16.6871L14.5311 16.5224C15.5808 15.8844 16.3835 14.8964 16.754 13.7233L16.9187 13.7438C16.9392 13.7438 16.9392 13.7233 16.9392 13.7233C16.9804 13.6821 17.0421 13.6615 17.1039 13.6615H17.1245C17.3509 13.7027 17.5773 13.7644 17.7831 13.8467H17.8037C17.8448 13.8673 17.886 13.8879 17.9272 13.8879C18.0095 13.9291 18.0712 13.9702 18.1536 13.9908C18.1742 13.9908 18.1947 14.0114 18.2359 14.0114C18.2565 14.0114 18.2565 14.0114 18.2771 14.032C18.3182 14.0526 18.3388 14.0526 18.38 14.0526C18.5652 14.0526 18.7299 13.9291 18.7916 13.7644C18.771 13.538 18.6064 13.3734 18.4211 13.3322ZM12.4729 12.6942L11.9172 12.9617L11.3615 12.6942L11.2174 12.0973L11.6085 11.6033H12.226L12.617 12.0973L12.4729 12.6942ZM15.8278 11.3563C15.9307 11.7885 15.9513 12.2208 15.9101 12.653L13.9548 12.0973C13.7696 12.0561 13.6667 11.8709 13.7079 11.6856C13.7284 11.6239 13.749 11.5827 13.7902 11.5416L15.3338 10.142C15.5602 10.5125 15.7249 10.9241 15.8278 11.3563ZM14.7164 9.38045L13.0287 10.5742C12.8846 10.6565 12.6788 10.636 12.5759 10.4919C12.5347 10.4507 12.5141 10.4096 12.5141 10.3478L12.3906 8.26902C13.2962 8.37193 14.0989 8.76299 14.7164 9.38045ZM10.991 8.33077L11.4027 8.24844L11.2998 10.3066C11.2998 10.4919 11.1351 10.636 10.9499 10.636C10.8881 10.636 10.847 10.6154 10.7852 10.5948L9.07692 9.38045C9.61205 8.8659 10.2707 8.49543 10.991 8.33077ZM8.48004 10.142L10.0031 11.5004C10.1472 11.6239 10.1678 11.8297 10.0443 11.9738C10.0031 12.0355 9.96194 12.0561 9.87961 12.0767L7.88316 12.653C7.82141 11.7885 8.02723 10.9035 8.48004 10.142ZM8.13014 13.6203L10.1678 13.2704C10.3324 13.2704 10.4971 13.3734 10.5177 13.538C10.5382 13.5998 10.5382 13.6821 10.4971 13.7438L9.71496 15.6374C8.99459 15.164 8.41829 14.4436 8.13014 13.6203ZM12.8023 16.1725C12.5141 16.2343 12.226 16.2754 11.9172 16.2754C11.485 16.2754 11.0322 16.1931 10.6206 16.0696L11.6291 14.2378C11.732 14.1143 11.8966 14.0731 12.0407 14.1555C12.1025 14.1966 12.1436 14.2378 12.2054 14.2995L13.1933 16.0902C13.0698 16.1108 12.9463 16.1313 12.8023 16.1725ZM15.3133 14.3819C15.0045 14.8758 14.5723 15.3081 14.0783 15.6168L13.2756 13.6821C13.2345 13.5174 13.3168 13.3528 13.4609 13.291C13.5226 13.2704 13.5844 13.2499 13.6461 13.2499L15.7043 13.5998C15.6014 13.8879 15.4779 14.1555 15.3133 14.3819Z" fill="white" stroke="white" stroke-width="2" mask="url(#path-4-inside-1_11950_5992)"/>
</svg>
