<svg width="24" height="24" viewBox="0 0 24 24" fill="none" xmlns="http://www.w3.org/2000/svg">
<rect width="24" height="24" rx="12" fill="white"/>
<path d="M19.9915 7.61962C19.9971 7.64095 19.9999 7.66294 20 7.68504V11.1194C20 11.1635 19.9888 11.2068 19.9674 11.2449C19.9461 11.2831 19.9155 11.3147 19.8786 11.3366L17.0966 12.9962V16.2856C17.0966 16.3752 17.0507 16.4578 16.9758 16.5029L11.1687 19.9667C11.1554 19.9745 11.1409 19.9795 11.1264 19.9848C11.121 19.9867 11.1158 19.9901 11.1101 19.9917C11.0695 20.0028 11.0268 20.0028 10.9862 19.9917C10.9796 19.9898 10.9735 19.9861 10.9672 19.9836C10.9539 19.9785 10.94 19.9742 10.9273 19.9667L5.12144 16.5029C5.08456 16.4809 5.05391 16.4493 5.03259 16.4111C5.01127 16.373 5.00003 16.3297 5 16.2856V5.98257C5 5.96003 5.00302 5.93812 5.00846 5.91684C5.01027 5.90964 5.0145 5.90307 5.01692 5.89587C5.02145 5.88272 5.02568 5.86926 5.03232 5.85705C5.03686 5.84892 5.0435 5.84234 5.04894 5.83483C5.05589 5.82481 5.06223 5.81448 5.07039 5.80572C5.07734 5.79852 5.0864 5.7932 5.09425 5.78694C5.10301 5.77943 5.11087 5.77129 5.12084 5.76534H5.12114L8.02423 4.03345C8.06099 4.01154 8.10265 4 8.14506 4C8.18747 4 8.22914 4.01154 8.2659 4.03345L11.169 5.76534H11.1696C11.1793 5.7716 11.1874 5.77943 11.1962 5.78663C11.204 5.79289 11.2128 5.79852 11.2197 5.80541C11.2282 5.81448 11.2342 5.82481 11.2415 5.83483C11.2466 5.84234 11.2536 5.84892 11.2578 5.85705C11.2648 5.86957 11.2687 5.88272 11.2735 5.89587C11.2759 5.90307 11.2802 5.90964 11.282 5.91715C11.2875 5.93848 11.2904 5.96048 11.2904 5.98257V12.4178L13.7096 10.9745V7.68473C13.7096 7.66281 13.7126 7.64059 13.718 7.61962C13.7201 7.61211 13.7241 7.60553 13.7265 7.59833C13.7313 7.58519 13.7355 7.57173 13.7422 7.55952C13.7467 7.55138 13.7534 7.54481 13.7585 7.5373C13.7658 7.52728 13.7718 7.51695 13.7803 7.50819C13.7872 7.50099 13.796 7.49567 13.8038 7.48941C13.8129 7.48189 13.8207 7.47376 13.8304 7.46781H13.8307L16.7341 5.73592C16.7708 5.71397 16.8125 5.70242 16.8549 5.70242C16.8974 5.70242 16.939 5.71397 16.9758 5.73592L19.8789 7.46781C19.8891 7.47407 19.897 7.48189 19.906 7.48909C19.9136 7.49535 19.9224 7.50099 19.9293 7.50787C19.9378 7.51695 19.9438 7.52728 19.9511 7.5373C19.9565 7.54481 19.9631 7.55138 19.9674 7.55952C19.9743 7.57173 19.9782 7.58519 19.9831 7.59833C19.9858 7.60553 19.9897 7.61211 19.9915 7.61962ZM19.5161 10.9745V8.11856L18.5001 8.72455L17.0966 9.56185V12.4178L19.5164 10.9745H19.5161ZM16.613 16.1407V13.2829L15.2324 14.0999L11.2901 16.4312V19.3159L16.613 16.1407ZM5.48395 6.41609V16.1407L10.8062 19.3156V16.4315L8.02574 14.801L8.02483 14.8004L8.02362 14.7998C8.01426 14.7941 8.0064 14.786 7.99764 14.7791C7.99009 14.7729 7.98133 14.7679 7.97468 14.761L7.97408 14.76C7.96623 14.7522 7.96079 14.7425 7.95414 14.7337C7.9481 14.7253 7.94085 14.7181 7.93602 14.7093L7.93572 14.7084C7.93028 14.699 7.92695 14.6877 7.92303 14.6771C7.9191 14.6677 7.91396 14.6589 7.91155 14.6489V14.6486C7.90853 14.6367 7.90792 14.6242 7.90671 14.612C7.90551 14.6026 7.90309 14.5932 7.90309 14.5838V7.85939L6.49988 7.02177L5.48395 6.4164V6.41609ZM8.14537 4.5399L5.72653 5.98257L8.14476 7.42524L10.5633 5.98226L8.14476 4.5399H8.14537ZM9.40327 13.5434L10.8065 12.7064V6.41609L9.79055 7.02208L8.38704 7.85939V14.1497L9.40327 13.5434ZM16.8549 6.24237L14.4364 7.68504L16.8549 9.12771L19.2732 7.68473L16.8549 6.24237ZM16.613 9.56185L15.2094 8.72455L14.1935 8.11856V10.9745L15.5967 11.8115L16.613 12.4178V9.56185ZM11.0479 15.9977L14.5953 13.8992L16.3686 12.8507L13.9518 11.4089L11.1693 13.0688L8.63324 14.5816L11.0479 15.9977Z" fill="#FF2D20"/>
</svg>
