<svg width="28" height="28" viewBox="0 0 28 28" fill="none" xmlns="http://www.w3.org/2000/svg">
<path d="M21.0751 17.5827L21.6787 14.1557C21.8295 13.2997 21.1591 12.5168 20.2753 12.5168H15.8426C15.4033 12.5168 15.0687 12.1297 15.1398 11.7035L15.7068 8.30609C15.7989 7.75415 15.7726 7.18938 15.6296 6.64802C15.5111 6.19956 15.1587 5.83946 14.6952 5.69327L14.5712 5.65416C14.2911 5.56581 13.9853 5.58637 13.7213 5.71131C13.4306 5.84883 13.2179 6.09967 13.1391 6.398L12.7321 7.93844C12.6026 8.42857 12.414 8.90168 12.1708 9.34869C11.8154 10.0018 11.266 10.5246 10.6949 11.0078L9.46396 12.0492C9.1169 12.3428 8.93464 12.7826 8.97413 13.231L9.66898 21.1208C9.73272 21.8445 10.349 22.4001 11.088 22.4001H15.0651C18.0436 22.4001 20.5855 20.3626 21.0751 17.5827Z" stroke="#4A525D" stroke-width="1.7"/>
<path d="M6.3 12.5168L7.13126 21.9555C7.15231 22.1946 6.96055 22.4001 6.7164 22.4001C6.48643 22.4001 6.3 22.2169 6.3 21.9908V12.5168Z" stroke="#4A525D" stroke-width="1.7"/>
</svg>
