<svg width="18" height="20" viewBox="0 0 18 20" fill="none" xmlns="http://www.w3.org/2000/svg">
<path d="M16.0752 13.5822L16.6788 10.1552C16.8296 9.29922 16.1591 8.51634 15.2754 8.51634H10.8426C10.4033 8.51634 10.0688 8.12917 10.1399 7.70303L10.7068 4.3056C10.7989 3.75366 10.7726 3.18889 10.6296 2.64753C10.5111 2.19907 10.1587 1.83897 9.69524 1.69279L9.57121 1.65367C9.29111 1.56532 8.98539 1.58588 8.72131 1.71082C8.43063 1.84834 8.21798 2.09919 8.13916 2.39752L7.73216 3.93795C7.60266 4.42808 7.41403 4.90119 7.17083 5.34821C6.81547 6.00135 6.26605 6.52408 5.69493 7.00727L4.46401 8.0487C4.11695 8.34233 3.93469 8.78208 3.97418 9.23051L4.66903 17.1204C4.73277 17.844 5.34902 18.3996 6.08803 18.3996H10.0652C13.0436 18.3996 15.5855 16.3621 16.0752 13.5822Z" stroke="#4A525D" stroke-width="1.7"/>
<path d="M16.0752 13.5822L16.6788 10.1552C16.8296 9.29922 16.1591 8.51634 15.2754 8.51634H10.8426C10.4033 8.51634 10.0688 8.12917 10.1399 7.70303L10.7068 4.3056C10.7989 3.75366 10.7726 3.18889 10.6296 2.64753C10.5111 2.19907 10.1587 1.83897 9.69524 1.69279L9.57121 1.65367C9.29111 1.56532 8.98539 1.58588 8.72131 1.71082C8.43063 1.84834 8.21798 2.09919 8.13916 2.39752L7.73216 3.93795C7.60266 4.42808 7.41403 4.90119 7.17083 5.34821C6.81547 6.00135 6.26605 6.52408 5.69493 7.00727L4.46401 8.0487C4.11695 8.34233 3.93469 8.78208 3.97418 9.23051L4.66903 17.1204C4.73277 17.844 5.34902 18.3996 6.08803 18.3996H10.0652C13.0436 18.3996 15.5855 16.3621 16.0752 13.5822Z" stroke="black" stroke-opacity="0.2" stroke-width="1.7"/>
<path d="M1.30005 8.51634L2.13131 17.955C2.15236 18.1941 1.9606 18.3996 1.71645 18.3996C1.48648 18.3996 1.30005 18.2164 1.30005 17.9903V8.51634Z" stroke="#4A525D" stroke-width="1.7"/>
<path d="M1.30005 8.51634L2.13131 17.955C2.15236 18.1941 1.9606 18.3996 1.71645 18.3996C1.48648 18.3996 1.30005 18.2164 1.30005 17.9903V8.51634Z" stroke="black" stroke-opacity="0.2" stroke-width="1.7"/>
</svg>
