<svg width="18" height="22" viewBox="0 0 18 22" fill="none" xmlns="http://www.w3.org/2000/svg">
<path d="M17 9.65957C17 13.5295 11.2423 18.8778 9.4961 20.4108C9.20879 20.6631 8.79121 20.6631 8.5039 20.4108C6.75768 18.8778 1 13.5295 1 9.65957C1 5.09795 4.58172 1.40002 9 1.40002C13.4183 1.40002 17 5.09795 17 9.65957Z" stroke="#170D23" stroke-opacity="0.64" stroke-width="1.7"/>
<path d="M11.6667 8.34181C11.6667 9.87534 10.4728 11.1185 9 11.1185C7.52724 11.1185 6.33333 9.87534 6.33333 8.34181C6.33333 6.80827 7.52724 5.56509 9 5.56509C10.4728 5.56509 11.6667 6.80827 11.6667 8.34181Z" stroke="#170D23" stroke-opacity="0.64" stroke-width="1.7"/>
</svg>
