<svg width="18" height="23" viewBox="0 0 18 23" fill="none" xmlns="http://www.w3.org/2000/svg">
<path d="M3.62085 21.0769L3.23495 21.8343L3.62085 21.0769ZM1.52317 18.9793L0.765813 19.3651L1.52317 18.9793ZM16.4768 18.9793L17.2342 19.3651L16.4768 18.9793ZM14.3792 21.0769L14.765 21.8343L14.3792 21.0769ZM14.3792 6.12327L14.765 5.36591L14.3792 6.12327ZM16.4768 8.22094L17.2342 7.83505L16.4768 8.22094ZM3.62085 6.12327L3.23495 5.36591L3.62085 6.12327ZM1.52317 8.22094L0.765813 7.83505L1.52317 8.22094ZM10.4212 1.68188L10.6412 0.860839V0.860839L10.4212 1.68188ZM12.1182 3.37893L12.9393 3.15894V3.15894L12.1182 3.37893ZM7.57883 1.68188L7.79883 2.50291L7.57883 1.68188ZM5.88178 3.37893L6.70282 3.59893L5.88178 3.37893ZM7.05498 13.9527L7.7265 13.4315H7.72649L7.05498 13.9527ZM10.945 13.9527L10.2735 13.4315L10.2735 13.4315L10.945 13.9527ZM8.68 6.4501H9.32V4.7501H8.68V6.4501ZM16.15 13.2801V13.9201H17.85V13.2801H16.15ZM9.32 20.7501H8.68V22.4501H9.32V20.7501ZM1.85 13.9201V13.2801H0.15V13.9201H1.85ZM8.68 20.7501C7.32185 20.7501 6.35435 20.7494 5.59659 20.6875C4.84874 20.6264 4.38033 20.5099 4.00674 20.3196L3.23495 21.8343C3.88814 22.1671 4.60518 22.3122 5.45815 22.3819C6.3012 22.4508 7.3499 22.4501 8.68 22.4501V20.7501ZM0.15 13.9201C0.15 15.2502 0.149339 16.2989 0.218219 17.1419C0.28791 17.9949 0.432998 18.712 0.765813 19.3651L2.28052 18.5934C2.09017 18.2198 1.97367 17.7514 1.91257 17.0035C1.85066 16.2457 1.85 15.2782 1.85 13.9201H0.15ZM4.00674 20.3196C3.2635 19.9409 2.65922 19.3366 2.28052 18.5934L0.765813 19.3651C1.3075 20.4283 2.17184 21.2926 3.23495 21.8343L4.00674 20.3196ZM16.15 13.9201C16.15 15.2782 16.1493 16.2457 16.0874 17.0035C16.0263 17.7514 15.9098 18.2198 15.7195 18.5934L17.2342 19.3651C17.567 18.712 17.7121 17.9949 17.7818 17.1419C17.8507 16.2989 17.85 15.2502 17.85 13.9201H16.15ZM9.32 22.4501C10.6501 22.4501 11.6988 22.4508 12.5418 22.3819C13.3948 22.3122 14.1119 22.1671 14.765 21.8343L13.9933 20.3196C13.6197 20.5099 13.1513 20.6264 12.4034 20.6875C11.6456 20.7494 10.6782 20.7501 9.32 20.7501V22.4501ZM15.7195 18.5934C15.3408 19.3366 14.7365 19.9409 13.9933 20.3196L14.765 21.8343C15.8282 21.2926 16.6925 20.4283 17.2342 19.3651L15.7195 18.5934ZM9.32 6.4501C10.6782 6.4501 11.6456 6.45076 12.4034 6.51267C13.1513 6.57377 13.6197 6.69027 13.9933 6.88062L14.765 5.36591C14.1119 5.0331 13.3948 4.88801 12.5418 4.81832C11.6988 4.74944 10.6501 4.7501 9.32 4.7501V6.4501ZM17.85 13.2801C17.85 11.95 17.8507 10.9013 17.7818 10.0583C17.7121 9.20528 17.567 8.48824 17.2342 7.83505L15.7195 8.60684C15.9098 8.98043 16.0263 9.44884 16.0874 10.1967C16.1493 10.9545 16.15 11.9219 16.15 13.2801H17.85ZM13.9933 6.88062C14.7365 7.25932 15.3408 7.8636 15.7195 8.60684L17.2342 7.83505C16.6925 6.77194 15.8282 5.9076 14.765 5.36591L13.9933 6.88062ZM8.68 4.7501C7.3499 4.7501 6.3012 4.74944 5.45815 4.81832C4.60518 4.88801 3.88814 5.0331 3.23495 5.36591L4.00674 6.88062C4.38033 6.69027 4.84874 6.57377 5.59659 6.51267C6.35435 6.45076 7.32185 6.4501 8.68 6.4501V4.7501ZM1.85 13.2801C1.85 11.9219 1.85066 10.9545 1.91257 10.1967C1.97367 9.44884 2.09017 8.98043 2.28052 8.60684L0.765813 7.83505C0.432998 8.48824 0.28791 9.20528 0.218219 10.0583C0.149339 10.9013 0.15 11.95 0.15 13.2801H1.85ZM3.23495 5.36591C2.17184 5.9076 1.3075 6.77194 0.765813 7.83505L2.28052 8.60684C2.65922 7.8636 3.2635 7.25932 4.00674 6.88062L3.23495 5.36591ZM11.35 4.8001V5.6001H13.05V4.8001H11.35ZM6.65 5.6001V4.8001H4.95V5.6001H6.65ZM9 2.4501C9.7987 2.4501 10.0313 2.4574 10.2012 2.50291L10.6412 0.860839C10.2006 0.742797 9.68925 0.750098 9 0.750098V2.4501ZM13.05 4.8001C13.05 4.11084 13.0573 3.59947 12.9393 3.15894L11.2972 3.59893C11.3427 3.76879 11.35 4.0014 11.35 4.8001H13.05ZM10.2012 2.50291C10.7361 2.64624 11.1539 3.06404 11.2972 3.59893L12.9393 3.15894C12.6387 2.03739 11.7627 1.16136 10.6412 0.860839L10.2012 2.50291ZM9 0.750098C8.31075 0.750098 7.79938 0.742797 7.35884 0.860839L7.79883 2.50291C7.96869 2.4574 8.2013 2.4501 9 2.4501V0.750098ZM6.65 4.8001C6.65 4.0014 6.6573 3.76879 6.70282 3.59893L5.06074 3.15894C4.9427 3.59947 4.95 4.11084 4.95 4.8001H6.65ZM7.35884 0.860839C6.23729 1.16136 5.36126 2.03739 5.06074 3.15894L6.70282 3.59893C6.84614 3.06404 7.26394 2.64624 7.79883 2.50291L7.35884 0.860839ZM7.45 12.6401C7.45 11.9267 8.08777 11.2501 9 11.2501V9.5501C7.26126 9.5501 5.75 10.8793 5.75 12.6401H7.45ZM9 11.2501C9.91223 11.2501 10.55 11.9267 10.55 12.6401H12.25C12.25 10.8793 10.7387 9.5501 9 9.5501V11.2501ZM7.72649 13.4315C7.54886 13.2026 7.45 12.9304 7.45 12.6401H5.75C5.75 13.3303 5.98863 13.965 6.38346 14.4738L7.72649 13.4315ZM6.55 14.3446V15.4401H8.25V14.3446H6.55ZM7.96 16.8501H10.04V15.1501H7.96V16.8501ZM10.55 12.6401C10.55 12.9304 10.4511 13.2026 10.2735 13.4315L11.6165 14.4738C12.0114 13.965 12.25 13.3303 12.25 12.6401H10.55ZM11.45 15.4401V14.3446H9.75V15.4401H11.45ZM10.2735 13.4315C10.3111 13.3831 10.3398 13.3632 10.3049 13.3927C10.3041 13.3934 10.217 13.4651 10.1794 13.4981C10.1283 13.5429 10.038 13.6251 9.9571 13.7349C9.87943 13.8404 9.75 14.0523 9.75 14.3446H11.45C11.45 14.4561 11.4247 14.5478 11.398 14.6129C11.3722 14.6761 11.3431 14.7198 11.326 14.7429C11.3086 14.7665 11.2954 14.7801 11.2927 14.7829C11.2896 14.7861 11.2908 14.7845 11.2998 14.7767C11.3088 14.7688 11.3203 14.7591 11.3386 14.7439C11.3539 14.7313 11.3799 14.71 11.4033 14.6902C11.4277 14.6696 11.46 14.6416 11.4936 14.6093C11.5263 14.578 11.5714 14.532 11.6165 14.4738L10.2735 13.4315ZM10.04 16.8501C10.8187 16.8501 11.45 16.2188 11.45 15.4401H9.75C9.75 15.2799 9.87984 15.1501 10.04 15.1501V16.8501ZM6.55 15.4401C6.55 16.2188 7.18128 16.8501 7.96 16.8501V15.1501C8.12016 15.1501 8.25 15.2799 8.25 15.4401H6.55ZM6.38346 14.4738C6.42864 14.532 6.47375 14.578 6.50638 14.6093C6.54003 14.6416 6.57232 14.6696 6.59669 14.6902C6.6201 14.71 6.64609 14.7313 6.66136 14.7439C6.67967 14.7591 6.69121 14.7688 6.70023 14.7767C6.70915 14.7845 6.71044 14.7861 6.70733 14.7829C6.70462 14.7801 6.69137 14.7665 6.67395 14.7429C6.65694 14.7198 6.6278 14.6761 6.60197 14.6129C6.57534 14.5478 6.55 14.4561 6.55 14.3446H8.25C8.25 14.0523 8.12057 13.8404 8.0429 13.7349C7.96204 13.6251 7.87175 13.5429 7.82055 13.4981C7.78296 13.4651 7.69594 13.3934 7.69511 13.3927C7.6602 13.3632 7.68887 13.3831 7.7265 13.4315L6.38346 14.4738Z" fill="#4A525D"/>
<path d="M3.62085 21.0769L3.23495 21.8343L3.62085 21.0769ZM1.52317 18.9793L0.765813 19.3651L1.52317 18.9793ZM16.4768 18.9793L17.2342 19.3651L16.4768 18.9793ZM14.3792 21.0769L14.765 21.8343L14.3792 21.0769ZM14.3792 6.12327L14.765 5.36591L14.3792 6.12327ZM16.4768 8.22094L17.2342 7.83505L16.4768 8.22094ZM3.62085 6.12327L3.23495 5.36591L3.62085 6.12327ZM1.52317 8.22094L0.765813 7.83505L1.52317 8.22094ZM10.4212 1.68188L10.6412 0.860839V0.860839L10.4212 1.68188ZM12.1182 3.37893L12.9393 3.15894V3.15894L12.1182 3.37893ZM7.57883 1.68188L7.79883 2.50291L7.57883 1.68188ZM5.88178 3.37893L6.70282 3.59893L5.88178 3.37893ZM7.05498 13.9527L7.7265 13.4315H7.72649L7.05498 13.9527ZM10.945 13.9527L10.2735 13.4315L10.2735 13.4315L10.945 13.9527ZM8.68 6.4501H9.32V4.7501H8.68V6.4501ZM16.15 13.2801V13.9201H17.85V13.2801H16.15ZM9.32 20.7501H8.68V22.4501H9.32V20.7501ZM1.85 13.9201V13.2801H0.15V13.9201H1.85ZM8.68 20.7501C7.32185 20.7501 6.35435 20.7494 5.59659 20.6875C4.84874 20.6264 4.38033 20.5099 4.00674 20.3196L3.23495 21.8343C3.88814 22.1671 4.60518 22.3122 5.45815 22.3819C6.3012 22.4508 7.3499 22.4501 8.68 22.4501V20.7501ZM0.15 13.9201C0.15 15.2502 0.149339 16.2989 0.218219 17.1419C0.28791 17.9949 0.432998 18.712 0.765813 19.3651L2.28052 18.5934C2.09017 18.2198 1.97367 17.7514 1.91257 17.0035C1.85066 16.2457 1.85 15.2782 1.85 13.9201H0.15ZM4.00674 20.3196C3.2635 19.9409 2.65922 19.3366 2.28052 18.5934L0.765813 19.3651C1.3075 20.4283 2.17184 21.2926 3.23495 21.8343L4.00674 20.3196ZM16.15 13.9201C16.15 15.2782 16.1493 16.2457 16.0874 17.0035C16.0263 17.7514 15.9098 18.2198 15.7195 18.5934L17.2342 19.3651C17.567 18.712 17.7121 17.9949 17.7818 17.1419C17.8507 16.2989 17.85 15.2502 17.85 13.9201H16.15ZM9.32 22.4501C10.6501 22.4501 11.6988 22.4508 12.5418 22.3819C13.3948 22.3122 14.1119 22.1671 14.765 21.8343L13.9933 20.3196C13.6197 20.5099 13.1513 20.6264 12.4034 20.6875C11.6456 20.7494 10.6782 20.7501 9.32 20.7501V22.4501ZM15.7195 18.5934C15.3408 19.3366 14.7365 19.9409 13.9933 20.3196L14.765 21.8343C15.8282 21.2926 16.6925 20.4283 17.2342 19.3651L15.7195 18.5934ZM9.32 6.4501C10.6782 6.4501 11.6456 6.45076 12.4034 6.51267C13.1513 6.57377 13.6197 6.69027 13.9933 6.88062L14.765 5.36591C14.1119 5.0331 13.3948 4.88801 12.5418 4.81832C11.6988 4.74944 10.6501 4.7501 9.32 4.7501V6.4501ZM17.85 13.2801C17.85 11.95 17.8507 10.9013 17.7818 10.0583C17.7121 9.20528 17.567 8.48824 17.2342 7.83505L15.7195 8.60684C15.9098 8.98043 16.0263 9.44884 16.0874 10.1967C16.1493 10.9545 16.15 11.9219 16.15 13.2801H17.85ZM13.9933 6.88062C14.7365 7.25932 15.3408 7.8636 15.7195 8.60684L17.2342 7.83505C16.6925 6.77194 15.8282 5.9076 14.765 5.36591L13.9933 6.88062ZM8.68 4.7501C7.3499 4.7501 6.3012 4.74944 5.45815 4.81832C4.60518 4.88801 3.88814 5.0331 3.23495 5.36591L4.00674 6.88062C4.38033 6.69027 4.84874 6.57377 5.59659 6.51267C6.35435 6.45076 7.32185 6.4501 8.68 6.4501V4.7501ZM1.85 13.2801C1.85 11.9219 1.85066 10.9545 1.91257 10.1967C1.97367 9.44884 2.09017 8.98043 2.28052 8.60684L0.765813 7.83505C0.432998 8.48824 0.28791 9.20528 0.218219 10.0583C0.149339 10.9013 0.15 11.95 0.15 13.2801H1.85ZM3.23495 5.36591C2.17184 5.9076 1.3075 6.77194 0.765813 7.83505L2.28052 8.60684C2.65922 7.8636 3.2635 7.25932 4.00674 6.88062L3.23495 5.36591ZM11.35 4.8001V5.6001H13.05V4.8001H11.35ZM6.65 5.6001V4.8001H4.95V5.6001H6.65ZM9 2.4501C9.7987 2.4501 10.0313 2.4574 10.2012 2.50291L10.6412 0.860839C10.2006 0.742797 9.68925 0.750098 9 0.750098V2.4501ZM13.05 4.8001C13.05 4.11084 13.0573 3.59947 12.9393 3.15894L11.2972 3.59893C11.3427 3.76879 11.35 4.0014 11.35 4.8001H13.05ZM10.2012 2.50291C10.7361 2.64624 11.1539 3.06404 11.2972 3.59893L12.9393 3.15894C12.6387 2.03739 11.7627 1.16136 10.6412 0.860839L10.2012 2.50291ZM9 0.750098C8.31075 0.750098 7.79938 0.742797 7.35884 0.860839L7.79883 2.50291C7.96869 2.4574 8.2013 2.4501 9 2.4501V0.750098ZM6.65 4.8001C6.65 4.0014 6.6573 3.76879 6.70282 3.59893L5.06074 3.15894C4.9427 3.59947 4.95 4.11084 4.95 4.8001H6.65ZM7.35884 0.860839C6.23729 1.16136 5.36126 2.03739 5.06074 3.15894L6.70282 3.59893C6.84614 3.06404 7.26394 2.64624 7.79883 2.50291L7.35884 0.860839ZM7.45 12.6401C7.45 11.9267 8.08777 11.2501 9 11.2501V9.5501C7.26126 9.5501 5.75 10.8793 5.75 12.6401H7.45ZM9 11.2501C9.91223 11.2501 10.55 11.9267 10.55 12.6401H12.25C12.25 10.8793 10.7387 9.5501 9 9.5501V11.2501ZM7.72649 13.4315C7.54886 13.2026 7.45 12.9304 7.45 12.6401H5.75C5.75 13.3303 5.98863 13.965 6.38346 14.4738L7.72649 13.4315ZM6.55 14.3446V15.4401H8.25V14.3446H6.55ZM7.96 16.8501H10.04V15.1501H7.96V16.8501ZM10.55 12.6401C10.55 12.9304 10.4511 13.2026 10.2735 13.4315L11.6165 14.4738C12.0114 13.965 12.25 13.3303 12.25 12.6401H10.55ZM11.45 15.4401V14.3446H9.75V15.4401H11.45ZM10.2735 13.4315C10.3111 13.3831 10.3398 13.3632 10.3049 13.3927C10.3041 13.3934 10.217 13.4651 10.1794 13.4981C10.1283 13.5429 10.038 13.6251 9.9571 13.7349C9.87943 13.8404 9.75 14.0523 9.75 14.3446H11.45C11.45 14.4561 11.4247 14.5478 11.398 14.6129C11.3722 14.6761 11.3431 14.7198 11.326 14.7429C11.3086 14.7665 11.2954 14.7801 11.2927 14.7829C11.2896 14.7861 11.2908 14.7845 11.2998 14.7767C11.3088 14.7688 11.3203 14.7591 11.3386 14.7439C11.3539 14.7313 11.3799 14.71 11.4033 14.6902C11.4277 14.6696 11.46 14.6416 11.4936 14.6093C11.5263 14.578 11.5714 14.532 11.6165 14.4738L10.2735 13.4315ZM10.04 16.8501C10.8187 16.8501 11.45 16.2188 11.45 15.4401H9.75C9.75 15.2799 9.87984 15.1501 10.04 15.1501V16.8501ZM6.55 15.4401C6.55 16.2188 7.18128 16.8501 7.96 16.8501V15.1501C8.12016 15.1501 8.25 15.2799 8.25 15.4401H6.55ZM6.38346 14.4738C6.42864 14.532 6.47375 14.578 6.50638 14.6093C6.54003 14.6416 6.57232 14.6696 6.59669 14.6902C6.6201 14.71 6.64609 14.7313 6.66136 14.7439C6.67967 14.7591 6.69121 14.7688 6.70023 14.7767C6.70915 14.7845 6.71044 14.7861 6.70733 14.7829C6.70462 14.7801 6.69137 14.7665 6.67395 14.7429C6.65694 14.7198 6.6278 14.6761 6.60197 14.6129C6.57534 14.5478 6.55 14.4561 6.55 14.3446H8.25C8.25 14.0523 8.12057 13.8404 8.0429 13.7349C7.96204 13.6251 7.87175 13.5429 7.82055 13.4981C7.78296 13.4651 7.69594 13.3934 7.69511 13.3927C7.6602 13.3632 7.68887 13.3831 7.7265 13.4315L6.38346 14.4738Z" fill="black" fill-opacity="0.2"/>
</svg>
