<svg width="18" height="22" viewBox="0 0 18 22" fill="none" xmlns="http://www.w3.org/2000/svg">
<path d="M11.4 1.3999H5.8C3.14903 1.3999 1 3.54894 1 6.1999V15.7999C1 18.4509 3.14903 20.5999 5.8 20.5999H12.2C14.851 20.5999 17 18.4509 17 15.7999V6.9999M11.4 1.3999H12.0059C12.6424 1.3999 13.2529 1.65276 13.7029 2.10285L16.2971 4.69696C16.7471 5.14705 17 5.7575 17 6.39401V6.9999M11.4 1.3999V4.5999C11.4 5.92539 12.4745 6.9999 13.8 6.9999H17M4.2 9.3999H9M4.2 12.5999H13.4" stroke="#6137DB" stroke-width="1.7" stroke-linecap="round"/>
</svg>
