<svg width="24" height="24" viewBox="0 0 24 24" fill="none" xmlns="http://www.w3.org/2000/svg">
<rect width="24" height="24" rx="12" fill="white"/>
<path fill-rule="evenodd" clip-rule="evenodd" d="M10.0939 4.90127C10.6078 4.07973 11.2895 3.37588 12.0938 2.83557C12.8879 3.36327 13.5607 4.05375 14.0682 4.86077C15.4079 6.7186 16.0835 8.97269 15.9868 11.2612C16.4033 11.597 16.8324 11.9195 17.242 12.2619C17.8293 12.7854 18.1025 13.5756 17.9646 14.3498C17.7667 15.3039 17.5772 16.26 17.3681 17.2118C17.2294 17.6279 16.7789 17.853 16.3624 17.7139C16.2898 17.6894 16.2214 17.655 16.1584 17.6111C15.4862 17.0712 14.8313 16.5126 14.1615 15.9722C13.6444 16.4564 12.9757 16.7468 12.2692 16.7938C11.4538 16.8335 10.6563 16.5462 10.0537 15.9952C9.57227 16.3494 9.12481 16.775 8.65405 17.1552C8.44771 17.3578 8.21806 17.5347 7.9693 17.6826C7.56006 17.8411 7.09961 17.6382 6.94065 17.229C6.93301 17.2091 6.92614 17.1892 6.92002 17.169C6.70489 16.2382 6.47983 15.3104 6.27158 14.3785C6.10956 13.5691 6.4015 12.7354 7.03351 12.2042C7.39919 11.9092 7.76946 11.6196 8.1424 11.333C8.24595 11.2803 8.19399 11.1618 8.19934 11.0705C8.14966 8.86415 8.81568 6.70065 10.0973 4.90433M10.7568 7.78546C10.27 8.4125 10.3285 9.30512 10.894 9.86299C11.5447 10.4981 12.5765 10.5195 13.2528 9.91154C13.7339 9.47786 13.8993 8.79311 13.6689 8.18747C13.4354 7.60473 12.894 7.20199 12.2684 7.14619C11.6884 7.08583 11.1179 7.32692 10.7564 7.78468" fill="#754ABC"/>
<path d="M9.86142 17.9453C9.87709 17.7275 10.0662 17.5636 10.284 17.5789C10.3413 17.5831 10.3971 17.5995 10.4476 17.6274C11.4873 18.1303 12.7001 18.1303 13.7403 17.6274C13.9336 17.5216 14.1763 17.5926 14.2821 17.7864C14.3054 17.8284 14.3207 17.8742 14.3272 17.922C14.3302 18.5047 14.3302 19.0874 14.3272 19.6702C14.3054 19.8869 14.1121 20.045 13.8954 20.0229C13.8293 20.0164 13.7662 19.9931 13.7116 19.9556C13.5369 19.8074 13.3795 19.6407 13.2118 19.4848C12.9451 19.9835 12.6951 20.489 12.4269 20.9862C12.305 21.17 12.057 21.2196 11.8732 21.0978C11.8304 21.0691 11.7934 21.0328 11.7643 20.9904C11.4953 20.4921 11.2466 19.9835 10.9749 19.4856C10.8094 19.6423 10.6516 19.8085 10.4766 19.9564C10.2963 20.079 10.0506 20.032 9.92789 19.8517C9.89084 19.797 9.86791 19.7336 9.86141 19.6675C9.85683 19.0928 9.86141 18.5177 9.86141 17.943" fill="#754ABC"/>
<path d="M12.0812 9.55098C12.5226 9.56129 12.8882 9.21166 12.8986 8.77069V8.76571C12.8913 8.32474 12.5279 7.97283 12.087 7.97971L12.0812 7.98008C11.6403 7.97018 11.2746 8.31981 11.2651 8.76074L11.2646 8.76571C11.2723 9.20705 11.6361 9.5586 12.077 9.55098H12.0812Z" fill="#754ABC"/>
</svg>
