<svg width="24" height="24" viewBox="0 0 24 24" fill="none" xmlns="http://www.w3.org/2000/svg">
<rect width="24" height="24" rx="12" fill="#179DE3"/>
<g clip-path="url(#clip0_11950_5761)">
<path d="M2 10C2 7.1998 2 5.7996 2.545 4.73C3.02436 3.78923 3.78923 3.02436 4.73 2.545C5.7996 2 7.2 2 10 2H14C16.8002 2 18.2004 2 19.27 2.545C20.2108 3.02436 20.9756 3.78923 21.455 4.73C22 5.7996 22 7.2 22 10V14C22 16.8002 22 18.2004 21.455 19.27C20.9756 20.2108 20.2108 20.9756 19.27 21.455C18.2004 22 16.8 22 14 22H10C7.1998 22 5.7996 22 4.73 21.455C3.78923 20.9756 3.02436 20.2108 2.545 19.27C2 18.2004 2 16.8 2 14V10Z" fill="#179DE3"/>
<path d="M17.4964 8.92376C17.0438 8.75577 16.6327 8.49207 16.2913 8.15067C15.9499 7.80927 15.6862 7.39821 15.5182 6.94556C15.3501 7.39808 15.0863 7.80902 14.7449 8.15036C14.4035 8.49171 13.9926 8.75543 13.54 8.92356C13.9925 9.09182 14.4035 9.35564 14.7448 9.69705C15.0861 10.0385 15.3499 10.4494 15.518 10.902C15.6862 10.4494 15.95 10.0384 16.2914 9.69701C16.6328 9.35562 17.0438 9.09188 17.4964 8.92376Z" fill="white"/>
<path d="M12.0244 7H7.02441V17H17.0224V12L12.0244 16.998V7Z" fill="white"/>
</g>
<defs>
<clipPath id="clip0_11950_5761">
<rect width="20" height="20" fill="white" transform="translate(2 2)"/>
</clipPath>
</defs>
</svg>
