<svg width="24" height="24" viewBox="0 0 24 24" fill="none" xmlns="http://www.w3.org/2000/svg">
<rect width="24" height="24" rx="12" fill="white"/>
<g clip-path="url(#clip0_11913_13181)">
<path fill-rule="evenodd" clip-rule="evenodd" d="M4.75043 15.0314C3.74984 14.0393 3.74986 12.4308 4.75046 11.4387L7.46813 8.74408C8.314 7.90541 9.60413 7.7757 10.5874 8.35496C10.8916 8.53413 10.8889 8.94515 10.6387 9.19317C10.3886 9.4412 9.98023 9.41985 9.6407 9.32139C9.2059 9.1953 8.71693 9.30226 8.37403 9.64226L5.65634 12.3368C5.15604 12.8329 5.15604 13.6371 5.65633 14.1332C6.15663 14.6293 6.9678 14.6293 7.4681 14.1332L12.9034 8.74411C13.904 7.75201 15.5263 7.75201 16.5269 8.7441L19.2446 11.4387C20.2452 12.4307 20.2452 14.0393 19.2446 15.0314C18.244 16.0235 16.6217 16.0235 15.6211 15.0314L14.7152 14.1332L13.5829 15.2559C12.737 16.0946 11.4469 16.2243 10.4636 15.645C10.1594 15.4659 10.1621 15.0549 10.4123 14.8068C10.6624 14.5588 11.0707 14.5801 11.4103 14.6786C11.8451 14.8047 12.3341 14.6977 12.677 14.3577L13.8417 13.2029C14.3241 12.7246 15.1063 12.7246 15.5888 13.2029L16.527 14.1332C17.0273 14.6292 17.8384 14.6292 18.3387 14.1332C18.839 13.6371 18.839 12.8329 18.3387 12.3368L15.621 9.64229C15.1207 9.14625 14.3096 9.14625 13.8093 9.6423L8.374 15.0314C7.37337 16.0235 5.75104 16.0235 4.75043 15.0314Z" fill="#170D23"/>
</g>
<defs>
<clipPath id="clip0_11913_13181">
<rect width="16" height="8" fill="white" transform="translate(4 8)"/>
</clipPath>
</defs>
</svg>
