<svg width="18" height="24" viewBox="0 0 18 24" fill="none" xmlns="http://www.w3.org/2000/svg">
<path d="M2.7203 12.4734C2.50449 11.9651 1.91743 11.7279 1.40905 11.9437C0.900675 12.1595 0.663502 12.7466 0.87931 13.255L2.7203 12.4734ZM17.1203 13.255C17.3361 12.7466 17.0989 12.1595 16.5906 11.9437C16.0822 11.7279 15.4951 11.9651 15.2793 12.4734L17.1203 13.255ZM7.9998 22.8002C7.9998 23.3525 8.44752 23.8002 8.9998 23.8002C9.55209 23.8002 9.9998 23.3525 9.9998 22.8002H7.9998ZM12.3402 5.5202V9.8402H14.3402V5.5202H12.3402ZM5.65936 9.8402V5.5202H3.65936V9.8402H5.65936ZM8.9998 13.1602C7.15047 13.1602 5.65936 11.6693 5.65936 9.8402H3.65936C3.65936 12.7828 6.05482 15.1602 8.9998 15.1602V13.1602ZM12.3402 9.8402C12.3402 11.6693 10.8491 13.1602 8.9998 13.1602V15.1602C11.9448 15.1602 14.3402 12.7828 14.3402 9.8402H12.3402ZM8.9998 2.2002C10.8491 2.2002 12.3402 3.69105 12.3402 5.5202H14.3402C14.3402 2.5776 11.9448 0.200195 8.9998 0.200195V2.2002ZM8.9998 0.200195C6.05482 0.200195 3.65936 2.5776 3.65936 5.5202H5.65936C5.65936 3.69105 7.15047 2.2002 8.9998 2.2002V0.200195ZM8.9998 16.6162C6.17575 16.6162 3.75359 14.9075 2.7203 12.4734L0.87931 13.255C2.2168 16.4056 5.34939 18.6162 8.9998 18.6162V16.6162ZM15.2793 12.4734C14.246 14.9075 11.8239 16.6162 8.9998 16.6162V18.6162C12.6502 18.6162 15.7828 16.4056 17.1203 13.255L15.2793 12.4734ZM7.9998 17.6162V22.8002H9.9998V17.6162H7.9998Z" fill="#808080"/>
</svg>
