<svg width="24" height="24" viewBox="0 0 24 24" fill="none" xmlns="http://www.w3.org/2000/svg">
<path d="M21.4831 18.467L12.2077 23.8261C12.0122 23.94 11.7899 24 11.5636 24C11.3373 24 11.115 23.94 10.9195 23.8261L1.64413 18.467C1.24478 18.2351 1 17.8101 1 17.3591V6.64086C1 6.17714 1.24478 5.76491 1.64413 5.533L10.9195 0.173869C11.115 0.0599941 11.3373 0 11.5636 0C11.7899 0 12.0122 0.0599941 12.2077 0.173869L21.4831 5.533C21.8825 5.76491 22.1272 6.19001 22.1272 6.64086V17.3591C22.1144 17.81 21.8696 18.2351 21.4831 18.467Z" fill="#8D6748"/>
<path d="M11.5505 1.62976C11.3573 1.62976 11.164 1.68126 10.9965 1.78434L2.98362 6.40914C2.63576 6.60242 2.42969 6.97594 2.42969 7.36234V16.612C2.42969 17.0114 2.63576 17.3721 2.98362 17.5654L10.9965 22.1902C11.164 22.2933 11.3572 22.3448 11.5505 22.3448C11.7436 22.3448 11.9369 22.2933 12.1044 22.1902L20.1173 17.5653C20.4652 17.3721 20.6712 16.9985 20.6712 16.6121V7.36234C20.6712 6.96307 20.4652 6.60242 20.1173 6.40914L12.1044 1.78425C11.9369 1.68126 11.7437 1.62976 11.5505 1.62976ZM11.5505 2.01624C11.6792 2.01624 11.7952 2.05486 11.9111 2.11932L19.924 6.74412C20.1431 6.87286 20.2847 7.11772 20.2847 7.37538V16.625C20.2847 16.8826 20.1431 17.1273 19.924 17.2562L11.9112 21.881C11.7952 21.9453 11.6793 21.984 11.5505 21.984C11.423 21.9835 11.2982 21.9478 11.1897 21.8809L3.17682 17.2562C2.95779 17.1274 2.81608 16.8827 2.81608 16.6251V7.37538C2.81608 7.11772 2.95779 6.87295 3.17673 6.74404L11.1896 2.11932C11.3056 2.05486 11.4344 2.01616 11.5503 2.01616L11.5505 2.01624ZM10.8097 10.0807H11.8918C11.9305 10.0807 11.9563 10.0677 11.982 10.0419C12.6261 9.32057 12.6906 7.81327 12.6906 7.36242C12.6906 7.29805 12.639 7.23359 12.5618 7.23359H10.1398C10.0754 7.23359 10.011 7.28509 10.011 7.36242C10.011 7.8004 10.0754 9.30769 10.7196 10.0419C10.7453 10.0677 10.7711 10.0807 10.8097 10.0807ZM10.5134 7.63295H12.2139C12.2783 7.63295 12.3427 7.68445 12.3427 7.76178C12.3427 8.12251 12.2783 9.14016 11.8403 9.66834C11.8017 9.69417 11.7759 9.70705 11.7372 9.70705H10.9772C10.9385 9.70705 10.9128 9.69417 10.887 9.66834C10.449 9.15312 10.3975 8.12251 10.3846 7.76178C10.3846 7.6974 10.4361 7.63295 10.5134 7.63295ZM11.5955 6.97602C11.5955 6.97602 12.0593 6.70541 11.7758 6.21594C11.6084 5.9582 11.5311 5.73925 11.5955 5.64905C11.4281 5.85521 11.1447 6.07415 11.4538 6.53796C11.557 6.65392 11.6084 6.89861 11.5955 6.97594V6.97602ZM11.0802 7.01456C11.0802 7.01456 11.3894 6.83424 11.1962 6.49926C11.0802 6.33181 11.0287 6.17723 11.0802 6.12565C10.9643 6.26735 10.7839 6.40905 10.99 6.73116C11.0545 6.79553 11.0802 6.96307 11.0802 7.01456ZM11.0416 9.55247H11.6857C11.7115 9.55247 11.7372 9.5396 11.763 9.51385C11.982 9.2562 12.0851 8.85684 12.1366 8.50899C12.1366 8.50899 12.1237 8.62494 11.8146 8.74089C11.3895 8.89547 10.6422 8.79239 10.6422 8.79239C10.7066 9.06292 10.8098 9.32057 10.9643 9.51385C10.9771 9.5396 11.0158 9.55247 11.0416 9.55247ZM6.19776 13.1724V10.596H5.72116L4.93533 11.8069L4.14949 10.596H3.67281V13.1853H4.12366V11.3431L4.92237 12.5412H4.93524L5.74691 11.3302V13.1724H6.19776ZM9.08353 10.6475C8.91599 10.5831 8.73567 10.5444 8.54247 10.5444C8.34919 10.5444 8.16887 10.5701 8.00133 10.6475C7.8338 10.7119 7.69218 10.8149 7.57623 10.9309C7.45447 11.0523 7.35812 11.1968 7.29283 11.356C7.22846 11.5235 7.18967 11.6909 7.18967 11.8713V11.8841C7.18967 12.0645 7.22846 12.2449 7.29283 12.3995C7.3572 12.567 7.4474 12.7086 7.56336 12.8246C7.67931 12.9405 7.82101 13.0436 7.98838 13.108C8.15591 13.1724 8.33632 13.2111 8.52951 13.2111C8.7228 13.2111 8.90312 13.1853 9.07065 13.108C9.2381 13.0436 9.3798 12.9405 9.49567 12.8246C9.61746 12.7031 9.71383 12.5586 9.77916 12.3995C9.84353 12.232 9.88223 12.0645 9.88223 11.8841V11.8713C9.88223 11.6909 9.84345 11.5106 9.77907 11.356C9.7147 11.1885 9.62458 11.0468 9.50863 10.9309C9.39268 10.8149 9.25098 10.7118 9.08353 10.6475ZM9.39268 11.897C9.39268 12.013 9.36693 12.1289 9.32822 12.2449C9.27672 12.3479 9.22523 12.4509 9.1479 12.5283C9.06877 12.6069 8.97741 12.6721 8.87737 12.7215C8.77421 12.7731 8.65834 12.7988 8.52951 12.7988C8.41364 12.7988 8.28482 12.7731 8.18174 12.7215C8.08171 12.6722 7.99035 12.6069 7.91121 12.5284C7.83388 12.4381 7.76951 12.3479 7.73081 12.2321C7.69218 12.116 7.66643 12.0002 7.66643 11.8713V11.8584C7.66643 11.7424 7.69218 11.6265 7.73081 11.5105C7.78239 11.4075 7.83388 11.3045 7.91121 11.2271C7.99034 11.1485 8.0817 11.0832 8.18174 11.0339C8.28482 10.9824 8.40069 10.9566 8.52951 10.9566C8.65826 10.9566 8.77429 10.9824 8.87737 11.0339C8.97741 11.0832 9.06877 11.1485 9.1479 11.2271C9.22523 11.3173 9.2896 11.4075 9.32822 11.5234C9.36693 11.6394 9.39259 11.7553 9.39259 11.8841V11.897H9.39268ZM11.2992 11.5105C11.3507 11.4075 11.4023 11.3044 11.4796 11.2271C11.5587 11.1485 11.6501 11.0833 11.7501 11.0339C11.8532 10.9824 11.9563 10.9566 12.0851 10.9566C12.2397 10.9566 12.3685 10.9824 12.4844 11.0467C12.6004 11.1112 12.7035 11.1885 12.8065 11.2786L13.1028 10.9437C13.0384 10.8794 12.974 10.8278 12.9095 10.7762C12.8452 10.7247 12.7678 10.6861 12.6906 10.6475C12.6004 10.6216 12.5231 10.5959 12.42 10.5701C12.317 10.5573 12.2139 10.5444 12.098 10.5444C11.8918 10.5444 11.7243 10.583 11.5569 10.6474C11.3894 10.7118 11.2477 10.8149 11.1318 10.9309C11.0181 11.0561 10.9266 11.1999 10.8613 11.356C10.7938 11.5194 10.7587 11.6944 10.7582 11.8713V11.8841C10.7582 12.0645 10.7968 12.2319 10.8613 12.3995C10.9256 12.567 11.0158 12.7086 11.1318 12.8246C11.2477 12.9405 11.3894 13.0436 11.544 13.108C11.7071 13.1767 11.8824 13.2118 12.0593 13.2111C12.1753 13.2111 12.2912 13.2111 12.4071 13.1853C12.4973 13.1724 12.6004 13.1337 12.6776 13.0951C12.755 13.0565 12.8323 13.0178 12.9095 12.9534C12.9869 12.889 13.0512 12.8374 13.1157 12.7601L12.8194 12.4638C12.7035 12.567 12.5875 12.6442 12.4844 12.7086C12.3814 12.7731 12.2397 12.7988 12.0851 12.7988C11.9691 12.7988 11.8532 12.7601 11.7501 12.7215C11.6471 12.6829 11.5569 12.6055 11.4796 12.5284C11.4023 12.4381 11.3379 12.3479 11.2992 12.2319C11.2606 12.116 11.2348 12.0001 11.2348 11.8713V11.8584C11.2348 11.7424 11.2606 11.6265 11.2992 11.5105ZM14.0175 10.596V13.1724H14.4683V12.0903H15.7051V13.1724H16.1559V10.5959H15.7051V11.6652H14.4683V10.5959H14.0175V10.596ZM18.9643 12.5541L19.222 13.1725H19.6986L18.5649 10.5831H18.1526L17.019 13.1724H17.4828L17.7533 12.554H18.9643V12.5541ZM18.3588 11.1241L18.7968 12.1548H17.9208L18.3588 11.1241ZM3.35079 14.1256H19.7759V13.9839H3.35079V14.1256ZM12.7937 9.14008C12.7937 9.19158 12.7807 9.23028 12.7807 9.28186H19.7759V9.14008H12.7936H12.7937ZM9.92086 9.14008H3.35079V9.28186H9.93373C9.93373 9.23036 9.92078 9.19166 9.92078 9.14008H9.92086Z" fill="white"/>
</svg>
