<svg width="24" height="24" viewBox="0 0 24 24" fill="none" xmlns="http://www.w3.org/2000/svg">
<rect width="24" height="24" rx="12" fill="white"/>
<path d="M11.9442 3.14325L12.4195 4.03593C12.5264 4.20066 12.6421 4.34648 12.7785 4.48227C13.1782 4.87703 13.5508 5.29836 13.8938 5.74338C14.6991 6.80079 15.2423 7.97508 15.6302 9.24509C15.8628 10.0209 15.9891 10.8167 15.9986 11.6215C16.0375 14.0274 15.2128 16.0932 13.5498 17.8101C13.2793 18.0824 12.9871 18.3322 12.6761 18.557C12.5113 18.557 12.4334 18.4307 12.3655 18.3144C12.2419 18.0987 12.1596 17.8618 12.1229 17.6159C12.0644 17.3248 12.026 17.0338 12.045 16.7333V16.5975C12.0316 16.5685 11.8863 3.2117 11.9442 3.14325Z" fill="#599636"/>
<path d="M11.9442 3.11387C11.9247 3.07492 11.9052 3.10441 11.8858 3.12333C11.8952 3.31812 11.8273 3.49176 11.721 3.65761C11.6042 3.82234 11.4494 3.94867 11.2942 4.08447C10.4315 4.83134 9.75257 5.73348 9.20884 6.74248C8.48534 8.10042 8.11246 9.55576 8.00672 11.0879C7.9583 11.6405 8.18147 13.5906 8.35567 14.1533C8.83095 15.647 9.68467 16.8987 10.7905 17.985C11.0621 18.2466 11.3526 18.4892 11.6531 18.7224C11.7405 18.7224 11.75 18.6445 11.77 18.5866C11.8083 18.4628 11.8375 18.3363 11.8574 18.2082L12.0522 16.7534L11.9442 3.11387Z" fill="#6CAC48"/>
<path d="M12.4197 19.1482C12.4391 18.9256 12.546 18.7408 12.6623 18.5566C12.5454 18.5082 12.4586 18.4119 12.3907 18.3045C12.3322 18.2028 12.2837 18.0956 12.246 17.9845C12.1102 17.5771 12.0813 17.1497 12.0423 16.7334V16.4813C11.9939 16.5203 11.9839 16.8497 11.9839 16.8987C11.9556 17.3387 11.8972 17.7762 11.8092 18.2082C11.7802 18.383 11.7607 18.5572 11.6533 18.7125C11.6533 18.7319 11.6533 18.7514 11.6628 18.7804C11.8375 19.2946 11.8854 19.8183 11.9149 20.352V20.5468C11.9149 20.7794 11.9054 20.7304 12.0985 20.8084C12.1765 20.8373 12.2633 20.8473 12.3412 20.9052C12.3996 20.9052 12.4091 20.8568 12.4091 20.8178L12.3802 20.4978V19.6051C12.3707 19.4493 12.3996 19.2946 12.4191 19.1488L12.4197 19.1482Z" fill="#C2BFBF"/>
</svg>
