<svg width="40" height="40" viewBox="0 0 40 40" fill="none" xmlns="http://www.w3.org/2000/svg">
<path d="M10 19.5162C10 26.4108 15.5358 32 22.3646 32C24.7623 32 27.0007 31.3109 28.8959 30.1182C29.2634 29.887 29.4471 29.7714 29.5905 29.6144C30.2614 28.8801 30.0862 27.743 29.2243 27.2372C29.04 27.129 28.6015 27.0104 27.7245 26.7732L27.7245 26.7732C21.1284 24.9887 17.214 18.1434 18.9814 11.4837C19.3127 10.2354 19.4784 9.61124 19.4124 9.26755C19.2647 8.49905 18.5363 7.9476 17.7432 8.00396C17.3885 8.02917 17.063 8.20999 16.4121 8.57164C12.59 10.6952 10 14.8003 10 19.5162Z" stroke="#4A525D" stroke-width="2"/>
<path d="M25.3559 12.4484C25.5772 11.8505 26.4228 11.8505 26.6441 12.4484L27.0497 13.5446C27.1192 13.7326 27.2674 13.8808 27.4554 13.9503L28.5516 14.3559C29.1495 14.5772 29.1495 15.4228 28.5516 15.6441L27.4554 16.0497C27.2674 16.1192 27.1192 16.2674 27.0497 16.4554L26.6441 17.5516C26.4228 18.1495 25.5772 18.1495 25.3559 17.5516L24.9503 16.4554C24.8808 16.2674 24.7326 16.1192 24.5446 16.0497L23.4484 15.6441C22.8505 15.4228 22.8505 14.5772 23.4484 14.3559L24.5446 13.9503C24.7326 13.8808 24.8808 13.7326 24.9503 13.5446L25.3559 12.4484Z" fill="#4A525D"/>
<path d="M29.5706 18.2989C29.7181 17.9004 30.2819 17.9004 30.4294 18.2989L30.6998 19.0297C30.7462 19.155 30.845 19.2538 30.9703 19.3002L31.7011 19.5706C32.0996 19.7181 32.0996 20.2819 31.7011 20.4294L30.9703 20.6998C30.845 20.7462 30.7462 20.845 30.6998 20.9703L30.4294 21.7011C30.2819 22.0996 29.7181 22.0996 29.5706 21.7011L29.3002 20.9703C29.2538 20.845 29.155 20.7462 29.0297 20.6998L28.2989 20.4294C27.9004 20.2819 27.9004 19.7181 28.2989 19.5706L29.0297 19.3002C29.155 19.2538 29.2538 19.155 29.3002 19.0297L29.5706 18.2989Z" fill="#4A525D"/>
</svg>
