<svg width="24" height="20" viewBox="0 0 24 20" fill="none" xmlns="http://www.w3.org/2000/svg">
<path d="M6.0001 5.2002L9.33754 7.42516C10.6281 8.28555 11.2734 8.71575 12.0001 8.71575C12.7268 8.71575 13.3721 8.28555 14.6627 7.42516L18.0001 5.2002M10.0801 18.8002H14.7201C17.4083 18.8002 18.7525 18.8002 19.7793 18.277C20.6824 17.8168 21.4167 17.0825 21.8769 16.1794C22.4001 15.1526 22.4001 13.8084 22.4001 11.1202V8.8802C22.4001 6.19194 22.4001 4.84782 21.8769 3.82104C21.4167 2.91786 20.6824 2.18356 19.7793 1.72336C18.7525 1.2002 17.4083 1.2002 14.7201 1.2002H10.0801C7.39185 1.2002 5.24772 1.2002 4.22094 1.72336C3.31777 2.18356 2.58346 2.91786 2.12327 3.82104C1.6001 4.84782 1.6001 6.19194 1.6001 8.8802V11.1202C1.6001 13.8084 1.6001 15.1526 2.12327 16.1794C2.58346 17.0825 3.31777 17.8168 4.22094 18.277C5.24772 18.8002 7.39185 18.8002 10.0801 18.8002Z" stroke="#4A525D" stroke-width="1.7" stroke-linecap="round"/>
<path d="M6.0001 5.2002L9.33754 7.42516C10.6281 8.28555 11.2734 8.71575 12.0001 8.71575C12.7268 8.71575 13.3721 8.28555 14.6627 7.42516L18.0001 5.2002M10.0801 18.8002H14.7201C17.4083 18.8002 18.7525 18.8002 19.7793 18.277C20.6824 17.8168 21.4167 17.0825 21.8769 16.1794C22.4001 15.1526 22.4001 13.8084 22.4001 11.1202V8.8802C22.4001 6.19194 22.4001 4.84782 21.8769 3.82104C21.4167 2.91786 20.6824 2.18356 19.7793 1.72336C18.7525 1.2002 17.4083 1.2002 14.7201 1.2002H10.0801C7.39185 1.2002 5.24772 1.2002 4.22094 1.72336C3.31777 2.18356 2.58346 2.91786 2.12327 3.82104C1.6001 4.84782 1.6001 6.19194 1.6001 8.8802V11.1202C1.6001 13.8084 1.6001 15.1526 2.12327 16.1794C2.58346 17.0825 3.31777 17.8168 4.22094 18.277C5.24772 18.8002 7.39185 18.8002 10.0801 18.8002Z" stroke="black" stroke-opacity="0.2" stroke-width="1.7" stroke-linecap="round"/>
</svg>
