<svg width="24" height="24" viewBox="0 0 24 24" fill="none" xmlns="http://www.w3.org/2000/svg">
<rect width="24" height="24" rx="12" fill="white"/>
<path d="M17.8955 15.6354C17.1337 15.6161 16.5434 15.6934 16.0482 15.906C15.9054 15.964 15.6769 15.964 15.6578 16.1477C15.734 16.225 15.7435 16.3507 15.8102 16.4569C15.9246 16.6502 16.1244 16.9112 16.3053 17.0466C16.5052 17.2012 16.7053 17.3558 16.9147 17.4911C17.286 17.7231 17.7051 17.8584 18.0669 18.0904C18.2764 18.2256 18.4858 18.3997 18.6953 18.5447C18.8 18.6219 18.8666 18.7477 19 18.7959V18.767C18.9333 18.6799 18.9142 18.5543 18.8476 18.4577C18.7525 18.361 18.6572 18.274 18.5619 18.1773C18.2858 17.8005 17.9431 17.4718 17.5717 17.2012C17.2671 16.9885 16.6005 16.6986 16.4767 16.3409C16.4767 16.3409 16.4671 16.3313 16.4577 16.3217C16.6671 16.3023 16.9147 16.225 17.1147 16.167C17.4384 16.08 17.7336 16.0993 18.0669 16.0123C18.2192 15.9737 18.3715 15.9253 18.5239 15.877V15.7901C18.3526 15.6161 18.2288 15.3841 18.0478 15.2198C17.5622 14.7944 17.0289 14.3789 16.4767 14.0309C16.1815 13.8376 15.8006 13.712 15.4864 13.5477C15.3722 13.4896 15.1817 13.4607 15.1151 13.364C14.9436 13.1514 14.8484 12.8711 14.7247 12.6198C14.4486 12.0882 14.1819 11.4986 13.9439 10.9381C13.7726 10.5611 13.6678 10.1841 13.4583 9.83622C12.4776 8.19309 11.4111 7.19756 9.77339 6.22131C9.42105 6.01837 9.0021 5.93137 8.55458 5.8251C8.31662 5.81537 8.07849 5.7961 7.84047 5.78637C7.68811 5.71871 7.53574 5.5351 7.40242 5.44811C6.85978 5.10011 5.45998 4.3463 5.06007 5.34183C4.80296 5.97004 5.44099 6.58858 5.6599 6.90762C5.8219 7.1299 6.03129 7.38117 6.14557 7.6325C6.21223 7.79671 6.23122 7.97082 6.29788 8.14476C6.4503 8.56992 6.59303 9.04363 6.79307 9.43995C6.89782 9.64289 7.01204 9.8555 7.14536 10.0392C7.22154 10.1454 7.35481 10.1938 7.38343 10.3678C7.25016 10.5611 7.24059 10.8511 7.16435 11.0927C6.82158 12.1849 6.95496 13.538 7.44051 14.3402C7.59282 14.5818 7.95469 15.1135 8.4403 14.9105C8.86883 14.7365 8.7736 14.1856 8.89729 13.7023C8.92597 13.5862 8.90692 13.509 8.96401 13.4317V13.4511C9.09733 13.7216 9.23059 13.9827 9.35439 14.2533C9.6496 14.7268 10.1637 15.2198 10.5922 15.5485C10.8208 15.7223 11.0017 16.022 11.2874 16.1283V16.0993H11.2683C11.2111 16.0123 11.1254 15.9737 11.0493 15.906C10.8779 15.7321 10.6874 15.5194 10.5542 15.3261C10.1543 14.7848 9.80191 14.1856 9.48771 13.567C9.3354 13.2674 9.20202 12.9388 9.07828 12.6391C9.02109 12.523 9.02109 12.3492 8.92591 12.2912C8.78307 12.5038 8.57362 12.6875 8.46887 12.9484C8.28805 13.364 8.26895 13.8763 8.20229 14.4078C8.16419 14.4176 8.18319 14.4078 8.16414 14.4273C7.85952 14.3498 7.75477 14.0309 7.64044 13.7603C7.35475 13.0741 7.30714 11.9722 7.55479 11.1797C7.62145 10.9767 7.90713 10.3388 7.79286 10.1455C7.73572 9.96183 7.54521 9.8555 7.44051 9.71056C7.31677 9.52689 7.1834 9.29501 7.09774 9.09196C6.8692 8.55069 6.75492 7.95143 6.50738 7.41017C6.39311 7.15884 6.19324 6.89796 6.03129 6.66596C5.85041 6.40503 5.65043 6.22131 5.50759 5.91204C5.46003 5.80576 5.39332 5.63177 5.4695 5.51577C5.48855 5.43844 5.52658 5.4095 5.60282 5.39016C5.72662 5.28378 6.07896 5.41911 6.20265 5.4771C6.555 5.62199 6.85015 5.75743 7.14536 5.96037C7.27862 6.05703 7.42147 6.2407 7.59282 6.28903H7.7928C8.09753 6.35664 8.44025 6.30836 8.72593 6.3953C9.23064 6.55958 9.68763 6.80124 10.0971 7.06223C11.3445 7.86443 12.3727 9.00496 13.0679 10.3678C13.1822 10.59 13.2298 10.7931 13.3345 11.025C13.5345 11.4986 13.7821 11.9819 13.9819 12.4458C14.1819 12.9 14.3723 13.364 14.658 13.741C14.8009 13.9439 15.3721 14.0503 15.6292 14.1566C15.8197 14.2436 16.1149 14.3209 16.2863 14.4272C16.61 14.6301 16.9337 14.8622 17.2384 15.0844C17.3908 15.2004 17.8668 15.4421 17.8955 15.6354Z" fill="#00546B"/>
<path d="M8.1833 7.23608C8.02146 7.23608 7.90724 7.25553 7.79297 7.28447V7.3038H7.81201C7.88825 7.45847 8.02146 7.5648 8.11664 7.70007C8.19287 7.85468 8.25948 8.0094 8.33572 8.16406C8.34518 8.15434 8.35471 8.14473 8.35471 8.14473C8.48808 8.04801 8.55469 7.8934 8.55469 7.66141C8.49755 7.5938 8.48803 7.52613 8.44041 7.45847C8.38333 7.36175 8.25948 7.31347 8.1833 7.23608Z" fill="#00546B"/>
</svg>
