<svg width="24" height="24" viewBox="0 0 24 24" fill="none" xmlns="http://www.w3.org/2000/svg">
<rect width="24" height="24" rx="12" fill="white"/>
<path fill-rule="evenodd" clip-rule="evenodd" d="M13.5986 3C13.4684 3 13.3476 3.028 13.236 3.06534C13.4731 3.22401 13.6033 3.43402 13.6683 3.67202C13.673 3.70469 13.6823 3.72803 13.6869 3.76069C13.6916 3.78869 13.6962 3.8167 13.6962 3.8447C13.7148 4.25538 13.5893 4.30671 13.501 4.54939C13.3662 4.86207 13.4034 5.19808 13.5661 5.46875C13.58 5.50142 13.5986 5.53875 13.6219 5.57142C13.4452 4.39072 14.426 4.21338 14.6073 3.8447C14.6213 3.52268 14.3563 3.30801 14.1471 3.15867C13.9472 3.03733 13.766 3 13.5986 3ZM15.0768 3.26601C15.0582 3.37335 15.0722 3.34535 15.0675 3.40135C15.0629 3.43868 15.0629 3.48535 15.0583 3.52268C15.049 3.56002 15.0397 3.59735 15.0257 3.63469C15.0164 3.67202 15.0025 3.70936 14.9885 3.74669C14.9699 3.78403 14.956 3.8167 14.9374 3.85403C14.9235 3.8727 14.9142 3.89136 14.9002 3.91003C14.8909 3.92403 14.8816 3.93803 14.8723 3.95203C14.8491 3.9847 14.8258 4.01737 14.8026 4.04537C14.7747 4.07337 14.7515 4.10604 14.7189 4.12937V4.13405C14.691 4.15738 14.6631 4.18538 14.6306 4.20872C14.533 4.28338 14.4214 4.33939 14.3191 4.40939C14.2866 4.43272 14.2541 4.45139 14.2262 4.47939C14.1936 4.50273 14.1657 4.52606 14.1379 4.55406C14.1053 4.58206 14.0821 4.61006 14.0542 4.64273C14.0309 4.67073 14.003 4.7034 13.9844 4.73607C13.9612 4.76873 13.938 4.8014 13.9194 4.83407C13.9008 4.8714 13.8868 4.90407 13.8682 4.94141C13.8543 4.97874 13.8403 5.01141 13.831 5.04874C13.8171 5.09075 13.8078 5.12808 13.7985 5.16542C13.7939 5.18409 13.7939 5.20742 13.7892 5.22608C13.7846 5.24476 13.7846 5.26342 13.7799 5.28209C13.7799 5.31942 13.7753 5.36142 13.7753 5.39876C13.7753 5.42676 13.7753 5.45476 13.7799 5.48276C13.7799 5.52009 13.7846 5.55743 13.7939 5.59943C13.7985 5.63676 13.8078 5.6741 13.8171 5.71144C13.8311 5.74877 13.8404 5.7861 13.8543 5.82344C13.8636 5.84677 13.8775 5.87011 13.8868 5.88877L12.8177 5.47343C12.6364 5.42209 12.4597 5.37542 12.2785 5.33342C12.1808 5.31009 12.0832 5.28675 11.9856 5.26342C11.7067 5.20742 11.4231 5.16542 11.1396 5.13742C11.1303 5.13742 11.1256 5.13274 11.1163 5.13274C10.8374 5.10474 10.5631 5.09074 10.2842 5.09074C10.0797 5.09074 9.87516 5.10007 9.67528 5.11407C9.39172 5.13275 9.10816 5.17008 8.8246 5.21674C8.75487 5.22607 8.68514 5.24008 8.61541 5.25408C8.47131 5.28208 8.33185 5.31475 8.19705 5.34742C8.12732 5.36609 8.05759 5.38475 7.98786 5.40342C7.91814 5.43142 7.85306 5.46409 7.78797 5.49209C7.73684 5.51542 7.68571 5.53876 7.63457 5.56209C7.62528 5.56676 7.61597 5.56676 7.61133 5.57142C7.56485 5.59475 7.52301 5.61342 7.48117 5.63675C7.46723 5.64143 7.45793 5.64608 7.44863 5.65075C7.3975 5.67409 7.34637 5.70209 7.30453 5.72542C7.27199 5.73942 7.23945 5.75809 7.21156 5.77209C7.19761 5.78142 7.17902 5.79077 7.16972 5.79543C7.12789 5.81876 7.08605 5.84209 7.04886 5.86543C7.00702 5.88876 6.96984 5.91209 6.93729 5.93543C6.90476 5.95876 6.87222 5.97743 6.84432 6.00076C6.83967 6.00544 6.83503 6.00544 6.83038 6.01009C6.80249 6.02877 6.76995 6.05209 6.74206 6.07543C6.74206 6.07543 6.7374 6.0801 6.73277 6.08475C6.70953 6.10343 6.68628 6.12209 6.66304 6.14075C6.65375 6.14543 6.64444 6.15475 6.63515 6.15943C6.61191 6.1781 6.58866 6.20143 6.56542 6.2201C6.56077 6.22943 6.55148 6.2341 6.54682 6.23877C6.51893 6.26678 6.49104 6.29011 6.46315 6.31811C6.45849 6.31811 6.45849 6.32278 6.45386 6.32744C6.42596 6.35077 6.39807 6.37877 6.37018 6.40677C6.36553 6.41145 6.36553 6.4161 6.36089 6.4161C6.33765 6.43943 6.31441 6.46277 6.29116 6.49077C6.28187 6.50009 6.26792 6.50944 6.25863 6.51877C6.23538 6.54677 6.20749 6.57477 6.1796 6.60277C6.17494 6.6121 6.16566 6.61677 6.161 6.62611C6.12381 6.66344 6.09127 6.70078 6.05408 6.73811C6.04943 6.74278 6.04479 6.74744 6.04014 6.75211C5.96576 6.83145 5.88673 6.91078 5.80306 6.98078C5.71939 7.05545 5.63107 7.12546 5.54274 7.18612C5.44977 7.25146 5.36145 7.30746 5.26383 7.36346C5.17086 7.4148 5.07324 7.46147 4.97098 7.50347C4.87336 7.54547 4.77109 7.58281 4.66882 7.61547C4.47358 7.65747 4.2737 7.73681 4.1017 7.75081C4.06451 7.75081 4.02268 7.76014 3.98549 7.76481C3.94365 7.77414 3.90646 7.78349 3.86928 7.79281C3.83209 7.80681 3.7949 7.82081 3.75771 7.83481C3.72052 7.84881 3.68333 7.86748 3.64615 7.88615C3.61361 7.90948 3.57642 7.92815 3.54388 7.95148C3.51134 7.97482 3.4788 8.00282 3.45091 8.03082C3.41837 8.05416 3.38583 8.08682 3.35794 8.11482C3.33004 8.14749 3.30215 8.17549 3.27891 8.20816C3.25567 8.24549 3.22778 8.27816 3.20918 8.3155C3.18594 8.34817 3.1627 8.3855 3.1441 8.42283C3.1255 8.46484 3.10692 8.50217 3.09297 8.54417C3.07902 8.58151 3.06508 8.62351 3.05113 8.66551C3.04184 8.70284 3.03253 8.74018 3.02789 8.77751C3.02789 8.78219 3.02324 8.78684 3.02324 8.79151C3.01395 8.83352 3.01395 8.88952 3.00929 8.91752C3.00463 8.95019 3 8.97819 3 9.01086C3 9.02953 3 9.05286 3.00466 9.07152C3.00931 9.10419 3.01395 9.13219 3.02326 9.1602C3.03255 9.18819 3.04186 9.2162 3.0558 9.2442V9.24887C3.06974 9.27687 3.08834 9.30487 3.10693 9.33287C3.12553 9.36088 3.14412 9.38888 3.16736 9.41688C3.1906 9.44021 3.21849 9.46821 3.24639 9.49155C3.27428 9.51955 3.30217 9.54288 3.33471 9.56622C3.44627 9.66422 3.47416 9.69689 3.61827 9.77156C3.64151 9.78556 3.66475 9.79489 3.69265 9.80889C3.6973 9.80889 3.70194 9.81356 3.70659 9.81356C3.70659 9.82289 3.70659 9.82757 3.71125 9.8369C3.7159 9.87424 3.72519 9.91157 3.73449 9.9489C3.74378 9.99091 3.75773 10.0282 3.77168 10.0609C3.78563 10.0889 3.79492 10.1169 3.80887 10.1449C3.81352 10.1542 3.81816 10.1636 3.82281 10.1682C3.84141 10.2056 3.86 10.2383 3.87859 10.2709C3.90184 10.3036 3.92508 10.3362 3.94832 10.3689C3.97156 10.3969 3.99946 10.4296 4.02735 10.4576C4.05524 10.4856 4.08313 10.5089 4.11567 10.5369C4.11567 10.5369 4.12033 10.5416 4.12496 10.5416C4.15285 10.5649 4.18074 10.5883 4.20863 10.6069C4.24117 10.6303 4.27371 10.6489 4.3109 10.6676C4.34344 10.6863 4.38063 10.7049 4.41782 10.7189C4.44571 10.7329 4.47825 10.7423 4.51079 10.7516C4.51544 10.7563 4.52008 10.7563 4.52939 10.7609C4.54799 10.7656 4.57122 10.7703 4.58982 10.7749C4.57587 11.0269 4.57122 11.265 4.60842 11.349C4.65026 11.4423 4.85479 11.1576 5.05933 10.8309C5.03144 11.153 5.01284 11.531 5.05933 11.643C5.11046 11.7596 5.38937 11.3956 5.6311 10.9943C8.9269 10.2289 11.9345 12.5157 12.2506 15.7451C12.1902 15.2411 11.5719 14.9611 11.2884 15.0311C11.1489 15.3764 10.9118 15.8198 10.5306 16.0951C10.5632 15.7871 10.5492 15.4698 10.4842 15.1618C10.3819 15.5911 10.182 15.9925 9.90774 16.3378C9.46613 16.3705 9.02452 16.1558 8.79209 15.8338C8.77349 15.8198 8.76885 15.7918 8.75491 15.7731C8.74096 15.7404 8.72701 15.7078 8.71772 15.6751C8.70377 15.6424 8.69448 15.6098 8.68983 15.5771C8.68517 15.5444 8.68517 15.5118 8.68517 15.4744C8.68517 15.4511 8.68517 15.4278 8.68517 15.4044C8.68983 15.3718 8.69912 15.3391 8.70841 15.3064C8.7177 15.2738 8.72701 15.2411 8.74095 15.2084C8.75955 15.1758 8.77349 15.1431 8.79674 15.1104C8.87576 14.8864 8.87576 14.7044 8.73166 14.5971C8.70376 14.5784 8.67587 14.5644 8.64333 14.5504C8.62473 14.5457 8.6015 14.5364 8.5829 14.5317C8.56896 14.5271 8.55966 14.5224 8.54572 14.5177C8.51317 14.5084 8.48063 14.4991 8.4481 14.4944C8.41555 14.4851 8.38302 14.4804 8.35048 14.4804C8.31794 14.4757 8.28075 14.4711 8.24821 14.4711C8.22497 14.4711 8.20172 14.4757 8.17848 14.4757C8.14129 14.4757 8.10875 14.4804 8.07621 14.4897C8.04367 14.4944 8.01113 14.4991 7.97859 14.5084C7.94606 14.5177 7.91351 14.5271 7.88097 14.5411C7.84844 14.5551 7.82054 14.5691 7.788 14.5831C7.76011 14.5971 7.73222 14.6158 7.69968 14.6298C6.61657 15.3391 7.26272 17.0005 8.00184 17.4812C7.72292 17.5325 7.43937 17.5932 7.36034 17.6539C7.35568 17.6585 7.35105 17.6632 7.35105 17.6632C7.55094 17.7845 7.76012 17.8872 7.9786 17.9759C8.27611 18.0739 8.59221 18.1625 8.73166 18.1999V18.2045C9.11749 18.2839 9.50797 18.3119 9.90309 18.2885C11.9624 18.1439 13.6498 16.5712 13.9566 14.4991C13.9659 14.5411 13.9752 14.5784 13.9845 14.6204C13.9984 14.7044 14.017 14.7931 14.0263 14.8818V14.8864C14.0356 14.9284 14.0403 14.9704 14.0449 15.0078V15.0265C14.0496 15.0685 14.0542 15.1105 14.0542 15.1478C14.0589 15.1991 14.0635 15.2505 14.0635 15.3018V15.3765C14.0635 15.3998 14.0682 15.4278 14.0682 15.4511C14.0682 15.4791 14.0635 15.5071 14.0635 15.5351V15.6005C14.0635 15.6331 14.0589 15.6611 14.0589 15.6938C14.0589 15.7125 14.0589 15.7311 14.0542 15.7545C14.0542 15.7871 14.0495 15.8198 14.0495 15.8571C14.0449 15.8711 14.0449 15.8851 14.0449 15.8991C14.0402 15.9365 14.0356 15.9692 14.0309 16.0065C14.0309 16.0205 14.0309 16.0345 14.0263 16.0485C14.0216 16.0952 14.0123 16.1372 14.0077 16.1838V16.1885V16.1932C13.9984 16.2352 13.9891 16.2818 13.9798 16.3238V16.3378C13.9705 16.3798 13.9612 16.4219 13.9519 16.4639C13.9519 16.4685 13.9472 16.4779 13.9472 16.4825C13.938 16.5245 13.9286 16.5665 13.9147 16.6085V16.6225C13.9008 16.6692 13.8868 16.7112 13.8775 16.7532C13.8729 16.7579 13.8729 16.7625 13.8729 16.7625C13.8589 16.8092 13.845 16.8559 13.831 16.9025C13.8124 16.9492 13.7985 16.9912 13.7799 17.0379C13.7613 17.0845 13.7474 17.1312 13.7288 17.1732C13.7102 17.2199 13.6916 17.2619 13.673 17.3085H13.6683C13.6497 17.3505 13.6311 17.3972 13.6079 17.4392C13.6032 17.4532 13.5986 17.4626 13.5939 17.4719C13.5893 17.4766 13.5893 17.4812 13.5847 17.4859C13.2825 18.0972 12.8362 18.6339 12.2784 19.0539C12.2412 19.0773 12.204 19.1053 12.1669 19.1333C12.1576 19.1426 12.1436 19.1473 12.1343 19.1566C12.1018 19.1799 12.0692 19.2033 12.032 19.2266L12.046 19.2546H12.0506C12.1157 19.2453 12.1808 19.2359 12.2459 19.2266H12.2505C12.3714 19.2079 12.4923 19.1846 12.6131 19.1613C12.6457 19.1566 12.6829 19.1473 12.7154 19.1379C12.7386 19.1333 12.7572 19.1286 12.7805 19.1239C12.813 19.1193 12.8455 19.1099 12.8781 19.1053C12.906 19.0959 12.9339 19.0913 12.9618 19.0819C13.4266 18.9699 13.8775 18.8159 14.3098 18.6339C13.5707 19.6466 12.5806 20.4633 11.4231 21C11.9577 20.9627 12.4923 20.874 13.0082 20.7247C14.8816 20.1693 16.4575 18.9046 17.4011 17.2012C17.2105 18.2792 16.7829 19.3059 16.1507 20.202C16.6016 19.9033 17.0153 19.5579 17.3918 19.1659C18.4331 18.0739 19.1164 16.6879 19.3488 15.1991C19.5069 15.9365 19.5534 16.6972 19.4836 17.4485C22.8399 12.749 19.7626 7.87688 18.4749 6.5935C18.4703 6.58417 18.4656 6.5795 18.4656 6.57017C18.461 6.57484 18.461 6.57484 18.461 6.57949C18.461 6.57482 18.461 6.57482 18.4563 6.57017C18.4563 6.62617 18.4517 6.68217 18.447 6.73817C18.4331 6.84551 18.4191 6.94818 18.4005 7.05085C18.3773 7.15352 18.3494 7.25619 18.3215 7.35886C18.289 7.45686 18.2518 7.55953 18.2099 7.65754C18.1681 7.75087 18.1216 7.84888 18.0705 7.94221C18.0194 8.03088 17.9636 8.12422 17.9031 8.20822C17.8427 8.29689 17.7776 8.38089 17.7126 8.46023C17.6428 8.54423 17.5684 8.6189 17.4941 8.69357C17.4476 8.73557 17.4058 8.77291 17.3593 8.81024C17.3221 8.84291 17.2895 8.87091 17.2523 8.90358C17.1687 8.96891 17.085 9.02958 16.992 9.08559C16.9037 9.14159 16.8107 9.19759 16.7178 9.24426C16.6201 9.29093 16.5225 9.33293 16.4249 9.37493C16.3273 9.41226 16.225 9.44493 16.1228 9.47293C16.0205 9.50093 15.9136 9.52427 15.8113 9.54293C15.7044 9.56161 15.5975 9.57093 15.4952 9.58027C15.4208 9.58494 15.3465 9.5896 15.2721 9.5896C15.1652 9.5896 15.0582 9.58027 14.956 9.57092C14.8491 9.5616 14.7421 9.54759 14.6399 9.52425C14.533 9.50558 14.4307 9.47758 14.3284 9.44492H14.3238C14.426 9.43559 14.5283 9.42624 14.6306 9.40758C14.7375 9.38891 14.8398 9.36558 14.942 9.33758C15.0443 9.30958 15.1466 9.27691 15.2442 9.23957C15.3464 9.20224 15.4441 9.15557 15.537 9.1089C15.6347 9.06223 15.723 9.0109 15.8159 8.9549C15.9043 8.89423 15.9926 8.83356 16.0763 8.76822C16.1599 8.70289 16.239 8.63289 16.3133 8.55822C16.3924 8.48821 16.4621 8.40888 16.5318 8.32954C16.6015 8.24554 16.6666 8.16154 16.7271 8.07754C16.7363 8.06353 16.7457 8.04487 16.755 8.03087C16.8014 7.9562 16.8479 7.88153 16.8898 7.80686C16.9409 7.71352 16.9874 7.62018 17.0292 7.52218C17.071 7.42418 17.1082 7.32617 17.1408 7.22351C17.1733 7.1255 17.1966 7.02283 17.2198 6.92016C17.2384 6.81282 17.257 6.71015 17.2663 6.60748C17.2756 6.50015 17.2849 6.39281 17.2849 6.29014C17.2849 6.21547 17.2802 6.1408 17.2756 6.06613C17.2663 5.9588 17.2524 5.85612 17.2384 5.75346C17.2198 5.64612 17.1966 5.54345 17.1687 5.44078C17.1361 5.34277 17.1036 5.2401 17.0664 5.1421C17.0292 5.0441 16.9827 4.94609 16.9363 4.85276C16.8851 4.75942 16.834 4.66608 16.7782 4.57741C16.7178 4.48875 16.6573 4.40474 16.5923 4.32074C16.5225 4.2414 16.4528 4.16207 16.3784 4.08273C16.3412 4.0454 16.2994 4.00339 16.2576 3.96606C16.0484 3.80272 15.8299 3.64871 15.6114 3.50871C15.5789 3.49004 15.551 3.47604 15.5185 3.46204C15.3651 3.36404 15.2209 3.31268 15.0768 3.26601Z" fill="#E0234E"/>
</svg>
