<svg width="24" height="24" viewBox="0 0 24 24" fill="none" xmlns="http://www.w3.org/2000/svg">
<rect width="24" height="24" rx="12" fill="white"/>
<path d="M14.06 14.6018H12.9636L12.8721 14.5102V11.9438C12.8721 11.4872 12.6926 11.1333 12.142 11.1209C11.8586 11.1135 11.5344 11.1209 11.1879 11.1345L11.1359 11.1877V12.2247V14.509L11.0444 14.6005H9.94802L9.85645 14.509V10.1248L9.94802 10.0332H12.4154C13.3745 10.0332 14.1516 10.8103 14.1516 11.7693V14.5102L14.06 14.6018Z" fill="#014847"/>
<path d="M8.33131 17.0308H8.18034L7.42676 16.2772V16.1263L8.5788 14.9742H9.37694L9.48335 15.0807V15.8788L8.33131 17.0308Z" fill="#05BDBA"/>
<path d="M7.42676 8.50747V8.3565L8.18034 7.60291H8.33131L9.48335 8.75495V9.55309L9.37694 9.65951H8.5788L7.42676 8.50747Z" fill="#05BDBA"/>
<path d="M8.48677 12.9585H4.10134L4.00977 12.8669V11.7681L4.10134 11.6765H8.48677L8.57835 11.7681V12.8669L8.48677 12.9585Z" fill="#05BDBA"/>
<path d="M19.9087 12.9585H15.5232L15.4316 12.8669V11.7681L15.5232 11.6765H19.9087L20.0002 11.7681V12.8669L19.9087 12.9585Z" fill="#05BDBA"/>
<path d="M11.3721 8.66337V5.37428L11.4636 5.28271H12.5625L12.654 5.37428V8.66337L12.5625 8.75493H11.4636L11.3721 8.66337Z" fill="#05BDBA"/>
<path d="M11.3721 19.2606V15.9716L11.4636 15.88H12.5625L12.654 15.9716V19.2606L12.5625 19.3522H11.4636L11.3721 19.2606Z" fill="#05BDBA"/>
</svg>
