<svg width="24" height="24" viewBox="0 0 24 24" fill="none" xmlns="http://www.w3.org/2000/svg">
<rect width="24" height="24" rx="12" fill="white"/>
<path d="M12.0714 6.10121C12.0714 6.10121 11.3817 6.64626 10.6786 7.18762C9.95525 7.16464 8.53656 7.3266 7.76786 7.60616C7.05972 7.15754 6.4375 6.66221 6.4375 6.66221C6.4375 6.66221 5.90579 7.57695 5.57142 8.11376C5.07553 8.37749 4.57766 8.67413 4.13392 9.0666C3.61781 8.86166 3.01953 8.61179 3 8.60354C3.68348 9.98214 4.14295 11.3626 5.39285 12.1923C7.38275 9.04956 16.6297 9.33921 18.6607 12.1745C19.9733 11.4898 20.4838 10.0169 21 8.65696C20.9434 8.67561 20.241 8.91075 19.7857 9.0844C19.5139 8.78844 18.8731 8.3334 18.5089 8.11374C18.1635 7.48117 17.6607 6.6266 17.6607 6.6266C17.6607 6.6266 17.0652 7.0695 16.375 7.55272C15.4425 7.3806 14.3147 7.17145 13.3661 7.22323C12.7203 6.69246 12.0714 6.10121 12.0714 6.10121Z" fill="#F3D400"/>
<path d="M3.70654 11.5332C3.70654 11.5332 4.67528 13.8788 5.34809 15.5087C8.19901 19.27 15.4791 19.5315 18.6529 15.5816C19.4039 13.889 20.4171 11.5104 20.4171 11.5104C19.6029 12.7166 18.2778 13.5493 17.4617 13.9978C16.8818 14.3155 15.5437 14.5075 15.5437 14.5075L12.0308 12.6871L8.49763 14.4711C8.49763 14.4711 7.17735 14.259 6.57964 13.9796C5.37329 13.3356 4.56193 12.5748 3.70654 11.5332Z" fill="#FFE953"/>
</svg>
