<svg width="24" height="24" viewBox="0 0 24 24" fill="none" xmlns="http://www.w3.org/2000/svg">
<rect width="24" height="24" rx="12" fill="white"/>
<path d="M19.0026 10.6714C19.2063 10.1112 19.2572 9.551 19.2063 8.99081C19.1554 8.43062 18.9517 7.87042 18.697 7.36116C18.2387 6.59726 17.5766 5.98614 16.8127 5.62965C15.9979 5.27317 15.1322 5.17131 14.2664 5.37502C13.859 4.96761 13.4007 4.61112 12.8914 4.35649C12.3821 4.10185 11.771 4 11.2108 4C10.3451 4 9.47931 4.25463 8.76634 4.7639C8.05336 5.27317 7.5441 5.98614 7.28946 6.80096C6.67834 6.95374 6.16908 7.20838 5.65981 7.51394C5.20147 7.87042 4.84499 8.32876 4.53943 8.7871C4.08109 9.551 3.92831 10.4168 4.03016 11.2825C4.13201 12.1483 4.4885 12.9631 5.04869 13.6251C4.84499 14.1853 4.79406 14.7455 4.84499 15.3057C4.89591 15.8659 5.09962 16.4261 5.35425 16.9354C5.81259 17.6993 6.47464 18.3104 7.23854 18.6669C8.05336 19.0234 8.91912 19.1252 9.78487 18.9215C10.1923 19.3289 10.6506 19.6854 11.1599 19.94C11.6692 20.1947 12.2803 20.2965 12.8405 20.2965C13.7062 20.2965 14.572 20.0419 15.2849 19.5326C15.9979 19.0234 16.5072 18.3104 16.7618 17.4956C17.322 17.3937 17.8822 17.1391 18.3405 16.7826C18.7989 16.4261 19.2063 16.0187 19.4609 15.5094C19.9193 14.7455 20.072 13.8798 19.9702 13.014C19.8683 12.1483 19.5628 11.3334 19.0026 10.6714ZM12.8914 19.2271C12.0766 19.2271 11.4654 18.9724 10.9053 18.5141C10.9053 18.5141 10.9562 18.4632 11.0071 18.4632L14.2664 16.5789C14.3683 16.528 14.4192 16.477 14.4701 16.3752C14.521 16.2733 14.521 16.2224 14.521 16.1205V11.5371L15.8961 12.352V16.1205C15.947 17.903 14.521 19.2271 12.8914 19.2271ZM6.32186 16.4261C5.96537 15.815 5.81259 15.102 5.96537 14.389C5.96537 14.389 6.0163 14.44 6.06723 14.44L9.32653 16.3242C9.42838 16.3752 9.47931 16.3752 9.58116 16.3752C9.68302 16.3752 9.78487 16.3752 9.83579 16.3242L13.8081 14.0325V15.6113L10.4978 17.5465C9.78487 17.9539 8.97004 18.0558 8.20614 17.852C7.39132 17.6483 6.72927 17.1391 6.32186 16.4261ZM5.45611 9.3473C5.81259 8.73618 6.37278 8.27784 7.03483 8.0232V8.12506V11.8936C7.03483 11.9955 7.03483 12.0973 7.08576 12.1483C7.13668 12.2501 7.18761 12.301 7.28946 12.352L11.2617 14.6437L9.88672 15.4585L6.62742 13.5742C5.91445 13.1668 5.40518 12.5047 5.20147 11.7408C4.99777 10.9769 5.04869 10.0603 5.45611 9.3473ZM16.7109 11.9446L12.7386 9.65286L14.1136 8.83803L17.3729 10.7223C17.8822 11.0279 18.2896 11.4353 18.5442 11.9446C18.7989 12.4538 18.9517 13.014 18.9007 13.6251C18.8498 14.1853 18.6461 14.7455 18.2896 15.2039C17.9331 15.6622 17.4748 16.0187 16.9146 16.2224V12.352C16.9146 12.2501 16.9146 12.1483 16.8637 12.0973C16.8637 12.0973 16.8127 11.9955 16.7109 11.9446ZM18.0859 9.90749C18.0859 9.90749 18.035 9.85656 17.9841 9.85656L14.7248 7.97228C14.6229 7.92135 14.572 7.92135 14.4701 7.92135C14.3683 7.92135 14.2664 7.92135 14.2155 7.97228L10.2432 10.264V8.68525L13.5534 6.75004C14.0627 6.44448 14.6229 6.34263 15.234 6.34263C15.7942 6.34263 16.3544 6.54633 16.8637 6.90282C17.322 7.2593 17.7294 7.71764 17.9331 8.22691C18.1368 8.73618 18.1878 9.3473 18.0859 9.90749ZM9.53024 12.7594L8.15522 11.9446V8.12506C8.15522 7.56486 8.308 6.95374 8.61356 6.4954C8.91912 5.98614 9.37746 5.62965 9.88672 5.37502C10.396 5.12039 11.0071 5.01853 11.5673 5.12039C12.1275 5.17131 12.6877 5.42595 13.146 5.78243C13.146 5.78243 13.0951 5.83336 13.0442 5.83336L9.78487 7.71764C9.68302 7.76857 9.63209 7.8195 9.58116 7.92135C9.53024 8.0232 9.53024 8.07413 9.53024 8.17598V12.7594ZM10.2432 11.1297L12.0256 10.1112L13.8081 11.1297V13.1668L12.0256 14.1853L10.2432 13.1668V11.1297Z" fill="#193718"/>
</svg>
