<svg width="18" height="23" viewBox="0 0 18 23" fill="none" xmlns="http://www.w3.org/2000/svg">
<path d="M3.62085 21.0768L3.23495 21.8342L3.62085 21.0768ZM1.52317 18.9791L0.765813 19.365L1.52317 18.9791ZM16.4768 18.9791L17.2342 19.365L16.4768 18.9791ZM14.3792 21.0768L14.765 21.8342L14.3792 21.0768ZM14.3792 6.12314L14.765 5.36579L14.3792 6.12314ZM16.4768 8.22082L17.2342 7.83493L16.4768 8.22082ZM3.62085 6.12314L3.23495 5.36579L3.62085 6.12314ZM1.52317 8.22082L0.765813 7.83493L1.52317 8.22082ZM10.4212 1.68175L10.6412 0.860717V0.860717L10.4212 1.68175ZM12.1182 3.37881L12.9393 3.15881V3.15881L12.1182 3.37881ZM7.57883 1.68175L7.79883 2.50279L7.57883 1.68175ZM5.88178 3.37881L6.70282 3.59881L5.88178 3.37881ZM7.05498 13.9525L7.7265 13.4314H7.72649L7.05498 13.9525ZM10.945 13.9525L10.2735 13.4314L10.2735 13.4314L10.945 13.9525ZM8.68 6.44998H9.32V4.74998H8.68V6.44998ZM16.15 13.28V13.92H17.85V13.28H16.15ZM9.32 20.75H8.68V22.45H9.32V20.75ZM1.85 13.92V13.28H0.15V13.92H1.85ZM8.68 20.75C7.32185 20.75 6.35435 20.7493 5.59659 20.6874C4.84874 20.6263 4.38033 20.5098 4.00674 20.3195L3.23495 21.8342C3.88814 22.167 4.60518 22.3121 5.45815 22.3818C6.3012 22.4506 7.3499 22.45 8.68 22.45V20.75ZM0.15 13.92C0.15 15.2501 0.149339 16.2988 0.218219 17.1418C0.28791 17.9948 0.432998 18.7118 0.765813 19.365L2.28052 18.5932C2.09017 18.2196 1.97367 17.7512 1.91257 17.0034C1.85066 16.2456 1.85 15.2781 1.85 13.92H0.15ZM4.00674 20.3195C3.2635 19.9408 2.65922 19.3365 2.28052 18.5932L0.765813 19.365C1.3075 20.4281 2.17184 21.2925 3.23495 21.8342L4.00674 20.3195ZM16.15 13.92C16.15 15.2781 16.1493 16.2456 16.0874 17.0034C16.0263 17.7512 15.9098 18.2196 15.7195 18.5932L17.2342 19.365C17.567 18.7118 17.7121 17.9948 17.7818 17.1418C17.8507 16.2988 17.85 15.2501 17.85 13.92H16.15ZM9.32 22.45C10.6501 22.45 11.6988 22.4506 12.5418 22.3818C13.3948 22.3121 14.1119 22.167 14.765 21.8342L13.9933 20.3195C13.6197 20.5098 13.1513 20.6263 12.4034 20.6874C11.6456 20.7493 10.6782 20.75 9.32 20.75V22.45ZM15.7195 18.5932C15.3408 19.3365 14.7365 19.9408 13.9933 20.3195L14.765 21.8342C15.8282 21.2925 16.6925 20.4281 17.2342 19.365L15.7195 18.5932ZM9.32 6.44998C10.6782 6.44998 11.6456 6.45064 12.4034 6.51255C13.1513 6.57365 13.6197 6.69015 13.9933 6.8805L14.765 5.36579C14.1119 5.03297 13.3948 4.88789 12.5418 4.81819C11.6988 4.74931 10.6501 4.74998 9.32 4.74998V6.44998ZM17.85 13.28C17.85 11.9499 17.8507 10.9012 17.7818 10.0581C17.7121 9.20515 17.567 8.48812 17.2342 7.83493L15.7195 8.60671C15.9098 8.9803 16.0263 9.44872 16.0874 10.1966C16.1493 10.9543 16.15 11.9218 16.15 13.28H17.85ZM13.9933 6.8805C14.7365 7.2592 15.3408 7.86347 15.7195 8.60671L17.2342 7.83493C16.6925 6.77181 15.8282 5.90747 14.765 5.36579L13.9933 6.8805ZM8.68 4.74998C7.3499 4.74998 6.3012 4.74931 5.45815 4.81819C4.60518 4.88789 3.88814 5.03297 3.23495 5.36579L4.00674 6.8805C4.38033 6.69015 4.84874 6.57365 5.59659 6.51255C6.35435 6.45064 7.32185 6.44998 8.68 6.44998V4.74998ZM1.85 13.28C1.85 11.9218 1.85066 10.9543 1.91257 10.1966C1.97367 9.44872 2.09017 8.9803 2.28052 8.60671L0.765813 7.83493C0.432998 8.48812 0.28791 9.20515 0.218219 10.0581C0.149339 10.9012 0.15 11.9499 0.15 13.28H1.85ZM3.23495 5.36579C2.17184 5.90747 1.3075 6.77181 0.765813 7.83493L2.28052 8.60671C2.65922 7.86347 3.2635 7.2592 4.00674 6.8805L3.23495 5.36579ZM11.35 4.79998V5.59998H13.05V4.79998H11.35ZM6.65 5.59998V4.79998H4.95V5.59998H6.65ZM9 2.44998C9.7987 2.44998 10.0313 2.45728 10.2012 2.50279L10.6412 0.860717C10.2006 0.742675 9.68925 0.749976 9 0.749976V2.44998ZM13.05 4.79998C13.05 4.11072 13.0573 3.59935 12.9393 3.15881L11.2972 3.59881C11.3427 3.76867 11.35 4.00127 11.35 4.79998H13.05ZM10.2012 2.50279C10.7361 2.64611 11.1539 3.06391 11.2972 3.59881L12.9393 3.15881C12.6387 2.03726 11.7627 1.16123 10.6412 0.860717L10.2012 2.50279ZM9 0.749976C8.31075 0.749976 7.79938 0.742675 7.35884 0.860717L7.79883 2.50279C7.96869 2.45728 8.2013 2.44998 9 2.44998V0.749976ZM6.65 4.79998C6.65 4.00127 6.6573 3.76867 6.70282 3.59881L5.06074 3.15881C4.9427 3.59935 4.95 4.11072 4.95 4.79998H6.65ZM7.35884 0.860717C6.23729 1.16123 5.36126 2.03726 5.06074 3.15881L6.70282 3.59881C6.84614 3.06391 7.26394 2.64611 7.79883 2.50279L7.35884 0.860717ZM7.45 12.64C7.45 11.9266 8.08777 11.25 9 11.25V9.54998C7.26126 9.54998 5.75 10.8791 5.75 12.64H7.45ZM9 11.25C9.91223 11.25 10.55 11.9266 10.55 12.64H12.25C12.25 10.8791 10.7387 9.54998 9 9.54998V11.25ZM7.72649 13.4314C7.54886 13.2025 7.45 12.9303 7.45 12.64H5.75C5.75 13.3302 5.98863 13.9649 6.38346 14.4736L7.72649 13.4314ZM6.55 14.3445V15.44H8.25V14.3445H6.55ZM7.96 16.85H10.04V15.15H7.96V16.85ZM10.55 12.64C10.55 12.9303 10.4511 13.2025 10.2735 13.4314L11.6165 14.4736C12.0114 13.9649 12.25 13.3302 12.25 12.64H10.55ZM11.45 15.44V14.3445H9.75V15.44H11.45ZM10.2735 13.4314C10.3111 13.3829 10.3398 13.363 10.3049 13.3926C10.3041 13.3933 10.217 13.465 10.1794 13.4979C10.1283 13.5428 10.038 13.625 9.9571 13.7348C9.87943 13.8403 9.75 14.0522 9.75 14.3445H11.45C11.45 14.456 11.4247 14.5477 11.398 14.6128C11.3722 14.676 11.3431 14.7196 11.326 14.7427C11.3086 14.7664 11.2954 14.78 11.2927 14.7828C11.2896 14.786 11.2908 14.7844 11.2998 14.7766C11.3088 14.7687 11.3203 14.7589 11.3386 14.7438C11.3539 14.7312 11.3799 14.7099 11.4033 14.6901C11.4277 14.6695 11.46 14.6415 11.4936 14.6092C11.5263 14.5779 11.5714 14.5319 11.6165 14.4736L10.2735 13.4314ZM10.04 16.85C10.8187 16.85 11.45 16.2187 11.45 15.44H9.75C9.75 15.2798 9.87984 15.15 10.04 15.15V16.85ZM6.55 15.44C6.55 16.2187 7.18128 16.85 7.96 16.85V15.15C8.12016 15.15 8.25 15.2798 8.25 15.44H6.55ZM6.38346 14.4736C6.42864 14.5319 6.47375 14.5779 6.50638 14.6092C6.54003 14.6415 6.57232 14.6695 6.59669 14.6901C6.6201 14.7099 6.64609 14.7312 6.66136 14.7438C6.67967 14.7589 6.69121 14.7687 6.70023 14.7766C6.70915 14.7844 6.71044 14.786 6.70733 14.7828C6.70462 14.78 6.69137 14.7664 6.67395 14.7427C6.65694 14.7196 6.6278 14.676 6.60197 14.6128C6.57534 14.5477 6.55 14.456 6.55 14.3445H8.25C8.25 14.0522 8.12057 13.8403 8.0429 13.7348C7.96204 13.625 7.87175 13.5428 7.82055 13.4979C7.78296 13.465 7.69594 13.3933 7.69511 13.3926C7.6602 13.363 7.68887 13.3829 7.7265 13.4314L6.38346 14.4736Z" fill="#4A525D"/>
<path d="M3.62085 21.0768L3.23495 21.8342L3.62085 21.0768ZM1.52317 18.9791L0.765813 19.365L1.52317 18.9791ZM16.4768 18.9791L17.2342 19.365L16.4768 18.9791ZM14.3792 21.0768L14.765 21.8342L14.3792 21.0768ZM14.3792 6.12314L14.765 5.36579L14.3792 6.12314ZM16.4768 8.22082L17.2342 7.83493L16.4768 8.22082ZM3.62085 6.12314L3.23495 5.36579L3.62085 6.12314ZM1.52317 8.22082L0.765813 7.83493L1.52317 8.22082ZM10.4212 1.68175L10.6412 0.860717V0.860717L10.4212 1.68175ZM12.1182 3.37881L12.9393 3.15881V3.15881L12.1182 3.37881ZM7.57883 1.68175L7.79883 2.50279L7.57883 1.68175ZM5.88178 3.37881L6.70282 3.59881L5.88178 3.37881ZM7.05498 13.9525L7.7265 13.4314H7.72649L7.05498 13.9525ZM10.945 13.9525L10.2735 13.4314L10.2735 13.4314L10.945 13.9525ZM8.68 6.44998H9.32V4.74998H8.68V6.44998ZM16.15 13.28V13.92H17.85V13.28H16.15ZM9.32 20.75H8.68V22.45H9.32V20.75ZM1.85 13.92V13.28H0.15V13.92H1.85ZM8.68 20.75C7.32185 20.75 6.35435 20.7493 5.59659 20.6874C4.84874 20.6263 4.38033 20.5098 4.00674 20.3195L3.23495 21.8342C3.88814 22.167 4.60518 22.3121 5.45815 22.3818C6.3012 22.4506 7.3499 22.45 8.68 22.45V20.75ZM0.15 13.92C0.15 15.2501 0.149339 16.2988 0.218219 17.1418C0.28791 17.9948 0.432998 18.7118 0.765813 19.365L2.28052 18.5932C2.09017 18.2196 1.97367 17.7512 1.91257 17.0034C1.85066 16.2456 1.85 15.2781 1.85 13.92H0.15ZM4.00674 20.3195C3.2635 19.9408 2.65922 19.3365 2.28052 18.5932L0.765813 19.365C1.3075 20.4281 2.17184 21.2925 3.23495 21.8342L4.00674 20.3195ZM16.15 13.92C16.15 15.2781 16.1493 16.2456 16.0874 17.0034C16.0263 17.7512 15.9098 18.2196 15.7195 18.5932L17.2342 19.365C17.567 18.7118 17.7121 17.9948 17.7818 17.1418C17.8507 16.2988 17.85 15.2501 17.85 13.92H16.15ZM9.32 22.45C10.6501 22.45 11.6988 22.4506 12.5418 22.3818C13.3948 22.3121 14.1119 22.167 14.765 21.8342L13.9933 20.3195C13.6197 20.5098 13.1513 20.6263 12.4034 20.6874C11.6456 20.7493 10.6782 20.75 9.32 20.75V22.45ZM15.7195 18.5932C15.3408 19.3365 14.7365 19.9408 13.9933 20.3195L14.765 21.8342C15.8282 21.2925 16.6925 20.4281 17.2342 19.365L15.7195 18.5932ZM9.32 6.44998C10.6782 6.44998 11.6456 6.45064 12.4034 6.51255C13.1513 6.57365 13.6197 6.69015 13.9933 6.8805L14.765 5.36579C14.1119 5.03297 13.3948 4.88789 12.5418 4.81819C11.6988 4.74931 10.6501 4.74998 9.32 4.74998V6.44998ZM17.85 13.28C17.85 11.9499 17.8507 10.9012 17.7818 10.0581C17.7121 9.20515 17.567 8.48812 17.2342 7.83493L15.7195 8.60671C15.9098 8.9803 16.0263 9.44872 16.0874 10.1966C16.1493 10.9543 16.15 11.9218 16.15 13.28H17.85ZM13.9933 6.8805C14.7365 7.2592 15.3408 7.86347 15.7195 8.60671L17.2342 7.83493C16.6925 6.77181 15.8282 5.90747 14.765 5.36579L13.9933 6.8805ZM8.68 4.74998C7.3499 4.74998 6.3012 4.74931 5.45815 4.81819C4.60518 4.88789 3.88814 5.03297 3.23495 5.36579L4.00674 6.8805C4.38033 6.69015 4.84874 6.57365 5.59659 6.51255C6.35435 6.45064 7.32185 6.44998 8.68 6.44998V4.74998ZM1.85 13.28C1.85 11.9218 1.85066 10.9543 1.91257 10.1966C1.97367 9.44872 2.09017 8.9803 2.28052 8.60671L0.765813 7.83493C0.432998 8.48812 0.28791 9.20515 0.218219 10.0581C0.149339 10.9012 0.15 11.9499 0.15 13.28H1.85ZM3.23495 5.36579C2.17184 5.90747 1.3075 6.77181 0.765813 7.83493L2.28052 8.60671C2.65922 7.86347 3.2635 7.2592 4.00674 6.8805L3.23495 5.36579ZM11.35 4.79998V5.59998H13.05V4.79998H11.35ZM6.65 5.59998V4.79998H4.95V5.59998H6.65ZM9 2.44998C9.7987 2.44998 10.0313 2.45728 10.2012 2.50279L10.6412 0.860717C10.2006 0.742675 9.68925 0.749976 9 0.749976V2.44998ZM13.05 4.79998C13.05 4.11072 13.0573 3.59935 12.9393 3.15881L11.2972 3.59881C11.3427 3.76867 11.35 4.00127 11.35 4.79998H13.05ZM10.2012 2.50279C10.7361 2.64611 11.1539 3.06391 11.2972 3.59881L12.9393 3.15881C12.6387 2.03726 11.7627 1.16123 10.6412 0.860717L10.2012 2.50279ZM9 0.749976C8.31075 0.749976 7.79938 0.742675 7.35884 0.860717L7.79883 2.50279C7.96869 2.45728 8.2013 2.44998 9 2.44998V0.749976ZM6.65 4.79998C6.65 4.00127 6.6573 3.76867 6.70282 3.59881L5.06074 3.15881C4.9427 3.59935 4.95 4.11072 4.95 4.79998H6.65ZM7.35884 0.860717C6.23729 1.16123 5.36126 2.03726 5.06074 3.15881L6.70282 3.59881C6.84614 3.06391 7.26394 2.64611 7.79883 2.50279L7.35884 0.860717ZM7.45 12.64C7.45 11.9266 8.08777 11.25 9 11.25V9.54998C7.26126 9.54998 5.75 10.8791 5.75 12.64H7.45ZM9 11.25C9.91223 11.25 10.55 11.9266 10.55 12.64H12.25C12.25 10.8791 10.7387 9.54998 9 9.54998V11.25ZM7.72649 13.4314C7.54886 13.2025 7.45 12.9303 7.45 12.64H5.75C5.75 13.3302 5.98863 13.9649 6.38346 14.4736L7.72649 13.4314ZM6.55 14.3445V15.44H8.25V14.3445H6.55ZM7.96 16.85H10.04V15.15H7.96V16.85ZM10.55 12.64C10.55 12.9303 10.4511 13.2025 10.2735 13.4314L11.6165 14.4736C12.0114 13.9649 12.25 13.3302 12.25 12.64H10.55ZM11.45 15.44V14.3445H9.75V15.44H11.45ZM10.2735 13.4314C10.3111 13.3829 10.3398 13.363 10.3049 13.3926C10.3041 13.3933 10.217 13.465 10.1794 13.4979C10.1283 13.5428 10.038 13.625 9.9571 13.7348C9.87943 13.8403 9.75 14.0522 9.75 14.3445H11.45C11.45 14.456 11.4247 14.5477 11.398 14.6128C11.3722 14.676 11.3431 14.7196 11.326 14.7427C11.3086 14.7664 11.2954 14.78 11.2927 14.7828C11.2896 14.786 11.2908 14.7844 11.2998 14.7766C11.3088 14.7687 11.3203 14.7589 11.3386 14.7438C11.3539 14.7312 11.3799 14.7099 11.4033 14.6901C11.4277 14.6695 11.46 14.6415 11.4936 14.6092C11.5263 14.5779 11.5714 14.5319 11.6165 14.4736L10.2735 13.4314ZM10.04 16.85C10.8187 16.85 11.45 16.2187 11.45 15.44H9.75C9.75 15.2798 9.87984 15.15 10.04 15.15V16.85ZM6.55 15.44C6.55 16.2187 7.18128 16.85 7.96 16.85V15.15C8.12016 15.15 8.25 15.2798 8.25 15.44H6.55ZM6.38346 14.4736C6.42864 14.5319 6.47375 14.5779 6.50638 14.6092C6.54003 14.6415 6.57232 14.6695 6.59669 14.6901C6.6201 14.7099 6.64609 14.7312 6.66136 14.7438C6.67967 14.7589 6.69121 14.7687 6.70023 14.7766C6.70915 14.7844 6.71044 14.786 6.70733 14.7828C6.70462 14.78 6.69137 14.7664 6.67395 14.7427C6.65694 14.7196 6.6278 14.676 6.60197 14.6128C6.57534 14.5477 6.55 14.456 6.55 14.3445H8.25C8.25 14.0522 8.12057 13.8403 8.0429 13.7348C7.96204 13.625 7.87175 13.5428 7.82055 13.4979C7.78296 13.465 7.69594 13.3933 7.69511 13.3926C7.6602 13.363 7.68887 13.3829 7.7265 13.4314L6.38346 14.4736Z" fill="black" fill-opacity="0.2"/>
</svg>
