<svg width="15" height="20" viewBox="0 0 15 20" fill="none" xmlns="http://www.w3.org/2000/svg">
<path d="M7.38197 2.98262L7.17662 2.55268C7.03813 2.26224 6.96899 2.11709 6.89478 2.00239C6.34763 1.15677 5.26258 0.789318 4.26082 1.11C4.12495 1.15349 3.97207 1.22267 3.6659 1.36241C1.99522 2.21055 1.79187 5.53373 1.84556 6.03268C1.84556 6.03268 1.70836 7.65778 3.62204 11.6711C5.53573 15.6844 7.10167 17.0562 7.10167 17.0562C7.98675 17.8964 10.1913 19.3998 11.929 18.6923C12.2351 18.5526 12.3881 18.4825 12.5095 18.4086C13.4043 17.8637 13.8135 16.8137 13.5027 15.8602C13.4606 15.7309 13.3915 15.5856 13.253 15.2951L13.048 14.8652C12.8251 14.3976 12.6773 14.0883 12.5358 13.8627C12.4152 13.6704 12.2274 13.5296 12.0255 13.4128C11.1529 12.9081 9.30715 13.1775 8.39161 12.742C8.29684 12.6969 8.20496 12.6457 8.11624 12.5888C8.02555 12.5307 7.93947 12.4675 7.86373 12.3923C7.628 12.1583 7.0767 11.5496 6.60941 10.5696C6.00451 9.301 6.02971 8.44065 6.0305 8.41793L6.03064 8.41644C6.04145 8.1495 6.09321 7.88816 6.1812 7.6387C6.50603 6.71776 7.82422 5.51293 7.90257 4.55474C7.91416 4.41292 7.91437 4.26993 7.8766 4.13425C7.80036 3.86042 7.64284 3.52971 7.38197 2.98262Z" stroke="#4A525D" stroke-width="1.7" stroke-linecap="round" stroke-linejoin="round"/>
</svg>
