<svg width="100" height="52" viewBox="0 0 100 52" fill="none" xmlns="http://www.w3.org/2000/svg">
<path fill-rule="evenodd" clip-rule="evenodd" d="M50 51.3387C77.6143 51.3387 100 39.9937 100 26C100 12.0063 77.6143 0.661377 50 0.661377C22.3863 0.661377 0 12.0063 0 26C0 39.9937 22.3863 51.3387 50 51.3387Z" fill="#6E81B6"/>
<path fill-rule="evenodd" clip-rule="evenodd" d="M60.1333 34.1898L62.6134 21.4253C63.1732 18.5443 62.7077 16.3955 61.2306 15.0376C59.7995 13.7238 57.3702 13.0847 53.8042 13.0847H49.5091L50.7376 6.76045C50.7607 6.64275 50.7573 6.52141 50.7279 6.40514C50.6985 6.28887 50.6437 6.18055 50.5675 6.08796C50.4912 5.99537 50.3955 5.9208 50.287 5.86961C50.1785 5.81842 50.0601 5.79187 49.9401 5.79187H44.012C43.6226 5.79187 43.2882 6.06818 43.2139 6.45029L40.5796 20.0014C40.3402 18.4766 39.7501 17.1658 38.8057 16.0841C37.0668 14.0938 34.3164 13.0847 30.6301 13.0847H19.1401C18.7508 13.0847 18.4164 13.361 18.342 13.7425L13.0112 41.1725C12.9646 41.4113 13.0269 41.6567 13.1817 41.8442C13.3359 42.0322 13.5656 42.1404 13.8093 42.1404H19.784C20.1734 42.1404 20.5077 41.8641 20.5821 41.4814L21.8717 34.847H26.3193C28.653 34.847 30.6144 34.5943 32.1453 34.0961C33.7106 33.587 35.1514 32.7236 36.4211 31.535C37.4471 30.5924 38.2948 29.5367 38.9471 28.3982L37.8824 33.8784C37.8359 34.1173 37.8981 34.3639 38.0529 34.5502C38.2071 34.7382 38.4375 34.8464 38.6805 34.8464H44.6087C44.9981 34.8464 45.3324 34.5701 45.4068 34.1886L48.3325 19.132H52.4003C54.1337 19.132 54.6416 19.4772 54.78 19.6254C54.9052 19.7608 55.1652 20.2378 54.8732 21.7415L52.5152 33.8778C52.4926 33.9955 52.4962 34.1167 52.5259 34.2328C52.5555 34.3489 52.6104 34.457 52.6866 34.5495C52.7628 34.6419 52.8585 34.7164 52.9668 34.7676C53.0752 34.8189 53.1934 34.8456 53.3133 34.8458H59.3358C59.5242 34.8462 59.7069 34.7809 59.8525 34.6612C59.998 34.5415 60.0973 34.3748 60.1333 34.1898ZM32.6489 23.643C32.2765 25.5566 31.5751 26.9212 30.563 27.6993C29.5352 28.492 27.8912 28.8934 25.6766 28.8934H23.0284L24.9432 19.0395H28.3671C30.8822 19.0395 31.8956 19.577 32.3025 20.0274C32.8666 20.6526 32.9863 21.9035 32.6489 23.643ZM85.1043 16.0841C83.366 14.0938 80.6156 13.0847 76.9293 13.0847H65.4393C65.0493 13.0847 64.7156 13.361 64.6412 13.7425L59.311 41.1725C59.2638 41.4113 59.3261 41.6567 59.4809 41.8442C59.6357 42.0316 59.866 42.1404 60.1079 42.1404H66.0832C66.4732 42.1404 66.8069 41.8641 66.8813 41.4814L68.1709 34.847H72.6191C74.9535 34.847 76.913 34.5943 78.4445 34.0961C80.0104 33.587 81.4512 32.7236 82.7203 31.535C83.7795 30.5621 84.6508 29.4684 85.311 28.2876C85.9713 27.1068 86.4447 25.79 86.721 24.3727C87.4 20.8775 86.8564 18.089 85.1043 16.0841ZM79.2873 23.643C78.9143 25.5566 78.2129 26.9212 77.202 27.6993C76.1736 28.492 74.5296 28.8934 72.3155 28.8934H69.6668L71.5809 19.0395H75.0055C77.5206 19.0395 78.534 19.577 78.9415 20.0274C79.5043 20.6526 79.6247 21.9035 79.2873 23.643Z" fill="white"/>
<path fill-rule="evenodd" clip-rule="evenodd" d="M28.1971 18.2264C30.4668 18.2264 31.9802 18.6454 32.7365 19.4834C33.4923 20.3214 33.6725 21.7604 33.277 23.7985C32.8635 25.9213 32.0678 27.4364 30.8888 28.3445C29.7098 29.2527 27.9154 29.7061 25.5066 29.7061H21.8717L24.1027 18.2264H28.1971ZM13.6387 41.3273H19.6134L21.0313 34.0351H26.1493C28.4075 34.0351 30.2655 33.7975 31.7238 33.3229C33.1821 32.8483 34.508 32.0532 35.7009 30.9365C36.7022 30.0169 37.5123 29.0011 38.1327 27.8911C38.7524 26.781 39.1926 25.5567 39.4531 24.2175C40.0856 20.9659 39.6085 18.4332 38.0232 16.6194C36.4386 14.8049 33.9167 13.898 30.4602 13.898H18.9701L13.6387 41.3273ZM43.8414 6.60522H49.7696L48.3524 13.898H53.6343C56.956 13.898 59.2493 14.4772 60.5105 15.6363C61.7718 16.7953 62.1497 18.6738 61.6454 21.2706L59.1653 34.0351H53.1428L55.5007 21.8982C55.7686 20.5173 55.6706 19.5759 55.2045 19.0735C54.7383 18.5716 53.7462 18.3201 52.2298 18.3201H47.4921L44.4382 34.0351H38.51L43.8414 6.60522ZM74.8356 18.2264C77.1053 18.2264 78.618 18.6454 79.375 19.4834C80.1308 20.3214 80.3104 21.7604 79.9149 23.7985C79.5026 25.9213 78.7069 27.4364 77.5273 28.3445C76.3489 29.2527 74.5539 29.7061 72.1463 29.7061H68.5114L70.7418 18.2264H74.8356ZM60.276 41.3273H66.2513L67.6685 34.0351H72.7866C75.0454 34.0351 76.9034 33.7975 78.3617 33.3229C79.82 32.8483 81.1459 32.0532 82.3388 30.9365C83.3401 30.0169 84.1502 29.0011 84.77 27.8911C85.3897 26.781 85.8305 25.5567 86.0916 24.2175C86.7235 20.9659 86.2464 18.4332 84.6617 16.6194C83.0758 14.8049 80.5546 13.898 77.098 13.898H65.608L60.276 41.3273Z" fill="black"/>
</svg>
