<svg width="24" height="24" viewBox="0 0 24 24" fill="none" xmlns="http://www.w3.org/2000/svg">
<g clip-path="url(#clip0_11916_13876)">
<rect width="24" height="24" rx="12" fill="white"/>
<path d="M21.4975 4.6651C20.0468 2.78654 18.0715 1.38039 15.8216 0.624473C13.5717 -0.13144 11.1482 -0.203156 8.85749 0.418395C6.56681 1.03995 4.51191 2.32684 2.95266 4.11633C1.39341 5.90582 0.399862 8.11752 0.0976677 10.4717C-0.204527 12.8259 0.198208 15.2168 1.25494 17.3421C2.31167 19.4674 3.97492 21.2316 6.03435 22.4115C8.09378 23.5915 10.4569 24.1342 12.8248 23.9711C15.1926 23.8079 17.459 22.9462 19.3371 21.495C24.5796 17.4435 25.5471 9.90943 21.4971 4.6651H21.4975Z" fill="#FF6C37"/>
<path d="M16.0468 7.64554L10.987 12.7455L9.55713 11.2755C14.5371 6.29555 15.0369 6.74555 16.0472 7.64554H16.0468Z" fill="white"/>
<path d="M10.9875 12.885C10.9427 12.8839 10.8999 12.8661 10.8675 12.8351L9.42749 11.3952C9.39507 11.3616 9.37695 11.3168 9.37695 11.2701C9.37695 11.2234 9.39507 11.1786 9.42749 11.145C14.3373 6.2352 15.0074 6.46508 16.1673 7.51507C16.1867 7.53061 16.2023 7.55046 16.2127 7.57304C16.2231 7.59563 16.2281 7.62033 16.2273 7.64519C16.2348 7.69394 16.2161 7.74381 16.1774 7.77531L11.1176 12.8355C11.0821 12.868 11.0356 12.8859 10.9875 12.8854V12.885ZM9.80737 11.2752L10.9875 12.4553L15.7874 7.65532C15.6217 7.44762 15.3852 7.30831 15.1232 7.26403C14.8612 7.21976 14.5921 7.27362 14.3673 7.41532C13.4973 7.80531 12.0975 8.99518 9.80737 11.2752Z" fill="#FF6C37"/>
<path d="M12.4371 14.1554L11.0571 12.7454L16.117 7.74524C17.4771 9.07534 15.457 11.2953 12.4371 14.155V14.1554Z" fill="white"/>
<path d="M12.4379 14.3356C12.3937 14.3321 12.3517 14.3146 12.3179 14.2857L10.908 12.9057C10.8868 12.8545 10.8868 12.7969 10.908 12.7456C10.893 12.7035 10.893 12.6576 10.908 12.6155L15.9678 7.55568C16.003 7.52262 16.0494 7.50421 16.0977 7.50421C16.146 7.50421 16.1925 7.52262 16.2277 7.55568C16.3915 7.7065 16.521 7.89083 16.6072 8.09615C16.6935 8.30147 16.7345 8.52295 16.7275 8.74554C16.7275 10.0955 15.1874 11.7954 12.5677 14.2756C12.5327 14.3102 12.4866 14.3315 12.4376 14.3356H12.4379ZM11.3178 12.7456L12.4477 13.8751C14.4475 11.9851 16.3578 10.0352 16.3675 8.71517C16.3784 8.43534 16.2859 8.16129 16.1077 7.9453L11.3178 12.7456Z" fill="#FF6C37"/>
<path d="M9.59763 11.3055L10.5977 12.3056C10.6041 12.3112 10.6092 12.3181 10.6127 12.3259C10.6163 12.3336 10.6181 12.3421 10.6181 12.3506C10.6181 12.3591 10.6163 12.3675 10.6127 12.3753C10.6092 12.383 10.6041 12.3899 10.5977 12.3956L8.48765 12.8456C8.44505 12.8548 8.40062 12.8498 8.36112 12.8314C8.32161 12.813 8.2892 12.7822 8.26882 12.7437C8.24844 12.7052 8.2412 12.661 8.24821 12.618C8.25522 12.575 8.27609 12.5355 8.30765 12.5054L9.53763 11.2856C9.53763 11.2856 9.57776 11.2856 9.59763 11.3055Z" fill="white"/>
<path d="M8.43728 13.0455C8.37061 13.0447 8.30527 13.0268 8.24749 12.9935C8.18972 12.9602 8.14145 12.9127 8.10728 12.8554C8.06883 12.7829 8.05488 12.6999 8.06752 12.6188C8.08016 12.5377 8.11871 12.4628 8.17741 12.4054L9.39727 11.1754C9.44126 11.1361 9.4982 11.1144 9.5572 11.1144C9.61621 11.1144 9.67314 11.1361 9.71714 11.1754L10.7172 12.1756C10.7765 12.2318 10.7997 12.3169 10.7772 12.3957C10.7547 12.4744 10.6888 12.5371 10.6074 12.5558L8.49728 13.0058L8.43728 13.0455ZM9.55739 11.5257L8.42753 12.6556L10.2976 12.2554L9.55739 11.5257Z" fill="#FF6C37"/>
<path d="M18.7373 4.83533C18.0135 4.13709 16.8765 4.10784 16.1175 4.76671C15.3585 5.42558 15.2287 6.55657 15.8197 7.37031C16.4107 8.18405 17.5249 8.41205 18.3874 7.89531L17.0272 6.53519L18.7373 4.83533Z" fill="white"/>
<path d="M17.3875 8.35506C16.9717 8.34973 16.5666 8.22215 16.2228 7.98823C15.879 7.75431 15.6116 7.42438 15.454 7.03957C15.2965 6.65504 15.2552 6.23277 15.3351 5.82501C15.4151 5.41724 15.6129 5.04187 15.904 4.74533C16.3044 4.35232 16.843 4.13214 17.404 4.13214C17.965 4.13214 18.5036 4.35232 18.904 4.74533C18.9422 4.77758 18.964 4.82521 18.964 4.87546C18.9639 4.90018 18.9585 4.92459 18.9481 4.94704C18.9378 4.96949 18.9227 4.98946 18.904 5.00558L17.284 6.53557L18.514 7.74569C18.5339 7.76472 18.5489 7.78834 18.5576 7.81449C18.5663 7.84063 18.5684 7.86851 18.5639 7.89569C18.5609 7.9219 18.5522 7.94715 18.5384 7.96964C18.5246 7.99212 18.506 8.0113 18.484 8.02581C18.1536 8.23235 17.7737 8.34632 17.3841 8.35581L17.3875 8.35506ZM17.3875 4.47496C16.675 4.47871 16.0375 4.90733 15.7701 5.56245C15.5027 6.21757 15.6482 6.97169 16.1477 7.47494C16.3962 7.72483 16.7143 7.89387 17.0605 7.95991C17.4066 8.02595 17.7646 7.98592 18.0876 7.84506L16.9075 6.66494C16.8887 6.64994 16.8736 6.63091 16.8632 6.60926C16.8528 6.58762 16.8474 6.5639 16.8474 6.53988C16.8474 6.51586 16.8528 6.49215 16.8632 6.4705C16.8736 6.44885 16.8887 6.42982 16.9075 6.41482L18.4675 4.84471C18.1574 4.60704 17.7782 4.47709 17.3875 4.47458V4.47496Z" fill="#FF6C37"/>
<path d="M18.7671 4.86536L17.0571 6.56521L18.4172 7.92532C18.5541 7.84673 18.6816 7.75275 18.7971 7.6452C19.1536 7.26841 19.3497 6.76787 19.3441 6.24921C19.3385 5.73055 19.1316 5.23436 18.7671 4.86536Z" fill="white"/>
<path d="M18.3874 8.07534C18.3649 8.07655 18.3425 8.0727 18.3217 8.06407C18.301 8.05543 18.2824 8.04224 18.2674 8.02546L16.9073 6.66534C16.8885 6.65034 16.8734 6.63131 16.863 6.60967C16.8526 6.58802 16.8472 6.5643 16.8472 6.54028C16.8472 6.51626 16.8526 6.49255 16.863 6.4709C16.8734 6.44925 16.8885 6.43022 16.9073 6.41522L18.6072 4.74536C18.6236 4.7206 18.6459 4.7003 18.672 4.68625C18.6982 4.67221 18.7275 4.66486 18.7572 4.66486C18.7869 4.66486 18.8161 4.67221 18.8423 4.68625C18.8684 4.7003 18.8907 4.7206 18.9072 4.74536C19.1067 4.94088 19.2652 5.17426 19.3735 5.43183C19.4817 5.68939 19.5375 5.96597 19.5375 6.24535C19.5375 6.52473 19.4817 6.8013 19.3735 7.05887C19.2652 7.31643 19.1067 7.54981 18.9072 7.74534C18.7894 7.87019 18.6547 7.97787 18.507 8.06521C18.4698 8.08396 18.4268 8.08758 18.387 8.07534H18.3874ZM17.2875 6.5356L18.4174 7.66546C18.4951 7.61099 18.5687 7.55082 18.6375 7.48546C18.9697 7.15422 19.1567 6.70468 19.1577 6.2356C19.1584 5.8158 19.0054 5.41027 18.7275 5.0956L17.2875 6.5356Z" fill="#FF6C37"/>
<path d="M16.2577 7.85552C16.1223 7.72833 15.9435 7.65753 15.7577 7.65753C15.5719 7.65753 15.3931 7.72833 15.2576 7.85552L10.728 12.375L11.478 13.1351L16.2679 8.93514C16.3409 8.86513 16.3988 8.78091 16.4381 8.68767C16.4774 8.59442 16.4972 8.49413 16.4962 8.39295C16.4953 8.29178 16.4736 8.19187 16.4326 8.09938C16.3916 8.00689 16.3321 7.92377 16.2577 7.85515V7.85552Z" fill="white"/>
<path d="M11.437 13.3155C11.3922 13.3144 11.3494 13.2967 11.317 13.2657L10.5569 12.5055C10.5245 12.472 10.5063 12.4271 10.5063 12.3805C10.5063 12.3338 10.5245 12.289 10.5569 12.2554L15.0869 7.74534C15.2173 7.61502 15.3839 7.52691 15.5651 7.49243C15.7463 7.45795 15.9336 7.47869 16.1028 7.55197C16.2721 7.62524 16.4154 7.74767 16.5142 7.90338C16.613 8.05909 16.6627 8.24089 16.657 8.42521C16.6518 8.55032 16.6217 8.67313 16.5684 8.78646C16.5152 8.89979 16.4398 9.00135 16.3468 9.0852L11.557 13.2852C11.5222 13.3098 11.4794 13.3205 11.437 13.3152V13.3155ZM10.9071 12.375L11.407 12.885L16.1068 8.79495C16.2231 8.69371 16.2925 8.54896 16.297 8.39483C16.3015 8.24071 16.2407 8.08996 16.1271 7.98496C16.0222 7.88047 15.8801 7.82181 15.732 7.82181C15.5839 7.82181 15.4419 7.88047 15.337 7.98496L10.9071 12.375Z" fill="#FF6C37"/>
<path d="M7.21744 17.5252C7.20465 17.5425 7.19775 17.5636 7.19775 17.5852C7.19775 17.6067 7.20465 17.6278 7.21744 17.6452L7.41731 18.5151C7.42532 18.5663 7.41773 18.6188 7.39552 18.6656C7.37332 18.7124 7.33753 18.7515 7.29281 18.7776C7.24826 18.8037 7.19659 18.815 7.14523 18.8098C7.09388 18.8046 7.0455 18.7832 7.00707 18.7488L5.63721 17.4288L9.90728 13.1249H11.3874L12.3875 14.1251C10.8274 15.4891 9.0879 16.6331 7.21744 17.5252Z" fill="white"/>
<path d="M7.12751 18.9953C7.01426 18.993 6.90251 18.9465 6.82751 18.8652L5.51765 17.5553C5.49889 17.5403 5.48374 17.5213 5.47333 17.4996C5.46292 17.478 5.45752 17.4543 5.45752 17.4302C5.45752 17.4062 5.46292 17.3825 5.47333 17.3609C5.48374 17.3392 5.49889 17.3202 5.51765 17.3052L9.81736 12.9953C9.84143 12.9698 9.8729 12.9523 9.90736 12.9455H11.3972C11.436 12.9317 11.4784 12.9317 11.5172 12.9455L12.5173 13.9456C12.5364 13.9631 12.5508 13.985 12.5595 14.0094C12.5682 14.0337 12.5708 14.0599 12.5672 14.0855C12.5679 14.1103 12.5629 14.135 12.5525 14.1576C12.542 14.1801 12.5266 14.2 12.5072 14.2156L12.4273 14.2857C10.8609 15.5916 9.13763 16.6967 7.29738 17.5756L7.4875 18.3856C7.5022 18.448 7.50276 18.513 7.48915 18.5757C7.47554 18.6385 7.44809 18.6974 7.40882 18.7481C7.36955 18.7989 7.31943 18.8403 7.26214 18.8692C7.20484 18.8982 7.14181 18.9139 7.07763 18.9154L7.12751 18.9953ZM5.90764 17.4252L7.08738 18.615C7.09838 18.6249 7.11259 18.6303 7.12732 18.6303C7.14205 18.6303 7.15627 18.6249 7.16726 18.615C7.17461 18.6048 7.17857 18.5926 7.17857 18.58C7.17857 18.5674 7.17461 18.5551 7.16726 18.5449L6.96738 17.6749C6.95163 17.6125 6.95796 17.5465 6.9853 17.4882C7.01264 17.4299 7.05931 17.3829 7.11738 17.3551C8.90815 16.488 10.587 15.4067 12.1172 14.135L11.2971 13.3148H9.95723L5.90764 17.4252Z" fill="#FF6C37"/>
<path d="M4.6079 18.4552L5.60801 17.4551L7.14812 18.9952L4.69827 18.8253C4.65621 18.822 4.61626 18.8055 4.58413 18.7782C4.552 18.7508 4.52933 18.714 4.51935 18.673C4.50937 18.632 4.5126 18.5889 4.52857 18.5499C4.54453 18.5108 4.57243 18.4778 4.60827 18.4556L4.6079 18.4552Z" fill="white"/>
<path d="M7.17757 19.1453L4.73747 18.9755C4.59273 18.962 4.46823 18.863 4.41723 18.7306C4.36623 18.5982 4.39735 18.4411 4.49748 18.3353L5.49759 17.3352C5.53115 17.3028 5.57599 17.2847 5.62265 17.2847C5.66931 17.2847 5.71415 17.3028 5.74771 17.3352L7.27769 18.8652C7.29887 18.8942 7.31029 18.9292 7.31029 18.9651C7.31029 19.0011 7.29887 19.0361 7.27769 19.0651C7.25456 19.1025 7.21918 19.1307 7.17757 19.145V19.1453ZM4.73747 18.5855L6.73732 18.7156L5.63746 17.6855L4.73747 18.5855Z" fill="#FF6C37"/>
<path d="M11.5274 13.2457L9.50732 13.5558L10.6773 12.3959L11.5274 13.2457Z" fill="white"/>
<path d="M9.50735 13.7452C9.47378 13.7461 9.44069 13.7371 9.41221 13.7193C9.38374 13.7015 9.36114 13.6757 9.34723 13.6451C9.32594 13.6161 9.31445 13.5811 9.31445 13.5452C9.31445 13.5092 9.32594 13.4742 9.34723 13.4452L10.5071 12.2752C10.5423 12.2422 10.5887 12.2238 10.637 12.2238C10.6853 12.2238 10.7318 12.2422 10.7669 12.2752L11.6174 13.125C11.6344 13.1519 11.6434 13.1831 11.6434 13.215C11.6434 13.2468 11.6344 13.278 11.6174 13.305C11.6091 13.3378 11.5915 13.3676 11.5667 13.3906C11.5418 13.4137 11.5109 13.4292 11.4776 13.4351L9.47773 13.7452H9.50735ZM10.6773 12.6551L10.0275 13.305L11.1476 13.1351L10.6773 12.6551Z" fill="#FF6C37"/>
<path d="M11.5278 13.2451L10.1178 13.4251C10.0801 13.4337 10.0406 13.4298 10.0052 13.4142C9.96979 13.3985 9.94038 13.3719 9.92132 13.3382C9.90225 13.3046 9.89454 13.2657 9.89933 13.2273C9.90413 13.1889 9.92116 13.153 9.94792 13.1251L10.678 12.395L11.5278 13.2451Z" fill="white"/>
<path d="M10.0769 13.6155C10.0116 13.6149 9.94753 13.597 9.89135 13.5636C9.83516 13.5302 9.78882 13.4825 9.75704 13.4254C9.71885 13.3569 9.70405 13.2779 9.71488 13.2003C9.72571 13.1226 9.76158 13.0507 9.81704 12.9953L10.5472 12.2651C10.5823 12.2321 10.6288 12.2137 10.6771 12.2137C10.7254 12.2137 10.7718 12.2321 10.807 12.2651L11.6571 13.1153C11.6824 13.1392 11.7002 13.17 11.7084 13.2039C11.7165 13.2377 11.7146 13.2732 11.703 13.306C11.6914 13.3389 11.6705 13.3676 11.6428 13.3888C11.6152 13.41 11.582 13.4227 11.5473 13.4254L10.1474 13.6054L10.0769 13.6155ZM10.0769 13.2454L11.137 13.1153L10.6672 12.6454L10.0672 13.2454H10.0769ZM18.7768 6.01543C18.758 5.98388 18.7282 5.96034 18.6932 5.94928C18.6581 5.93822 18.6203 5.94041 18.5867 5.95543C18.5702 5.96382 18.5555 5.97544 18.5435 5.98962C18.5315 6.00379 18.5225 6.02022 18.517 6.03793C18.5058 6.07368 18.5093 6.11239 18.5267 6.14556C18.5968 6.29293 18.5773 6.4673 18.4768 6.59555C18.4644 6.60791 18.4546 6.62272 18.4481 6.63905C18.4417 6.65538 18.4387 6.67288 18.4393 6.69043C18.4397 6.7256 18.4531 6.75939 18.4768 6.7853C18.5025 6.79543 18.5311 6.79543 18.5567 6.7853C18.58 6.79116 18.6044 6.79051 18.6274 6.78344C18.6503 6.77636 18.6709 6.76313 18.6868 6.74518C18.7692 6.64436 18.8213 6.52231 18.8373 6.39311C18.8532 6.26392 18.8322 6.13285 18.7768 6.01506V6.01543Z" fill="#FF6C37"/>
</g>
<defs>
<clipPath id="clip0_11916_13876">
<rect width="24" height="24" rx="12" fill="white"/>
</clipPath>
</defs>
</svg>
