<svg width="24" height="24" viewBox="0 0 24 24" fill="none" xmlns="http://www.w3.org/2000/svg">
<rect width="24" height="24" rx="12" fill="white"/>
<path d="M18.963 13.4332C18.8788 13.1777 18.6584 12.9997 18.3733 12.957C18.2389 12.9368 18.085 12.9454 17.9028 12.9831C17.5853 13.0488 17.3498 13.0738 17.1779 13.0786C17.8267 11.98 18.3544 10.7272 18.6581 9.54796C19.1493 7.64109 18.8868 6.77239 18.5801 6.37946C17.7684 5.33941 16.5842 4.78069 15.1555 4.7636C14.3933 4.75425 13.7243 4.90515 13.3752 5.01366C13.0503 4.95616 12.7008 4.92406 12.3342 4.91812C11.647 4.90713 11.0397 5.05736 10.5209 5.36613C10.2336 5.26872 9.77258 5.13141 9.24018 5.04378C7.988 4.83764 6.97879 4.99827 6.24059 5.5212C5.34672 6.15435 4.93234 7.25442 5.00898 8.79085C5.03332 9.27866 5.30544 10.7629 5.7339 12.1704C5.98015 12.9795 6.24273 13.6514 6.51436 14.1675C6.89957 14.8995 7.31176 15.3305 7.77448 15.4853C8.03383 15.5719 8.50506 15.6326 9.00067 15.2187C9.0635 15.295 9.14732 15.3708 9.25854 15.4412C9.39981 15.5305 9.57255 15.6035 9.74506 15.6468C10.3668 15.8026 10.9491 15.7636 11.4459 15.5452C11.449 15.6338 11.4514 15.7185 11.4533 15.7916C11.4566 15.9101 11.4599 16.0264 11.4642 16.1351C11.4937 16.8703 11.5436 17.442 11.6914 17.8419C11.6995 17.8639 11.7104 17.8974 11.7219 17.933C11.7956 18.1594 11.9189 18.5383 12.2326 18.8351C12.5574 19.1426 12.9503 19.2369 13.3101 19.2369C13.4906 19.2369 13.6628 19.2131 13.8138 19.1807C14.3521 19.065 14.9635 18.8887 15.4058 18.2572C15.8239 17.6602 16.0272 16.7611 16.064 15.3443C16.0688 15.3043 16.0731 15.266 16.0774 15.2296L16.0861 15.1547L16.1846 15.1634L16.21 15.1651C16.7583 15.1901 17.4288 15.0735 17.8405 14.8818C18.1659 14.7304 19.2085 14.1784 18.963 13.4332Z" fill="black"/>
<path d="M18.0251 13.5781C16.3948 13.9153 16.2827 13.3618 16.2827 13.3618C18.004 10.8006 18.7236 7.54946 18.1027 6.75376C16.4086 4.58324 13.476 5.60977 13.4271 5.63637L13.4113 5.63923C13.0892 5.57217 12.7288 5.53226 12.3236 5.52561C11.586 5.51351 11.0264 5.71954 10.6017 6.04244C10.6017 6.04244 5.37036 3.88132 5.6137 8.76041C5.66545 9.79836 7.09732 16.6142 8.80516 14.5555C9.42938 13.8027 10.0326 13.1662 10.0326 13.1662C10.3321 13.3657 10.6907 13.4675 11.0667 13.431L11.0959 13.4061C11.0868 13.4996 11.0909 13.591 11.1076 13.6992C10.6676 14.1922 10.7969 14.2787 9.91738 14.4603C9.02739 14.6442 9.5502 14.9716 9.89156 15.0572C10.3054 15.161 11.2627 15.308 11.9096 14.3999L11.8838 14.5035C12.0562 14.642 12.1772 15.4041 12.157 16.095C12.1367 16.7859 12.1231 17.2602 12.2589 17.6307C12.3948 18.0012 12.5302 18.8349 13.6864 18.5865C14.6525 18.3788 15.1531 17.8408 15.2228 16.9434C15.2722 16.3054 15.3841 16.3997 15.3911 15.8293L15.4809 15.5593C15.5843 14.6944 15.4973 14.4154 16.0925 14.5452L16.2372 14.5579C16.6752 14.5779 17.2486 14.4872 17.5851 14.3304C18.3097 13.9932 18.7395 13.4302 18.025 13.5781H18.0251Z" fill="#336791"/>
<path d="M10.9089 9.22461C10.762 9.2041 10.629 9.22307 10.5616 9.27419C10.5238 9.30294 10.5121 9.33625 10.5089 9.35917C10.5005 9.41992 10.5429 9.48709 10.569 9.52172C10.6428 9.61979 10.7505 9.68718 10.8572 9.70202C10.8727 9.70422 10.8881 9.70521 10.9034 9.70521C11.0813 9.70521 11.243 9.5663 11.2573 9.46378C11.2751 9.33537 11.0892 9.24978 10.9089 9.22466V9.22461ZM15.776 9.22868C15.7619 9.12802 15.5833 9.09933 15.4138 9.12297C15.2446 9.14661 15.0804 9.22323 15.0941 9.3241C15.1051 9.40255 15.2464 9.53645 15.4136 9.53645C15.4277 9.53645 15.442 9.53552 15.4563 9.53349C15.5679 9.51798 15.6498 9.44691 15.6888 9.40595C15.748 9.34351 15.7823 9.27392 15.776 9.22868Z" fill="white"/>
<path d="M18.5673 13.5399C18.5051 13.3514 18.305 13.2908 17.9726 13.3596C16.9856 13.5639 16.6321 13.4224 16.5161 13.3367C17.2833 12.1647 17.9144 10.748 18.2549 9.42623C18.4162 8.80011 18.5052 8.21863 18.5125 7.74467C18.5206 7.22448 18.4322 6.84222 18.25 6.6087C17.5153 5.66733 16.437 5.16237 15.1318 5.14852C14.2345 5.1384 13.4763 5.36867 13.3293 5.43343C13.0198 5.35625 12.6824 5.30887 12.3151 5.30282C11.6415 5.29188 11.0592 5.4536 10.5771 5.78326C10.3677 5.70509 9.82651 5.5188 9.16468 5.41188C8.0205 5.22718 7.11127 5.36713 6.46243 5.82806C5.68822 6.3781 5.3308 7.36131 5.40003 8.75031C5.42333 9.21761 5.68888 10.6552 6.10791 12.0319C6.6595 13.844 7.25911 14.8698 7.88997 15.0808C7.96381 15.1055 8.04895 15.1228 8.14285 15.1228C8.37298 15.1228 8.65514 15.0188 8.94869 14.6649C9.30675 14.2342 9.67713 13.8139 10.0594 13.4046C10.3074 13.5381 10.5798 13.6126 10.8585 13.6201C10.859 13.6274 10.8597 13.6347 10.8604 13.642C10.8124 13.6993 10.7655 13.7575 10.7195 13.8165C10.5264 14.0623 10.4863 14.1135 9.86477 14.2418C9.68798 14.2784 9.21846 14.3754 9.21155 14.7054C9.20409 15.0661 9.76659 15.2175 9.83068 15.2336C10.054 15.2896 10.2692 15.3173 10.4744 15.3173C10.9734 15.3173 11.4125 15.1528 11.7635 14.8346C11.7527 16.1201 11.8061 17.3869 11.9601 17.7728C12.0862 18.0888 12.3941 18.861 13.3669 18.8609C13.5097 18.8609 13.6668 18.8442 13.8397 18.8071C14.855 18.5889 15.2959 18.1389 15.4664 17.1468C15.5577 16.6166 15.7143 15.3506 15.788 14.6715C15.9434 14.7201 16.1436 14.7424 16.36 14.7423C16.8112 14.7423 17.332 14.6462 17.6585 14.4942C18.0254 14.3233 18.6874 13.9041 18.5673 13.5399ZM16.1495 8.95095C16.1461 9.15143 16.1186 9.33344 16.0894 9.52341C16.058 9.72774 16.0256 9.93899 16.0174 10.1954C16.0093 10.445 16.0404 10.7045 16.0705 10.9554C16.1312 11.4622 16.1935 11.984 15.9523 12.4989C15.9122 12.4277 15.8765 12.3541 15.8454 12.2785C15.8154 12.2056 15.7503 12.0885 15.6601 11.9265C15.3093 11.2956 14.4878 9.81833 14.9083 9.21552C15.0336 9.0361 15.3515 8.85162 16.1495 8.95095ZM15.1822 5.55448C16.3517 5.58037 17.2769 6.01909 17.9318 6.85838C18.4342 7.50214 17.881 10.4314 16.2796 12.9584C16.2635 12.9379 16.2473 12.9174 16.231 12.897L16.2107 12.8716C16.6246 12.1863 16.5437 11.5082 16.4716 10.9071C16.442 10.6604 16.4141 10.4274 16.4212 10.2085C16.4285 9.97648 16.4591 9.77749 16.4887 9.58509C16.5251 9.348 16.5621 9.10267 16.5519 8.81347C16.5595 8.78312 16.5626 8.74728 16.5586 8.70474C16.5325 8.42741 16.2168 7.59741 15.5732 6.84618C15.2211 6.43527 14.7078 5.97544 14.0068 5.6653C14.3083 5.60263 14.7206 5.5442 15.1822 5.55448ZM8.63803 14.4059C8.3146 14.7958 8.09127 14.7211 8.01781 14.6965C7.53924 14.5365 6.98392 13.5221 6.49433 11.9137C6.07069 10.522 5.82313 9.12246 5.8035 8.73002C5.74167 7.48889 6.04169 6.62393 6.6953 6.1591C7.75901 5.4027 9.50785 5.85544 10.2106 6.08505C10.2005 6.09506 10.19 6.1044 10.18 6.11457C9.02681 7.28237 9.05416 9.27759 9.05701 9.39957C9.05691 9.44662 9.06085 9.51324 9.06622 9.60488C9.08607 9.94048 9.12302 10.5651 9.02434 11.2724C8.93269 11.9296 9.13475 12.573 9.57862 13.0374C9.62417 13.085 9.67205 13.1303 9.72208 13.1731C9.52451 13.3853 9.09511 13.8545 8.63803 14.4059ZM9.87031 12.7571C9.51256 12.3828 9.35008 11.8621 9.42447 11.3284C9.52862 10.5813 9.4902 9.93053 9.46953 9.58091C9.46662 9.53199 9.46405 9.48911 9.46257 9.45531C9.63103 9.30551 10.4117 8.88608 10.9684 9.014C11.2225 9.07232 11.3773 9.24581 11.4416 9.54419C11.7747 11.089 11.4857 11.7329 11.2535 12.2503C11.2056 12.3569 11.1604 12.4577 11.1218 12.5619L11.0919 12.6425C11.0161 12.8462 10.9456 13.0357 10.902 13.2155C10.5216 13.2144 10.1516 13.0515 9.87031 12.7571V12.7571ZM9.92869 14.8405C9.81763 14.8127 9.71775 14.7644 9.65915 14.7243C9.7081 14.7012 9.79521 14.6698 9.94629 14.6385C10.6774 14.4877 10.7903 14.3811 11.0369 14.0672C11.0934 13.9952 11.1575 13.9136 11.2463 13.8142L11.2464 13.8141C11.3785 13.6657 11.439 13.6909 11.5487 13.7365C11.6375 13.7733 11.7241 13.885 11.7592 14.0079C11.7758 14.066 11.7944 14.1761 11.7334 14.2619C11.2183 14.9851 10.4677 14.9758 9.92869 14.8405ZM13.755 18.411C12.8606 18.6031 12.5439 18.1455 12.3352 17.6224C12.2005 17.2846 12.1343 15.7616 12.1813 14.0797C12.1819 14.0573 12.1787 14.0357 12.1725 14.0153C12.1671 13.9752 12.1587 13.9355 12.1476 13.8965C12.0777 13.6518 11.9075 13.4471 11.7033 13.3622C11.6222 13.3285 11.4733 13.2666 11.2943 13.3125C11.3325 13.1549 11.3987 12.9768 11.4704 12.7841L11.5005 12.703C11.5344 12.6116 11.5769 12.5168 11.6219 12.4166C11.8649 11.8752 12.1977 11.1337 11.8365 9.4586C11.7012 8.83117 11.2494 8.52476 10.5645 8.59595C10.1539 8.63855 9.77821 8.80467 9.59084 8.89994C9.55055 8.92039 9.51371 8.94017 9.47929 8.95941C9.53158 8.32725 9.72915 7.14582 10.4682 6.39833C10.9336 5.92778 11.5533 5.69536 12.3084 5.7079C13.7962 5.73231 14.7503 6.49794 15.2887 7.13598C15.7527 7.68574 16.0039 8.23957 16.1042 8.53828C15.3501 8.46138 14.8373 8.61063 14.5774 8.98333C14.0118 9.79403 14.8868 11.3675 15.3073 12.1237C15.3844 12.2623 15.4509 12.3821 15.4719 12.433C15.6088 12.7658 15.7861 12.988 15.9155 13.1502C15.9552 13.1999 15.9937 13.2481 16.023 13.2902C15.7946 13.3562 15.3844 13.5087 15.4218 14.2712C15.3916 14.6538 15.1772 16.4451 15.0683 17.078C14.9245 17.9141 14.6177 18.2255 13.755 18.411V18.411ZM17.4884 14.1268C17.2549 14.2354 16.8641 14.317 16.4928 14.3345C16.0828 14.3537 15.874 14.2884 15.8249 14.2483C15.8019 13.7731 15.9783 13.7235 16.1649 13.6709C16.1942 13.6627 16.2229 13.6546 16.2505 13.6449C16.2676 13.6589 16.2864 13.6728 16.3071 13.6865C16.6366 13.9046 17.2245 13.9281 18.0544 13.7563L18.0635 13.7545C17.9515 13.8594 17.76 14.0003 17.4884 14.1268Z" fill="white"/>
</svg>
