<svg width="24" height="24" viewBox="0 0 24 24" fill="none" xmlns="http://www.w3.org/2000/svg">
<rect width="24" height="24" rx="12" fill="white"/>
<path fill-rule="evenodd" clip-rule="evenodd" d="M5.13291 15.3551C4.95818 15.0663 4.95554 14.6983 5.12611 14.4067L11.5483 3.4279C11.9055 2.81726 12.768 2.87066 13.0541 3.52111L18.9211 16.859C19.1387 17.3539 18.8882 17.9361 18.3901 18.0927L9.26361 20.9621C8.89641 21.0775 8.50077 20.9229 8.29551 20.5835L5.13291 15.3551ZM12.2893 6.63802C12.3511 6.31504 12.7734 6.26847 12.8981 6.57086L16.945 16.3849C17.0212 16.5697 16.9264 16.7828 16.7423 16.8403L10.4367 18.813C10.2049 18.8855 9.98285 18.6733 10.0305 18.4247L12.2893 6.63802Z" fill="#2D3748"/>
</svg>
