<svg width="20" height="20" viewBox="0 0 20 20" fill="none" xmlns="http://www.w3.org/2000/svg">
<path d="M7.63411 9.05964C7.55078 9.0513 7.45078 9.0513 7.35911 9.05964C5.37578 8.99297 3.80078 7.36797 3.80078 5.36797C3.80078 3.3263 5.45078 1.66797 7.50078 1.66797C9.54245 1.66797 11.2008 3.3263 11.2008 5.36797C11.1924 7.36797 9.61745 8.99297 7.63411 9.05964Z" stroke="#292D32" stroke-width="1.5" stroke-linecap="round" stroke-linejoin="round"/>
<path d="M13.6747 3.33203C15.2914 3.33203 16.5914 4.64036 16.5914 6.2487C16.5914 7.8237 15.3414 9.10703 13.7831 9.16536C13.7164 9.15703 13.6414 9.15703 13.5664 9.16536" stroke="#292D32" stroke-width="1.5" stroke-linecap="round" stroke-linejoin="round"/>
<path d="M3.46758 12.132C1.45091 13.482 1.45091 15.682 3.46758 17.0237C5.75924 18.557 9.51758 18.557 11.8092 17.0237C13.8259 15.6737 13.8259 13.4737 11.8092 12.132C9.52591 10.607 5.76758 10.607 3.46758 12.132Z" stroke="#292D32" stroke-width="1.5" stroke-linecap="round" stroke-linejoin="round"/>
<path d="M15.2832 16.668C15.8832 16.543 16.4499 16.3013 16.9165 15.943C18.2165 14.968 18.2165 13.3596 16.9165 12.3846C16.4582 12.0346 15.8999 11.8013 15.3082 11.668" stroke="#292D32" stroke-width="1.5" stroke-linecap="round" stroke-linejoin="round"/>
</svg>
