<svg width="22" height="22" viewBox="0 0 22 22" fill="none" xmlns="http://www.w3.org/2000/svg">
<path d="M10.591 0C5.17465 0 5.51284 2.34885 5.51284 2.34885L5.51885 4.78232H10.6876V5.51292H3.46592C3.46592 5.51292 0 5.11984 0 10.5849C0 16.0501 3.02514 15.8563 3.02514 15.8563H4.83053V13.3202C4.83053 13.3202 4.7332 10.2951 7.80738 10.2951H12.9338C12.9338 10.2951 15.814 10.3416 15.814 7.51146V2.83198C15.814 2.83198 16.2515 0 10.591 0ZM7.74096 1.63646C7.8631 1.63635 7.98407 1.66033 8.09693 1.70702C8.2098 1.75371 8.31235 1.8222 8.39871 1.90857C8.48508 1.99493 8.55357 2.09748 8.60026 2.21034C8.64695 2.32321 8.67092 2.44417 8.67081 2.56631C8.67092 2.68845 8.64695 2.80942 8.60026 2.92228C8.55357 3.03514 8.48508 3.13769 8.39871 3.22406C8.31235 3.31042 8.2098 3.37891 8.09693 3.4256C7.98407 3.47229 7.8631 3.49627 7.74096 3.49616C7.61882 3.49627 7.49786 3.47229 7.385 3.4256C7.27213 3.37891 7.16958 3.31042 7.08322 3.22406C6.99685 3.13769 6.92836 3.03514 6.88167 2.92228C6.83498 2.80942 6.81101 2.68845 6.81112 2.56631C6.81101 2.44417 6.83498 2.32321 6.88167 2.21034C6.92836 2.09748 6.99685 1.99493 7.08322 1.90857C7.16958 1.8222 7.27213 1.75371 7.385 1.70702C7.49786 1.66033 7.61882 1.63635 7.74096 1.63646Z" fill="url(#paint0_linear_1508_18228)"/>
<path d="M10.7388 21.2126C16.1551 21.2126 15.8169 18.8638 15.8169 18.8638L15.8109 16.4304H10.6421V15.6998H17.8637C17.8637 15.6998 21.3297 16.0929 21.3297 10.6276C21.3297 5.1625 18.3045 5.35632 18.3045 5.35632H16.4991V7.89231C16.4991 7.89231 16.5965 10.9175 13.5223 10.9175H8.39584C8.39584 10.9175 5.51565 10.8709 5.51565 13.7012V18.3807C5.51565 18.3807 5.07829 21.2126 10.7387 21.2126H10.7388ZM13.5888 19.5763C13.4666 19.5764 13.3457 19.5525 13.2328 19.5058C13.12 19.4591 13.0174 19.3906 12.931 19.3042C12.8447 19.2179 12.7762 19.1153 12.7295 19.0024C12.6828 18.8896 12.6588 18.7686 12.6589 18.6465C12.6588 18.5243 12.6828 18.4034 12.7295 18.2905C12.7762 18.1776 12.8446 18.075 12.931 17.9887C13.0174 17.9023 13.1199 17.8338 13.2328 17.7871C13.3457 17.7404 13.4666 17.7164 13.5888 17.7165C13.7109 17.7164 13.8319 17.7404 13.9448 17.7871C14.0576 17.8338 14.1602 17.9023 14.2465 17.9886C14.3329 18.075 14.4014 18.1776 14.4481 18.2904C14.4948 18.4033 14.5187 18.5243 14.5186 18.6464C14.5187 18.7685 14.4948 18.8895 14.4481 19.0024C14.4014 19.1152 14.3329 19.2178 14.2465 19.3041C14.1602 19.3905 14.0576 19.459 13.9448 19.5057C13.8319 19.5524 13.7109 19.5764 13.5888 19.5762V19.5763Z" fill="url(#paint1_linear_1508_18228)"/>
<defs>
<linearGradient id="paint0_linear_1508_18228" x1="2.05035" y1="1.90904" x2="12.6237" y2="12.3769" gradientUnits="userSpaceOnUse">
<stop stop-color="#387EB8"/>
<stop offset="1" stop-color="#366994"/>
</linearGradient>
<linearGradient id="paint1_linear_1508_18228" x1="8.53422" y1="8.61871" x2="19.8888" y2="19.3525" gradientUnits="userSpaceOnUse">
<stop stop-color="#FFE052"/>
<stop offset="1" stop-color="#FFC331"/>
</linearGradient>
</defs>
</svg>
