<svg width="24" height="24" viewBox="0 0 24 24" fill="none" xmlns="http://www.w3.org/2000/svg">
<rect width="24" height="24" rx="12" fill="white"/>
<path d="M18.6676 13.9217V14.7447H20.1543C20.4589 14.7447 20.9818 14.5219 21 13.899V13.5807C21 13.0488 20.5635 12.7351 20.1543 12.7351H19.4132V12.3531H20.8818V11.5257H19.4723C19.1086 11.5257 18.6221 11.8257 18.6221 12.385V12.6714C18.6221 13.2306 19.104 13.5171 19.4723 13.5171C20.4953 13.5216 19.2268 13.5171 20.1725 13.5171V13.9172L18.6676 13.9217ZM10.7019 13.7217C10.7019 13.7217 11.4976 13.6535 11.4976 12.6259C11.4976 11.5984 10.5337 11.5029 10.5337 11.5029H8.79688V14.7447H9.66982V13.9626L10.4246 14.7447H11.7158L10.7019 13.7217ZM10.3655 13.0579H9.66982V12.3168H10.37C10.37 12.3168 10.5655 12.3895 10.5655 12.685C10.5655 12.9806 10.3655 13.0579 10.3655 13.0579ZM13.6526 11.5257H12.7661C12.1341 11.5257 11.9204 12.0985 11.9204 12.3713V14.7447H12.807V14.1763H13.639V14.7447H14.4983V12.3713C14.4983 11.6802 13.8709 11.5257 13.6526 11.5257ZM13.639 13.2579H12.8024V12.4714C12.8024 12.4714 12.8024 12.294 13.0798 12.294H13.3844C13.6299 12.294 13.6345 12.4714 13.6345 12.4714V13.2579H13.639ZM14.903 11.5257H15.8259V14.7447H14.903V11.5257ZM17.1217 13.9126V11.5257H16.2033V14.7447H18.3629V13.9126H17.1217Z" fill="#CC0000"/>
<path d="M3.31836 14.7446H6.91018C6.91018 14.7446 6.22364 11.612 8.49694 10.3435C8.99252 10.1025 10.5702 9.20229 13.1527 11.1119C13.2345 11.0437 13.3118 10.9891 13.3118 10.9891C13.3118 10.9891 10.9476 8.62942 8.31508 8.89312C6.99202 9.01133 5.36433 10.2162 4.40954 11.8075C3.45476 13.3988 3.31836 14.7446 3.31836 14.7446Z" fill="#CC0000"/>
<path d="M3.31836 14.7446H6.91018C6.91018 14.7446 6.22364 11.612 8.49694 10.3435C8.99252 10.1025 10.5702 9.20229 13.1527 11.1119C13.2345 11.0437 13.3118 10.9891 13.3118 10.9891C13.3118 10.9891 10.9476 8.62942 8.31508 8.89312C6.99202 9.01133 5.36433 10.2162 4.40954 11.8075C3.45476 13.3988 3.31836 14.7446 3.31836 14.7446Z" fill="#CC0000"/>
<path d="M3.31836 14.7447H6.91018C6.91018 14.7447 6.22364 11.6121 8.49694 10.3436C8.99252 10.1026 10.5702 9.20239 13.1527 11.112C13.2345 11.0438 13.3118 10.9892 13.3118 10.9892C13.3118 10.9892 10.9476 8.62952 8.31508 8.89323C6.98747 9.01144 5.35979 10.2163 4.405 11.8076C3.45021 13.3989 3.31836 14.7447 3.31836 14.7447ZM10.8021 9.14784L10.8203 8.84321C10.7793 8.82048 10.6657 8.76592 10.3792 8.68408L10.3611 8.98416C10.5111 9.03417 10.6566 9.08873 10.8021 9.14784Z" fill="#CC0000"/>
<path d="M10.37 10.1117L10.3519 10.3981C10.5019 10.4026 10.6519 10.4208 10.802 10.4527L10.8202 10.1708C10.6656 10.1389 10.5155 10.1207 10.37 10.1117ZM8.6878 8.69311H8.73327L8.64234 8.41577C8.50139 8.41577 8.3559 8.42486 8.20586 8.44305L8.29225 8.7113C8.4241 8.69766 8.55595 8.69311 8.6878 8.69311ZM8.90604 10.3663L9.01061 10.68C9.14246 10.6163 9.27431 10.5618 9.40617 10.5208L9.30614 10.2208C9.15156 10.2662 9.0197 10.3163 8.90604 10.3663ZM6.84188 9.17051L6.63728 8.85679C6.52362 8.9159 6.40541 8.97955 6.28265 9.0523L6.49179 9.37056C6.61 9.29781 6.72367 9.22961 6.84188 9.17051ZM7.77394 11.2165L7.99217 11.5438C8.06946 11.4302 8.1604 11.3256 8.26042 11.221L8.05582 10.9119C7.95125 11.0073 7.85577 11.1119 7.77394 11.2165ZM7.11468 12.6805L7.48295 12.9715C7.50114 12.7942 7.53297 12.6168 7.57843 12.4395L7.25108 12.1804C7.19197 12.3486 7.15105 12.5168 7.11468 12.6805ZM5.12326 10.5208L4.80046 10.239C4.68224 10.3526 4.56858 10.4663 4.46401 10.58L4.8141 10.88C4.90957 10.7573 5.01415 10.6345 5.12326 10.5208ZM3.75019 12.5532L3.22733 12.3622C3.14094 12.5577 3.04547 12.7851 3 12.9078L3.52286 13.0988C3.58197 12.9442 3.67744 12.7214 3.75019 12.5532ZM7.04648 13.8353C7.05557 14.0763 7.0783 14.2718 7.10104 14.4082L7.64663 14.6037C7.60571 14.4264 7.56479 14.2263 7.53751 14.0126L7.04648 13.8353Z" fill="#CC0000"/>
</svg>
