<svg width="100" height="90" viewBox="0 0 100 90" fill="none" xmlns="http://www.w3.org/2000/svg">
<path fill-rule="evenodd" clip-rule="evenodd" d="M61.7111 55.659L59.7929 58.9898C59.2151 59.9932 58.1454 60.6116 56.9875 60.6116H42.2933C41.1354 60.6116 40.0657 59.9932 39.4878 58.9898L37.5695 55.659H61.7111ZM67.081 46.3348L63.6988 52.2074H35.5817L32.1997 46.3348H67.081ZM63.8231 37.2168L67.0864 42.8833H32.1943L35.4576 37.2168H63.8231ZM56.9875 28.5972C58.1454 28.5972 59.2151 29.2155 59.7929 30.2189L61.8353 33.7652H37.4454L39.4878 30.2189C40.0657 29.2155 41.1354 28.5972 42.2933 28.5972H56.9875Z" fill="#00435B"/>
<path d="M20.9074 27.0515C19.2796 19.1586 18.9303 13.1048 19.9824 8.70886C20.6082 6.09442 21.7523 3.9616 23.4919 2.4228C25.3285 0.798237 27.6505 0.00106017 30.2596 0.00106017C34.5638 0.00106017 39.0886 1.96382 43.9241 5.69256C45.8964 7.21344 47.9434 9.04662 50.0693 11.1931C50.2385 10.9753 50.4298 10.7698 50.6429 10.5799C56.6531 5.22393 61.7133 1.89618 66.0413 0.613096C68.6147 -0.149824 71.0308 -0.222508 73.231 0.517932C75.5535 1.29951 77.404 2.91516 78.7096 5.17816C80.8644 8.91293 81.4326 13.8204 80.6293 19.88C80.3018 22.3499 79.742 25.0403 78.9511 27.9555C79.2495 27.9915 79.5486 28.0577 79.8448 28.1558C87.4705 30.6829 92.8703 33.4004 96.1395 36.5061C98.0846 38.3539 99.3547 40.411 99.8139 42.6882C100.299 45.0917 99.826 47.5025 98.5219 49.7638C96.3712 53.4932 92.4167 56.4345 86.7829 58.7642C84.5208 59.6997 81.9614 60.5469 79.1017 61.3089C79.2322 61.6035 79.3334 61.9164 79.4011 62.2446C81.0289 70.1375 81.3782 76.1914 80.326 80.5873C79.7003 83.2017 78.5562 85.3345 76.8166 86.8733C74.98 88.4979 72.6579 89.2951 70.0489 89.2951C65.7447 89.2951 61.2199 87.3323 56.3844 83.6036C54.3911 82.0665 52.3215 80.2105 50.1713 78.0344C49.95 78.3804 49.6784 78.7021 49.3571 78.9884C43.3469 84.3444 38.2867 87.6722 33.9587 88.9552C31.3853 89.7182 28.9692 89.7908 26.769 89.0504C24.4465 88.2688 22.596 86.6532 21.2904 84.3902C19.1356 80.6554 18.5674 75.7479 19.3707 69.6884C19.71 67.1292 20.2987 64.3332 21.1356 61.2958C20.8085 61.2627 20.48 61.1935 20.1552 61.0859C12.5295 58.5588 7.12969 55.8413 3.86052 52.7356C1.91544 50.8878 0.645278 48.8307 0.186124 46.5535C-0.298514 44.15 0.174045 41.7392 1.47813 39.4779C3.62884 35.7485 7.58335 32.8072 13.2171 30.4775C15.5466 29.5141 18.1914 28.6444 21.1547 27.865C21.0491 27.6065 20.9658 27.3347 20.9074 27.0515Z" fill="#002B3B"/>
<path fill-rule="evenodd" clip-rule="evenodd" d="M40.4916 24.5371C44.4445 24.2225 48.5189 24.0835 52.7147 24.1203C53.5093 24.1272 54.1591 23.4887 54.1661 22.6941C54.169 22.3594 54.0552 22.0342 53.8442 21.7744C44.2942 10.0159 36.4306 4.13672 30.2533 4.13672C23.8759 4.13672 22.0565 11.1666 24.7952 25.2263C24.9453 25.997 25.6855 26.505 26.4586 26.368C31.3343 25.5039 36.012 24.8936 40.4916 24.5371Z" fill="#FF4154"/>
<path fill-rule="evenodd" clip-rule="evenodd" d="M62.6817 26.4725C64.9646 29.762 67.1556 33.2456 69.2547 36.9233C69.6486 37.6135 70.5274 37.8536 71.2176 37.4597C71.507 37.2945 71.73 37.034 71.8488 36.7226C77.2508 22.5533 78.3861 12.7815 75.2547 7.40732C72.0233 1.86153 64.9824 3.77912 54.1321 13.1601C53.5355 13.6759 53.4653 14.5757 53.9747 15.1778C57.1985 18.9886 60.1008 22.7535 62.6817 26.4725Z" fill="#FF4154"/>
<path fill-rule="evenodd" clip-rule="evenodd" d="M72.2631 46.2675C70.5546 49.8584 68.6342 53.4673 66.5019 57.0943C66.0992 57.7794 66.3281 58.6612 67.0131 59.0639C67.3031 59.2344 67.6438 59.2979 67.9757 59.2433C82.8629 56.7956 91.8526 52.8888 94.9449 47.523C98.1386 41.9812 93.0027 36.9018 79.5372 32.2849C78.7954 32.0306 77.9866 32.4171 77.7184 33.154C76.0193 37.8239 74.2008 42.1951 72.2631 46.2675Z" fill="#FF4154"/>
<path fill-rule="evenodd" clip-rule="evenodd" d="M60.048 64.8514C56.0951 65.166 52.0207 65.3049 47.8249 65.2681C47.0303 65.2612 46.3804 65.8997 46.3735 66.6943C46.3706 67.029 46.4844 67.3542 46.6954 67.614C56.2453 79.3725 64.1089 85.2517 70.2862 85.2517C76.6637 85.2517 78.4831 78.2218 75.7444 64.1621C75.5943 63.3915 74.8541 62.8834 74.081 63.0204C69.2052 63.8845 64.5276 64.4948 60.048 64.8514Z" fill="#FF4154"/>
<path fill-rule="evenodd" clip-rule="evenodd" d="M37.3181 63.0958C35.0352 59.8063 32.8443 56.3227 30.7452 52.645C30.3512 51.9549 29.4724 51.7147 28.7823 52.1087C28.4929 52.2738 28.2698 52.5344 28.1511 52.8457C22.749 67.0151 21.6137 76.7869 24.7451 82.161C27.9765 87.7068 35.0174 85.7892 45.8677 76.4083C46.4643 75.8925 46.5345 74.9926 46.0252 74.3905C42.8014 70.5797 39.899 66.8148 37.3181 63.0958Z" fill="#FF4154"/>
<path fill-rule="evenodd" clip-rule="evenodd" d="M27.7369 42.7612C29.4455 39.1704 31.3659 35.5614 33.4981 31.9344C33.9008 31.2494 33.672 30.3675 32.9869 29.9648C32.6969 29.7943 32.3563 29.7308 32.0243 29.7854C17.1371 32.2332 8.14742 36.1399 5.05511 41.5058C1.8614 47.0475 6.9973 52.1269 20.4628 56.7438C21.2046 56.9981 22.0135 56.6116 22.2816 55.8747C23.9808 51.2048 25.7992 46.8336 27.7369 42.7612Z" fill="#FF4154"/>
<path fill-rule="evenodd" clip-rule="evenodd" d="M43.4742 28.7769H55.8086C57.6124 28.7769 59.2785 29.7416 60.1763 31.3061L66.3696 42.0975C67.2605 43.6499 67.2605 45.5585 66.3696 47.1109L60.1763 57.9023C59.2785 59.4668 57.6124 60.4315 55.8086 60.4315H43.4742C41.6704 60.4315 40.0043 59.4668 39.1064 57.9023L32.9132 47.1109C32.0223 45.5585 32.0223 43.6499 32.9132 42.0975L39.1064 31.3061C40.0043 29.7416 41.6704 28.7769 43.4742 28.7769ZM53.9287 32.0339C55.7335 32.0339 57.4003 32.9997 58.2978 34.5655L62.6165 42.0998C63.5056 43.651 63.5056 45.5574 62.6165 47.1086L58.2978 54.6429C57.4003 56.2087 55.7335 57.1745 53.9287 57.1745H45.3541C43.5493 57.1745 41.8825 56.2087 40.985 54.6429L36.6663 47.1086C35.7772 45.5574 35.7772 43.651 36.6663 42.0998L40.985 34.5655C41.8825 32.9997 43.5493 32.0339 45.3541 32.0339H53.9287ZM51.9025 35.5964H47.3803C45.5773 35.5964 43.912 36.5602 43.0138 38.1234L40.7316 42.0953C39.839 43.6488 39.839 45.5596 40.7316 47.1131L43.0138 51.0849C43.912 52.6482 45.5773 53.612 47.3803 53.612H51.9025C53.7054 53.612 55.3708 52.6482 56.269 51.0849L58.5511 47.1131C59.4437 45.5596 59.4437 43.6488 58.5511 42.0953L56.269 38.1234C55.3708 36.5602 53.7054 35.5964 51.9025 35.5964ZM49.9515 39.0061C51.753 39.0061 53.4174 39.9685 54.3161 41.5299L54.6396 42.092C55.5348 43.6472 55.5348 45.5612 54.6396 47.1163L54.3161 47.6785C53.4174 49.2399 51.753 50.2023 49.9515 50.2023H49.3313C47.5297 50.2023 45.8654 49.2399 44.9667 47.6785L44.6431 47.1163C43.748 45.5612 43.748 43.6472 44.6431 42.092L44.9667 41.5299C45.8654 39.9685 47.5297 39.0061 49.3313 39.0061H49.9515ZM49.6422 42.365C48.8404 42.365 48.1009 42.7917 47.7005 43.4846C47.3002 44.1773 47.3002 45.0311 47.7005 45.7238C48.1009 46.4167 48.8404 46.8434 49.6406 46.8434C50.4424 46.8434 51.1819 46.4167 51.5823 45.7238C51.9825 45.0311 51.9825 44.1773 51.5823 43.4846C51.1819 42.7917 50.4424 42.365 49.6422 42.365ZM31.4746 44.6042H35.5062H31.4746Z" fill="#FFD94C"/>
</svg>
