<svg width="24" height="24" viewBox="0 0 24 24" fill="none" xmlns="http://www.w3.org/2000/svg">
<rect width="24" height="24" rx="12" fill="white"/>
<path d="M8.51451 13.8367C7.6203 13.8367 6.89142 13.102 6.89142 12.2013C6.89142 11.3007 7.6203 10.566 8.51451 10.566C9.40871 10.566 10.1376 11.3007 10.1376 12.2013C10.1376 13.1013 9.40807 13.8367 8.51451 13.8367ZM4.6173 17.0835C3.72438 17.0815 2.99743 16.3437 3.00001 15.443C3.00052 15.011 3.17225 14.5969 3.47758 14.2913C3.7829 13.9858 4.19692 13.8137 4.62888 13.8129C5.52245 13.8148 6.24939 14.5527 6.24618 15.4539C6.24533 15.8858 6.07346 16.2996 5.76819 16.605C5.46292 16.9104 5.0491 17.0824 4.6173 17.0835ZM19.3891 17.0835C18.9572 17.0843 18.5425 16.914 18.2359 16.6098C17.9293 16.3056 17.7557 15.8923 17.7532 15.4604C17.7487 14.5585 18.4724 13.818 19.3647 13.8135C19.7964 13.8128 20.2108 13.9831 20.5172 14.2872C20.8237 14.5912 20.9973 15.0042 21 15.4359C21.0051 16.3372 20.2807 17.0783 19.3891 17.0835Z" fill="black"/>
<path d="M16.3465 10.6612C15.9052 10.5235 15.4337 10.4663 14.9711 10.4161C14.2558 10.3389 13.9708 10.0597 13.8498 9.34304C13.7817 8.9429 13.6864 8.53247 13.5134 8.16899C13.1834 7.47743 12.4101 7.16735 11.6336 7.34426C10.9774 7.49416 10.4326 8.14712 10.4023 8.81745C10.3676 9.58171 10.805 10.2347 11.5564 10.4598C11.9135 10.5673 12.293 10.6207 12.6655 10.6483C13.3493 10.6979 13.5777 10.9018 13.7624 11.2132C13.8794 11.41 13.992 11.6037 13.992 12.1891C13.992 12.7751 13.8781 12.9688 13.7624 13.165C13.5777 13.4763 13.3493 13.6796 12.6655 13.7305C12.2924 13.7575 11.9128 13.8115 11.5564 13.9189C10.805 14.1447 10.3676 14.7964 10.4023 15.562C10.4326 16.2317 10.9781 16.8846 11.6336 17.0345C12.4101 17.2121 13.1834 16.9014 13.5134 16.2098C13.6871 15.847 13.7817 15.4359 13.8498 15.0357C13.9714 14.3191 14.2564 14.0405 14.9711 13.9627C15.4343 13.9125 15.9052 13.8546 16.3465 13.7169C17.0162 13.5079 17.419 12.8832 17.419 12.1891C17.419 11.4956 17.0162 10.8716 16.3465 10.6612Z" fill="#F44250"/>
</svg>
