<svg width="80" height="80" viewBox="0 0 80 80" fill="none" xmlns="http://www.w3.org/2000/svg">
<path fill-rule="evenodd" clip-rule="evenodd" d="M40 80C62.0916 80 80 62.0914 80 40C80 17.9086 62.0916 0 40 0C17.9086 0 0 17.9086 0 40C0 62.0914 17.9086 80 40 80ZM46.174 30.9051C49.5836 27.4953 49.5836 21.9671 46.174 18.5573C42.7642 15.1476 37.236 15.1476 33.8262 18.5573C30.4165 21.9671 30.4165 27.4953 33.8262 30.9051L40 37.079L46.174 30.9051ZM49.095 46.174C52.5048 49.5838 58.033 49.5838 61.4428 46.174C64.8524 42.7642 64.8524 37.236 61.4428 33.8261C58.033 30.4165 52.5048 30.4165 49.095 33.8261L42.9212 40.0002L49.095 46.174ZM46.174 61.4428C49.5836 58.033 49.5836 52.5048 46.174 49.095L40 42.9212L33.8262 49.095C30.4165 52.5048 30.4165 58.033 33.8262 61.4428C37.236 64.8526 42.7642 64.8526 46.174 61.4428ZM18.5573 46.174C15.1476 42.7642 15.1476 37.236 18.5573 33.8261C21.9671 30.4165 27.4953 30.4165 30.9052 33.8261L37.079 40.0002L30.9052 46.174C27.4953 49.5838 21.9671 49.5838 18.5573 46.174Z" fill="url(#paint0_linear_7518_1574)"/>
<defs>
<linearGradient id="paint0_linear_7518_1574" x1="0" y1="0" x2="102.5" y2="102.5" gradientUnits="userSpaceOnUse">
<stop stop-color="#FFC27B"/>
<stop offset="1" stop-color="#6E4628"/>
</linearGradient>
</defs>
</svg>
