<svg width="24" height="24" viewBox="0 0 24 24" fill="none" xmlns="http://www.w3.org/2000/svg">
<rect width="24" height="24" rx="12" fill="white"/>
<path d="M15.0863 15.1743C15.6767 15.1099 16.1247 14.5737 16.1043 13.9303C16.084 13.2869 15.5749 12.7721 14.9641 12.7721H14.9234C14.2922 12.7936 13.8036 13.3512 13.8239 14.016C13.8443 14.3378 13.9664 14.6166 14.1497 14.8096C13.4574 16.2466 12.3987 17.2976 10.8106 18.1769C9.73144 18.7775 8.61162 18.9919 7.49181 18.8418C6.57556 18.7131 5.86294 18.2842 5.41494 17.5764C4.76344 16.5255 4.70237 15.3887 5.25212 14.252C5.639 13.437 6.24975 12.8364 6.63662 12.5362C6.55519 12.2573 6.433 11.7855 6.37194 11.4424C3.41962 13.6944 3.72506 16.7399 4.62094 18.1769C5.29281 19.2494 6.657 19.9142 8.16369 19.9142C8.57087 19.9142 8.97806 19.8713 9.38531 19.7641C11.9915 19.2279 13.9665 17.5978 15.0863 15.1743ZM18.6698 12.5148C17.1224 10.6059 14.842 9.55498 12.2358 9.55498H11.9101C11.7268 9.16892 11.3399 8.91151 10.9124 8.91151H10.8716C10.2405 8.93297 9.75187 9.49059 9.77219 10.1555C9.79256 10.7989 10.3016 11.3137 10.9124 11.3137H10.9531C11.401 11.2922 11.7879 10.9919 11.9507 10.5844H12.3172C13.8647 10.5844 15.3306 11.0563 16.6541 11.9785C17.6721 12.6863 18.4051 13.6086 18.8123 14.7238C19.1584 15.6246 19.1381 16.504 18.7716 17.2547C18.2015 18.3914 17.2446 19.0134 15.9822 19.0134C15.1677 19.0134 14.3941 18.756 13.9868 18.563C13.7629 18.7775 13.3556 19.1206 13.0706 19.3351C13.9461 19.764 14.842 20 15.6971 20C17.6517 20 19.0974 18.8632 19.6471 17.7265C20.2376 16.4825 20.1968 14.3378 18.6698 12.5148ZM8.32656 15.5388C8.34694 16.1823 8.85594 16.697 9.46675 16.697H9.5075C10.1387 16.6756 10.6273 16.1179 10.6069 15.453C10.5866 14.8095 10.0776 14.2949 9.46675 14.2949H9.42606C9.38531 14.2949 9.32419 14.2949 9.28356 14.3163C8.44875 12.8578 8.10262 11.2708 8.22481 9.55491C8.30619 8.26804 8.71344 7.15274 9.42606 6.23047C10.0165 5.4369 11.1567 5.05085 11.9304 5.02945C14.0886 4.98653 15.0048 7.81761 15.0659 8.95437C15.3306 9.01869 15.7786 9.16886 16.084 9.2761C15.8396 5.80162 13.8036 4 11.849 4C10.0165 4 8.32656 5.39411 7.65462 7.45308C6.71806 10.1984 7.32887 12.8364 8.46906 14.9169C8.36731 15.067 8.30619 15.3028 8.32656 15.5388Z" fill="#764ABC"/>
</svg>
