<svg width="1440" height="313" viewBox="0 0 1440 313" fill="none" xmlns="http://www.w3.org/2000/svg">
<g clip-path="url(#clip0_19694_4125)">
<rect width="1440" height="313" fill="url(#paint0_linear_19694_4125)"/>
<rect x="0.315993" y="0.315993" width="62.5666" height="62.5666" rx="3.47592" stroke="#F5F5F5" stroke-width="0.631985"/>
<rect x="62.8824" y="0.315993" width="62.5666" height="62.5666" rx="3.47592" stroke="#F5F5F5" stroke-width="0.631985"/>
<rect x="125.449" y="0.315993" width="62.5666" height="62.5666" rx="3.47592" stroke="#F5F5F5" stroke-width="0.631985"/>
<rect x="188.015" y="0.315993" width="62.5666" height="62.5666" rx="3.47592" stroke="#F5F5F5" stroke-width="0.631985"/>
<rect x="250.582" y="0.315993" width="62.5666" height="62.5666" rx="3.47592" stroke="#F5F5F5" stroke-width="0.631985"/>
<rect x="313.148" y="0.315993" width="62.5666" height="62.5666" rx="3.47592" stroke="#F5F5F5" stroke-width="0.631985"/>
<rect x="375.714" y="0.315993" width="62.5666" height="62.5666" rx="3.47592" stroke="#F5F5F5" stroke-width="0.631985"/>
<rect x="438.283" y="0.315993" width="62.5666" height="62.5666" rx="3.47592" stroke="#F5F5F5" stroke-width="0.631985"/>
<rect x="500.849" y="0.315993" width="62.5666" height="62.5666" rx="3.47592" stroke="#F5F5F5" stroke-width="0.631985"/>
<rect x="563.416" y="0.315993" width="62.5666" height="62.5666" rx="3.47592" stroke="#F5F5F5" stroke-width="0.631985"/>
<rect x="625.982" y="0.315993" width="62.5666" height="62.5666" rx="3.47592" stroke="#F5F5F5" stroke-width="0.631985"/>
<rect x="688.548" y="0.315993" width="62.5666" height="62.5666" rx="3.47592" stroke="#F5F5F5" stroke-width="0.631985"/>
<rect x="751.115" y="0.315993" width="62.5666" height="62.5666" rx="3.47592" stroke="#F5F5F5" stroke-width="0.631985"/>
<rect x="813.681" y="0.315993" width="62.5666" height="62.5666" rx="3.47592" stroke="#F5F5F5" stroke-width="0.631985"/>
<rect x="876.248" y="0.315993" width="62.5666" height="62.5666" rx="3.47592" stroke="#F5F5F5" stroke-width="0.631985"/>
<rect x="938.814" y="0.315993" width="62.5666" height="62.5666" rx="3.47592" stroke="#F5F5F5" stroke-width="0.631985"/>
<rect x="1001.38" y="0.315993" width="62.5666" height="62.5666" rx="3.47592" stroke="#F5F5F5" stroke-width="0.631985"/>
<rect x="1063.95" y="0.315993" width="62.5666" height="62.5666" rx="3.47592" stroke="#F5F5F5" stroke-width="0.631985"/>
<rect x="1126.51" y="0.315993" width="62.5666" height="62.5666" rx="3.47592" stroke="#F5F5F5" stroke-width="0.631985"/>
<rect x="1189.08" y="0.315993" width="62.5666" height="62.5666" rx="3.47592" stroke="#F5F5F5" stroke-width="0.631985"/>
<rect x="1251.65" y="0.315993" width="62.5666" height="62.5666" rx="3.47592" stroke="#F5F5F5" stroke-width="0.631985"/>
<rect x="1314.21" y="0.315993" width="62.5666" height="62.5666" rx="3.47592" stroke="#F5F5F5" stroke-width="0.631985"/>
<rect x="1376.78" y="0.315993" width="62.5666" height="62.5666" rx="3.47592" stroke="#F5F5F5" stroke-width="0.631985"/>
<rect x="0.315993" y="62.8629" width="62.5666" height="62.5666" rx="3.47592" stroke="#F5F5F5" stroke-width="0.631985"/>
<rect x="62.8824" y="62.8629" width="62.5666" height="62.5666" rx="3.47592" stroke="#F5F5F5" stroke-width="0.631985"/>
<rect x="125.449" y="62.8629" width="62.5666" height="62.5666" rx="3.47592" stroke="#F5F5F5" stroke-width="0.631985"/>
<rect x="188.015" y="62.8629" width="62.5666" height="62.5666" rx="3.47592" stroke="#F5F5F5" stroke-width="0.631985"/>
<rect x="250.582" y="62.8629" width="62.5666" height="62.5666" rx="3.47592" stroke="#F5F5F5" stroke-width="0.631985"/>
<rect x="313.148" y="62.8629" width="62.5666" height="62.5666" rx="3.47592" stroke="#F5F5F5" stroke-width="0.631985"/>
<rect x="375.714" y="62.8629" width="62.5666" height="62.5666" rx="3.47592" stroke="#F5F5F5" stroke-width="0.631985"/>
<rect x="438.283" y="62.8629" width="62.5666" height="62.5666" rx="3.47592" stroke="#F5F5F5" stroke-width="0.631985"/>
<rect x="500.849" y="62.8629" width="62.5666" height="62.5666" rx="3.47592" stroke="#F5F5F5" stroke-width="0.631985"/>
<rect x="563.416" y="62.8629" width="62.5666" height="62.5666" rx="3.47592" stroke="#F5F5F5" stroke-width="0.631985"/>
<rect x="625.982" y="62.8629" width="62.5666" height="62.5666" rx="3.47592" stroke="#F5F5F5" stroke-width="0.631985"/>
<rect x="688.548" y="62.8629" width="62.5666" height="62.5666" rx="3.47592" stroke="#F5F5F5" stroke-width="0.631985"/>
<rect x="751.115" y="62.8629" width="62.5666" height="62.5666" rx="3.47592" stroke="#F5F5F5" stroke-width="0.631985"/>
<rect x="813.681" y="62.8629" width="62.5666" height="62.5666" rx="3.47592" stroke="#F5F5F5" stroke-width="0.631985"/>
<rect x="876.248" y="62.8629" width="62.5666" height="62.5666" rx="3.47592" stroke="#F5F5F5" stroke-width="0.631985"/>
<rect x="938.814" y="62.8629" width="62.5666" height="62.5666" rx="3.47592" stroke="#F5F5F5" stroke-width="0.631985"/>
<rect x="1001.38" y="62.8629" width="62.5666" height="62.5666" rx="3.47592" stroke="#F5F5F5" stroke-width="0.631985"/>
<rect x="1063.95" y="62.8629" width="62.5666" height="62.5666" rx="3.47592" stroke="#F5F5F5" stroke-width="0.631985"/>
<rect x="1126.51" y="62.8629" width="62.5666" height="62.5666" rx="3.47592" stroke="#F5F5F5" stroke-width="0.631985"/>
<rect x="1189.08" y="62.8629" width="62.5666" height="62.5666" rx="3.47592" stroke="#F5F5F5" stroke-width="0.631985"/>
<rect x="1251.65" y="62.8629" width="62.5666" height="62.5666" rx="3.47592" stroke="#F5F5F5" stroke-width="0.631985"/>
<rect x="1314.21" y="62.8629" width="62.5666" height="62.5666" rx="3.47592" stroke="#F5F5F5" stroke-width="0.631985"/>
<rect x="1376.78" y="62.8629" width="62.5666" height="62.5666" rx="3.47592" stroke="#F5F5F5" stroke-width="0.631985"/>
<rect x="0.315993" y="125.41" width="62.5666" height="62.5666" rx="3.47592" stroke="#F5F5F5" stroke-width="0.631985"/>
<rect x="62.8824" y="125.41" width="62.5666" height="62.5666" rx="3.47592" stroke="#F5F5F5" stroke-width="0.631985"/>
<rect x="125.449" y="125.41" width="62.5666" height="62.5666" rx="3.47592" stroke="#F5F5F5" stroke-width="0.631985"/>
<rect x="188.015" y="125.41" width="62.5666" height="62.5666" rx="3.47592" stroke="#F5F5F5" stroke-width="0.631985"/>
<rect x="250.582" y="125.41" width="62.5666" height="62.5666" rx="3.47592" stroke="#F5F5F5" stroke-width="0.631985"/>
<rect x="313.148" y="125.41" width="62.5666" height="62.5666" rx="3.47592" stroke="#F5F5F5" stroke-width="0.631985"/>
<rect x="375.714" y="125.41" width="62.5666" height="62.5666" rx="3.47592" stroke="#F5F5F5" stroke-width="0.631985"/>
<rect x="438.283" y="125.41" width="62.5666" height="62.5666" rx="3.47592" stroke="#F5F5F5" stroke-width="0.631985"/>
<rect x="500.849" y="125.41" width="62.5666" height="62.5666" rx="3.47592" stroke="#F5F5F5" stroke-width="0.631985"/>
<rect x="563.416" y="125.41" width="62.5666" height="62.5666" rx="3.47592" stroke="#F5F5F5" stroke-width="0.631985"/>
<rect x="625.982" y="125.41" width="62.5666" height="62.5666" rx="3.47592" stroke="#F5F5F5" stroke-width="0.631985"/>
<rect x="688.548" y="125.41" width="62.5666" height="62.5666" rx="3.47592" stroke="#F5F5F5" stroke-width="0.631985"/>
<rect x="751.115" y="125.41" width="62.5666" height="62.5666" rx="3.47592" stroke="#F5F5F5" stroke-width="0.631985"/>
<rect x="813.681" y="125.41" width="62.5666" height="62.5666" rx="3.47592" stroke="#F5F5F5" stroke-width="0.631985"/>
<rect x="876.248" y="125.41" width="62.5666" height="62.5666" rx="3.47592" stroke="#F5F5F5" stroke-width="0.631985"/>
<rect x="938.814" y="125.41" width="62.5666" height="62.5666" rx="3.47592" stroke="#F5F5F5" stroke-width="0.631985"/>
<rect x="1001.38" y="125.41" width="62.5666" height="62.5666" rx="3.47592" stroke="#F5F5F5" stroke-width="0.631985"/>
<rect x="1063.95" y="125.41" width="62.5666" height="62.5666" rx="3.47592" stroke="#F5F5F5" stroke-width="0.631985"/>
<rect x="1126.51" y="125.41" width="62.5666" height="62.5666" rx="3.47592" stroke="#F5F5F5" stroke-width="0.631985"/>
<rect x="1189.08" y="125.41" width="62.5666" height="62.5666" rx="3.47592" stroke="#F5F5F5" stroke-width="0.631985"/>
<rect x="1251.65" y="125.41" width="62.5666" height="62.5666" rx="3.47592" stroke="#F5F5F5" stroke-width="0.631985"/>
<rect x="1314.21" y="125.41" width="62.5666" height="62.5666" rx="3.47592" stroke="#F5F5F5" stroke-width="0.631985"/>
<rect x="1376.78" y="125.41" width="62.5666" height="62.5666" rx="3.47592" stroke="#F5F5F5" stroke-width="0.631985"/>
<rect x="0.315993" y="187.957" width="62.5666" height="62.5666" rx="3.47592" stroke="#F5F5F5" stroke-width="0.631985"/>
<rect x="62.8824" y="187.957" width="62.5666" height="62.5666" rx="3.47592" stroke="#F5F5F5" stroke-width="0.631985"/>
<rect x="125.449" y="187.957" width="62.5666" height="62.5666" rx="3.47592" stroke="#F5F5F5" stroke-width="0.631985"/>
<rect x="188.015" y="187.957" width="62.5666" height="62.5666" rx="3.47592" stroke="#F5F5F5" stroke-width="0.631985"/>
<rect x="250.582" y="187.957" width="62.5666" height="62.5666" rx="3.47592" stroke="#F5F5F5" stroke-width="0.631985"/>
<rect x="313.148" y="187.957" width="62.5666" height="62.5666" rx="3.47592" stroke="#F5F5F5" stroke-width="0.631985"/>
<rect x="375.714" y="187.957" width="62.5666" height="62.5666" rx="3.47592" stroke="#F5F5F5" stroke-width="0.631985"/>
<rect x="438.283" y="187.957" width="62.5666" height="62.5666" rx="3.47592" stroke="#F5F5F5" stroke-width="0.631985"/>
<rect x="500.849" y="187.957" width="62.5666" height="62.5666" rx="3.47592" stroke="#F5F5F5" stroke-width="0.631985"/>
<rect x="563.416" y="187.957" width="62.5666" height="62.5666" rx="3.47592" stroke="#F5F5F5" stroke-width="0.631985"/>
<rect x="625.982" y="187.957" width="62.5666" height="62.5666" rx="3.47592" stroke="#F5F5F5" stroke-width="0.631985"/>
<rect x="688.548" y="187.957" width="62.5666" height="62.5666" rx="3.47592" stroke="#F5F5F5" stroke-width="0.631985"/>
<rect x="751.115" y="187.957" width="62.5666" height="62.5666" rx="3.47592" stroke="#F5F5F5" stroke-width="0.631985"/>
<rect x="813.681" y="187.957" width="62.5666" height="62.5666" rx="3.47592" stroke="#F5F5F5" stroke-width="0.631985"/>
<rect x="876.248" y="187.957" width="62.5666" height="62.5666" rx="3.47592" stroke="#F5F5F5" stroke-width="0.631985"/>
<rect x="938.814" y="187.957" width="62.5666" height="62.5666" rx="3.47592" stroke="#F5F5F5" stroke-width="0.631985"/>
<rect x="1001.38" y="187.957" width="62.5666" height="62.5666" rx="3.47592" stroke="#F5F5F5" stroke-width="0.631985"/>
<rect x="1063.95" y="187.957" width="62.5666" height="62.5666" rx="3.47592" stroke="#F5F5F5" stroke-width="0.631985"/>
<rect x="1126.51" y="187.957" width="62.5666" height="62.5666" rx="3.47592" stroke="#F5F5F5" stroke-width="0.631985"/>
<rect x="1189.08" y="187.957" width="62.5666" height="62.5666" rx="3.47592" stroke="#F5F5F5" stroke-width="0.631985"/>
<rect x="1251.65" y="187.957" width="62.5666" height="62.5666" rx="3.47592" stroke="#F5F5F5" stroke-width="0.631985"/>
<rect x="1314.21" y="187.957" width="62.5666" height="62.5666" rx="3.47592" stroke="#F5F5F5" stroke-width="0.631985"/>
<rect x="1376.78" y="187.957" width="62.5666" height="62.5666" rx="3.47592" stroke="#F5F5F5" stroke-width="0.631985"/>
<rect x="0.315993" y="250.5" width="62.5666" height="62.5666" rx="3.47592" stroke="#F5F5F5" stroke-width="0.631985"/>
<rect x="62.8824" y="250.5" width="62.5666" height="62.5666" rx="3.47592" stroke="#F5F5F5" stroke-width="0.631985"/>
<rect x="125.449" y="250.5" width="62.5666" height="62.5666" rx="3.47592" stroke="#F5F5F5" stroke-width="0.631985"/>
<rect x="188.015" y="250.5" width="62.5666" height="62.5666" rx="3.47592" stroke="#F5F5F5" stroke-width="0.631985"/>
<rect x="250.582" y="250.5" width="62.5666" height="62.5666" rx="3.47592" stroke="#F5F5F5" stroke-width="0.631985"/>
<rect x="313.148" y="250.5" width="62.5666" height="62.5666" rx="3.47592" stroke="#F5F5F5" stroke-width="0.631985"/>
<rect x="375.714" y="250.5" width="62.5666" height="62.5666" rx="3.47592" stroke="#F5F5F5" stroke-width="0.631985"/>
<rect x="438.283" y="250.5" width="62.5666" height="62.5666" rx="3.47592" stroke="#F5F5F5" stroke-width="0.631985"/>
<rect x="500.849" y="250.5" width="62.5666" height="62.5666" rx="3.47592" stroke="#F5F5F5" stroke-width="0.631985"/>
<rect x="563.416" y="250.5" width="62.5666" height="62.5666" rx="3.47592" stroke="#F5F5F5" stroke-width="0.631985"/>
<rect x="625.982" y="250.5" width="62.5666" height="62.5666" rx="3.47592" stroke="#F5F5F5" stroke-width="0.631985"/>
<rect x="688.548" y="250.5" width="62.5666" height="62.5666" rx="3.47592" stroke="#F5F5F5" stroke-width="0.631985"/>
<rect x="751.115" y="250.5" width="62.5666" height="62.5666" rx="3.47592" stroke="#F5F5F5" stroke-width="0.631985"/>
<rect x="813.681" y="250.5" width="62.5666" height="62.5666" rx="3.47592" stroke="#F5F5F5" stroke-width="0.631985"/>
<rect x="876.248" y="250.5" width="62.5666" height="62.5666" rx="3.47592" stroke="#F5F5F5" stroke-width="0.631985"/>
<rect x="938.814" y="250.5" width="62.5666" height="62.5666" rx="3.47592" stroke="#F5F5F5" stroke-width="0.631985"/>
<rect x="1001.38" y="250.5" width="62.5666" height="62.5666" rx="3.47592" stroke="#F5F5F5" stroke-width="0.631985"/>
<rect x="1063.95" y="250.5" width="62.5666" height="62.5666" rx="3.47592" stroke="#F5F5F5" stroke-width="0.631985"/>
<rect x="1126.51" y="250.5" width="62.5666" height="62.5666" rx="3.47592" stroke="#F5F5F5" stroke-width="0.631985"/>
<rect x="1189.08" y="250.5" width="62.5666" height="62.5666" rx="3.47592" stroke="#F5F5F5" stroke-width="0.631985"/>
<rect x="1251.65" y="250.5" width="62.5666" height="62.5666" rx="3.47592" stroke="#F5F5F5" stroke-width="0.631985"/>
<rect x="1314.21" y="250.5" width="62.5666" height="62.5666" rx="3.47592" stroke="#F5F5F5" stroke-width="0.631985"/>
<rect x="1376.78" y="250.5" width="62.5666" height="62.5666" rx="3.47592" stroke="#F5F5F5" stroke-width="0.631985"/>
<rect x="63.316" y="62.5621" width="62.5666" height="62.5666" rx="3.47592" stroke="#A78CE5" stroke-width="0.631985"/>
<rect x="63.316" y="125.011" width="62.5666" height="62.5666" rx="3.47592" stroke="url(#paint1_linear_19694_4125)" stroke-width="0.631985"/>
<rect x="125.765" y="62.5621" width="62.5666" height="62.5666" rx="3.47592" stroke="url(#paint2_linear_19694_4125)" stroke-width="0.631985"/>
<rect x="125.765" y="125.011" width="62.5666" height="62.5666" rx="3.47592" stroke="#A78CE5" stroke-width="0.631985"/>
<rect x="-0.315993" y="0.315993" width="62.5666" height="62.5666" rx="3.47592" transform="matrix(-1 0 0 1 1314.01 125)" stroke="#A78CE5" stroke-width="0.631985"/>
<rect x="-0.315993" y="0.315993" width="62.5666" height="62.5666" rx="3.47592" transform="matrix(-1 0 0 1 1314.01 187.449)" stroke="url(#paint3_linear_19694_4125)" stroke-width="0.631985"/>
<rect x="-0.315993" y="0.315993" width="62.5666" height="62.5666" rx="3.47592" transform="matrix(-1 0 0 1 1251.57 125)" stroke="url(#paint4_linear_19694_4125)" stroke-width="0.631985"/>
<rect x="-0.315993" y="0.315993" width="62.5666" height="62.5666" rx="3.47592" transform="matrix(-1 0 0 1 1251.57 187.449)" stroke="#A78CE5" stroke-width="0.631985"/>
</g>
<defs>
<linearGradient id="paint0_linear_19694_4125" x1="720" y1="0" x2="720" y2="313" gradientUnits="userSpaceOnUse">
<stop stop-color="#D7E3FF"/>
<stop offset="1" stop-color="white"/>
</linearGradient>
<linearGradient id="paint1_linear_19694_4125" x1="124.5" y1="125.996" x2="105.375" y2="143.996" gradientUnits="userSpaceOnUse">
<stop stop-color="#A78CE5"/>
<stop offset="1" stop-color="#A78CE5" stop-opacity="0"/>
</linearGradient>
<linearGradient id="paint2_linear_19694_4125" x1="152.626" y1="97.8711" x2="126.376" y2="123.371" gradientUnits="userSpaceOnUse">
<stop stop-color="#A78CE5" stop-opacity="0"/>
<stop offset="1" stop-color="#A78CE5"/>
</linearGradient>
<linearGradient id="paint3_linear_19694_4125" x1="61.5" y1="1.30078" x2="42.375" y2="19.3008" gradientUnits="userSpaceOnUse">
<stop stop-color="#A78CE5"/>
<stop offset="1" stop-color="#A78CE5" stop-opacity="0"/>
</linearGradient>
<linearGradient id="paint4_linear_19694_4125" x1="27.1765" y1="35.625" x2="0.926468" y2="61.125" gradientUnits="userSpaceOnUse">
<stop stop-color="#A78CE5" stop-opacity="0"/>
<stop offset="1" stop-color="#A78CE5"/>
</linearGradient>
<clipPath id="clip0_19694_4125">
<rect width="1440" height="313" fill="white"/>
</clipPath>
</defs>
</svg>
