<svg width="20" height="19" viewBox="0 0 20 19" fill="none" xmlns="http://www.w3.org/2000/svg">
<path d="M12.65 17.3998C12.65 17.8692 13.0306 18.2498 13.5 18.2498C13.9694 18.2498 14.35 17.8692 14.35 17.3998H12.65ZM0.0499996 17.3998C0.0499996 17.8692 0.430558 18.2498 0.9 18.2498C1.36944 18.2498 1.75 17.8692 1.75 17.3998H0.0499996ZM14.2 8.1498C13.7306 8.1498 13.35 8.53036 13.35 8.9998C13.35 9.46925 13.7306 9.8498 14.2 9.8498V8.1498ZM18.4 9.8498C18.8694 9.8498 19.25 9.46925 19.25 8.9998C19.25 8.53036 18.8694 8.1498 18.4 8.1498V9.8498ZM17.15 6.8998C17.15 6.43036 16.7694 6.0498 16.3 6.0498C15.8306 6.0498 15.45 6.43036 15.45 6.8998H17.15ZM15.45 11.0998C15.45 11.5692 15.8306 11.9498 16.3 11.9498C16.7694 11.9498 17.15 11.5692 17.15 11.0998H15.45ZM11.075 6.1298C11.075 8.34561 9.32259 10.1098 7.2 10.1098V11.8098C10.2965 11.8098 12.775 9.24907 12.775 6.1298H11.075ZM7.2 10.1098C5.07741 10.1098 3.325 8.34561 3.325 6.1298H1.625C1.625 9.24907 4.1035 11.8098 7.2 11.8098V10.1098ZM3.325 6.1298C3.325 3.914 5.07741 2.1498 7.2 2.1498V0.449805C4.1035 0.449805 1.625 3.01054 1.625 6.1298H3.325ZM7.2 2.1498C9.32259 2.1498 11.075 3.914 11.075 6.1298H12.775C12.775 3.01054 10.2965 0.449805 7.2 0.449805V2.1498ZM1.75 17.3998C1.75 16.4974 1.75131 15.7074 1.84158 15.0008C1.93097 14.3011 2.10064 13.7528 2.39178 13.3219C2.9364 12.516 4.13635 11.8098 7.2 11.8098V10.1098C3.96365 10.1098 2.0136 10.8453 0.983216 12.3701C0.486862 13.1047 0.262776 13.9441 0.155291 14.7853C0.0486907 15.6197 0.0499996 16.5239 0.0499996 17.3998H1.75ZM7.18112 11.8096C10.2546 11.8779 11.464 12.5812 12.0116 13.3794C12.3011 13.8013 12.4696 14.3356 12.5586 15.022C12.6486 15.7167 12.65 16.4969 12.65 17.3998H14.35C14.35 16.5244 14.3514 15.6279 14.2445 14.8035C14.1366 13.9709 13.9114 13.1436 13.4134 12.4177C12.386 10.9201 10.4454 10.1817 7.21888 10.11L7.18112 11.8096ZM14.2 9.8498H16.3V8.1498H14.2V9.8498ZM16.3 9.8498H18.4V8.1498H16.3V9.8498ZM15.45 6.8998V8.9998H17.15V6.8998H15.45ZM15.45 8.9998V11.0998H17.15V8.9998H15.45Z" fill="#4A525D"/>
<path d="M12.65 17.3998C12.65 17.8692 13.0306 18.2498 13.5 18.2498C13.9694 18.2498 14.35 17.8692 14.35 17.3998H12.65ZM0.0499996 17.3998C0.0499996 17.8692 0.430558 18.2498 0.9 18.2498C1.36944 18.2498 1.75 17.8692 1.75 17.3998H0.0499996ZM14.2 8.1498C13.7306 8.1498 13.35 8.53036 13.35 8.9998C13.35 9.46925 13.7306 9.8498 14.2 9.8498V8.1498ZM18.4 9.8498C18.8694 9.8498 19.25 9.46925 19.25 8.9998C19.25 8.53036 18.8694 8.1498 18.4 8.1498V9.8498ZM17.15 6.8998C17.15 6.43036 16.7694 6.0498 16.3 6.0498C15.8306 6.0498 15.45 6.43036 15.45 6.8998H17.15ZM15.45 11.0998C15.45 11.5692 15.8306 11.9498 16.3 11.9498C16.7694 11.9498 17.15 11.5692 17.15 11.0998H15.45ZM11.075 6.1298C11.075 8.34561 9.32259 10.1098 7.2 10.1098V11.8098C10.2965 11.8098 12.775 9.24907 12.775 6.1298H11.075ZM7.2 10.1098C5.07741 10.1098 3.325 8.34561 3.325 6.1298H1.625C1.625 9.24907 4.1035 11.8098 7.2 11.8098V10.1098ZM3.325 6.1298C3.325 3.914 5.07741 2.1498 7.2 2.1498V0.449805C4.1035 0.449805 1.625 3.01054 1.625 6.1298H3.325ZM7.2 2.1498C9.32259 2.1498 11.075 3.914 11.075 6.1298H12.775C12.775 3.01054 10.2965 0.449805 7.2 0.449805V2.1498ZM1.75 17.3998C1.75 16.4974 1.75131 15.7074 1.84158 15.0008C1.93097 14.3011 2.10064 13.7528 2.39178 13.3219C2.9364 12.516 4.13635 11.8098 7.2 11.8098V10.1098C3.96365 10.1098 2.0136 10.8453 0.983216 12.3701C0.486862 13.1047 0.262776 13.9441 0.155291 14.7853C0.0486907 15.6197 0.0499996 16.5239 0.0499996 17.3998H1.75ZM7.18112 11.8096C10.2546 11.8779 11.464 12.5812 12.0116 13.3794C12.3011 13.8013 12.4696 14.3356 12.5586 15.022C12.6486 15.7167 12.65 16.4969 12.65 17.3998H14.35C14.35 16.5244 14.3514 15.6279 14.2445 14.8035C14.1366 13.9709 13.9114 13.1436 13.4134 12.4177C12.386 10.9201 10.4454 10.1817 7.21888 10.11L7.18112 11.8096ZM14.2 9.8498H16.3V8.1498H14.2V9.8498ZM16.3 9.8498H18.4V8.1498H16.3V9.8498ZM15.45 6.8998V8.9998H17.15V6.8998H15.45ZM15.45 8.9998V11.0998H17.15V8.9998H15.45Z" fill="black" fill-opacity="0.2"/>
</svg>
