<svg width="24" height="24" viewBox="0 0 24 24" fill="none" xmlns="http://www.w3.org/2000/svg">
<rect width="24" height="24" rx="12" fill="white"/>
<path d="M15.8464 14.0958L7.85352 18.842L18.2028 18.1396L18.9998 7.70398L15.8463 14.0957L15.8464 14.0958Z" fill="url(#paint0_linear_11916_22942)"/>
<path d="M18.2187 18.1324L17.3292 11.9929L14.9062 15.1924L18.2187 18.1325V18.1324Z" fill="url(#paint1_linear_11916_22942)"/>
<path d="M18.2314 18.1324L11.7146 17.6208L7.8877 18.8285L18.2314 18.1324Z" fill="url(#paint2_linear_11916_22942)"/>
<path d="M7.89688 18.8299L9.52489 13.4966L5.94238 14.2625L7.89682 18.8299L7.89688 18.8299Z" fill="url(#paint3_linear_11916_22942)"/>
<path d="M14.9069 15.21L13.4089 9.34253L9.12207 13.3609L14.9069 15.2101V15.21Z" fill="url(#paint4_linear_11916_22942)"/>
<path d="M18.6592 9.42523L14.6069 6.1156L13.4785 9.76369L18.6592 9.42523Z" fill="url(#paint5_linear_11916_22942)"/>
<path d="M16.7639 4.93548L14.3806 6.25261L12.877 4.91785L16.7639 4.93553V4.93548Z" fill="url(#paint6_linear_11916_22942)"/>
<path d="M5 16.0515L5.99839 14.2307L5.19076 12.0614L5 16.0515Z" fill="url(#paint7_linear_11916_22942)"/>
<path d="M5.13672 11.9929L5.9493 14.2978L9.48011 13.5057L13.5111 9.75932L14.6488 6.14589L12.8575 4.8811L9.81214 6.02082C8.85264 6.91326 6.99081 8.67903 6.92369 8.7122C6.85723 8.74615 5.69422 10.9443 5.13672 11.9929Z" fill="white"/>
<path d="M7.9904 7.8523C10.0699 5.79049 12.7507 4.57233 13.7794 5.61033C14.8077 6.64832 13.7173 9.17081 11.6378 11.232C9.55826 13.2931 6.91071 14.5783 5.8826 13.5403C4.85384 12.5031 5.91089 9.91346 7.9904 7.8523Z" fill="url(#paint8_linear_11916_22942)"/>
<path d="M7.89746 18.8277L9.51273 13.4774L14.8771 15.2008C12.9375 17.0195 10.7803 18.5571 7.89746 18.8277Z" fill="url(#paint9_linear_11916_22942)"/>
<path d="M13.5186 9.74881L14.8957 15.2037C16.5159 13.5001 17.97 11.6686 18.6822 9.40332L13.5186 9.74881H13.5186Z" fill="url(#paint10_linear_11916_22942)"/>
<path d="M18.6683 9.43082C19.2195 7.76755 19.3466 5.38139 16.7477 4.93835L14.6152 6.11625L18.6683 9.43082Z" fill="url(#paint11_linear_11916_22942)"/>
<path d="M5 16.0274C5.07635 18.7726 7.05687 18.8135 7.90054 18.8376L5.95176 14.2864L5 16.0274Z" fill="#9E1209"/>
<path d="M13.5254 9.75733C14.7704 10.5226 17.2796 12.0594 17.3305 12.0876C17.4095 12.1321 18.4122 10.3968 18.6398 9.41602L13.5254 9.75733Z" fill="url(#paint12_radial_11916_22942)"/>
<path d="M9.51074 13.4774L11.6701 17.6435C12.9469 16.951 13.9467 16.1073 14.8624 15.2036L9.51074 13.4774Z" fill="url(#paint13_radial_11916_22942)"/>
<path d="M5.94363 14.2922L5.6377 17.9353C6.21497 18.7239 7.0092 18.7924 7.84221 18.731C7.23951 17.2309 6.03547 14.2314 5.94363 14.2922Z" fill="url(#paint14_linear_11916_22942)"/>
<path d="M14.6025 6.12541L18.8923 6.7274C18.6633 5.7573 17.9602 5.13125 16.7619 4.93555L14.6025 6.12541Z" fill="url(#paint15_linear_11916_22942)"/>
<defs>
<linearGradient id="paint0_linear_11916_22942" x1="17.3" y1="20.1116" x2="14.3501" y2="14.8954" gradientUnits="userSpaceOnUse">
<stop stop-color="#FB7655"/>
<stop offset="0.41" stop-color="#E42B1E"/>
<stop offset="0.99" stop-color="#990000"/>
<stop offset="1" stop-color="#990000"/>
</linearGradient>
<linearGradient id="paint1_linear_11916_22942" x1="18.7703" y1="15.7313" x2="14.6234" y2="14.9212" gradientUnits="userSpaceOnUse">
<stop stop-color="#871101"/>
<stop offset="0.99" stop-color="#911209"/>
<stop offset="1" stop-color="#911209"/>
</linearGradient>
<linearGradient id="paint2_linear_11916_22942" x1="15.7255" y1="20.2695" x2="15.6721" y2="17.6392" gradientUnits="userSpaceOnUse">
<stop stop-color="#871101"/>
<stop offset="0.99" stop-color="#911209"/>
<stop offset="1" stop-color="#911209"/>
</linearGradient>
<linearGradient id="paint3_linear_11916_22942" x1="7.73406" y1="13.8824" x2="8.96706" y2="17.4979" gradientUnits="userSpaceOnUse">
<stop stop-color="white"/>
<stop offset="0.23" stop-color="#E57252"/>
<stop offset="0.46" stop-color="#DE3B20"/>
<stop offset="0.99" stop-color="#A60003"/>
<stop offset="1" stop-color="#A60003"/>
</linearGradient>
<linearGradient id="paint4_linear_11916_22942" x1="11.7932" y1="10.3018" x2="12.0168" y2="14.215" gradientUnits="userSpaceOnUse">
<stop stop-color="white"/>
<stop offset="0.23" stop-color="#E4714E"/>
<stop offset="0.56" stop-color="#BE1A0D"/>
<stop offset="0.99" stop-color="#A80D00"/>
<stop offset="1" stop-color="#A80D00"/>
</linearGradient>
<linearGradient id="paint5_linear_11916_22942" x1="15.3936" y1="6.68448" x2="15.7206" y2="9.52654" gradientUnits="userSpaceOnUse">
<stop stop-color="white"/>
<stop offset="0.18" stop-color="#E46342"/>
<stop offset="0.4" stop-color="#C82410"/>
<stop offset="0.99" stop-color="#A80D00"/>
<stop offset="1" stop-color="#A80D00"/>
</linearGradient>
<linearGradient id="paint6_linear_11916_22942" x1="13.4059" y1="5.69663" x2="13.867" y2="3.74159" gradientUnits="userSpaceOnUse">
<stop stop-color="white"/>
<stop offset="0.54" stop-color="#C81F11"/>
<stop offset="0.99" stop-color="#BF0905"/>
<stop offset="1" stop-color="#BF0905"/>
</linearGradient>
<linearGradient id="paint7_linear_11916_22942" x1="5.2758" y1="12.9047" x2="6.48155" y2="13.6605" gradientUnits="userSpaceOnUse">
<stop stop-color="white"/>
<stop offset="0.31" stop-color="#DE4024"/>
<stop offset="0.99" stop-color="#BF190B"/>
<stop offset="1" stop-color="#BF190B"/>
</linearGradient>
<linearGradient id="paint8_linear_11916_22942" x1="3.68897" y1="15.8406" x2="14.5242" y2="4.66718" gradientUnits="userSpaceOnUse">
<stop stop-color="#BD0012"/>
<stop offset="0.07" stop-color="white"/>
<stop offset="0.17" stop-color="white"/>
<stop offset="0.27" stop-color="#C82F1C"/>
<stop offset="0.33" stop-color="#820C01"/>
<stop offset="0.46" stop-color="#A31601"/>
<stop offset="0.72" stop-color="#B31301"/>
<stop offset="0.99" stop-color="#E82609"/>
<stop offset="1" stop-color="#E82609"/>
</linearGradient>
<linearGradient id="paint9_linear_11916_22942" x1="12.0009" y1="16.9661" x2="8.93462" y2="15.6782" gradientUnits="userSpaceOnUse">
<stop stop-color="#8C0C01"/>
<stop offset="0.54" stop-color="#990C00"/>
<stop offset="0.99" stop-color="#A80D0E"/>
<stop offset="1" stop-color="#A80D0E"/>
</linearGradient>
<linearGradient id="paint10_linear_11916_22942" x1="17.6143" y1="13.0433" x2="14.4558" y2="10.7998" gradientUnits="userSpaceOnUse">
<stop stop-color="#7E110B"/>
<stop offset="0.99" stop-color="#9E0C00"/>
<stop offset="1" stop-color="#9E0C00"/>
</linearGradient>
<linearGradient id="paint11_linear_11916_22942" x1="18.6813" y1="8.26826" x2="17.1959" y2="6.76044" gradientUnits="userSpaceOnUse">
<stop stop-color="#79130D"/>
<stop offset="0.99" stop-color="#9E120B"/>
<stop offset="1" stop-color="#9E120B"/>
</linearGradient>
<radialGradient id="paint12_radial_11916_22942" cx="0" cy="0" r="1" gradientUnits="userSpaceOnUse" gradientTransform="translate(15.162 10.4906) scale(3.55824 1.8593)">
<stop stop-color="#A80D00"/>
<stop offset="0.99" stop-color="#7E0E08"/>
<stop offset="1" stop-color="#7E0E08"/>
</radialGradient>
<radialGradient id="paint13_radial_11916_22942" cx="0" cy="0" r="1" gradientUnits="userSpaceOnUse" gradientTransform="translate(10.2358 15.1797) scale(4.73013 3.6822)">
<stop stop-color="#A30C00"/>
<stop offset="0.99" stop-color="#800E08"/>
<stop offset="1" stop-color="#800E08"/>
</radialGradient>
<linearGradient id="paint14_linear_11916_22942" x1="6.88479" y1="18.8247" x2="4.2217" y2="16.6141" gradientUnits="userSpaceOnUse">
<stop stop-color="#8B2114"/>
<stop offset="0.43" stop-color="#9E100A"/>
<stop offset="0.99" stop-color="#B3100C"/>
<stop offset="1" stop-color="#B3100C"/>
</linearGradient>
<linearGradient id="paint15_linear_11916_22942" x1="15.9268" y1="5.57343" x2="16.6826" y2="7.48561" gradientUnits="userSpaceOnUse">
<stop stop-color="#B31000"/>
<stop offset="0.44" stop-color="#910F08"/>
<stop offset="0.99" stop-color="#791C12"/>
<stop offset="1" stop-color="#791C12"/>
</linearGradient>
</defs>
</svg>
