<svg width="24" height="24" viewBox="0 0 24 24" fill="none" xmlns="http://www.w3.org/2000/svg">
<g clip-path="url(#clip0_11913_13652)">
<path d="M23.836 11.7057L22.8285 11.082C22.82 10.9841 22.8104 10.8862 22.7998 10.7885L23.6657 9.98089C23.709 9.94067 23.7412 9.89001 23.7594 9.83377C23.7775 9.77752 23.7809 9.71756 23.7693 9.65962C23.7579 9.60164 23.7319 9.54755 23.6936 9.50251C23.6554 9.45747 23.6062 9.42299 23.5508 9.40237L22.4439 8.98847C22.4161 8.89289 22.3872 8.79764 22.3572 8.70273L23.0477 7.74378C23.0823 7.69584 23.104 7.63986 23.1109 7.58115C23.1177 7.52243 23.1095 7.46294 23.0869 7.40833C23.0642 7.35371 23.028 7.30578 22.9817 7.2691C22.9353 7.23241 22.8804 7.20819 22.822 7.19873L21.6548 7.00889C21.6095 6.92039 21.5622 6.8332 21.5146 6.74677L22.005 5.67026C22.0297 5.61654 22.0402 5.55738 22.0354 5.49845C22.0307 5.43952 22.0109 5.3828 21.978 5.3337C21.9453 5.28445 21.9005 5.24443 21.8479 5.21747C21.7953 5.19051 21.7367 5.17753 21.6776 5.17977L20.493 5.22102C20.4318 5.14439 20.3694 5.06872 20.3059 4.99405L20.5781 3.8402C20.5917 3.78265 20.5904 3.72258 20.5742 3.6657C20.558 3.60882 20.5276 3.55703 20.4857 3.51527C20.4439 3.47346 20.3922 3.44302 20.3353 3.42684C20.2785 3.41067 20.2185 3.40928 20.1609 3.42283L19.0073 3.69479C18.9325 3.6313 18.8566 3.56892 18.7799 3.50767L18.8213 2.32316C18.8236 2.26411 18.8106 2.20548 18.7837 2.15287C18.7568 2.10027 18.7168 2.05545 18.6676 2.0227C18.6185 1.98982 18.5618 1.97006 18.5029 1.9653C18.4439 1.96054 18.3848 1.97094 18.331 1.99551L17.2548 2.48619C17.168 2.43828 17.0806 2.3914 16.9927 2.34557L16.8023 1.17822C16.7928 1.11993 16.7686 1.06503 16.7319 1.01874C16.6952 0.972448 16.6473 0.936289 16.5927 0.913689C16.5382 0.89109 16.4787 0.882799 16.4201 0.889602C16.3614 0.896406 16.3054 0.918078 16.2575 0.952566L15.2978 1.64302C15.2034 1.61302 15.1085 1.58405 15.0127 1.55659L14.5988 0.449513C14.5782 0.394051 14.5437 0.344797 14.4986 0.306456C14.4536 0.268115 14.3994 0.241969 14.3414 0.230517C14.2835 0.219122 14.2236 0.222662 14.1675 0.240802C14.1113 0.258942 14.0607 0.291086 14.0204 0.334203L13.2128 1.20072C13.1151 1.18977 13.0173 1.18021 12.9193 1.17203L12.2956 0.164237C12.2645 0.114019 12.2211 0.0725729 12.1695 0.0438299C12.1179 0.0150869 12.0599 0 12.0008 0C11.9417 0 11.8837 0.0150869 11.8321 0.0438299C11.7805 0.0725729 11.7371 0.114019 11.706 0.164237L11.0823 1.17203C10.9842 1.1802 10.8863 1.18976 10.7886 1.20072L9.98072 0.334203C9.94046 0.290926 9.88979 0.258672 9.83354 0.240509C9.77729 0.222346 9.71733 0.218878 9.65936 0.230436C9.60139 0.241994 9.54735 0.268192 9.50236 0.306539C9.45738 0.344886 9.42296 0.394105 9.40238 0.449513L8.98856 1.55659C8.89266 1.58405 8.79778 1.61321 8.70309 1.64302L7.74366 0.952566C7.69573 0.917919 7.63971 0.896149 7.58097 0.889338C7.52222 0.882526 7.46271 0.8909 7.40812 0.91366C7.35359 0.936311 7.30573 0.97249 7.26907 1.01878C7.23241 1.06507 7.20815 1.11995 7.19859 1.17822L7.00828 2.34557C6.92016 2.39123 6.83306 2.43819 6.74616 2.48619L5.66981 1.99542C5.61609 1.97083 5.55696 1.96043 5.49807 1.96521C5.43918 1.96998 5.3825 1.98978 5.33344 2.0227C5.28421 2.05542 5.24421 2.10023 5.21725 2.15284C5.1903 2.20545 5.1773 2.2641 5.1795 2.32316L5.22075 3.50767C5.14411 3.56904 5.06829 3.63141 4.99331 3.69479L3.83972 3.42293C3.78217 3.40944 3.72214 3.41084 3.66529 3.427C3.60843 3.44316 3.55663 3.47353 3.51478 3.51527C3.47291 3.55703 3.44243 3.60882 3.42625 3.6657C3.41007 3.72258 3.40873 3.78265 3.42234 3.8402L3.69412 4.99405C3.63103 5.06877 3.56869 5.14442 3.50747 5.22102L2.32284 5.17977C2.26385 5.1779 2.20535 5.19104 2.15281 5.21795C2.10028 5.24485 2.05543 5.28465 2.02247 5.33361C1.9896 5.38272 1.96983 5.43943 1.96506 5.49834C1.96028 5.55725 1.97065 5.61639 1.99519 5.67016L2.48588 6.74677C2.43816 6.8332 2.391 6.92039 2.34525 7.00889L1.17816 7.19873C1.11983 7.20824 1.06491 7.23249 1.01859 7.26918C0.972268 7.30588 0.93609 7.35379 0.913486 7.40839C0.890882 7.46299 0.882601 7.52246 0.889429 7.58115C0.896257 7.63985 0.917967 7.69583 0.9525 7.74378L1.64297 8.70282C1.61297 8.79751 1.58381 8.89257 1.55625 8.98847L0.44925 9.40237C0.393966 9.42314 0.344896 9.45767 0.306684 9.5027C0.268472 9.54773 0.242382 9.60176 0.230883 9.65969C0.219384 9.71761 0.222857 9.77751 0.240972 9.83372C0.259088 9.88993 0.291247 9.94058 0.334406 9.98089L1.20038 10.7884C1.18959 10.8859 1.18003 10.9841 1.17178 11.082L0.164063 11.7057C0.113851 11.7368 0.0724208 11.7802 0.0437063 11.8318C0.0149918 11.8834 -5.32946e-05 11.9415 1.41849e-07 12.0005C1.41849e-07 12.1209 0.0621564 12.2324 0.164156 12.2952L1.17178 12.9189C1.18003 13.017 1.18959 13.115 1.20038 13.2124L0.334313 14.0202C0.291077 14.0605 0.258849 14.1111 0.240691 14.1673C0.222532 14.2236 0.219045 14.2835 0.230561 14.3414C0.242077 14.3994 0.268213 14.4534 0.306488 14.4984C0.344762 14.5434 0.393905 14.5779 0.44925 14.5986L1.55625 15.0125C1.58381 15.1083 1.61297 15.2034 1.64297 15.2981L0.9525 16.2572C0.917902 16.3052 0.896146 16.3612 0.889302 16.4199C0.882457 16.4786 0.890753 16.5381 0.913398 16.5927C0.936044 16.6473 0.972286 16.6953 1.01868 16.7319C1.06507 16.7685 1.12007 16.7927 1.17844 16.8021L2.34534 16.9919C2.391 17.0804 2.43778 17.1676 2.48597 17.2544L1.99519 18.3307C1.97061 18.3844 1.96021 18.4436 1.96499 18.5025C1.96976 18.5614 1.98955 18.6181 2.02247 18.6672C2.0552 18.7164 2.1 18.7564 2.15259 18.7833C2.20518 18.8103 2.2638 18.8233 2.32284 18.8211L3.50691 18.7796C3.56869 18.8566 3.63084 18.9321 3.69412 19.0071L3.42234 20.1611C3.40874 20.2185 3.41009 20.2785 3.42627 20.3353C3.44246 20.3921 3.47293 20.4437 3.51478 20.4854C3.55652 20.5273 3.60831 20.5578 3.66521 20.5739C3.72211 20.59 3.7822 20.5913 3.83972 20.5775L4.99331 20.3059C5.06831 20.3696 5.14425 20.4315 5.22084 20.4924L5.17959 21.6773C5.17746 21.7363 5.19048 21.7949 5.21739 21.8475C5.2443 21.9001 5.28422 21.945 5.33335 21.9778C5.38248 22.0106 5.43919 22.0303 5.49808 22.035C5.55698 22.0397 5.61609 22.0293 5.66981 22.0047L6.74616 21.5143C6.83282 21.5624 6.92021 21.6093 7.00828 21.6548L7.19859 22.8215C7.208 22.8799 7.23219 22.9348 7.26887 22.9812C7.30555 23.0276 7.35349 23.0638 7.40812 23.0863C7.46273 23.1089 7.5222 23.1173 7.58091 23.1105C7.63962 23.1037 7.69564 23.0821 7.74366 23.0476L8.70263 22.3567C8.79731 22.3867 8.89247 22.416 8.98828 22.4436L9.40219 23.5502C9.4228 23.6056 9.45727 23.6548 9.50231 23.693C9.54735 23.7313 9.60145 23.7573 9.65944 23.7687C9.71736 23.7804 9.77731 23.777 9.83354 23.7589C9.88977 23.7407 9.94038 23.7084 9.98053 23.665L10.7884 22.799C10.8859 22.8102 10.9839 22.8196 11.0821 22.8283L11.7058 23.8359C11.7369 23.8861 11.7803 23.9275 11.8319 23.9562C11.8834 23.9849 11.9415 24 12.0005 24C12.0595 24 12.1176 23.9849 12.1692 23.9562C12.2208 23.9275 12.2642 23.8861 12.2953 23.8359L12.919 22.8283C13.0172 22.8196 13.1152 22.8102 13.2126 22.799L14.0202 23.665C14.0604 23.7084 14.111 23.7406 14.1672 23.7588C14.2234 23.7769 14.2833 23.7804 14.3412 23.7687C14.3992 23.7573 14.4533 23.7312 14.4983 23.693C14.5433 23.6547 14.5778 23.6056 14.5985 23.5502L15.0124 22.4436C15.1082 22.416 15.2034 22.3867 15.2981 22.3567L16.2573 23.0476C16.3053 23.0821 16.3613 23.1038 16.42 23.1105C16.4787 23.1173 16.5381 23.109 16.5927 23.0863C16.6473 23.0637 16.6952 23.0275 16.7318 22.9811C16.7685 22.9348 16.7927 22.8798 16.8022 22.8215L16.9925 21.6548C17.0805 21.6091 17.1676 21.5617 17.2545 21.5142L18.3308 22.0047C18.3846 22.0293 18.4437 22.0398 18.5026 22.0352C18.5616 22.0305 18.6183 22.0108 18.6675 21.978C18.7166 21.9451 18.7566 21.9003 18.7835 21.8476C18.8104 21.795 18.8233 21.7364 18.8212 21.6773L18.7799 20.4925C18.8566 20.4315 18.9323 20.3693 19.0071 20.3059L20.1608 20.5775C20.2779 20.6051 20.4007 20.571 20.4854 20.4854C20.5273 20.4437 20.5577 20.3921 20.5739 20.3353C20.5901 20.2785 20.5915 20.2185 20.5778 20.1611L20.3062 19.0071C20.3694 18.9321 20.4318 18.8566 20.4927 18.7796L21.6773 18.8211C21.7364 18.8233 21.795 18.8103 21.8476 18.7834C21.9002 18.7565 21.945 18.7165 21.9777 18.6673C22.0107 18.6182 22.0305 18.5615 22.0352 18.5025C22.04 18.4435 22.0295 18.3843 22.0048 18.3306L21.5143 17.2545C21.5622 17.1676 21.6093 17.0804 21.6547 16.992L22.8218 16.8021C22.8802 16.7927 22.9352 16.7685 22.9815 16.7318C23.0278 16.6951 23.0639 16.6472 23.0864 16.5925C23.109 16.5379 23.1173 16.4785 23.1105 16.4198C23.1037 16.3611 23.082 16.3052 23.0475 16.2572L22.357 15.2982C22.3868 15.2034 22.416 15.1083 22.4437 15.0125L23.5506 14.5986C23.606 14.5779 23.6552 14.5435 23.6934 14.4984C23.7317 14.4534 23.7577 14.3992 23.7691 14.3412C23.7808 14.2833 23.7774 14.2234 23.7592 14.1672C23.741 14.111 23.7087 14.0604 23.6654 14.0202L22.7996 13.2124C22.8101 13.1149 22.8198 13.0168 22.8282 12.919L23.8358 12.2952C23.8861 12.2641 23.9275 12.2208 23.9563 12.1692C23.985 12.1176 24.0001 12.0596 24 12.0005C24 11.8804 23.9381 11.7688 23.836 11.7057ZM17.0924 20.0639C16.7077 19.9809 16.463 19.6017 16.5456 19.2157C16.6279 18.8303 17.0068 18.5849 17.3915 18.6679C17.7762 18.7503 18.0213 19.1302 17.9388 19.5154C17.8563 19.9007 17.477 20.1463 17.0924 20.0639ZM16.75 17.7484C16.6665 17.7305 16.5803 17.7292 16.4964 17.7447C16.4124 17.7601 16.3323 17.792 16.2606 17.8384C16.189 17.8848 16.1271 17.9449 16.0787 18.0152C16.0303 18.0856 15.9963 18.1648 15.9785 18.2483L15.6207 19.9176C14.5168 20.4186 13.291 20.697 12 20.697C10.6794 20.697 9.42694 20.4049 8.30344 19.8825L7.94587 18.2132C7.87069 17.8619 7.52531 17.6382 7.1745 17.7135L5.70075 18.03C5.42685 17.7481 5.17228 17.4481 4.93875 17.1319H12.1097C12.1908 17.1319 12.2449 17.1172 12.2449 17.0433V14.5068C12.2449 14.433 12.1908 14.4183 12.1096 14.4183H10.0125V12.8105H12.2808C12.4878 12.8105 13.3879 12.8696 13.6756 14.02C13.7658 14.3738 13.9636 15.5247 14.099 15.8931C14.2338 16.3064 14.7827 17.1318 15.3677 17.1318H18.941C18.9816 17.1318 19.0249 17.1272 19.0705 17.119C18.8226 17.4557 18.551 17.7743 18.2578 18.0724L16.7501 17.7484H16.75ZM6.83222 20.029C6.44737 20.1121 6.06853 19.8667 5.98575 19.4812C5.90344 19.0951 6.14812 18.7161 6.53288 18.6331C6.91772 18.5508 7.29675 18.7961 7.37925 19.1815C7.46156 19.5668 7.21669 19.9465 6.83212 20.029H6.83222ZM4.11188 8.9986C4.27153 9.35878 4.10906 9.78093 3.74934 9.9403C3.38963 10.1001 2.96859 9.93749 2.80903 9.57703C2.64938 9.21656 2.81175 8.79517 3.17156 8.63533C3.25714 8.59737 3.34937 8.57666 3.44296 8.57437C3.53655 8.57208 3.62967 8.58827 3.71701 8.622C3.80434 8.65573 3.88416 8.70634 3.95192 8.77095C4.01967 8.83555 4.07403 8.91288 4.11188 8.99851V8.9986ZM3.27581 10.9804L4.81106 10.2982C4.96867 10.2281 5.09199 10.0983 5.15394 9.93733C5.21589 9.77635 5.21139 9.59736 5.14144 9.43968L4.82531 8.72476H6.06881V14.3298H3.55997C3.33758 13.5469 3.22506 12.7369 3.22566 11.9231C3.22566 11.6045 3.24281 11.2897 3.27581 10.9803V10.9804ZM10.0129 10.436V8.78392H12.9741C13.1271 8.78392 14.0541 8.96072 14.0541 9.6539C14.0541 10.2294 13.3431 10.4358 12.7583 10.4358H10.0129V10.436ZM20.7746 11.9231C20.7746 12.1423 20.7666 12.3592 20.7505 12.5744H19.8503C19.7602 12.5744 19.7239 12.6337 19.7239 12.7219V13.1353C19.7239 14.1084 19.1752 14.3201 18.6943 14.374C18.2364 14.4256 17.7287 14.1823 17.6662 13.9021C17.396 12.3828 16.9459 12.0584 16.2351 11.4976C17.1173 10.9375 18.0351 10.1111 18.0351 9.00488C18.0351 7.81053 17.2163 7.0582 16.6581 6.6893C15.8751 6.17312 15.0081 6.06962 14.7742 6.06962H5.46366C6.72619 4.66059 8.43731 3.66245 10.3726 3.29927L11.47 4.4505C11.5289 4.51229 11.5994 4.56187 11.6775 4.59639C11.7555 4.6309 11.8396 4.64968 11.925 4.65165C12.0103 4.65362 12.0952 4.63874 12.1748 4.60786C12.2543 4.57697 12.327 4.5307 12.3887 4.47169L13.6166 3.29721C16.1896 3.77626 18.3681 5.37786 19.6235 7.57522L18.7828 9.4739C18.6377 9.80249 18.7858 10.1868 19.1135 10.3324L20.732 11.0512C20.7599 11.3386 20.7746 11.6288 20.7746 11.9231ZM11.4705 2.31988C11.7548 2.04754 12.2059 2.05833 12.4781 2.34304C12.7498 2.6286 12.7395 3.08009 12.4545 3.35224C12.1702 3.62467 11.7191 3.61408 11.4469 3.3288C11.3164 3.19177 11.2457 3.0086 11.2501 2.81946C11.2545 2.63032 11.3338 2.45066 11.4705 2.31988ZM19.8127 9.03319C19.8505 8.94757 19.9048 8.87025 19.9726 8.80565C20.0403 8.74106 20.1201 8.69045 20.2074 8.65674C20.2948 8.62302 20.3879 8.60686 20.4815 8.60917C20.575 8.61147 20.6672 8.63222 20.7528 8.6702C21.1126 8.82976 21.275 9.25172 21.1153 9.6119C21.0775 9.69756 21.0232 9.77492 20.9554 9.83956C20.8877 9.90419 20.8079 9.95483 20.7205 9.98857C20.6332 10.0223 20.54 10.0385 20.4464 10.0362C20.3528 10.0339 20.2606 10.0132 20.175 9.97517C19.8157 9.81552 19.6533 9.39394 19.8127 9.03319Z" fill="black"/>
</g>
<defs>
<clipPath id="clip0_11913_13652">
<rect width="24" height="24" rx="12" fill="white"/>
</clipPath>
</defs>
</svg>
