<svg width="26" height="26" viewBox="0 0 26 26" fill="none" xmlns="http://www.w3.org/2000/svg">
<path d="M11 15L15.0019 22.4855C16.0895 24.008 16.6332 24.7699 17.2215 24.9352C17.7331 25.079 18.2822 24.9805 18.7122 24.6683C19.2068 24.3092 19.4533 23.4062 19.9456 21.601L24.4957 4.91745C24.9152 3.37954 25.1244 2.6106 24.9221 2.08088C24.7457 1.6189 24.3809 1.25406 23.9189 1.07767C23.3892 0.875406 22.6202 1.08576 21.0823 1.50519L4.39848 6.05525C2.59328 6.54757 1.69077 6.79353 1.33169 7.28805C1.01948 7.71805 0.920974 8.26716 1.06477 8.77873C1.23015 9.36706 1.99141 9.91022 3.51402 10.9978L11 15ZM11 15L15.948 10.0522" stroke="white" stroke-width="2" stroke-linecap="round"/>
</svg>
