<svg width="21" height="22" viewBox="0 0 21 22" fill="none" xmlns="http://www.w3.org/2000/svg">
<path d="M8.09922 19.7504C7.62978 19.7504 7.24922 20.1309 7.24922 20.6004C7.24922 21.0698 7.62978 21.4504 8.09922 21.4504V19.7504ZM12.6992 21.4504C13.1687 21.4504 13.5492 21.0698 13.5492 20.6004C13.5492 20.1309 13.1687 19.7504 12.6992 19.7504V21.4504ZM5.32283 2.04818L5.53606 2.871L5.32283 2.04818ZM15.4756 2.04818L15.2624 2.871L15.4756 2.04818ZM16.5213 10.6578L15.6727 10.6085L16.5213 10.6578ZM4.27716 10.6578L5.12572 10.6085L4.27716 10.6578ZM9.54922 16.6268V20.6004H11.2492V16.6268H9.54922ZM8.09922 21.4504H12.6992V19.7504H8.09922V21.4504ZM5.53606 2.871C8.72919 2.04352 12.0693 2.04352 15.2624 2.871L15.6888 1.22536C12.216 0.3254 8.58241 0.3254 5.1096 1.22536L5.53606 2.871ZM17.3826 3.4514C17.3826 2.41924 16.7029 1.48815 15.6888 1.22536L15.2624 2.871C15.4907 2.93016 15.6826 3.15615 15.6826 3.4514H17.3826ZM5.11589 3.4514C5.11589 3.15615 5.30777 2.93016 5.53606 2.871L5.1096 1.22536C4.09554 1.48815 3.41589 2.41924 3.41589 3.4514H5.11589ZM18.7492 6.69298V9.07711H20.4492V6.69298H18.7492ZM18.7492 9.07711C18.7492 9.73397 18.2431 10.2139 17.6826 10.2139V11.9139C19.2391 11.9139 20.4492 10.6148 20.4492 9.07711H18.7492ZM17.6826 5.55621C18.2431 5.55621 18.7492 6.03612 18.7492 6.69298H20.4492C20.4492 5.15532 19.2391 3.85621 17.6826 3.85621V5.55621ZM2.04922 9.07711V6.69298H0.349219V9.07711H2.04922ZM3.11589 10.2139C2.5553 10.2139 2.04922 9.73397 2.04922 9.07711H0.349219C0.349219 10.6148 1.55937 11.9139 3.11589 11.9139V10.2139ZM3.11589 3.85621C1.55937 3.85621 0.349219 5.15531 0.349219 6.69298H2.04922C2.04922 6.03612 2.5553 5.55621 3.11589 5.55621V3.85621ZM17.6826 3.85621C17.0528 3.85621 16.4726 4.07284 16.0104 4.43274L17.0547 5.7741C17.2332 5.63517 17.4494 5.55621 17.6826 5.55621V3.85621ZM15.6826 3.4514V5.10342H17.3826V3.4514H15.6826ZM15.6826 5.10342V10.2692H17.3826V5.10342H15.6826ZM17.6826 10.2139C17.4467 10.2139 17.2281 10.1331 17.0484 9.99104L15.9941 11.3246C16.4589 11.6921 17.0453 11.9139 17.6826 11.9139V10.2139ZM15.6826 10.2692C15.6826 10.3832 15.6792 10.4963 15.6727 10.6085L17.3698 10.7072C17.3783 10.5622 17.3826 10.4162 17.3826 10.2692H15.6826ZM15.6727 10.6085C15.5034 13.5185 13.1816 15.7768 10.3992 15.7768V17.4768C14.1397 17.4768 17.1517 14.4577 17.3698 10.7072L15.6727 10.6085ZM3.75 9.99104C3.57033 10.1331 3.35175 10.2139 3.11589 10.2139V11.9139C3.75314 11.9139 4.33949 11.6921 4.80431 11.3246L3.75 9.99104ZM3.41589 10.2692C3.41589 10.4162 3.42016 10.5622 3.42859 10.7072L5.12572 10.6085C5.1192 10.4963 5.11589 10.3832 5.11589 10.2692H3.41589ZM3.42859 10.7072C3.64678 14.4577 6.65875 17.4768 10.3992 17.4768V15.7768C7.6168 15.7768 5.29502 13.5185 5.12572 10.6085L3.42859 10.7072ZM3.11589 5.55621C3.34907 5.55621 3.56525 5.63517 3.74369 5.7741L4.78808 4.43274C4.32585 4.07284 3.74566 3.85621 3.11589 3.85621V5.55621ZM5.11589 10.2692V5.10342H3.41589V10.2692H5.11589ZM5.11589 5.10342V3.4514H3.41589V5.10342H5.11589Z" fill="white"/>
</svg>
