<svg width="22" height="22" viewBox="0 0 22 22" fill="none" xmlns="http://www.w3.org/2000/svg">
<path d="M15.578 8.18154C15.578 8.83408 15.049 9.36308 14.3964 9.36308C13.7439 9.36308 13.2149 8.83408 13.2149 8.18154C13.2149 7.52899 13.7439 7 14.3964 7C15.049 7 15.578 7.52899 15.578 8.18154Z" fill="#4A525D"/>
<path d="M8.9318 8.18154C8.9318 8.83408 8.40281 9.36308 7.75026 9.36308C7.09772 9.36308 6.56873 8.83408 6.56873 8.18154C6.56873 7.52899 7.09772 7 7.75026 7C8.40281 7 8.9318 7.52899 8.9318 8.18154Z" fill="#4A525D"/>
<path d="M6.14358 20.3818L5.92359 21.2029L6.14358 20.3818ZM1.6181 15.8563L0.797062 16.0763L1.6181 15.8563ZM20.3274 14.6705L21.1485 14.8905L20.3274 14.6705ZM14.6706 20.3273L14.8906 21.1483L14.6706 20.3273ZM15.8565 1.61798L16.0765 0.79694L15.8565 1.61798ZM20.3819 6.14346L21.203 5.92346L20.3819 6.14346ZM7.846 12.6258C7.61773 12.2156 7.10013 12.0682 6.68993 12.2964C6.27973 12.5247 6.13226 13.0423 6.36054 13.4525L7.846 12.6258ZM20.6 12.5999H21.45V11.7499H20.6V12.5999ZM13.4 20.1999H12.55V21.0499H13.4V20.1999ZM15.5841 13.0359L15.97 13.7932L15.5841 13.0359ZM13.836 14.7839L14.5934 15.1698L13.836 14.7839ZM13.5033 14.7408L13.9582 15.4588L13.5033 14.7408ZM11 2.2499H12.0667V0.549902H11V2.2499ZM2.25002 12.0666V10.9999H0.550024V12.0666H2.25002ZM9.93336 19.7499C7.89469 19.7499 7.04211 19.7426 6.36358 19.5608L5.92359 21.2029C6.87279 21.4572 8.00414 21.4499 9.93336 21.4499V19.7499ZM0.550024 12.0666C0.550024 13.9958 0.542724 15.1271 0.797062 16.0763L2.43914 15.6363C2.25733 14.9578 2.25002 14.1052 2.25002 12.0666H0.550024ZM6.36358 19.5608C4.44832 19.0476 2.95233 17.5516 2.43914 15.6363L0.797062 16.0763C1.46745 18.5783 3.42167 20.5325 5.92359 21.2029L6.36358 19.5608ZM19.75 9.93324C19.75 12.4679 19.7427 13.5685 19.5064 14.4505L21.1485 14.8905C21.4573 13.7378 21.45 12.3584 21.45 9.93324H19.75ZM9.93336 21.4499C12.3586 21.4499 13.7379 21.4572 14.8906 21.1483L14.4506 19.5063C13.5686 19.7426 12.468 19.7499 9.93336 19.7499V21.4499ZM19.5064 14.4505C18.8453 16.9179 16.918 18.8451 14.4506 19.5063L14.8906 21.1483C17.9446 20.33 20.3301 17.9445 21.1485 14.8905L19.5064 14.4505ZM12.0667 2.2499C14.1054 2.2499 14.9579 2.2572 15.6365 2.43901L16.0765 0.79694C15.1273 0.542601 13.9959 0.549902 12.0667 0.549902V2.2499ZM21.45 9.93324C21.45 8.00402 21.4573 6.87267 21.203 5.92346L19.5609 6.36346C19.7427 7.04198 19.75 7.89457 19.75 9.93324H21.45ZM15.6365 2.43901C17.5517 2.95221 19.0477 4.4482 19.5609 6.36346L21.203 5.92346C20.5326 3.42155 18.5784 1.46733 16.0765 0.79694L15.6365 2.43901ZM11 0.549902C9.52064 0.549902 8.36853 0.549442 7.44037 0.61277C6.50457 0.67662 5.73447 0.808139 5.02557 1.10178L5.67613 2.67237C6.14336 2.47884 6.70684 2.36677 7.55609 2.30883C8.41297 2.25036 9.49738 2.2499 11 2.2499V0.549902ZM2.25002 10.9999C2.25002 9.49726 2.25048 8.41285 2.30895 7.55597C2.36689 6.70672 2.47896 6.14324 2.67249 5.67601L1.1019 5.02545C0.808261 5.73435 0.676742 6.50444 0.612892 7.44025C0.549564 8.36841 0.550024 9.52052 0.550024 10.9999H2.25002ZM5.02557 1.10178C3.24912 1.83761 1.83773 3.24899 1.1019 5.02545L2.67249 5.67601C3.23578 4.3161 4.31623 3.23566 5.67613 2.67237L5.02557 1.10178ZM11.1033 14.5892C9.72612 14.5892 8.50628 13.8123 7.846 12.6258L6.36054 13.4525C7.29714 15.1355 9.06197 16.2892 11.1033 16.2892V14.5892ZM19.8 13.4499H20.6V11.7499H19.8V13.4499ZM19.75 12.5999V12.9999H21.45V12.5999H19.75ZM14.25 20.1999V18.9999H12.55V20.1999H14.25ZM19.75 12.9999C19.75 16.5069 16.907 19.3499 13.4 19.3499V21.0499C17.8459 21.0499 21.45 17.4458 21.45 12.9999H19.75ZM19.8 11.7499C18.6939 11.7499 17.8133 11.7492 17.1036 11.8072C16.384 11.866 15.7658 11.9893 15.1982 12.2785L15.97 13.7932C16.258 13.6465 16.6276 13.5518 17.242 13.5016C17.8664 13.4506 18.6659 13.4499 19.8 13.4499V11.7499ZM14.25 18.9999C14.25 17.8658 14.2507 17.0663 14.3017 16.4419C14.3519 15.8275 14.4466 15.4579 14.5934 15.1698L13.0786 14.398C12.7894 14.9657 12.6661 15.5839 12.6073 16.3035C12.5494 17.0131 12.55 17.8938 12.55 18.9999H14.25ZM15.1982 12.2785C14.2856 12.7435 13.5436 13.4855 13.0786 14.398L14.5934 15.1698C14.8954 14.5771 15.3772 14.0952 15.97 13.7932L15.1982 12.2785ZM13.0484 14.0228C12.4796 14.3831 11.8148 14.5892 11.1033 14.5892V16.2892C12.1497 16.2892 13.1282 15.9847 13.9582 15.4588L13.0484 14.0228ZM13.6178 13.5807C13.4416 13.7463 13.251 13.8944 13.0484 14.0228L13.9582 15.4588C14.2529 15.2721 14.5287 15.0576 14.7823 14.8192L13.6178 13.5807Z" fill="#4A525D"/>
</svg>
