<svg width="32" height="33" viewBox="0 0 32 33" fill="none" xmlns="http://www.w3.org/2000/svg">
<path d="M12.4736 8.27305L12.6336 8.35305C13.2802 8.68638 13.8069 9.21305 14.1402 9.85971L14.2202 10.0197C14.5402 10.653 15.4469 10.653 15.7736 10.0197L15.8536 9.85971C16.1869 9.21305 16.7136 8.68638 17.3602 8.35305L17.5202 8.27305C18.1536 7.95305 18.1536 7.04638 17.5202 6.71971L17.3602 6.63971C16.7136 6.30638 16.1869 5.77971 15.8536 5.13305L15.7736 4.97305C15.4536 4.33971 14.5469 4.33971 14.2202 4.97305L14.1402 5.13305C13.8069 5.77971 13.2802 6.30638 12.6336 6.63971L12.4736 6.71971C11.8402 7.03971 11.8402 7.94638 12.4736 8.27305Z" fill="white"/>
<path d="M13.7336 14.5197C14.3869 14.1864 14.3869 13.2597 13.7336 12.9264L12.7602 12.4264C11.8936 11.9797 11.1869 11.273 10.7402 10.4064L10.2402 9.43305C9.90691 8.77971 8.98024 8.77971 8.64691 9.43305L8.14691 10.4064C7.70024 11.273 6.99357 11.9797 6.12691 12.4264L5.15357 12.9264C4.50024 13.2597 4.50024 14.1864 5.15357 14.5197L6.12691 15.0197C6.99357 15.4664 7.70024 16.173 8.14691 17.0397L8.64691 18.013C8.98024 18.6664 9.90691 18.6664 10.2402 18.013L10.7402 17.0397C11.1869 16.173 11.8936 15.4664 12.7602 15.0197L13.7336 14.5197Z" fill="white"/>
<path d="M26.2402 18.5064L25.2536 17.9997C24.0602 17.393 23.1069 16.4397 22.5002 15.2464L21.9936 14.2597C21.5469 13.3797 20.6536 12.833 19.6669 12.833C18.6802 12.833 17.7869 13.3797 17.3402 14.2597L16.8336 15.2464C16.2269 16.4397 15.2736 17.393 14.0802 17.9997L13.0936 18.5064C12.2136 18.953 11.6669 19.8464 11.6669 20.833C11.6669 21.8197 12.2136 22.713 13.0936 23.1597L14.0802 23.6664C15.2736 24.273 16.2269 25.2264 16.8336 26.4197L17.3402 27.4064C17.7869 28.2864 18.6802 28.833 19.6669 28.833C20.6536 28.833 21.5469 28.2864 21.9936 27.4064L22.5002 26.4197C23.1069 25.2264 24.0602 24.273 25.2536 23.6664L26.2402 23.1597C27.1202 22.713 27.6669 21.8197 27.6669 20.833C27.6669 19.8464 27.1202 18.953 26.2402 18.5064ZM25.3336 21.3797L24.3469 21.8864C22.7736 22.6864 21.5202 23.9397 20.7202 25.513L20.2136 26.4997C20.0602 26.7997 19.7802 26.833 19.6669 26.833C19.5536 26.833 19.2736 26.7997 19.1202 26.4997L18.6136 25.513C17.8136 23.9397 16.5602 22.6864 14.9869 21.8864L14.0002 21.3797C13.7002 21.2264 13.6669 20.9464 13.6669 20.833C13.6669 20.7197 13.7002 20.4397 14.0002 20.2864L14.9869 19.7797C16.5602 18.9797 17.8136 17.7264 18.6136 16.153L19.1202 15.1664C19.2736 14.8664 19.5536 14.833 19.6669 14.833C19.7802 14.833 20.0602 14.8664 20.2136 15.1664L20.7202 16.153C21.5202 17.7264 22.7736 18.9797 24.3469 19.7797L25.3336 20.2864C25.6336 20.4397 25.6669 20.7197 25.6669 20.833C25.6669 20.9464 25.6336 21.2264 25.3336 21.3797Z" fill="white"/>
</svg>
