<svg width="32" height="32" viewBox="0 0 32 32" fill="none" xmlns="http://www.w3.org/2000/svg">
<path d="M20.5778 13.1815C20.5778 13.8341 20.0488 14.3631 19.3963 14.3631C18.7438 14.3631 18.2148 13.8341 18.2148 13.1815C18.2148 12.529 18.7438 12 19.3963 12C20.0488 12 20.5778 12.529 20.5778 13.1815Z" fill="#4A525D"/>
<path d="M13.9317 13.1815C13.9317 13.8341 13.4027 14.3631 12.7501 14.3631C12.0976 14.3631 11.5686 13.8341 11.5686 13.1815C11.5686 12.529 12.0976 12 12.7501 12C13.4027 12 13.9317 12.529 13.9317 13.1815Z" fill="#4A525D"/>
<path d="M11.1435 25.3818L10.9235 26.2029L11.1435 25.3818ZM6.61798 20.8563L5.79694 21.0763L6.61798 20.8563ZM25.3273 19.6705L26.1483 19.8905L25.3273 19.6705ZM19.6705 25.3273L19.8905 26.1483L19.6705 25.3273ZM20.8563 6.61798L21.0763 5.79694L20.8563 6.61798ZM25.3818 11.1435L26.2029 10.9235L25.3818 11.1435ZM12.8459 17.6258C12.6176 17.2156 12.1 17.0682 11.6898 17.2964C11.2796 17.5247 11.1321 18.0423 11.3604 18.4525L12.8459 17.6258ZM25.5999 17.5999H26.4499V16.7499H25.5999V17.5999ZM18.3999 25.1999H17.5499V26.0499H18.3999V25.1999ZM20.5839 18.0359L20.9698 18.7932L20.5839 18.0359ZM18.8359 19.7839L19.5932 20.1698L18.8359 19.7839ZM18.5031 19.7408L18.9581 20.4588L18.5031 19.7408ZM15.9999 7.2499H17.0666V5.5499H15.9999V7.2499ZM7.2499 17.0666V15.9999H5.5499V17.0666H7.2499ZM14.9332 24.7499C12.8946 24.7499 12.042 24.7426 11.3635 24.5608L10.9235 26.2029C11.8727 26.4572 13.004 26.4499 14.9332 26.4499V24.7499ZM5.5499 17.0666C5.5499 18.9958 5.5426 20.1271 5.79694 21.0763L7.43901 20.6363C7.2572 19.9578 7.2499 19.1052 7.2499 17.0666H5.5499ZM11.3635 24.5608C9.4482 24.0476 7.95221 22.5516 7.43901 20.6363L5.79694 21.0763C6.46733 23.5783 8.42155 25.5325 10.9235 26.2029L11.3635 24.5608ZM24.7499 14.9332C24.7499 17.4679 24.7426 18.5685 24.5063 19.4505L26.1483 19.8905C26.4572 18.7378 26.4499 17.3584 26.4499 14.9332H24.7499ZM14.9332 26.4499C17.3584 26.4499 18.7378 26.4572 19.8905 26.1483L19.4505 24.5063C18.5685 24.7426 17.4679 24.7499 14.9332 24.7499V26.4499ZM24.5063 19.4505C23.8451 21.9179 21.9179 23.8451 19.4505 24.5063L19.8905 26.1483C22.9445 25.33 25.33 22.9445 26.1483 19.8905L24.5063 19.4505ZM17.0666 7.2499C19.1052 7.2499 19.9578 7.2572 20.6363 7.43901L21.0763 5.79694C20.1271 5.5426 18.9958 5.5499 17.0666 5.5499V7.2499ZM26.4499 14.9332C26.4499 13.004 26.4572 11.8727 26.2029 10.9235L24.5608 11.3635C24.7426 12.042 24.7499 12.8946 24.7499 14.9332H26.4499ZM20.6363 7.43901C22.5516 7.95221 24.0476 9.4482 24.5608 11.3635L26.2029 10.9235C25.5325 8.42155 23.5783 6.46733 21.0763 5.79694L20.6363 7.43901ZM15.9999 5.5499C14.5205 5.5499 13.3684 5.54944 12.4402 5.61277C11.5044 5.67662 10.7343 5.80814 10.0254 6.10178L10.676 7.67237C11.1432 7.47884 11.7067 7.36677 12.556 7.30883C13.4128 7.25036 14.4973 7.2499 15.9999 7.2499V5.5499ZM7.2499 15.9999C7.2499 14.4973 7.25036 13.4128 7.30883 12.556C7.36677 11.7067 7.47884 11.1432 7.67237 10.676L6.10178 10.0254C5.80814 10.7343 5.67662 11.5044 5.61277 12.4402C5.54944 13.3684 5.5499 14.5205 5.5499 15.9999H7.2499ZM10.0254 6.10178C8.24899 6.83761 6.83761 8.24899 6.10178 10.0254L7.67237 10.676C8.23566 9.3161 9.3161 8.23566 10.676 7.67237L10.0254 6.10178ZM16.1032 19.5892C14.726 19.5892 13.5062 18.8123 12.8459 17.6258L11.3604 18.4525C12.297 20.1355 14.0618 21.2892 16.1032 21.2892V19.5892ZM24.7999 18.4499H25.5999V16.7499H24.7999V18.4499ZM24.7499 17.5999V17.9999H26.4499V17.5999H24.7499ZM19.2499 25.1999V23.9999H17.5499V25.1999H19.2499ZM24.7499 17.9999C24.7499 21.5069 21.9069 24.3499 18.3999 24.3499V26.0499C22.8458 26.0499 26.4499 22.4458 26.4499 17.9999H24.7499ZM24.7999 16.7499C23.6938 16.7499 22.8131 16.7492 22.1035 16.8072C21.3839 16.866 20.7657 16.9893 20.198 17.2785L20.9698 18.7932C21.2579 18.6465 21.6275 18.5518 22.2419 18.5016C22.8663 18.4506 23.6658 18.4499 24.7999 18.4499V16.7499ZM19.2499 23.9999C19.2499 22.8658 19.2506 22.0663 19.3016 21.4419C19.3518 20.8275 19.4465 20.4579 19.5932 20.1698L18.0785 19.398C17.7893 19.9657 17.666 20.5839 17.6072 21.3035C17.5492 22.0131 17.5499 22.8938 17.5499 23.9999H19.2499ZM20.198 17.2785C19.2855 17.7435 18.5435 18.4855 18.0785 19.398L19.5932 20.1698C19.8952 19.5771 20.3771 19.0952 20.9698 18.7932L20.198 17.2785ZM18.0482 19.0228C17.4794 19.3831 16.8147 19.5892 16.1032 19.5892V21.2892C17.1496 21.2892 18.1281 20.9847 18.9581 20.4588L18.0482 19.0228ZM18.6176 18.5807C18.4415 18.7463 18.2508 18.8944 18.0482 19.0228L18.9581 20.4588C19.2528 20.2721 19.5286 20.0576 19.7822 19.8192L18.6176 18.5807Z" fill="#4A525D"/>
</svg>
