<svg width="24" height="24" viewBox="0 0 24 24" fill="none" xmlns="http://www.w3.org/2000/svg">
<rect width="24" height="24" rx="12" fill="white"/>
<path fill-rule="evenodd" clip-rule="evenodd" d="M14.7376 10.8121L20.4798 10.4256C20.8663 10.4256 21.1423 10.8121 20.9215 11.0881L16.8909 16.6094C16.7805 16.6646 16.6701 16.7751 16.5044 16.7751H7.44955C7.3809 16.7667 7.31515 16.7424 7.25761 16.7041C7.20007 16.6657 7.15235 16.6144 7.11827 16.5542L3.08774 11.0881C2.86688 10.8121 3.08774 10.3704 3.47422 10.4256L9.21636 10.8121L11.6457 8.16185C11.8114 7.941 12.1978 7.941 12.3083 8.16185L14.7376 10.7569V10.8121ZM15.9523 15.8916L12.1978 14.5113V15.8916H15.9523ZM11.7561 15.8916V14.5113L8.00168 15.8916H11.8114H11.7561ZM11.3144 14.2353L7.50476 15.6156L4.74412 11.7507L11.3697 14.1801L11.3144 14.2353ZM12.6396 14.2353L16.5044 15.6156L19.2651 11.7507L12.6396 14.1801V14.2353ZM11.7561 13.904V9.32132L8.66423 12.7445L11.7561 13.8488V13.904ZM12.1978 13.904V9.32132L15.345 12.7445L12.1978 13.8488V13.904ZM7.72561 12.4132L8.44338 11.6403L4.90976 11.4194L7.72561 12.4132ZM16.2284 12.4132L15.5106 11.6403L18.989 11.4194L16.2284 12.4132Z" fill="#006CFF"/>
</svg>
