<svg width="24" height="24" viewBox="0 0 24 24" fill="none" xmlns="http://www.w3.org/2000/svg">
<g clip-path="url(#clip0_11913_13654)">
<rect width="24" height="24" rx="12" fill="#FF3E00"/>
<path d="M18.1491 6.28078C16.7039 4.21342 13.8493 3.60064 11.7855 4.91501L8.1613 7.22411C7.91749 7.3773 7.69003 7.55542 7.48309 7.75562C7.27588 7.95581 7.09023 8.17703 6.92899 8.41566C6.76774 8.65428 6.63168 8.909 6.52289 9.17566C6.41436 9.44245 6.33378 9.71977 6.28245 10.0032C6.23961 10.2408 6.21624 10.4817 6.21312 10.7232C6.20975 10.9649 6.22662 11.2064 6.26323 11.445C6.29985 11.6839 6.35619 11.9194 6.43149 12.149C6.50679 12.3785 6.60104 12.6013 6.71321 12.8152C6.63605 12.9325 6.56481 13.0536 6.49978 13.178C6.43461 13.3023 6.37592 13.4301 6.32373 13.5604C6.27154 13.6908 6.2261 13.8237 6.18742 13.9587C6.14873 14.0938 6.11705 14.2306 6.09212 14.3687C5.98855 14.9496 6.00223 15.5454 6.13237 16.1209C6.19728 16.4078 6.2905 16.6877 6.41098 16.9562C6.53146 17.2247 6.67816 17.4807 6.84953 17.7201C8.29476 19.7874 11.1491 20.4002 13.2129 19.0859L16.8371 16.7864C17.0809 16.6329 17.3079 16.4545 17.5148 16.2541C17.7217 16.0538 17.9073 15.8326 18.0686 15.594C18.2299 15.3557 18.3659 15.101 18.4747 14.8343C18.5835 14.5679 18.6643 14.2906 18.716 14.0073C18.7588 13.7697 18.7819 13.529 18.785 13.2875C18.7881 13.0461 18.7713 12.8046 18.7344 12.566C18.6978 12.3273 18.6414 12.0921 18.5659 11.8626C18.4903 11.6333 18.3961 11.4105 18.2839 11.1965C18.361 11.0794 18.4324 10.9582 18.4976 10.8338C18.5625 10.7094 18.6214 10.5817 18.6736 10.4513C18.7258 10.321 18.7715 10.1881 18.8105 10.053C18.8492 9.91827 18.8814 9.78143 18.9065 9.6433C18.958 9.35352 18.9803 9.05934 18.9735 8.76515C18.9668 8.47096 18.9307 8.17833 18.8658 7.89116C18.8009 7.60424 18.7076 7.32433 18.5872 7.05585C18.4668 6.78732 18.3201 6.53143 18.1491 6.29195" fill="#FF3E00"/>
<path d="M11.4305 17.921C11.1468 17.9947 10.8536 18.0246 10.5609 18.0098C10.2683 17.9947 9.97952 17.9355 9.70481 17.8335C9.43009 17.7316 9.1725 17.5884 8.94091 17.4089C8.70952 17.2293 8.50683 17.0155 8.33981 16.7749C8.23673 16.6308 8.14845 16.477 8.07627 16.3155C8.00387 16.1541 7.94777 15.9859 7.90879 15.8134C7.8701 15.6407 7.84829 15.4647 7.84439 15.2878C7.8405 15.111 7.85426 14.9342 7.88542 14.76C7.89035 14.7317 7.89607 14.7034 7.9023 14.6753C7.90827 14.647 7.91502 14.619 7.92229 14.5912C7.9293 14.5631 7.93709 14.5354 7.9454 14.5076C7.95345 14.48 7.96228 14.4525 7.97137 14.4253L8.03965 14.2168L8.22583 14.3557C8.33254 14.4336 8.44264 14.5071 8.55558 14.5756C8.66853 14.6444 8.78434 14.7083 8.90274 14.767C9.02088 14.8259 9.14188 14.8799 9.2647 14.9285C9.38751 14.9773 9.51241 15.0206 9.63912 15.0588L9.77803 15.0991L9.76557 15.238C9.75887 15.3325 9.76871 15.4275 9.79465 15.5187C9.80737 15.5644 9.82425 15.6085 9.84476 15.6511C9.86528 15.6937 9.88942 15.7344 9.91695 15.7729C9.96738 15.8453 10.0286 15.9097 10.0984 15.9637C10.168 16.0177 10.2457 16.0608 10.3285 16.0915C10.4113 16.1221 10.4981 16.1398 10.5863 16.1442C10.6744 16.1488 10.7626 16.1398 10.8481 16.1174C10.8678 16.1122 10.887 16.1063 10.9062 16.0995C10.9254 16.0928 10.9444 16.0855 10.9628 16.0772C10.9815 16.0691 10.9997 16.0603 11.0179 16.0507C11.0358 16.0413 11.0532 16.0312 11.0703 16.0203L14.6891 13.711C14.7335 13.6831 14.7748 13.6508 14.8124 13.6144C14.8501 13.5778 14.8836 13.5375 14.9129 13.4941C14.9423 13.4508 14.9667 13.4043 14.9864 13.3557C15.0059 13.3072 15.0204 13.2568 15.0298 13.2054C15.0389 13.1527 15.0428 13.0995 15.0415 13.046C15.0402 12.9928 15.0334 12.9398 15.0215 12.8876C15.0098 12.8357 14.9926 12.785 14.9706 12.7362C14.9488 12.6877 14.9218 12.6414 14.8906 12.5981C14.8402 12.5256 14.7792 12.4615 14.7094 12.4075C14.6395 12.3535 14.5619 12.3104 14.4793 12.2797C14.3966 12.2491 14.3096 12.2312 14.2215 12.2268C14.1332 12.2224 14.0449 12.2314 13.9595 12.2535C13.94 12.2587 13.9205 12.2647 13.9013 12.2714C13.8821 12.2782 13.8634 12.2855 13.8447 12.2935C13.826 12.3018 13.8078 12.3106 13.7899 12.3202C13.772 12.3296 13.7544 12.34 13.7372 12.3509L12.3476 13.2332C12.291 13.269 12.2328 13.3028 12.1736 13.3345C12.1141 13.3659 12.0539 13.3952 11.9924 13.4222C11.9308 13.4492 11.8682 13.4739 11.8049 13.496C11.7415 13.5183 11.6774 13.538 11.6125 13.5554C11.3292 13.6286 11.0366 13.6582 10.7445 13.6432C10.4524 13.6281 10.1644 13.5687 9.8902 13.4671C9.61601 13.3654 9.35895 13.2223 9.12786 13.0431C8.89677 12.864 8.69424 12.6508 8.52728 12.4106C8.42472 12.2665 8.3367 12.1125 8.26477 11.951C8.19259 11.7895 8.13676 11.6213 8.09808 11.4489C8.05939 11.2762 8.0381 11.1001 8.03446 10.9233C8.03057 10.7467 8.04433 10.5699 8.07575 10.396C8.13713 10.0534 8.26925 9.72747 8.46367 9.43887C8.65822 9.15027 8.91089 8.90547 9.2055 8.72015L12.8354 6.41105C12.8918 6.37522 12.9494 6.34146 13.0084 6.30978C13.0673 6.27837 13.1276 6.24903 13.1886 6.22202C13.2497 6.19501 13.3119 6.17041 13.375 6.14828C13.4378 6.12595 13.5017 6.10596 13.5664 6.08856C13.8499 6.01508 14.1431 5.98496 14.4354 5.99976C14.7281 6.01482 15.0165 6.07402 15.2912 6.17606C15.566 6.27785 15.8233 6.42118 16.0549 6.6006C16.2862 6.78031 16.4888 6.99421 16.6557 7.23493C16.7585 7.37878 16.8471 7.53249 16.9195 7.694C16.992 7.8555 17.0481 8.0235 17.0873 8.19617C17.1262 8.36884 17.148 8.54488 17.1519 8.72171C17.1561 8.89853 17.1426 9.07536 17.1114 9.24958C17.106 9.27815 17.1003 9.30671 17.0938 9.33501C17.0875 9.36331 17.0808 9.39161 17.0735 9.41966C17.0665 9.44796 17.0587 9.476 17.0507 9.50378C17.0426 9.53183 17.0343 9.55961 17.0252 9.58713L16.9559 9.79564L16.771 9.65672C16.664 9.57805 16.5537 9.5043 16.4405 9.43498C16.3273 9.36591 16.2109 9.30151 16.0923 9.24205C15.8547 9.12355 15.6076 9.02522 15.3536 8.94813L15.2144 8.90788L15.2271 8.76896C15.231 8.72145 15.2307 8.67367 15.2263 8.62642C15.2222 8.57916 15.2136 8.53216 15.2011 8.4862C15.1884 8.4405 15.1721 8.39558 15.1516 8.35274C15.1313 8.30964 15.1072 8.26861 15.0796 8.22966C15.029 8.1585 14.9678 8.09546 14.8981 8.04271C14.8286 7.98973 14.7514 7.94769 14.6691 7.91808C14.5038 7.85812 14.3242 7.85006 14.1542 7.89497C14.1345 7.90016 14.115 7.90614 14.0961 7.91263C14.0769 7.91938 14.0579 7.92691 14.0392 7.93496C14.0208 7.94301 14.0023 7.95209 13.9844 7.96144C13.9665 7.97105 13.9488 7.98118 13.9317 7.99208L10.3062 10.2973C10.262 10.3251 10.2207 10.3575 10.1834 10.3939C10.146 10.4302 10.1122 10.4705 10.0829 10.5136C10.0538 10.5569 10.0292 10.6031 10.0094 10.6515C9.98965 10.7 9.97511 10.7501 9.96576 10.8015C9.95667 10.8542 9.95278 10.9077 9.95408 10.9612C9.95719 11.0683 9.98127 11.1737 10.025 11.2715C10.047 11.3202 10.0737 11.3666 10.1047 11.4102C10.1548 11.4818 10.2155 11.5457 10.2849 11.5992C10.3541 11.6529 10.431 11.6958 10.5131 11.7264C10.6782 11.7878 10.858 11.7977 11.0288 11.7547C11.0483 11.7493 11.0677 11.7433 11.0869 11.7365C11.1059 11.7298 11.1249 11.7223 11.1435 11.7142C11.1622 11.7061 11.1804 11.6973 11.1983 11.6877C11.2163 11.6784 11.2339 11.6683 11.251 11.6574L12.6407 10.7766C12.6976 10.7403 12.7555 10.706 12.8149 10.6743C12.8741 10.6424 12.9346 10.613 12.9964 10.5858C13.058 10.5587 13.1206 10.5341 13.1842 10.512C13.2478 10.4897 13.3122 10.47 13.3773 10.4528C13.6609 10.3791 13.9538 10.349 14.2464 10.3635C14.539 10.3783 14.8275 10.4375 15.1022 10.5393C15.3767 10.6411 15.6343 10.7841 15.8656 10.9638C16.0972 11.1432 16.2997 11.3569 16.4667 11.5976C16.5695 11.7417 16.6578 11.8955 16.7302 12.057C16.8027 12.2184 16.8589 12.3866 16.898 12.5591C16.9369 12.7315 16.9587 12.9076 16.9629 13.0844C16.967 13.2615 16.9533 13.4383 16.9224 13.6123C16.8918 13.7831 16.8435 13.9503 16.7783 14.1111C16.7131 14.2719 16.6313 14.4255 16.5342 14.5694C16.4374 14.7132 16.3257 14.8467 16.2011 14.9674C16.0764 15.0882 15.9396 15.1957 15.7926 15.2881L12.1668 17.5972C12.11 17.6333 12.0518 17.6673 11.9926 17.699C11.9332 17.7307 11.8727 17.76 11.8109 17.787C11.7493 17.8143 11.6867 17.8389 11.6231 17.8613C11.5598 17.8836 11.4954 17.9036 11.4305 17.921Z" fill="white"/>
</g>
<defs>
<clipPath id="clip0_11913_13654">
<rect width="24" height="24" rx="12" fill="white"/>
</clipPath>
</defs>
</svg>
