<svg width="24" height="24" viewBox="0 0 24 24" fill="none" xmlns="http://www.w3.org/2000/svg">
<g clip-path="url(#clip0_11913_13574)">
<rect width="24" height="24" rx="12" fill="white"/>
<path d="M5.33332 0H18.6219C19.2685 0 19.8964 0.103125 20.5055 0.31875C21.3864 0.6375 22.183 1.2 22.7828 1.93125C23.3919 2.6625 23.7949 3.5625 23.9354 4.5C23.9917 4.84688 24.001 5.19375 24.001 5.54062V18.5062C24.001 18.9187 23.9823 19.3406 23.8979 19.7438C23.7105 20.6719 23.2701 21.5438 22.6328 22.2469C22.0049 22.95 21.1803 23.475 20.29 23.7562C19.7464 23.925 19.1842 24 18.6125 24C18.3595 24 5.29584 24 5.09904 23.9906C4.14316 23.9437 3.19666 23.6344 2.40009 23.1C1.62227 22.575 0.985021 21.8438 0.572683 21C0.216572 20.2781 0.0385162 19.4719 0.0385162 18.6656V5.33438C0.0197736 4.5375 0.188458 3.75 0.535197 3.0375C0.938165 2.19375 1.56604 1.45312 2.34387 0.928125C3.14043 0.384375 4.07756 0.065625 5.03344 0.01875C5.12715 0 5.23024 0 5.33332 0Z" fill="url(#paint0_linear_11913_13574)"/>
<path d="M20.2421 19.6313C20.1577 19.5 20.064 19.3688 19.9609 19.2469C19.7266 18.9656 19.4549 18.7219 19.155 18.5156C18.7801 18.2625 18.3397 18.1031 17.8899 18.0844C17.5712 18.0656 17.2526 18.1219 16.9527 18.2344C16.6529 18.3375 16.3623 18.4875 16.0812 18.6375C15.7532 18.8063 15.4252 18.975 15.0785 19.1156C14.6661 19.2844 14.235 19.4156 13.7946 19.5094C13.2417 19.6125 12.6794 19.65 12.1265 19.6406C11.1238 19.6219 10.121 19.4719 9.16516 19.1906C8.32174 18.9375 7.51581 18.5906 6.75673 18.15C6.09136 17.7656 5.47286 17.325 4.89183 16.8281C4.4139 16.4156 3.97344 15.975 3.56111 15.5063C3.27997 15.1781 3.0082 14.8313 2.75517 14.475C2.65209 14.3344 2.55837 14.1844 2.47403 14.0344L0 11.3625V5.31563C0 2.38125 2.37095 0 5.30417 0H10.0367L13.5416 3.5625C21.451 8.94375 18.8926 14.8781 18.8926 14.8781C18.8926 14.8781 21.1417 17.4094 20.2421 19.6313Z" fill="url(#paint1_linear_11913_13574)"/>
<path d="M13.5609 3.5625C21.4703 8.94375 18.9119 14.8781 18.9119 14.8781C18.9119 14.8781 21.161 17.4187 20.252 19.6406C20.252 19.6406 19.3242 18.0844 17.7686 18.0844C16.2692 18.0844 15.3883 19.6406 12.3707 19.6406C5.65148 19.6406 2.47461 14.025 2.47461 14.025C8.52848 18.0094 12.6612 15.1875 12.6612 15.1875C9.93417 13.6031 4.13333 6.02813 4.13333 6.02813C9.18447 10.3313 11.368 11.4656 11.368 11.4656C10.0654 10.3875 6.41056 5.11875 6.41056 5.11875C9.33441 8.08125 15.1446 12.2156 15.1446 12.2156C16.794 7.64063 13.5609 3.5625 13.5609 3.5625Z" fill="white"/>
</g>
<defs>
<linearGradient id="paint0_linear_11913_13574" x1="14.2727" y1="-0.856406" x2="9.73667" y2="24.8587" gradientUnits="userSpaceOnUse">
<stop stop-color="#FAAE42"/>
<stop offset="1" stop-color="#EF3E31"/>
</linearGradient>
<linearGradient id="paint1_linear_11913_13574" x1="12.2401" y1="0.38775" x2="8.9202" y2="19.2083" gradientUnits="userSpaceOnUse">
<stop stop-color="#E39F3A"/>
<stop offset="1" stop-color="#D33929"/>
</linearGradient>
<clipPath id="clip0_11913_13574">
<rect width="24" height="24" rx="12" fill="white"/>
</clipPath>
</defs>
</svg>
