<svg width="24" height="24" viewBox="0 0 24 24" fill="none" xmlns="http://www.w3.org/2000/svg">
<rect width="24" height="24" rx="12" fill="white"/>
<path d="M12 7C9.59993 7 8.09996 8.11113 7.49989 10.3332C8.4 9.22206 9.45002 8.80554 10.6499 9.08322C11.3347 9.24166 11.824 9.70174 12.3658 10.2108C13.2481 11.0401 14.2693 11.9999 16.5001 11.9999C18.9 11.9999 20.4002 10.8888 21 8.66649C20.1001 9.77763 19.0501 10.1944 17.8499 9.91668C17.1655 9.75824 16.6761 9.29815 16.1344 8.78907C15.252 7.95979 14.2306 7 12 7ZM7.49989 11.9999C5.10004 11.9999 3.59985 13.111 3 15.3333C3.89989 14.2222 4.94991 13.8054 6.15006 14.0833C6.83454 14.242 7.32387 14.7018 7.86565 15.2107C8.74798 16.04 9.76941 17 12 17C14.4001 17 15.9 15.8889 16.5001 13.6666C15.6 14.7777 14.55 15.1945 13.3501 14.9166C12.6654 14.7583 12.176 14.298 11.6342 13.7892C10.7519 12.9599 9.7307 11.9999 7.49989 11.9999Z" fill="#06B6D4"/>
</svg>
