<svg width="357" height="250" viewBox="0 0 357 250" fill="none" xmlns="http://www.w3.org/2000/svg">
<path d="M236.5 0H120.5C113.873 0 108.5 5.37258 108.5 12V128C108.5 134.627 113.873 140 120.5 140H236.5C243.127 140 248.5 134.627 248.5 128V12C248.5 5.37258 243.127 0 236.5 0Z" fill="#F7DF1E"/>
<path d="M197.108 112.535C200.131 110.778 203.853 111.952 206.514 114.221C208.795 116.164 211.659 117.364 215.523 117.364C220.974 117.364 224.457 114.64 224.457 110.876C224.457 106.364 220.879 104.767 214.879 102.142L211.59 100.731C202.097 96.6867 195.79 91.62 195.79 80.9089C195.79 71.0422 203.308 63.5311 215.057 63.5311C221.447 63.5311 226.465 65.2301 230.409 69.4306C232.611 71.7748 231.648 75.4253 228.942 77.1629V77.1629C226.005 79.0485 222.33 77.5857 219.251 75.9425C218.037 75.2949 216.67 75.0045 215.057 75.0045C211.203 75.0045 208.761 77.4489 208.761 80.6422C208.761 84.5889 211.206 86.1867 216.85 88.6311L220.139 90.04C231.317 94.8333 237.628 99.72 237.628 110.707C237.628 122.551 228.323 129.04 215.828 129.04C206.477 129.04 199.66 125.63 195.244 120.609C192.991 118.048 194.158 114.248 197.108 112.535V112.535ZM150.359 113.975C153.485 112.082 157.139 113.607 160.037 115.834C161.212 116.737 162.644 117.282 164.539 117.282C168.861 117.282 171.588 115.591 171.588 109.016V70.86C171.588 67.2272 174.533 64.2822 178.166 64.2822V64.2822C181.798 64.2822 184.743 67.2272 184.743 70.86V109.193C184.743 122.816 176.757 129.016 165.099 129.016C157.361 129.016 152.015 126.074 148.493 121.909C146.35 119.376 147.52 115.693 150.359 113.975V113.975Z" fill="black"/>
<path d="M17.3972 228.864C12.6932 228.864 8.94919 227.544 6.16519 224.904C3.42919 222.264 2.06119 218.544 2.06119 213.744H9.69319C9.69319 216.144 10.2692 218.136 11.4212 219.72C12.6212 221.304 14.5652 222.096 17.2532 222.096C19.8932 222.096 21.7652 221.352 22.8692 219.864C23.9732 218.328 24.5252 216.384 24.5252 214.032V177.6H32.1572V214.032C32.1572 218.784 30.8372 222.456 28.1972 225.048C25.5572 227.592 21.9572 228.864 17.3972 228.864ZM54.1622 228.864C51.1382 228.864 48.6422 228.36 46.6742 227.352C44.7062 226.344 43.2422 225.024 42.2822 223.392C41.3222 221.712 40.8422 219.888 40.8422 217.92C40.8422 214.464 42.1862 211.728 44.8742 209.712C47.5622 207.696 51.4022 206.688 56.3942 206.688H65.7542V206.04C65.7542 203.256 64.9862 201.168 63.4502 199.776C61.9622 198.384 60.0182 197.688 57.6182 197.688C55.5062 197.688 53.6582 198.216 52.0742 199.272C50.5382 200.28 49.6022 201.792 49.2662 203.808H41.6342C41.8742 201.216 42.7382 199.008 44.2262 197.184C45.7622 195.312 47.6822 193.896 49.9862 192.936C52.3382 191.928 54.9062 191.424 57.6902 191.424C62.6822 191.424 66.5462 192.744 69.2822 195.384C72.0182 197.976 73.3862 201.528 73.3862 206.04V228H66.7622L66.1142 221.88C65.1062 223.848 63.6422 225.504 61.7222 226.848C59.8022 228.192 57.2822 228.864 54.1622 228.864ZM55.6742 222.672C57.7382 222.672 59.4662 222.192 60.8582 221.232C62.2982 220.224 63.4022 218.904 64.1702 217.272C64.9862 215.64 65.4902 213.84 65.6822 211.872H57.1862C54.1622 211.872 52.0022 212.4 50.7062 213.456C49.4582 214.512 48.8342 215.832 48.8342 217.416C48.8342 219.048 49.4342 220.344 50.6342 221.304C51.8822 222.216 53.5622 222.672 55.6742 222.672ZM91.0976 228L77.7056 192.288H85.6976L95.6336 220.728L105.57 192.288H113.49L100.17 228H91.0976ZM129.818 228.864C126.794 228.864 124.298 228.36 122.33 227.352C120.362 226.344 118.898 225.024 117.938 223.392C116.978 221.712 116.498 219.888 116.498 217.92C116.498 214.464 117.842 211.728 120.53 209.712C123.218 207.696 127.058 206.688 132.05 206.688H141.41V206.04C141.41 203.256 140.642 201.168 139.106 199.776C137.618 198.384 135.674 197.688 133.274 197.688C131.162 197.688 129.314 198.216 127.73 199.272C126.194 200.28 125.258 201.792 124.922 203.808H117.29C117.53 201.216 118.394 199.008 119.882 197.184C121.418 195.312 123.338 193.896 125.642 192.936C127.994 191.928 130.562 191.424 133.346 191.424C138.338 191.424 142.202 192.744 144.938 195.384C147.674 197.976 149.042 201.528 149.042 206.04V228H142.418L141.77 221.88C140.762 223.848 139.298 225.504 137.378 226.848C135.458 228.192 132.938 228.864 129.818 228.864ZM131.33 222.672C133.394 222.672 135.122 222.192 136.514 221.232C137.954 220.224 139.058 218.904 139.826 217.272C140.642 215.64 141.146 213.84 141.338 211.872H132.842C129.818 211.872 127.658 212.4 126.362 213.456C125.114 214.512 124.49 215.832 124.49 217.416C124.49 219.048 125.09 220.344 126.29 221.304C127.538 222.216 129.218 222.672 131.33 222.672ZM174.861 228.864C171.165 228.864 167.925 228.216 165.141 226.92C162.357 225.624 160.173 223.776 158.589 221.376C157.053 218.976 156.261 216.12 156.213 212.808H164.277C164.325 215.496 165.261 217.776 167.085 219.648C168.909 221.52 171.477 222.456 174.789 222.456C177.717 222.456 179.997 221.76 181.629 220.368C183.309 218.928 184.149 217.104 184.149 214.896C184.149 213.12 183.741 211.68 182.925 210.576C182.157 209.472 181.077 208.56 179.685 207.84C178.341 207.12 176.781 206.472 175.005 205.896C173.229 205.32 171.357 204.696 169.389 204.024C165.501 202.728 162.573 201.048 160.605 198.984C158.685 196.92 157.725 194.208 157.725 190.848C157.677 188.016 158.325 185.544 159.669 183.432C161.061 181.32 162.981 179.688 165.429 178.536C167.925 177.336 170.829 176.736 174.141 176.736C177.405 176.736 180.261 177.336 182.709 178.536C185.205 179.736 187.149 181.416 188.541 183.576C189.933 185.688 190.653 188.16 190.701 190.992H182.637C182.637 189.696 182.301 188.472 181.629 187.32C180.957 186.12 179.973 185.136 178.677 184.368C177.381 183.6 175.797 183.216 173.925 183.216C171.525 183.168 169.533 183.768 167.949 185.016C166.413 186.264 165.645 187.992 165.645 190.2C165.645 192.168 166.221 193.68 167.373 194.736C168.525 195.792 170.109 196.68 172.125 197.4C174.141 198.072 176.445 198.864 179.037 199.776C181.533 200.592 183.765 201.576 185.733 202.728C187.701 203.88 189.261 205.392 190.413 207.264C191.613 209.136 192.213 211.512 192.213 214.392C192.213 216.936 191.565 219.312 190.269 221.52C188.973 223.68 187.029 225.456 184.437 226.848C181.845 228.192 178.653 228.864 174.861 228.864ZM217.189 228.864C213.685 228.864 210.541 228.072 207.757 226.488C205.021 224.904 202.861 222.72 201.277 219.936C199.741 217.104 198.973 213.84 198.973 210.144C198.973 206.448 199.741 203.208 201.277 200.424C202.861 197.592 205.021 195.384 207.757 193.8C210.541 192.216 213.685 191.424 217.189 191.424C221.605 191.424 225.301 192.576 228.277 194.88C231.301 197.184 233.245 200.304 234.109 204.24H226.117C225.637 202.272 224.581 200.736 222.949 199.632C221.317 198.528 219.397 197.976 217.189 197.976C215.317 197.976 213.589 198.456 212.005 199.416C210.421 200.328 209.149 201.696 208.189 203.52C207.229 205.296 206.749 207.504 206.749 210.144C206.749 212.784 207.229 215.016 208.189 216.84C209.149 218.616 210.421 219.984 212.005 220.944C213.589 221.904 215.317 222.384 217.189 222.384C219.397 222.384 221.317 221.832 222.949 220.728C224.581 219.624 225.637 218.064 226.117 216.048H234.109C233.293 219.888 231.373 222.984 228.349 225.336C225.325 227.688 221.605 228.864 217.189 228.864ZM242.387 228V192.288H249.227L249.875 199.056C251.123 196.704 252.851 194.856 255.059 193.512C257.315 192.12 260.027 191.424 263.195 191.424V199.416H261.107C258.995 199.416 257.099 199.776 255.419 200.496C253.787 201.168 252.467 202.344 251.459 204.024C250.499 205.656 250.019 207.936 250.019 210.864V228H242.387ZM274.058 185.52C272.618 185.52 271.418 185.088 270.458 184.224C269.546 183.312 269.09 182.184 269.09 180.84C269.09 179.496 269.546 178.392 270.458 177.528C271.418 176.616 272.618 176.16 274.058 176.16C275.498 176.16 276.674 176.616 277.586 177.528C278.546 178.392 279.026 179.496 279.026 180.84C279.026 182.184 278.546 183.312 277.586 184.224C276.674 185.088 275.498 185.52 274.058 185.52ZM270.242 228V192.288H277.874V228H270.242ZM287.949 243.84V192.288H294.789L295.581 197.832C296.733 196.152 298.317 194.664 300.333 193.368C302.349 192.072 304.941 191.424 308.109 191.424C311.565 191.424 314.613 192.24 317.253 193.872C319.893 195.504 321.957 197.736 323.445 200.568C324.981 203.4 325.749 206.616 325.749 210.216C325.749 213.816 324.981 217.032 323.445 219.864C321.957 222.648 319.893 224.856 317.253 226.488C314.613 228.072 311.541 228.864 308.037 228.864C305.253 228.864 302.781 228.312 300.621 227.208C298.509 226.104 296.829 224.544 295.581 222.528V243.84H287.949ZM306.741 222.24C310.005 222.24 312.693 221.136 314.805 218.928C316.917 216.672 317.973 213.744 317.973 210.144C317.973 207.792 317.493 205.704 316.533 203.88C315.573 202.056 314.253 200.64 312.573 199.632C310.893 198.576 308.949 198.048 306.741 198.048C303.477 198.048 300.789 199.176 298.677 201.432C296.613 203.688 295.581 206.592 295.581 210.144C295.581 213.744 296.613 216.672 298.677 218.928C300.789 221.136 303.477 222.24 306.741 222.24ZM347.573 228C344.069 228 341.285 227.16 339.221 225.48C337.157 223.752 336.125 220.704 336.125 216.336V198.696H330.005V192.288H336.125L337.061 183.216H343.757V192.288H353.837V198.696H343.757V216.336C343.757 218.304 344.165 219.672 344.981 220.44C345.845 221.16 347.309 221.52 349.373 221.52H353.477V228H347.573Z" fill="#EBE4FF"/>
</svg>
