<svg width="234" height="250" viewBox="0 0 234 250" fill="none" xmlns="http://www.w3.org/2000/svg">
<path d="M111.488 0H134.411V105.065C122.67 107.286 114.026 108.159 104.673 108.159C76.6756 108.13 62.1016 95.6222 62.1016 71.5997C62.1016 48.4541 77.5606 33.4326 101.516 33.4326C105.234 33.4326 108.066 33.7252 111.488 34.6016V0ZM112.291 53.5354C109.607 52.6586 107.394 52.3664 104.562 52.3664C92.9677 52.3664 86.2707 59.4385 86.2707 71.8325C86.2707 83.8994 92.6729 90.5623 104.415 90.5623C106.951 90.5623 109.017 90.4195 112.291 89.9811V53.5354V53.5354Z" fill="#2BA977"/>
<path d="M171.895 36.2533V88.8577C171.895 106.974 170.538 115.685 166.556 123.196C162.838 130.417 157.941 134.971 147.822 140L126.551 129.976C136.67 125.274 141.567 121.118 144.695 114.777C147.969 108.292 149.002 100.781 149.002 81.0253V36.2538H171.895V36.2533ZM146.691 0H169.615V23.2919H146.691V0Z" fill="#2BA977"/>
<path d="M5.25263 228V177.6H21.5966C27.5006 177.6 32.3486 178.632 36.1406 180.696C39.9806 182.76 42.8126 185.688 44.6366 189.48C46.5086 193.224 47.4446 197.688 47.4446 202.872C47.4446 208.008 46.5086 212.472 44.6366 216.264C42.8126 220.008 39.9806 222.912 36.1406 224.976C32.3486 226.992 27.5006 228 21.5966 228H5.25263ZM12.8846 221.52H21.3086C25.8686 221.52 29.4686 220.776 32.1086 219.288C34.7966 217.8 36.7166 215.664 37.8686 212.88C39.0686 210.096 39.6686 206.76 39.6686 202.872C39.6686 198.984 39.0686 195.624 37.8686 192.792C36.7166 189.96 34.7966 187.8 32.1086 186.312C29.4686 184.776 25.8686 184.008 21.3086 184.008H12.8846V221.52ZM60.1256 185.52C58.6856 185.52 57.4856 185.088 56.5256 184.224C55.6136 183.312 55.1576 182.184 55.1576 180.84C55.1576 179.496 55.6136 178.392 56.5256 177.528C57.4856 176.616 58.6856 176.16 60.1256 176.16C61.5656 176.16 62.7416 176.616 63.6536 177.528C64.6136 178.392 65.0936 179.496 65.0936 180.84C65.0936 182.184 64.6136 183.312 63.6536 184.224C62.7416 185.088 61.5656 185.52 60.1256 185.52ZM48.7496 243.84V237.36H51.5576C53.2376 237.36 54.4376 237 55.1576 236.28C55.8776 235.608 56.2376 234.456 56.2376 232.824V192.288H63.8696V232.896C63.8696 236.784 62.8856 239.568 60.9176 241.248C58.9496 242.976 56.2136 243.84 52.7096 243.84H48.7496ZM86.0372 228.864C83.0132 228.864 80.5172 228.36 78.5492 227.352C76.5812 226.344 75.1172 225.024 74.1572 223.392C73.1972 221.712 72.7172 219.888 72.7172 217.92C72.7172 214.464 74.0612 211.728 76.7492 209.712C79.4372 207.696 83.2772 206.688 88.2692 206.688H97.6292V206.04C97.6292 203.256 96.8612 201.168 95.3252 199.776C93.8372 198.384 91.8932 197.688 89.4932 197.688C87.3812 197.688 85.5332 198.216 83.9492 199.272C82.4132 200.28 81.4772 201.792 81.1412 203.808H73.5092C73.7492 201.216 74.6132 199.008 76.1012 197.184C77.6372 195.312 79.5572 193.896 81.8612 192.936C84.2132 191.928 86.7812 191.424 89.5652 191.424C94.5572 191.424 98.4212 192.744 101.157 195.384C103.893 197.976 105.261 201.528 105.261 206.04V228H98.6372L97.9892 221.88C96.9812 223.848 95.5172 225.504 93.5972 226.848C91.6772 228.192 89.1572 228.864 86.0372 228.864ZM87.5492 222.672C89.6132 222.672 91.3412 222.192 92.7332 221.232C94.1732 220.224 95.2772 218.904 96.0452 217.272C96.8612 215.64 97.3652 213.84 97.5572 211.872H89.0612C86.0372 211.872 83.8772 212.4 82.5812 213.456C81.3332 214.512 80.7092 215.832 80.7092 217.416C80.7092 219.048 81.3092 220.344 82.5092 221.304C83.7572 222.216 85.4372 222.672 87.5492 222.672ZM114.16 228V192.288H120.928L121.504 198.552C122.608 196.344 124.216 194.616 126.328 193.368C128.488 192.072 130.96 191.424 133.744 191.424C138.064 191.424 141.448 192.768 143.896 195.456C146.392 198.144 147.64 202.152 147.64 207.48V228H140.08V208.272C140.08 201.36 137.248 197.904 131.584 197.904C128.752 197.904 126.4 198.912 124.528 200.928C122.704 202.944 121.792 205.824 121.792 209.568V228H114.16ZM171.245 217.056C169.373 217.056 167.645 216.84 166.061 216.408L162.965 219.432C163.493 219.768 164.141 220.056 164.909 220.296C165.677 220.536 166.757 220.752 168.149 220.944C169.541 221.136 171.437 221.328 173.837 221.52C178.589 221.952 182.021 223.104 184.133 224.976C186.245 226.8 187.301 229.248 187.301 232.32C187.301 234.432 186.725 236.424 185.573 238.296C184.469 240.216 182.717 241.752 180.317 242.904C177.965 244.104 174.941 244.704 171.245 244.704C166.253 244.704 162.197 243.744 159.077 241.824C156.005 239.952 154.469 237.096 154.469 233.256C154.469 231.768 154.853 230.28 155.621 228.792C156.437 227.352 157.709 225.984 159.437 224.688C158.429 224.256 157.541 223.8 156.773 223.32C156.053 222.792 155.405 222.264 154.829 221.736V220.008L161.021 213.672C158.237 211.272 156.845 208.128 156.845 204.24C156.845 201.888 157.397 199.752 158.501 197.832C159.653 195.864 161.309 194.304 163.469 193.152C165.629 192 168.221 191.424 171.245 191.424C173.261 191.424 175.133 191.712 176.861 192.288H190.181V197.328L183.845 197.688C184.997 199.656 185.573 201.84 185.573 204.24C185.573 206.64 184.997 208.8 183.845 210.72C182.741 212.64 181.109 214.176 178.949 215.328C176.837 216.48 174.269 217.056 171.245 217.056ZM171.245 211.08C173.453 211.08 175.229 210.504 176.573 209.352C177.965 208.152 178.661 206.472 178.661 204.312C178.661 202.104 177.965 200.424 176.573 199.272C175.229 198.12 173.453 197.544 171.245 197.544C168.989 197.544 167.165 198.12 165.773 199.272C164.429 200.424 163.757 202.104 163.757 204.312C163.757 206.472 164.429 208.152 165.773 209.352C167.165 210.504 168.989 211.08 171.245 211.08ZM161.669 232.536C161.669 234.6 162.581 236.136 164.405 237.144C166.229 238.2 168.509 238.728 171.245 238.728C173.885 238.728 176.021 238.152 177.653 237C179.285 235.896 180.101 234.408 180.101 232.536C180.101 231.144 179.549 229.944 178.445 228.936C177.341 227.976 175.253 227.376 172.181 227.136C169.877 226.992 167.837 226.776 166.061 226.488C164.381 227.4 163.229 228.384 162.605 229.44C161.981 230.496 161.669 231.528 161.669 232.536ZM212.286 228.864C208.878 228.864 205.806 228.096 203.07 226.56C200.382 224.976 198.246 222.792 196.662 220.008C195.078 217.176 194.286 213.888 194.286 210.144C194.286 206.4 195.078 203.136 196.662 200.352C198.294 197.52 200.478 195.336 203.214 193.8C205.95 192.216 208.998 191.424 212.358 191.424C215.766 191.424 218.814 192.216 221.502 193.8C224.238 195.336 226.398 197.52 227.982 200.352C229.614 203.136 230.43 206.4 230.43 210.144C230.43 213.888 229.614 217.176 227.982 220.008C226.398 222.792 224.238 224.976 221.502 226.56C218.766 228.096 215.694 228.864 212.286 228.864ZM212.286 222.312C214.11 222.312 215.79 221.856 217.326 220.944C218.91 220.032 220.182 218.688 221.142 216.912C222.102 215.088 222.582 212.832 222.582 210.144C222.582 207.456 222.102 205.224 221.142 203.448C220.23 201.624 218.982 200.256 217.398 199.344C215.862 198.432 214.182 197.976 212.358 197.976C210.534 197.976 208.83 198.432 207.246 199.344C205.71 200.256 204.462 201.624 203.502 203.448C202.542 205.224 202.062 207.456 202.062 210.144C202.062 212.832 202.542 215.088 203.502 216.912C204.462 218.688 205.71 220.032 207.246 220.944C208.782 221.856 210.462 222.312 212.286 222.312Z" fill="#EBE4FF"/>
</svg>
