<svg width="229" height="250" viewBox="0 0 229 250" fill="none" xmlns="http://www.w3.org/2000/svg">
<g clip-path="url(#clip0_8674_5154)">
<path d="M114.5 140C153.16 140 184.5 108.66 184.5 70C184.5 31.3401 153.16 0 114.5 0C75.8401 0 44.5 31.3401 44.5 70C44.5 108.66 75.8401 140 114.5 140Z" fill="white"/>
<path d="M160.784 122.516L98.2771 42H86.5V97.9767H95.9217V53.9649L153.388 128.213C155.981 126.477 158.452 124.573 160.784 122.516Z" fill="url(#paint0_linear_8674_5154)"/>
<path d="M143.279 42H133.945V98H143.279V42Z" fill="url(#paint1_linear_8674_5154)"/>
</g>
<path d="M5.21356 228V177.6H12.8456L38.1176 215.544V177.6H45.7496V228H38.1176L12.8456 190.056V228H5.21356ZM72.3952 228.864C68.8912 228.864 65.7712 228.096 63.0352 226.56C60.3472 224.976 58.2352 222.792 56.6992 220.008C55.1632 217.224 54.3952 213.984 54.3952 210.288C54.3952 206.544 55.1392 203.256 56.6272 200.424C58.1632 197.592 60.2752 195.384 62.9632 193.8C65.6992 192.216 68.8672 191.424 72.4672 191.424C75.9712 191.424 79.0192 192.216 81.6112 193.8C84.2032 195.336 86.2192 197.4 87.6592 199.992C89.0992 202.584 89.8192 205.44 89.8192 208.56C89.8192 209.04 89.7952 209.568 89.7472 210.144C89.7472 210.672 89.7232 211.272 89.6752 211.944H61.8832C62.1232 215.4 63.2512 218.04 65.2672 219.864C67.3312 221.64 69.7072 222.528 72.3952 222.528C74.5552 222.528 76.3552 222.048 77.7952 221.088C79.2832 220.08 80.3872 218.736 81.1072 217.056H88.7392C87.7792 220.416 85.8592 223.224 82.9792 225.48C80.1472 227.736 76.6192 228.864 72.3952 228.864ZM72.3952 197.688C69.8512 197.688 67.5952 198.456 65.6272 199.992C63.6592 201.48 62.4592 203.736 62.0272 206.76H82.1872C82.0432 203.976 81.0592 201.768 79.2352 200.136C77.4112 198.504 75.1312 197.688 72.3952 197.688ZM92.1727 228L104.845 210.144L92.1727 192.288H100.309L109.885 205.968L119.389 192.288H127.597L114.925 210.144L127.597 228H119.389L109.885 214.32L100.309 228H92.1727ZM148.784 228C145.28 228 142.496 227.16 140.432 225.48C138.368 223.752 137.336 220.704 137.336 216.336V198.696H131.216V192.288H137.336L138.272 183.216H144.968V192.288H155.048V198.696H144.968V216.336C144.968 218.304 145.376 219.672 146.192 220.44C147.056 221.16 148.52 221.52 150.584 221.52H154.688V228H148.784ZM165.942 228.432C164.502 228.432 163.302 227.976 162.342 227.064C161.43 226.104 160.974 224.976 160.974 223.68C160.974 222.336 161.43 221.208 162.342 220.296C163.302 219.336 164.502 218.856 165.942 218.856C167.382 218.856 168.558 219.336 169.47 220.296C170.382 221.208 170.838 222.336 170.838 223.68C170.838 224.976 170.382 226.104 169.47 227.064C168.558 227.976 167.382 228.432 165.942 228.432ZM183.063 185.52C181.623 185.52 180.423 185.088 179.463 184.224C178.551 183.312 178.095 182.184 178.095 180.84C178.095 179.496 178.551 178.392 179.463 177.528C180.423 176.616 181.623 176.16 183.063 176.16C184.503 176.16 185.679 176.616 186.591 177.528C187.551 178.392 188.031 179.496 188.031 180.84C188.031 182.184 187.551 183.312 186.591 184.224C185.679 185.088 184.503 185.52 183.063 185.52ZM171.687 243.84V237.36H174.495C176.175 237.36 177.375 237 178.095 236.28C178.815 235.608 179.175 234.456 179.175 232.824V192.288H186.807V232.896C186.807 236.784 185.823 239.568 183.855 241.248C181.887 242.976 179.151 243.84 175.647 243.84H171.687ZM211.135 228.864C206.623 228.864 202.903 227.76 199.975 225.552C197.047 223.344 195.367 220.416 194.935 216.768H202.639C203.023 218.4 203.935 219.816 205.375 221.016C206.815 222.168 208.711 222.744 211.063 222.744C213.367 222.744 215.047 222.264 216.103 221.304C217.159 220.344 217.687 219.24 217.687 217.992C217.687 216.168 216.943 214.944 215.455 214.32C214.015 213.648 211.999 213.048 209.407 212.52C207.391 212.088 205.375 211.512 203.359 210.792C201.391 210.072 199.735 209.064 198.391 207.768C197.095 206.424 196.447 204.624 196.447 202.368C196.447 199.248 197.647 196.656 200.047 194.592C202.447 192.48 205.807 191.424 210.127 191.424C214.111 191.424 217.327 192.384 219.775 194.304C222.271 196.224 223.735 198.936 224.167 202.44H216.823C216.583 200.904 215.863 199.704 214.663 198.84C213.511 197.976 211.951 197.544 209.983 197.544C208.063 197.544 206.575 197.952 205.519 198.768C204.463 199.536 203.935 200.544 203.935 201.792C203.935 203.04 204.655 204.024 206.095 204.744C207.583 205.464 209.527 206.112 211.927 206.688C214.327 207.216 216.535 207.84 218.551 208.56C220.615 209.232 222.271 210.24 223.519 211.584C224.767 212.928 225.391 214.896 225.391 217.488C225.439 220.752 224.167 223.464 221.575 225.624C219.031 227.784 215.551 228.864 211.135 228.864Z" fill="#EBE4FF"/>
<defs>
<linearGradient id="paint0_linear_8674_5154" x1="129.278" y1="90.6112" x2="156.889" y2="124.833" gradientUnits="userSpaceOnUse">
<stop stop-color="#141414"/>
<stop offset="1" stop-color="#141414" stop-opacity="0"/>
</linearGradient>
<linearGradient id="paint1_linear_8674_5154" x1="138.612" y1="42" x2="138.456" y2="83.1252" gradientUnits="userSpaceOnUse">
<stop stop-color="#141414"/>
<stop offset="1" stop-color="#141414" stop-opacity="0"/>
</linearGradient>
<clipPath id="clip0_8674_5154">
<rect width="140" height="140" fill="white" transform="translate(44.5)"/>
</clipPath>
</defs>
</svg>
