<svg width="171" height="250" viewBox="0 0 171 250" fill="none" xmlns="http://www.w3.org/2000/svg">
<path d="M46.6016 0H124.118C127.89 0 131.553 0.601563 135.106 1.85938C140.245 3.71875 144.891 7 148.39 11.2656C151.943 15.5313 154.294 20.7812 155.114 26.25C155.442 28.2734 155.497 30.2969 155.497 32.3203V107.953C155.497 110.359 155.387 112.82 154.895 115.172C153.802 120.586 151.233 125.672 147.515 129.773C143.853 133.875 139.042 136.937 133.849 138.578C130.678 139.562 127.398 140 124.064 140C122.588 140 46.3829 140 45.235 139.945C39.659 139.672 34.1377 137.867 29.4911 134.75C24.9538 131.687 21.2365 127.422 18.8312 122.5C16.7539 118.289 15.7152 113.586 15.7152 108.883V31.1172C15.6059 26.4688 16.5899 21.875 18.6125 17.7188C20.9632 12.7969 24.6258 8.47656 29.1631 5.41406C33.8097 2.24219 39.2763 0.382813 44.8523 0.109375C45.399 0 46.0003 0 46.6016 0V0Z" fill="url(#paint0_linear_8674_5165)"/>
<path d="M133.579 114.516C133.087 113.75 132.54 112.984 131.939 112.273C130.572 110.633 128.987 109.211 127.237 108.008C125.051 106.531 122.482 105.602 119.858 105.492C117.999 105.383 116.14 105.711 114.391 106.367C112.642 106.969 110.947 107.844 109.307 108.719C107.394 109.703 105.48 110.687 103.458 111.508C101.052 112.492 98.5378 113.258 95.9685 113.805C92.7432 114.406 89.4632 114.625 86.2379 114.57C80.3886 114.461 74.5394 113.586 68.9634 111.945C64.0435 110.469 59.3422 108.445 54.9142 105.875C51.033 103.633 47.425 101.063 44.0357 98.1641C41.2477 95.7578 38.6784 93.1875 36.2731 90.4531C34.6331 88.5391 33.0478 86.5156 31.5718 84.4375C30.9705 83.6172 30.4238 82.7422 29.9318 81.8672L15.5 66.2812V31.0078C15.5 13.8906 29.3305 0 46.441 0H74.0474L94.4925 20.7812C140.631 52.1719 125.707 86.7891 125.707 86.7891C125.707 86.7891 138.827 101.555 133.579 114.516V114.516Z" fill="url(#paint1_linear_8674_5165)"/>
<path d="M94.6035 20.7812C140.742 52.1719 125.818 86.7891 125.818 86.7891C125.818 86.7891 138.938 101.609 133.635 114.57C133.635 114.57 128.223 105.492 119.148 105.492C110.402 105.492 105.263 114.57 87.6609 114.57C48.4654 114.57 29.9336 81.8125 29.9336 81.8125C65.2478 105.055 89.3555 88.5938 89.3555 88.5938C73.4477 79.3516 39.6095 35.1641 39.6095 35.1641C69.0744 60.2656 81.8116 66.8828 81.8116 66.8828C74.213 60.5938 52.8933 29.8594 52.8933 29.8594C69.9491 47.1406 103.842 71.2578 103.842 71.2578C113.463 44.5703 94.6035 20.7812 94.6035 20.7812Z" fill="white"/>
<path d="M21.9549 228.864C18.2589 228.864 15.0189 228.216 12.2349 226.92C9.45094 225.624 7.26694 223.776 5.68294 221.376C4.14694 218.976 3.35494 216.12 3.30694 212.808H11.3709C11.4189 215.496 12.3549 217.776 14.1789 219.648C16.0029 221.52 18.5709 222.456 21.8829 222.456C24.8109 222.456 27.0909 221.76 28.7229 220.368C30.4029 218.928 31.2429 217.104 31.2429 214.896C31.2429 213.12 30.8349 211.68 30.0189 210.576C29.2509 209.472 28.1709 208.56 26.7789 207.84C25.4349 207.12 23.8749 206.472 22.0989 205.896C20.3229 205.32 18.4509 204.696 16.4829 204.024C12.5949 202.728 9.66694 201.048 7.69894 198.984C5.77894 196.92 4.81894 194.208 4.81894 190.848C4.77094 188.016 5.41894 185.544 6.76294 183.432C8.15494 181.32 10.0749 179.688 12.5229 178.536C15.0189 177.336 17.9229 176.736 21.2349 176.736C24.4989 176.736 27.3549 177.336 29.8029 178.536C32.2989 179.736 34.2429 181.416 35.6349 183.576C37.0269 185.688 37.7469 188.16 37.7949 190.992H29.7309C29.7309 189.696 29.3949 188.472 28.7229 187.32C28.0509 186.12 27.0669 185.136 25.7709 184.368C24.4749 183.6 22.8909 183.216 21.0189 183.216C18.6189 183.168 16.6269 183.768 15.0429 185.016C13.5069 186.264 12.7389 187.992 12.7389 190.2C12.7389 192.168 13.3149 193.68 14.4669 194.736C15.6189 195.792 17.2029 196.68 19.2189 197.4C21.2349 198.072 23.5389 198.864 26.1309 199.776C28.6269 200.592 30.8589 201.576 32.8269 202.728C34.7949 203.88 36.3549 205.392 37.5069 207.264C38.7069 209.136 39.3069 211.512 39.3069 214.392C39.3069 216.936 38.6589 219.312 37.3629 221.52C36.0669 223.68 34.1229 225.456 31.5309 226.848C28.9389 228.192 25.7469 228.864 21.9549 228.864ZM54.4911 228L43.9791 192.288H51.6111L58.5231 219.216L66.2991 192.288H74.7951L82.5711 219.216L89.4831 192.288H97.1151L86.6031 228H78.7551L70.5471 199.92L62.3391 228H54.4911ZM107.722 185.52C106.282 185.52 105.082 185.088 104.122 184.224C103.21 183.312 102.754 182.184 102.754 180.84C102.754 179.496 103.21 178.392 104.122 177.528C105.082 176.616 106.282 176.16 107.722 176.16C109.162 176.16 110.338 176.616 111.25 177.528C112.21 178.392 112.69 179.496 112.69 180.84C112.69 182.184 112.21 183.312 111.25 184.224C110.338 185.088 109.162 185.52 107.722 185.52ZM103.906 228V192.288H111.538V228H103.906ZM123.413 228V198.696H118.301V192.288H123.413V187.104C123.413 183.216 124.373 180.432 126.293 178.752C128.261 177.024 131.021 176.16 134.573 176.16H138.317V182.64H135.725C134.045 182.64 132.845 183 132.125 183.72C131.405 184.392 131.045 185.544 131.045 187.176V192.288H139.253V198.696H131.045V228H123.413ZM161.48 228C157.976 228 155.192 227.16 153.128 225.48C151.064 223.752 150.032 220.704 150.032 216.336V198.696H143.912V192.288H150.032L150.968 183.216H157.664V192.288H167.744V198.696H157.664V216.336C157.664 218.304 158.072 219.672 158.888 220.44C159.752 221.16 161.216 221.52 163.28 221.52H167.384V228H161.48Z" fill="#EBE4FF"/>
<defs>
<linearGradient id="paint0_linear_8674_5165" x1="98.7482" y1="-4.9957" x2="72.2878" y2="145.009" gradientUnits="userSpaceOnUse">
<stop stop-color="#FAAE42"/>
<stop offset="1" stop-color="#EF3E31"/>
</linearGradient>
<linearGradient id="paint1_linear_8674_5165" x1="86.9005" y1="2.26188" x2="67.5345" y2="112.048" gradientUnits="userSpaceOnUse">
<stop stop-color="#E39F3A"/>
<stop offset="1" stop-color="#D33929"/>
</linearGradient>
</defs>
</svg>
