<svg width="266" height="250" viewBox="0 0 266 250" fill="none" xmlns="http://www.w3.org/2000/svg">
<path d="M133.003 82.3428C139.82 82.3428 145.346 76.8168 145.346 70.0001C145.346 63.1834 139.82 57.6573 133.003 57.6573C126.186 57.6573 120.66 63.1834 120.66 70.0001C120.66 76.8168 126.186 82.3428 133.003 82.3428Z" fill="#61DAFB"/>
<path d="M132.999 95.2876C169.576 95.2876 199.228 83.966 199.228 70.0001C199.228 56.0341 169.576 44.7125 132.999 44.7125C96.4214 44.7125 66.7695 56.0341 66.7695 70.0001C66.7695 83.966 96.4214 95.2876 132.999 95.2876Z" stroke="#61DAFB" stroke-width="5"/>
<path d="M111.1 82.6438C129.389 114.321 154.02 134.339 166.115 127.356C178.21 120.373 173.188 89.0332 154.9 57.3562C136.611 25.6793 111.98 5.66081 99.8855 12.6438C87.7907 19.6267 92.8118 50.9668 111.1 82.6438Z" stroke="#61DAFB" stroke-width="5"/>
<path d="M111.098 57.3562C92.8091 89.0331 87.788 120.373 99.8828 127.356C111.978 134.339 136.608 114.321 154.897 82.6437C173.186 50.9667 178.207 19.6267 166.112 12.6437C154.017 5.66075 129.386 25.6792 111.098 57.3562Z" stroke="#61DAFB" stroke-width="5"/>
<path d="M5.50263 228V177.6H22.8546C26.8386 177.6 30.1026 178.272 32.6466 179.616C35.2386 180.96 37.1586 182.784 38.4066 185.088C39.6546 187.344 40.2786 189.864 40.2786 192.648C40.2786 195.768 39.4386 198.6 37.7586 201.144C36.1266 203.688 33.5586 205.512 30.0546 206.616L40.7826 228H31.9266L22.1346 207.696H13.1346V228H5.50263ZM13.1346 201.936H22.4226C25.8786 201.936 28.3986 201.096 29.9826 199.416C31.6146 197.736 32.4306 195.552 32.4306 192.864C32.4306 190.176 31.6386 188.04 30.0546 186.456C28.4706 184.824 25.9026 184.008 22.3506 184.008H13.1346V201.936ZM63.5436 228.864C60.0396 228.864 56.9196 228.096 54.1836 226.56C51.4956 224.976 49.3836 222.792 47.8476 220.008C46.3116 217.224 45.5436 213.984 45.5436 210.288C45.5436 206.544 46.2876 203.256 47.7756 200.424C49.3116 197.592 51.4236 195.384 54.1116 193.8C56.8476 192.216 60.0156 191.424 63.6156 191.424C67.1196 191.424 70.1676 192.216 72.7596 193.8C75.3516 195.336 77.3676 197.4 78.8076 199.992C80.2476 202.584 80.9676 205.44 80.9676 208.56C80.9676 209.04 80.9436 209.568 80.8956 210.144C80.8956 210.672 80.8716 211.272 80.8236 211.944H53.0316C53.2716 215.4 54.3996 218.04 56.4156 219.864C58.4796 221.64 60.8556 222.528 63.5436 222.528C65.7036 222.528 67.5036 222.048 68.9436 221.088C70.4316 220.08 71.5356 218.736 72.2556 217.056H79.8876C78.9276 220.416 77.0076 223.224 74.1276 225.48C71.2956 227.736 67.7676 228.864 63.5436 228.864ZM63.5436 197.688C60.9996 197.688 58.7436 198.456 56.7756 199.992C54.8076 201.48 53.6076 203.736 53.1756 206.76H73.3356C73.1916 203.976 72.2076 201.768 70.3836 200.136C68.5596 198.504 66.2796 197.688 63.5436 197.688ZM100.983 228.864C97.9585 228.864 95.4625 228.36 93.4945 227.352C91.5265 226.344 90.0625 225.024 89.1025 223.392C88.1425 221.712 87.6625 219.888 87.6625 217.92C87.6625 214.464 89.0065 211.728 91.6945 209.712C94.3825 207.696 98.2225 206.688 103.215 206.688H112.575V206.04C112.575 203.256 111.807 201.168 110.271 199.776C108.783 198.384 106.839 197.688 104.439 197.688C102.327 197.688 100.479 198.216 98.8945 199.272C97.3585 200.28 96.4225 201.792 96.0865 203.808H88.4545C88.6945 201.216 89.5585 199.008 91.0465 197.184C92.5825 195.312 94.5025 193.896 96.8065 192.936C99.1585 191.928 101.727 191.424 104.511 191.424C109.503 191.424 113.367 192.744 116.103 195.384C118.839 197.976 120.207 201.528 120.207 206.04V228H113.583L112.935 221.88C111.927 223.848 110.463 225.504 108.543 226.848C106.623 228.192 104.103 228.864 100.983 228.864ZM102.495 222.672C104.559 222.672 106.287 222.192 107.679 221.232C109.119 220.224 110.223 218.904 110.991 217.272C111.807 215.64 112.311 213.84 112.503 211.872H104.007C100.983 211.872 98.8225 212.4 97.5265 213.456C96.2785 214.512 95.6545 215.832 95.6545 217.416C95.6545 219.048 96.2545 220.344 97.4545 221.304C98.7025 222.216 100.383 222.672 102.495 222.672ZM146.025 228.864C142.521 228.864 139.377 228.072 136.593 226.488C133.857 224.904 131.697 222.72 130.113 219.936C128.577 217.104 127.809 213.84 127.809 210.144C127.809 206.448 128.577 203.208 130.113 200.424C131.697 197.592 133.857 195.384 136.593 193.8C139.377 192.216 142.521 191.424 146.025 191.424C150.441 191.424 154.137 192.576 157.113 194.88C160.137 197.184 162.081 200.304 162.945 204.24H154.953C154.473 202.272 153.417 200.736 151.785 199.632C150.153 198.528 148.233 197.976 146.025 197.976C144.153 197.976 142.425 198.456 140.841 199.416C139.257 200.328 137.985 201.696 137.025 203.52C136.065 205.296 135.585 207.504 135.585 210.144C135.585 212.784 136.065 215.016 137.025 216.84C137.985 218.616 139.257 219.984 140.841 220.944C142.425 221.904 144.153 222.384 146.025 222.384C148.233 222.384 150.153 221.832 151.785 220.728C153.417 219.624 154.473 218.064 154.953 216.048H162.945C162.129 219.888 160.209 222.984 157.185 225.336C154.161 227.688 150.441 228.864 146.025 228.864ZM185.495 228C181.991 228 179.207 227.16 177.143 225.48C175.079 223.752 174.047 220.704 174.047 216.336V198.696H167.927V192.288H174.047L174.983 183.216H181.679V192.288H191.759V198.696H181.679V216.336C181.679 218.304 182.087 219.672 182.903 220.44C183.767 221.16 185.231 221.52 187.295 221.52H191.399V228H185.495ZM202.653 228.432C201.213 228.432 200.013 227.976 199.053 227.064C198.141 226.104 197.685 224.976 197.685 223.68C197.685 222.336 198.141 221.208 199.053 220.296C200.013 219.336 201.213 218.856 202.653 218.856C204.093 218.856 205.269 219.336 206.181 220.296C207.093 221.208 207.549 222.336 207.549 223.68C207.549 224.976 207.093 226.104 206.181 227.064C205.269 227.976 204.093 228.432 202.653 228.432ZM219.774 185.52C218.334 185.52 217.134 185.088 216.174 184.224C215.262 183.312 214.806 182.184 214.806 180.84C214.806 179.496 215.262 178.392 216.174 177.528C217.134 176.616 218.334 176.16 219.774 176.16C221.214 176.16 222.39 176.616 223.302 177.528C224.262 178.392 224.742 179.496 224.742 180.84C224.742 182.184 224.262 183.312 223.302 184.224C222.39 185.088 221.214 185.52 219.774 185.52ZM208.398 243.84V237.36H211.206C212.886 237.36 214.086 237 214.806 236.28C215.526 235.608 215.886 234.456 215.886 232.824V192.288H223.518V232.896C223.518 236.784 222.534 239.568 220.566 241.248C218.598 242.976 215.862 243.84 212.358 243.84H208.398ZM247.846 228.864C243.334 228.864 239.614 227.76 236.686 225.552C233.758 223.344 232.078 220.416 231.646 216.768H239.35C239.734 218.4 240.646 219.816 242.086 221.016C243.526 222.168 245.422 222.744 247.774 222.744C250.078 222.744 251.758 222.264 252.814 221.304C253.87 220.344 254.398 219.24 254.398 217.992C254.398 216.168 253.654 214.944 252.166 214.32C250.726 213.648 248.71 213.048 246.118 212.52C244.102 212.088 242.086 211.512 240.07 210.792C238.102 210.072 236.446 209.064 235.102 207.768C233.806 206.424 233.158 204.624 233.158 202.368C233.158 199.248 234.358 196.656 236.758 194.592C239.158 192.48 242.518 191.424 246.838 191.424C250.822 191.424 254.038 192.384 256.486 194.304C258.982 196.224 260.446 198.936 260.878 202.44H253.534C253.294 200.904 252.574 199.704 251.374 198.84C250.222 197.976 248.662 197.544 246.694 197.544C244.774 197.544 243.286 197.952 242.23 198.768C241.174 199.536 240.646 200.544 240.646 201.792C240.646 203.04 241.366 204.024 242.806 204.744C244.294 205.464 246.238 206.112 248.638 206.688C251.038 207.216 253.246 207.84 255.262 208.56C257.326 209.232 258.982 210.24 260.23 211.584C261.478 212.928 262.102 214.896 262.102 217.488C262.15 220.752 260.878 223.464 258.286 225.624C255.742 227.784 252.262 228.864 247.846 228.864Z" fill="#EBE4FF"/>
</svg>
