<svg width="280" height="250" viewBox="0 0 280 250" fill="none" xmlns="http://www.w3.org/2000/svg">
<path d="M190.85 18.5231C177.843 -0.0831135 152.151 -5.59816 133.578 6.23114L100.96 27.013C98.7652 28.3918 96.7181 29.9949 94.8556 31.7966C92.9908 33.5984 91.3199 35.5894 89.8687 37.737C88.4175 39.8846 87.193 42.1771 86.2138 44.5771C85.237 46.9781 84.5118 49.474 84.0499 52.0247C83.6643 54.1629 83.4539 56.3316 83.4259 58.5049C83.3955 60.6805 83.5474 62.8538 83.8769 65.0014C84.2064 67.1513 84.7135 69.2709 85.3912 71.3367C86.0689 73.4025 86.9172 75.4076 87.9267 77.3331C87.2323 78.3885 86.5911 79.4781 86.0058 80.5978C85.4193 81.7171 84.8911 82.8669 84.4214 84.04C83.9517 85.2131 83.5428 86.4096 83.1946 87.6248C82.8464 88.84 82.5613 90.0715 82.3369 91.3147C81.4047 96.5427 81.5279 101.904 82.6991 107.084C83.2834 109.666 84.1223 112.185 85.2066 114.602C86.2909 117.018 87.6113 119.322 89.1536 121.477C102.161 140.083 127.85 145.598 146.424 133.769L179.042 113.073C181.236 111.692 183.279 110.087 185.141 108.283C187.003 106.48 188.674 104.489 190.126 102.342C191.577 100.197 192.801 97.9047 193.78 95.5047C194.76 93.1071 195.486 90.6113 195.951 88.0618C196.337 85.9235 196.545 83.7572 196.573 81.5839C196.601 79.4106 196.449 77.2373 196.117 75.0897C195.788 72.9421 195.281 70.8249 194.601 68.7591C193.921 66.6957 193.072 64.6906 192.063 62.765C192.757 61.7111 193.4 60.6198 193.986 59.5004C194.57 58.381 195.101 57.2313 195.571 56.0582C196.04 54.885 196.452 53.6886 196.802 52.4734C197.15 51.2605 197.44 50.029 197.667 48.7858C198.129 46.1778 198.33 43.5301 198.27 40.8824C198.209 38.2348 197.884 35.6011 197.3 33.0165C196.716 30.4342 195.877 27.9151 194.792 25.4987C193.709 23.082 192.389 20.779 190.85 18.6236" fill="#FF3E00"/>
<path d="M130.39 123.276C127.837 123.94 125.198 124.209 122.564 124.076C119.93 123.94 117.331 123.407 114.859 122.489C112.386 121.572 110.068 120.284 107.984 118.668C105.901 117.051 104.077 115.127 102.574 112.961C101.646 111.664 100.852 110.281 100.202 108.827C99.5505 107.375 99.0455 105.861 98.6947 104.308C98.3465 102.754 98.1502 101.169 98.1152 99.578C98.0801 97.9866 98.204 96.3952 98.4844 94.8271C98.5288 94.5724 98.5802 94.3177 98.6363 94.0653C98.69 93.8106 98.7508 93.5582 98.8162 93.3082C98.8793 93.0558 98.9494 92.8057 99.0242 92.5557C99.0967 92.308 99.1761 92.0603 99.2579 91.8149L99.8725 89.9384L101.548 91.1886C102.509 91.8897 103.499 92.551 104.516 93.1679C105.532 93.7872 106.575 94.3621 107.64 94.8902C108.704 95.4207 109.793 95.9068 110.898 96.3438C112.003 96.7831 113.127 97.1734 114.268 97.5169L115.518 97.8791L115.406 99.1293C115.345 99.9802 115.434 100.835 115.667 101.656C115.782 102.067 115.934 102.464 116.118 102.847C116.303 103.231 116.52 103.597 116.768 103.943C117.222 104.596 117.773 105.175 118.402 105.661C119.028 106.147 119.727 106.535 120.472 106.811C121.218 107.086 121.998 107.245 122.793 107.285C123.585 107.327 124.379 107.245 125.148 107.044C125.326 106.998 125.499 106.944 125.672 106.883C125.845 106.822 126.015 106.757 126.181 106.682C126.349 106.61 126.513 106.53 126.677 106.444C126.838 106.36 126.994 106.269 127.149 106.17L159.718 85.3861C160.117 85.1358 160.489 84.8444 160.828 84.5168C161.167 84.1873 161.468 83.8251 161.732 83.4348C161.996 83.0446 162.216 82.6263 162.393 82.1893C162.569 81.7523 162.699 81.2989 162.784 80.8362C162.865 80.3618 162.9 79.8828 162.889 79.4014C162.877 78.9223 162.816 78.4456 162.709 77.9759C162.604 77.5085 162.449 77.0528 162.251 76.6135C162.055 76.1765 161.811 75.7605 161.531 75.3702C161.078 74.7183 160.529 74.141 159.9 73.655C159.271 73.1689 158.573 72.781 157.829 72.5052C157.085 72.2294 156.302 72.0687 155.509 72.0285C154.714 71.9888 153.92 72.0706 153.151 72.2692C152.976 72.3159 152.8 72.3697 152.628 72.4305C152.455 72.4912 152.286 72.5566 152.118 72.6291C151.95 72.7039 151.786 72.7833 151.625 72.8698C151.464 72.9539 151.305 73.0474 151.151 73.1455L138.644 81.0863C138.134 81.4087 137.611 81.7125 137.078 81.9976C136.543 82.2804 136.001 82.5445 135.447 82.7875C134.893 83.0305 134.33 83.2525 133.76 83.4512C133.189 83.6522 132.612 83.8298 132.028 83.9863C129.478 84.6453 126.845 84.9117 124.216 84.7762C121.587 84.6407 118.995 84.1055 116.527 83.1918C114.06 82.2757 111.746 80.9881 109.666 79.3757C107.587 77.7632 105.764 75.8446 104.261 73.683C103.338 72.386 102.546 71.0003 101.899 69.5467C101.249 68.0932 100.747 66.5789 100.398 65.0272C100.05 63.4732 99.8585 61.8888 99.8258 60.2974C99.7907 58.7083 99.9146 57.1169 100.197 55.5511C100.75 52.4685 101.939 49.5348 103.689 46.9374C105.44 44.34 107.714 42.1368 110.365 40.4689L143.035 19.687C143.542 19.3645 144.061 19.0607 144.591 18.7756C145.121 18.4928 145.664 18.2288 146.213 17.9857C146.763 17.7426 147.323 17.5212 147.891 17.3221C148.456 17.1211 149.031 16.9412 149.613 16.7846C152.165 16.1232 154.803 15.8522 157.435 15.9854C160.068 16.1209 162.664 16.6537 165.137 17.5721C167.609 18.4882 169.925 19.7781 172.01 21.3929C174.092 23.0104 175.915 24.9354 177.417 27.1019C178.343 28.3966 179.139 29.78 179.791 31.2335C180.443 32.6871 180.948 34.199 181.301 35.7531C181.652 37.3071 181.848 38.8915 181.883 40.4829C181.92 42.0743 181.799 43.6658 181.518 45.2338C181.469 45.4909 181.418 45.7479 181.359 46.0026C181.303 46.2574 181.243 46.5121 181.177 46.7645C181.114 47.0192 181.044 47.2716 180.972 47.5216C180.899 47.774 180.824 48.024 180.743 48.2718L180.119 50.1483L178.455 48.898C177.492 48.19 176.499 47.5263 175.48 46.9023C174.461 46.2807 173.414 45.7012 172.346 45.166C170.208 44.0995 167.984 43.2146 165.698 42.5207L164.445 42.1585L164.56 40.9082C164.595 40.4806 164.592 40.0506 164.553 39.6253C164.515 39.2 164.438 38.777 164.326 38.3634C164.211 37.9521 164.064 37.5478 163.88 37.1622C163.697 36.7743 163.48 36.4051 163.232 36.0545C162.776 35.414 162.226 34.8467 161.599 34.372C160.973 33.8951 160.278 33.5168 159.538 33.2503C158.05 32.7106 156.433 32.6381 154.904 33.0423C154.726 33.089 154.551 33.1428 154.38 33.2012C154.207 33.2619 154.037 33.3297 153.868 33.4022C153.703 33.4746 153.537 33.5564 153.375 33.6405C153.214 33.727 153.055 33.8181 152.901 33.9163L120.271 54.6631C119.874 54.9132 119.502 55.2053 119.166 55.5324C118.829 55.8596 118.525 56.2218 118.261 56.6098C118 56.9999 117.778 57.4157 117.6 57.8506C117.422 58.2876 117.292 58.7386 117.207 59.2014C117.126 59.6757 117.091 60.1571 117.102 60.6385C117.13 61.6022 117.347 62.5509 117.74 63.4311C117.939 63.8693 118.179 64.2872 118.458 64.679C118.909 65.324 119.456 65.8989 120.079 66.3803C120.702 66.8639 121.395 67.25 122.134 67.5253C123.619 68.0776 125.237 68.1665 126.775 67.78C126.95 67.731 127.125 67.6772 127.298 67.6165C127.469 67.5557 127.639 67.4879 127.808 67.4155C127.975 67.3427 128.14 67.2632 128.301 67.1771C128.462 67.093 128.621 67.0019 128.775 66.9037L141.282 58.977C141.794 58.6499 142.315 58.3414 142.85 58.0563C143.383 57.7688 143.927 57.5048 144.484 57.2594C145.038 57.0162 145.601 56.7949 146.173 56.5957C146.746 56.3948 147.325 56.2172 147.912 56.0629C150.464 55.3992 153.1 55.1282 155.733 55.259C158.367 55.3922 160.963 55.925 163.436 56.8411C165.906 57.7572 168.224 59.0448 170.306 60.6619C172.391 62.2767 174.213 64.1999 175.716 66.3662C176.641 67.6632 177.436 69.0466 178.088 70.5002C178.74 71.9529 179.245 73.4668 179.597 75.0197C179.948 76.5714 180.144 78.1558 180.182 79.7472C180.219 81.341 180.095 82.9324 179.817 84.4981C179.542 86.0354 179.107 87.5399 178.52 88.9873C177.934 90.435 177.198 91.8174 176.323 93.1119C175.452 94.4065 174.447 95.6077 173.325 96.6943C172.204 97.781 170.972 98.7484 169.649 99.5804L137.017 120.362C136.505 120.687 135.982 120.993 135.449 121.278C134.914 121.563 134.37 121.827 133.813 122.071C133.259 122.316 132.696 122.538 132.124 122.739C131.554 122.94 130.974 123.12 130.39 123.276" fill="white"/>
<path d="M21.9628 228.864C18.2668 228.864 15.0268 228.216 12.2428 226.92C9.45875 225.624 7.27475 223.776 5.69075 221.376C4.15475 218.976 3.36275 216.12 3.31475 212.808H11.3788C11.4268 215.496 12.3628 217.776 14.1868 219.648C16.0108 221.52 18.5788 222.456 21.8908 222.456C24.8188 222.456 27.0988 221.76 28.7308 220.368C30.4108 218.928 31.2508 217.104 31.2508 214.896C31.2508 213.12 30.8428 211.68 30.0268 210.576C29.2588 209.472 28.1788 208.56 26.7868 207.84C25.4428 207.12 23.8828 206.472 22.1068 205.896C20.3308 205.32 18.4588 204.696 16.4908 204.024C12.6028 202.728 9.67475 201.048 7.70675 198.984C5.78675 196.92 4.82675 194.208 4.82675 190.848C4.77875 188.016 5.42675 185.544 6.77075 183.432C8.16275 181.32 10.0828 179.688 12.5308 178.536C15.0268 177.336 17.9308 176.736 21.2428 176.736C24.5068 176.736 27.3628 177.336 29.8108 178.536C32.3068 179.736 34.2508 181.416 35.6428 183.576C37.0348 185.688 37.7548 188.16 37.8028 190.992H29.7388C29.7388 189.696 29.4028 188.472 28.7308 187.32C28.0588 186.12 27.0748 185.136 25.7788 184.368C24.4828 183.6 22.8988 183.216 21.0268 183.216C18.6268 183.168 16.6348 183.768 15.0508 185.016C13.5148 186.264 12.7468 187.992 12.7468 190.2C12.7468 192.168 13.3228 193.68 14.4748 194.736C15.6268 195.792 17.2108 196.68 19.2267 197.4C21.2428 198.072 23.5468 198.864 26.1388 199.776C28.6348 200.592 30.8668 201.576 32.8348 202.728C34.8028 203.88 36.3628 205.392 37.5148 207.264C38.7148 209.136 39.3148 211.512 39.3148 214.392C39.3148 216.936 38.6668 219.312 37.3708 221.52C36.0748 223.68 34.1308 225.456 31.5388 226.848C28.9468 228.192 25.7548 228.864 21.9628 228.864ZM57.3789 228L43.9869 192.288H51.9789L61.9149 220.728L71.8509 192.288H79.7709L66.4509 228H57.3789ZM100.919 228.864C97.4146 228.864 94.2946 228.096 91.5586 226.56C88.8706 224.976 86.7586 222.792 85.2226 220.008C83.6866 217.224 82.9186 213.984 82.9186 210.288C82.9186 206.544 83.6626 203.256 85.1506 200.424C86.6866 197.592 88.7986 195.384 91.4866 193.8C94.2226 192.216 97.3906 191.424 100.991 191.424C104.495 191.424 107.543 192.216 110.135 193.8C112.727 195.336 114.743 197.4 116.183 199.992C117.623 202.584 118.343 205.44 118.343 208.56C118.343 209.04 118.319 209.568 118.271 210.144C118.271 210.672 118.247 211.272 118.199 211.944H90.4066C90.6466 215.4 91.7746 218.04 93.7906 219.864C95.8546 221.64 98.2306 222.528 100.919 222.528C103.079 222.528 104.879 222.048 106.319 221.088C107.807 220.08 108.911 218.736 109.631 217.056H117.263C116.303 220.416 114.383 223.224 111.503 225.48C108.671 227.736 105.143 228.864 100.919 228.864ZM100.919 197.688C98.3746 197.688 96.1186 198.456 94.1506 199.992C92.1826 201.48 90.9826 203.736 90.5506 206.76H110.711C110.567 203.976 109.583 201.768 107.759 200.136C105.935 198.504 103.655 197.688 100.919 197.688ZM126.262 228V176.16H133.894V228H126.262ZM158.534 228C155.03 228 152.246 227.16 150.182 225.48C148.118 223.752 147.086 220.704 147.086 216.336V198.696H140.966V192.288H147.086L148.022 183.216H154.718V192.288H164.798V198.696H154.718V216.336C154.718 218.304 155.126 219.672 155.942 220.44C156.806 221.16 158.27 221.52 160.334 221.52H164.438V228H158.534ZM188.458 228.864C184.954 228.864 181.834 228.096 179.098 226.56C176.41 224.976 174.298 222.792 172.762 220.008C171.226 217.224 170.458 213.984 170.458 210.288C170.458 206.544 171.202 203.256 172.69 200.424C174.226 197.592 176.338 195.384 179.026 193.8C181.762 192.216 184.93 191.424 188.53 191.424C192.034 191.424 195.082 192.216 197.674 193.8C200.266 195.336 202.282 197.4 203.722 199.992C205.162 202.584 205.882 205.44 205.882 208.56C205.882 209.04 205.858 209.568 205.81 210.144C205.81 210.672 205.786 211.272 205.738 211.944H177.946C178.186 215.4 179.314 218.04 181.33 219.864C183.394 221.64 185.77 222.528 188.458 222.528C190.618 222.528 192.418 222.048 193.858 221.088C195.346 220.08 196.45 218.736 197.17 217.056H204.802C203.842 220.416 201.922 223.224 199.042 225.48C196.21 227.736 192.682 228.864 188.458 228.864ZM188.458 197.688C185.914 197.688 183.658 198.456 181.69 199.992C179.722 201.48 178.522 203.736 178.09 206.76H198.25C198.106 203.976 197.122 201.768 195.298 200.136C193.474 198.504 191.194 197.688 188.458 197.688ZM216.825 228.432C215.385 228.432 214.185 227.976 213.225 227.064C212.313 226.104 211.857 224.976 211.857 223.68C211.857 222.336 212.313 221.208 213.225 220.296C214.185 219.336 215.385 218.856 216.825 218.856C218.265 218.856 219.441 219.336 220.353 220.296C221.265 221.208 221.721 222.336 221.721 223.68C221.721 224.976 221.265 226.104 220.353 227.064C219.441 227.976 218.265 228.432 216.825 228.432ZM233.946 185.52C232.506 185.52 231.306 185.088 230.346 184.224C229.434 183.312 228.978 182.184 228.978 180.84C228.978 179.496 229.434 178.392 230.346 177.528C231.306 176.616 232.506 176.16 233.946 176.16C235.386 176.16 236.562 176.616 237.474 177.528C238.434 178.392 238.914 179.496 238.914 180.84C238.914 182.184 238.434 183.312 237.474 184.224C236.562 185.088 235.386 185.52 233.946 185.52ZM222.57 243.84V237.36H225.378C227.058 237.36 228.258 237 228.978 236.28C229.698 235.608 230.058 234.456 230.058 232.824V192.288H237.69V232.896C237.69 236.784 236.706 239.568 234.738 241.248C232.77 242.976 230.034 243.84 226.53 243.84H222.57ZM262.018 228.864C257.506 228.864 253.786 227.76 250.858 225.552C247.93 223.344 246.25 220.416 245.818 216.768H253.521C253.906 218.4 254.818 219.816 256.258 221.016C257.698 222.168 259.594 222.744 261.945 222.744C264.25 222.744 265.93 222.264 266.986 221.304C268.042 220.344 268.57 219.24 268.57 217.992C268.57 216.168 267.826 214.944 266.338 214.32C264.898 213.648 262.882 213.048 260.29 212.52C258.274 212.088 256.258 211.512 254.242 210.792C252.274 210.072 250.618 209.064 249.274 207.768C247.978 206.424 247.33 204.624 247.33 202.368C247.33 199.248 248.53 196.656 250.93 194.592C253.33 192.48 256.69 191.424 261.01 191.424C264.994 191.424 268.21 192.384 270.658 194.304C273.154 196.224 274.618 198.936 275.05 202.44H267.706C267.466 200.904 266.746 199.704 265.546 198.84C264.394 197.976 262.834 197.544 260.866 197.544C258.946 197.544 257.458 197.952 256.402 198.768C255.346 199.536 254.818 200.544 254.818 201.792C254.818 203.04 255.538 204.024 256.978 204.744C258.466 205.464 260.41 206.112 262.81 206.688C265.21 207.216 267.418 207.84 269.434 208.56C271.498 209.232 273.154 210.24 274.402 211.584C275.65 212.928 276.274 214.896 276.274 217.488C276.322 220.752 275.05 223.464 272.458 225.624C269.914 227.784 266.434 228.864 262.018 228.864Z" fill="#EBE4FF"/>
</svg>
