<svg width="16" height="20" viewBox="0 0 16 20" fill="none" xmlns="http://www.w3.org/2000/svg">
<path d="M7.99995 6.16357V9.53427C7.99995 9.8287 8.13379 10.1072 8.36371 10.2911L10.423 11.9386M4.06245 4.12337V3.7001C4.06245 2.5403 5.00265 1.6001 6.16245 1.6001H9.83745C10.9972 1.6001 11.9375 2.5403 11.9375 3.7001V4.12337M4.06245 4.12337C4.13793 4.08665 4.2147 4.05211 4.29268 4.0198C5.06452 3.7001 6.043 3.7001 7.99995 3.7001C9.95691 3.7001 10.9354 3.7001 11.7072 4.0198C11.7852 4.05211 11.862 4.08665 11.9375 4.12337M4.06245 4.12337C3.14189 4.57121 2.41363 5.34169 2.01966 6.29283C1.69995 7.06467 1.69995 8.04314 1.69995 10.0001C1.69995 11.9571 1.69995 12.9355 2.01966 13.7074C2.41363 14.6585 3.14189 15.429 4.06245 15.8768M11.9375 4.12337C12.858 4.57121 13.5863 5.34169 13.9802 6.29283C14.3 7.06467 14.3 8.04314 14.3 10.0001C14.3 11.9571 14.3 12.9355 13.9802 13.7074C13.5863 14.6585 12.858 15.429 11.9375 15.8768M11.9375 15.8768V16.3001C11.9375 17.4599 10.9972 18.4001 9.83745 18.4001H6.16245C5.00265 18.4001 4.06245 17.4599 4.06245 16.3001V15.8768M11.9375 15.8768C11.862 15.9135 11.7852 15.9481 11.7072 15.9804C10.9354 16.3001 9.95691 16.3001 7.99995 16.3001C6.043 16.3001 5.06452 16.3001 4.29268 15.9804C4.2147 15.9481 4.13793 15.9135 4.06245 15.8768" stroke="white" stroke-width="1.5" stroke-linecap="round"/>
</svg>
