<svg width="73" height="73" viewBox="0 0 73 73" fill="none" xmlns="http://www.w3.org/2000/svg">
<path d="M50.6108 48.3045L49.0186 48.1462L49.0186 48.1462L50.6108 48.3045ZM24.2142 48.3045L22.6221 48.4628L22.6221 48.4628L24.2142 48.3045ZM28.5478 57.7301L27.8612 59.1752L27.8612 59.1752L28.5478 57.7301ZM25.5512 55.0027L24.1777 55.8232L24.1777 55.8232L25.5512 55.0027ZM49.2738 55.0027L50.6473 55.8232L50.6473 55.8232L49.2738 55.0027ZM46.2772 57.7301L46.9638 59.1752L46.9638 59.1752L46.2772 57.7301ZM18.25 22.6376C17.3663 22.6376 16.65 23.3539 16.65 24.2376C16.65 25.1212 17.3663 25.8376 18.25 25.8376V22.6376ZM56.575 25.8376C57.4587 25.8376 58.175 25.1212 58.175 24.2376C58.175 23.3539 57.4587 22.6376 56.575 22.6376V25.8376ZM40.5072 14.7807L40.9235 13.2358L40.9235 13.2358L40.5072 14.7807ZM44.2026 18.4972L45.7487 18.0853L45.7487 18.0853L44.2026 18.4972ZM34.3178 14.7807L34.7341 16.3255L34.7341 16.3255L34.3178 14.7807ZM30.6224 18.4972L32.1685 18.9091L32.1685 18.9091L30.6224 18.4972ZM45.1018 32.2799C45.1892 31.4006 44.5473 30.6168 43.668 30.5294C42.7887 30.442 42.0049 31.0839 41.9175 31.9633L45.1018 32.2799ZM40.1755 49.4833C40.088 50.3626 40.73 51.1463 41.6093 51.2337C42.4886 51.3211 43.2723 50.6792 43.3598 49.7999L40.1755 49.4833ZM32.9075 31.9633C32.8201 31.0839 32.0364 30.442 31.157 30.5294C30.2777 30.6168 29.6358 31.4006 29.7232 32.2799L32.9075 31.9633ZM31.4652 49.7999C31.5527 50.6792 32.3364 51.3211 33.2157 51.2337C34.095 51.1463 34.737 50.3626 34.6495 49.4833L31.4652 49.7999ZM39.517 56.8016H35.308V60.0016H39.517V56.8016ZM35.308 56.8016C33.5006 56.8016 32.2372 56.8004 31.2466 56.7225C30.276 56.6462 29.694 56.5032 29.2345 56.2849L27.8612 59.1752C28.8151 59.6284 29.8309 59.8211 30.9958 59.9127C32.1408 60.0027 33.5509 60.0016 35.308 60.0016V56.8016ZM22.6221 48.4628C22.7969 50.2216 22.936 51.6315 23.1388 52.7671C23.345 53.922 23.6359 54.9164 24.1777 55.8232L26.9248 54.1821C26.6615 53.7414 26.4614 53.1703 26.2889 52.2047C26.1131 51.2199 25.9862 49.9545 25.8064 48.1462L22.6221 48.4628ZM29.2345 56.2849C28.2763 55.8296 27.4722 55.0984 26.9248 54.1821L24.1777 55.8232C25.0484 57.2807 26.3297 58.4476 27.8612 59.1752L29.2345 56.2849ZM49.0186 48.1462C48.8388 49.9545 48.7119 51.2198 48.5361 52.2047C48.3636 53.1703 48.1635 53.7414 47.9002 54.1821L50.6473 55.8232C51.1891 54.9164 51.48 53.922 51.6862 52.7671C51.889 51.6315 52.0281 50.2216 52.2029 48.4628L49.0186 48.1462ZM39.517 60.0016C41.2741 60.0016 42.6842 60.0027 43.8292 59.9127C44.9941 59.8211 46.0099 59.6284 46.9638 59.1752L45.5905 56.2849C45.131 56.5032 44.549 56.6462 43.5784 56.7225C42.5878 56.8004 41.3244 56.8016 39.517 56.8016V60.0016ZM47.9002 54.1821C47.3528 55.0984 46.5487 55.8296 45.5905 56.2849L46.9638 59.1752C48.4953 58.4476 49.7766 57.2807 50.6473 55.8232L47.9002 54.1821ZM42.7807 21.6096V23.3616H45.9807V21.6096H42.7807ZM32.0443 23.3616V21.6096H28.8443V23.3616H32.0443ZM37.4125 16.2016C39.1361 16.2016 39.6823 16.2155 40.0909 16.3255L40.9235 13.2358C40.0028 12.9877 38.929 13.0016 37.4125 13.0016V16.2016ZM45.9807 21.6096C45.9807 20.0827 45.9943 19.0071 45.7487 18.0853L42.6565 18.9091C42.7671 19.324 42.7807 19.8778 42.7807 21.6096H45.9807ZM40.0909 16.3255C41.339 16.6619 42.3195 17.6443 42.6565 18.9091L45.7487 18.0853C45.1192 15.7225 43.2823 13.8714 40.9235 13.2358L40.0909 16.3255ZM37.4125 13.0016C35.896 13.0016 34.8222 12.9877 33.9015 13.2358L34.7341 16.3255C35.1427 16.2155 35.6889 16.2016 37.4125 16.2016V13.0016ZM32.0443 21.6096C32.0443 19.8778 32.0579 19.324 32.1685 18.9091L29.0763 18.0853C28.8307 19.0071 28.8443 20.0827 28.8443 21.6096H32.0443ZM33.9015 13.2358C31.5427 13.8714 29.7058 15.7225 29.0763 18.0853L32.1685 18.9091C32.5055 17.6443 33.486 16.6619 34.7341 16.3255L33.9015 13.2358ZM41.9175 31.9633L40.1755 49.4833L43.3598 49.7999L45.1018 32.2799L41.9175 31.9633ZM29.7232 32.2799L31.4652 49.7999L34.6495 49.4833L32.9075 31.9633L29.7232 32.2799ZM53.0038 25.8376H56.575V22.6376H53.0038V25.8376ZM51.4117 24.0793L49.0186 48.1462L52.2029 48.4628L54.596 24.3959L51.4117 24.0793ZM44.3807 25.8376H53.0038V22.6376H44.3807V25.8376ZM42.7807 23.3616V24.2376H45.9807V23.3616H42.7807ZM30.4443 25.8376H44.3807V22.6376H30.4443V25.8376ZM28.8443 23.3616V24.2376H32.0443V23.3616H28.8443ZM18.25 25.8376H21.8212V22.6376H18.25V25.8376ZM21.8212 25.8376H30.4443V22.6376H21.8212V25.8376ZM25.8064 48.1462L23.4133 24.0793L20.229 24.3959L22.6221 48.4628L25.8064 48.1462Z" fill="black"/>
</svg>
