<svg width="24" height="24" viewBox="0 0 24 24" fill="none" xmlns="http://www.w3.org/2000/svg">
<rect width="24" height="24" rx="12" fill="#398CCB"/>
<mask id="mask0_11950_5909" style="mask-type:luminance" maskUnits="userSpaceOnUse" x="2" y="2" width="20" height="20">
<path d="M22 2H2V22H22V2Z" fill="white"/>
</mask>
<g mask="url(#mask0_11950_5909)">
<path d="M16.1406 2H7.85938C4.62333 2 2 4.62333 2 7.85938V16.1406C2 19.3767 4.62333 22 7.85938 22H16.1406C19.3767 22 22 19.3767 22 16.1406V7.85938C22 4.62333 19.3767 2 16.1406 2Z" fill="#398CCB"/>
<path fill-rule="evenodd" clip-rule="evenodd" d="M11.9792 4.92969L14.7556 6.53156V7.41234L18.1161 9.35305V12.6728L19.0177 13.1932V16.3988L16.243 18.0006L15.0112 17.2882L12.0161 19.0175L9.03902 17.2982L7.82446 18.0006L5.0498 16.396V13.1932L5.9161 12.6931V9.35305L9.20454 7.45461L9.20637 7.45453V6.53156L11.9792 4.92969ZM14.7556 8.24528V9.73528L11.981 11.3372L9.20637 9.73528V8.28656L9.20454 8.28664L6.63723 9.76953V12.2767L7.82446 11.5913L10.5991 13.1932V16.396L9.75965 16.8815L12.0161 18.1845L14.2906 16.8716L13.4684 16.396V13.1932L16.243 11.5913L17.395 12.2565V9.76953L14.7556 8.24528ZM14.1895 15.9832V14.0279L15.8824 15.0051V16.9604L14.1895 15.9832ZM18.2964 14.0252L16.6036 15.0024V16.9604L18.2964 15.9805V14.0252ZM5.77096 15.9805V14.0252L7.46387 15.0024V16.9576L5.77096 15.9805ZM9.87793 14.0252L8.18501 15.0024V16.9576L9.87793 15.9805V14.0252ZM14.5501 13.4032L16.243 12.4261L17.9358 13.4032L16.243 14.3813L14.5501 13.4032ZM7.82446 12.4234L6.13152 13.4032L7.82446 14.3786L9.51735 13.4032L7.82446 12.4234ZM9.92751 9.31883V7.36359L11.6186 8.34164V10.296L9.92751 9.31883ZM14.0327 7.36359L12.3416 8.34164V10.2951L14.0327 9.31883V7.36359ZM10.2881 6.73977L11.9792 5.76262L13.6721 6.73977L11.9792 7.71695L10.2881 6.73977Z" fill="white"/>
</g>
</svg>
