<svg width="22" height="22" viewBox="0 0 22 22" fill="none" xmlns="http://www.w3.org/2000/svg">
<path d="M7.3456 10.9999L9.78188 13.6419L14.6544 8.3579M7.03426 2.77536C7.82324 2.87888 8.61813 2.62992 9.19332 2.09914C10.2036 1.16682 11.7964 1.16682 12.8067 2.09914C13.3819 2.62992 14.1768 2.87888 14.9658 2.77536C16.3516 2.59354 17.6402 3.49601 17.8891 4.8227C18.0308 5.578 18.5221 6.2298 19.2235 6.59309C20.4555 7.2312 20.9477 8.69142 20.3401 9.90574C19.9941 10.5971 19.9941 11.4027 20.3401 12.0941C20.9477 13.3084 20.4555 14.7686 19.2235 15.4067C18.5221 15.77 18.0308 16.4218 17.8891 17.1771C17.6402 18.5038 16.3516 19.4063 14.9658 19.2244C14.1768 19.1209 13.3819 19.3699 12.8067 19.9007C11.7964 20.833 10.2036 20.833 9.19331 19.9007C8.61813 19.3699 7.82324 19.1209 7.03426 19.2244C5.6484 19.4063 4.3598 18.5038 4.11094 17.1771C3.96926 16.4218 3.47799 15.77 2.77657 15.4067C1.54452 14.7686 1.05232 13.3084 1.65996 12.0941C2.0059 11.4027 2.0059 10.5971 1.65996 9.90574C1.05232 8.69142 1.54452 7.2312 2.77657 6.59309C3.47799 6.2298 3.96926 5.578 4.11094 4.8227C4.3598 3.49601 5.6484 2.59354 7.03426 2.77536Z" stroke="white" stroke-width="2" stroke-linecap="round" stroke-linejoin="round"/>
</svg>
