<svg width="22" height="22" viewBox="0 0 22 22" fill="none" xmlns="http://www.w3.org/2000/svg">
<path d="M7.34548 10.9999L9.78176 13.6419L14.6543 8.3579M7.03414 2.77536C7.82312 2.87888 8.61801 2.62992 9.19319 2.09914C10.2035 1.16682 11.7963 1.16682 12.8066 2.09914C13.3818 2.62992 14.1767 2.87888 14.9657 2.77536C16.3515 2.59354 17.6401 3.49601 17.889 4.8227C18.0307 5.578 18.5219 6.2298 19.2234 6.59309C20.4554 7.2312 20.9476 8.69142 20.34 9.90574C19.994 10.5971 19.994 11.4027 20.34 12.0941C20.9476 13.3084 20.4554 14.7686 19.2234 15.4067C18.5219 15.77 18.0307 16.4218 17.889 17.1771C17.6401 18.5038 16.3515 19.4063 14.9657 19.2244C14.1767 19.1209 13.3818 19.3699 12.8066 19.9007C11.7963 20.833 10.2035 20.833 9.19319 19.9007C8.61801 19.3699 7.82312 19.1209 7.03414 19.2244C5.64828 19.4063 4.35968 18.5038 4.11082 17.1771C3.96914 16.4218 3.47787 15.77 2.77645 15.4067C1.5444 14.7686 1.0522 13.3084 1.65984 12.0941C2.00578 11.4027 2.00578 10.5971 1.65984 9.90574C1.0522 8.69142 1.5444 7.2312 2.77645 6.59309C3.47787 6.2298 3.96914 5.578 4.11082 4.8227C4.35968 3.49601 5.64828 2.59354 7.03414 2.77536Z" stroke="#ACA7BA" stroke-width="2" stroke-linecap="round" stroke-linejoin="round"/>
</svg>
