<svg width="24" height="24" viewBox="0 0 24 24" fill="none" xmlns="http://www.w3.org/2000/svg">
<rect width="24" height="24" rx="12" fill="white"/>
<path d="M16.0075 8.54799L12.1825 14.2315C12.142 14.2918 12.0833 14.3369 12.0155 14.3601C11.9476 14.3833 11.8743 14.3831 11.8066 14.3598C11.7389 14.3364 11.6805 14.291 11.6403 14.2307C11.6001 14.1702 11.5803 14.098 11.5838 14.025L11.7369 10.8871L9.26554 10.3484C9.21272 10.3369 9.16352 10.3123 9.12227 10.2767C9.08102 10.241 9.049 10.1956 9.02906 10.1442C9.00912 10.0929 9.00187 10.0373 9.00794 9.98239C9.01402 9.92748 9.03323 9.87492 9.06388 9.82938L12.889 4.14582C12.9295 4.08553 12.9882 4.0404 13.056 4.01726C13.1239 3.99413 13.1972 3.99425 13.2649 4.01762C13.3326 4.04099 13.391 4.08632 13.4312 4.14676C13.4714 4.20718 13.4912 4.2794 13.4876 4.35245L13.3346 7.49039L15.8059 8.02898C15.8587 8.04047 15.9079 8.06513 15.9492 8.10074C15.9905 8.13637 16.0225 8.18186 16.0424 8.23319C16.0624 8.28452 16.0696 8.3401 16.0635 8.39501C16.0575 8.44993 16.0382 8.50245 16.0075 8.54799Z" fill="#FCC72B"/>
<path d="M12.0015 19C11.8998 19.0001 11.7991 18.9797 11.7051 18.9396C11.6111 18.8996 11.5257 18.8409 11.4539 18.7669L7.83962 15.0529C7.69504 14.9036 7.61399 14.7014 7.61426 14.4907C7.61453 14.28 7.6961 14.0779 7.84109 13.929C7.98606 13.7799 8.18263 13.6961 8.38766 13.6957C8.5927 13.6955 8.78949 13.7787 8.93487 13.9273L12.0015 17.0785L18.6823 10.2132C18.828 10.0659 19.0243 9.98377 19.2286 9.98463C19.433 9.98547 19.6287 10.0693 19.7731 10.2177C19.9176 10.3662 19.9992 10.5673 20 10.7773C20.0007 10.9873 19.9208 11.1891 19.7775 11.3387L12.5491 18.7669C12.4773 18.841 12.3919 18.8996 12.2979 18.9396C12.204 18.9797 12.1033 19.0001 12.0015 19Z" fill="#729B1B"/>
<path d="M11.9984 19C12.1002 19.0001 12.2009 18.9797 12.2949 18.9396C12.3889 18.8996 12.4743 18.8409 12.5461 18.7669L16.1603 15.0529C16.3049 14.9036 16.386 14.7014 16.3857 14.4907C16.3855 14.28 16.3039 14.0779 16.1589 13.929C16.0139 13.7799 15.8173 13.6961 15.6123 13.6957C15.4073 13.6955 15.2105 13.7787 15.0651 13.9273L11.9984 17.0785L5.31764 10.2132C5.172 10.0659 4.97563 9.98377 4.77133 9.98463C4.56701 9.98547 4.37131 10.0693 4.22684 10.2177C4.08237 10.3662 4.00084 10.5673 4.00001 10.7773C3.99917 10.9873 4.07911 11.1891 4.2224 11.3387L11.4509 18.7669C11.5227 18.841 11.608 18.8996 11.702 18.9396C11.796 18.9797 11.8967 19.0001 11.9984 19Z" fill="#729B1B" fill-opacity="0.5"/>
</svg>
