<svg width="100" height="100" viewBox="0 0 100 100" fill="none" xmlns="http://www.w3.org/2000/svg">
<path d="M98.7616 14.801L52.6448 98.6946C51.6926 100.427 49.2464 100.437 48.28 98.7134L1.249 14.8088C0.195944 12.9307 1.77476 10.6554 3.86707 11.0362L50.0333 19.4307C50.3278 19.4842 50.6294 19.4837 50.9237 19.4291L96.1243 11.0479C98.2097 10.6612 99.7958 12.9189 98.7616 14.801Z" fill="url(#paint0_linear_11958_2346)"/>
<path d="M72.0246 0.0246207L37.8972 6.8278C37.6245 6.88215 37.3773 7.02714 37.1945 7.23999C37.0116 7.45285 36.9035 7.72148 36.8871 8.00367L34.7878 44.074C34.7763 44.2718 34.8102 44.4697 34.887 44.6518C34.9637 44.834 35.0812 44.9954 35.2299 45.1233C35.3787 45.2513 35.5548 45.3421 35.7441 45.3888C35.9334 45.4354 36.1308 45.4364 36.3207 45.3919L45.8223 43.1611C46.7113 42.9524 47.5147 43.749 47.3318 44.6584L44.5089 58.7216C44.3191 59.6681 45.1923 60.4772 46.1008 60.1964L51.9697 58.3826C52.8793 58.1017 53.7537 58.9132 53.5611 59.8604L49.0751 81.9503C48.7944 83.3321 50.601 84.0855 51.3542 82.901L51.8577 82.1098L79.6667 25.6495C80.1327 24.7042 79.3293 23.6262 78.3092 23.8268L68.5283 25.747C67.6095 25.9273 66.8275 25.0565 67.0868 24.142L73.4703 1.62925C73.7299 0.712429 72.9449 -0.158743 72.025 0.0246207H72.0246Z" fill="url(#paint1_linear_11958_2346)"/>
<defs>
<linearGradient id="paint0_linear_11958_2346" x1="0.100703" y1="17.8048" x2="50.9511" y2="85.6875" gradientUnits="userSpaceOnUse">
<stop stop-color="#41D1FF"/>
<stop offset="1" stop-color="#BD34FE"/>
</linearGradient>
<linearGradient id="paint1_linear_11958_2346" x1="54.3121" y1="1.87182" x2="64.894" y2="73.2241" gradientUnits="userSpaceOnUse">
<stop stop-color="#FFEA83"/>
<stop offset="0.083" stop-color="#FFDD35"/>
<stop offset="1" stop-color="#FFA800"/>
</linearGradient>
</defs>
</svg>
