<svg width="28" height="28" viewBox="0 0 28 28" fill="none" xmlns="http://www.w3.org/2000/svg">
<path d="M9.51166 7.03106L10.1127 7.6321L9.51166 7.03106ZM7.0291 9.51362L6.42806 8.91258L6.42806 8.91258L7.0291 9.51362ZM7.02911 18.4856L6.42806 19.0866H6.42806L7.02911 18.4856ZM9.51166 20.9682L10.1127 20.3671L10.1127 20.3671L9.51166 20.9682ZM20.9662 9.51362L20.3652 10.1147V10.1147L20.9662 9.51362ZM18.4837 7.03106L19.0847 6.43002L19.0847 6.43002L18.4837 7.03106ZM17.383 6.04973L17.8271 5.32498V5.32498L17.383 6.04973ZM16.5 5.68401L16.3016 6.51052L16.5 5.68401ZM22.3133 11.4972L23.1398 11.2988V11.2988L22.3133 11.4972ZM21.9475 10.6143L22.6723 10.1702V10.1702L21.9475 10.6143ZM21.9475 17.3849L22.6723 17.829V17.829L21.9475 17.3849ZM22.3133 16.502L23.1398 16.7004V16.7004L22.3133 16.502ZM16.5 22.3152L16.6985 23.1417H16.6985L16.5 22.3152ZM17.383 21.9495L17.8271 22.6742H17.8271L17.383 21.9495ZM10.6123 21.9495L10.1682 22.6742H10.1682L10.6123 21.9495ZM11.4953 22.3152L11.2968 23.1417H11.2968L11.4953 22.3152ZM5.68205 16.502L6.50857 16.3036L5.68205 16.502ZM6.04777 17.3849L6.77252 16.9408L6.04777 17.3849ZM6.04777 10.6143L6.77252 11.0584L6.04777 10.6143ZM5.68205 11.4972L4.85554 11.2988L4.85554 11.2988L5.68205 11.4972ZM10.6123 6.04973L11.0565 6.77447L10.6123 6.04973ZM11.4953 5.68401L11.2968 4.85749L11.2968 4.85749L11.4953 5.68401ZM14.8477 9.79961C14.8477 9.33017 14.4671 8.94961 13.9977 8.94961C13.5282 8.94961 13.1477 9.33017 13.1477 9.79961H14.8477ZM13.1477 15.3996C13.1477 15.8691 13.5282 16.2496 13.9977 16.2496C14.4671 16.2496 14.8477 15.8691 14.8477 15.3996H13.1477ZM8.91062 6.43002L6.42806 8.91258L7.63015 10.1147L10.1127 7.6321L8.91062 6.43002ZM4.74766 12.9694V15.0298H6.44766V12.9694H4.74766ZM6.42806 19.0866L8.91062 21.5692L10.1127 20.3671L7.63015 17.8846L6.42806 19.0866ZM12.9675 23.2496H15.0278V21.5496H12.9675V23.2496ZM19.0847 21.5692L21.5672 19.0866L20.3652 17.8846L17.8826 20.3671L19.0847 21.5692ZM23.2477 15.0298V12.9694H21.5477V15.0298H23.2477ZM21.5672 8.91257L19.0847 6.43002L17.8826 7.6321L20.3652 10.1147L21.5672 8.91257ZM15.0278 4.74961H12.9675V6.44961H15.0278V4.74961ZM19.0847 6.43002C18.585 5.93034 18.2411 5.57867 17.8271 5.32498L16.9388 6.77447C17.1414 6.89858 17.3257 7.07521 17.8826 7.6321L19.0847 6.43002ZM15.0278 6.44961C15.8154 6.44961 16.0706 6.45507 16.3016 6.51052L16.6985 4.85749C16.2263 4.74415 15.7345 4.74961 15.0278 4.74961V6.44961ZM17.8271 5.32498C17.4777 5.1109 17.0969 4.95314 16.6985 4.85749L16.3016 6.51052C16.5266 6.56453 16.7416 6.6536 16.9388 6.77447L17.8271 5.32498ZM23.2477 12.9694C23.2477 12.2628 23.2531 11.7709 23.1398 11.2988L21.4867 11.6957C21.5422 11.9266 21.5477 12.1819 21.5477 12.9694H23.2477ZM20.3652 10.1147C20.9221 10.6716 21.0987 10.8559 21.2228 11.0584L22.6723 10.1702C22.4186 9.75619 22.0669 9.41226 21.5672 8.91257L20.3652 10.1147ZM23.1398 11.2988C23.0441 10.9004 22.8864 10.5195 22.6723 10.1702L21.2228 11.0584C21.3437 11.2557 21.4327 11.4707 21.4867 11.6957L23.1398 11.2988ZM21.5672 19.0866C22.0669 18.587 22.4186 18.243 22.6723 17.829L21.2228 16.9408C21.0987 17.1433 20.9221 17.3277 20.3652 17.8846L21.5672 19.0866ZM21.5477 15.0298C21.5477 15.8174 21.5422 16.0726 21.4867 16.3036L23.1398 16.7004C23.2531 16.2283 23.2477 15.7364 23.2477 15.0298H21.5477ZM22.6723 17.829C22.8864 17.4797 23.0441 17.0988 23.1398 16.7004L21.4867 16.3036C21.4327 16.5285 21.3437 16.7435 21.2228 16.9408L22.6723 17.829ZM15.0278 23.2496C15.7345 23.2496 16.2263 23.2551 16.6985 23.1417L16.3016 21.4887C16.0706 21.5441 15.8154 21.5496 15.0278 21.5496V23.2496ZM17.8826 20.3671C17.3257 20.924 17.1414 21.1006 16.9388 21.2247L17.8271 22.6742C18.2411 22.4205 18.585 22.0689 19.0847 21.5692L17.8826 20.3671ZM16.6985 23.1417C17.0969 23.0461 17.4777 22.8883 17.8271 22.6742L16.9388 21.2247C16.7416 21.3456 16.5266 21.4347 16.3016 21.4887L16.6985 23.1417ZM8.91062 21.5692C9.4103 22.0689 9.75424 22.4205 10.1682 22.6742L11.0565 21.2247C10.854 21.1006 10.6696 20.924 10.1127 20.3671L8.91062 21.5692ZM12.9675 21.5496C12.1799 21.5496 11.9247 21.5441 11.6937 21.4887L11.2968 23.1417C11.769 23.2551 12.2608 23.2496 12.9675 23.2496V21.5496ZM10.1682 22.6742C10.5176 22.8883 10.8984 23.0461 11.2968 23.1417L11.6937 21.4887C11.4688 21.4347 11.2537 21.3456 11.0565 21.2247L10.1682 22.6742ZM4.74766 15.0298C4.74766 15.7364 4.74219 16.2283 4.85554 16.7004L6.50857 16.3036C6.45312 16.0726 6.44766 15.8174 6.44766 15.0298H4.74766ZM7.63015 17.8846C7.07325 17.3277 6.89662 17.1433 6.77252 16.9408L5.32303 17.829C5.57672 18.243 5.92838 18.587 6.42806 19.0866L7.63015 17.8846ZM4.85554 16.7004C4.95119 17.0988 5.10895 17.4797 5.32303 17.829L6.77252 16.9408C6.65165 16.7435 6.56257 16.5285 6.50857 16.3036L4.85554 16.7004ZM6.42806 8.91258C5.92838 9.41226 5.57672 9.75619 5.32303 10.1702L6.77252 11.0584C6.89662 10.8559 7.07325 10.6716 7.63015 10.1147L6.42806 8.91258ZM6.44766 12.9694C6.44766 12.1819 6.45312 11.9266 6.50857 11.6957L4.85554 11.2988C4.74219 11.7709 4.74766 12.2628 4.74766 12.9694H6.44766ZM5.32303 10.1702C5.10895 10.5195 4.95119 10.9004 4.85554 11.2988L6.50857 11.6957C6.56257 11.4707 6.65165 11.2557 6.77252 11.0584L5.32303 10.1702ZM10.1127 7.6321C10.6696 7.0752 10.854 6.89858 11.0565 6.77447L10.1682 5.32498C9.75424 5.57867 9.4103 5.93034 8.91062 6.43002L10.1127 7.6321ZM12.9675 4.74961C12.2608 4.74961 11.769 4.74415 11.2968 4.85749L11.6937 6.51052C11.9247 6.45507 12.1799 6.44961 12.9675 6.44961V4.74961ZM11.0565 6.77447C11.2537 6.6536 11.4688 6.56453 11.6937 6.51052L11.2968 4.85749C10.8984 4.95314 10.5176 5.1109 10.1682 5.32498L11.0565 6.77447ZM13.1477 9.79961V15.3996H14.8477V9.79961H13.1477Z" fill="#4A525D"/>
<circle cx="13.9988" cy="18.2" r="0.7" fill="#4A525D"/>
</svg>
