<svg width="32" height="32" viewBox="0 0 100 100" fill="none" xmlns="http://www.w3.org/2000/svg">
    <g clip-path="url(#clip0_751_7946)">
    <path fill-rule="evenodd" clip-rule="evenodd" d="M99.9994 9.76477C99.9994 4.37493 95.6237 -0.000854492 90.2339 -0.000854492H9.76581C4.37596 -0.000854492 0.000183105 4.37493 0.000183105 9.76477V90.2335C0.000183105 95.6234 4.37596 99.9991 9.76581 99.9991H90.2339C95.6237 99.9991 99.9995 95.6234 99.9995 90.2335L99.9994 9.76477Z" fill="#4E3188"/>
    <path fill-rule="evenodd" clip-rule="evenodd" d="M92.6777 63.4842V88.7687C92.6777 90.8985 90.9697 92.6325 88.8496 92.6741L63.0273 92.6741L46.168 63.4842H92.6777ZM59.1856 92.6741H13.5039L36.3574 53.1512L59.1856 92.6741ZM9.83593 92.4173C8.4541 91.8875 7.44923 90.5958 7.33692 89.0582L7.32617 71.6302L25.8975 39.4768H40.4131L9.83593 92.4173ZM53.6885 39.4167C54.9531 39.422 56.1631 40.1649 56.8164 41.2658C56.8232 41.277 56.8359 41.2994 56.8359 41.2994L60.6738 47.9451L60.707 48.0002C61.334 49.0973 61.3584 50.4796 60.7315 51.5966C59.4453 53.8468 58.1387 56.0862 56.8418 58.331C56.2051 59.4227 55 60.135 53.7188 60.1509C51.2744 60.1612 46.373 60.1555 46.3662 60.1555C45.1016 60.1502 43.8721 59.4759 43.2178 58.3749C43.2031 58.3511 43.1758 58.3024 43.1758 58.3024C43.1758 58.3024 39.3359 51.656 39.3281 51.6406C38.7002 50.5435 38.7012 49.1262 39.3281 48.0092C39.3369 47.9928 39.3564 47.96 39.3564 47.96C39.3564 47.96 41.9258 43.5031 43.2119 41.2747C43.8486 40.183 45.0566 39.432 46.3369 39.4159C46.3584 39.4158 46.4014 39.4149 46.4014 39.4149L53.6445 39.4167H53.6885ZM90.0303 7.53098L59.6348 60.1555H92.6777V11.2296C92.6777 9.51418 91.5693 8.05549 90.0303 7.53098ZM44.4688 7.32336H86.3076L63.6807 46.4989L42.7617 10.28L44.4688 7.32336ZM53.8613 36.1506H27.8184L40.8398 13.6062L53.8613 36.1506Z" fill="url(#paint0_radial_751_7946)"/>
    </g>
    <defs>
    <radialGradient id="paint0_radial_751_7946" cx="0" cy="0" r="1" gradientUnits="userSpaceOnUse" gradientTransform="translate(72.5635 -8.71755) scale(101.392 101.392)">
    <stop stop-color="#F9A6FF"/>
    <stop offset="1" stop-color="#EA73FF"/>
    </radialGradient>
    <clipPath id="clip0_751_7946">
    <rect width="100" height="100" fill="white" transform="translate(0 -0.000854492)"/>
    </clipPath>
    </defs>
    </svg>
    