<svg width="32" height="32" viewBox="0 0 100 100" fill="none" xmlns="http://www.w3.org/2000/svg">
    <path d="M17.7086 1H82.2919C92.0836 1 100 8.91667 100 18.7083V80.7917C100 90.5833 92.0836 98.5 82.2919 98.5H17.7086C7.91691 98.5 0.000244141 90.5833 0.000244141 80.7917V18.7083C0.000244141 8.91667 7.91691 1 17.7086 1Z" fill="#00005B"/>
    <path d="M40.1669 59.3333H24.6669L21.5002 69.1666C21.4169 69.5416 21.0835 69.7916 20.7085 69.7499H12.8752C12.4169 69.7499 12.2919 69.4999 12.4169 68.9999L25.8335 30.5416C25.9585 30.1249 26.0835 29.7499 26.2502 29.2499C26.4169 28.3749 26.5002 27.4583 26.5002 26.5416C26.4585 26.3333 26.6252 26.1249 26.8335 26.0833H26.9585H37.6252C37.9169 26.0833 38.1252 26.2083 38.1669 26.4166L53.3752 68.9166C53.5002 69.3749 53.3752 69.5833 52.9585 69.5833H44.2502C43.9585 69.6249 43.6669 69.4166 43.5835 69.1249L40.1669 59.1249V59.3333ZM27.0835 51.0416H37.6669C37.4169 50.1666 37.0835 49.1249 36.7085 48.0416C36.3335 46.9166 35.9585 45.7083 35.5835 44.4583C35.1669 43.1666 34.7919 41.9166 34.3752 40.6249C33.9585 39.3333 33.5835 38.1249 33.2502 36.9166C32.9169 35.7499 32.6252 34.6666 32.3335 33.6666H32.2502C31.8752 35.4583 31.4169 37.2499 30.8335 39.0416C30.2085 41.0416 29.5835 43.1249 28.9169 45.2083C28.3752 47.3333 27.7085 49.2916 27.0835 51.0416Z" fill="#9999FF"/>
    <path d="M77.9169 55.5832H64.7085C64.8752 56.8749 65.2919 58.1666 66.0002 59.2916C66.7502 60.4166 67.7919 61.2916 69.0419 61.7916C70.7085 62.4999 72.5419 62.8749 74.3752 62.8332C75.8335 62.7916 77.2919 62.6666 78.7085 62.3749C80.0002 62.2082 81.2502 61.8749 82.4169 61.4166C82.6252 61.2499 82.7502 61.3332 82.7502 61.7499V68.1249C82.7502 68.2916 82.7085 68.4582 82.6669 68.6249C82.5835 68.7499 82.5002 68.8332 82.3752 68.9166C81.0419 69.4999 79.6669 69.9166 78.2085 70.1666C76.2502 70.5416 74.2919 70.7082 72.2919 70.6666C69.1252 70.6666 66.4585 70.1666 64.2919 69.2082C62.2502 68.3332 60.4585 66.9582 59.0419 65.2499C57.7085 63.6249 56.7502 61.7916 56.1669 59.7916C55.5835 57.8332 55.2919 55.7916 55.2919 53.7082C55.2919 51.4582 55.6252 49.2499 56.3335 47.0832C57.0002 44.9999 58.0419 43.0832 59.4585 41.3749C60.8335 39.7082 62.5419 38.3749 64.5002 37.4166C66.4585 36.4582 68.7919 36.1249 71.4585 36.1249C73.6669 36.0832 75.8752 36.4999 77.9169 37.4166C79.6252 38.1666 81.1252 39.2916 82.2919 40.7499C83.3752 42.1666 84.2502 43.7499 84.7919 45.4999C85.3335 47.1666 85.5835 48.8749 85.5835 50.5832C85.5835 51.5832 85.5419 52.4582 85.5002 53.2499C85.4169 54.0416 85.3752 54.6249 85.3335 54.9999C85.2919 55.2916 85.0419 55.5416 84.7502 55.5416C84.5002 55.5416 84.0419 55.5832 83.3752 55.6249C82.7085 55.7082 81.9169 55.7499 80.9585 55.7499C80.0002 55.7499 79.0002 55.5832 77.9169 55.5832ZM64.7085 49.4999H73.5002C74.5835 49.4999 75.3752 49.4999 75.8752 49.4582C76.2085 49.4166 76.5419 49.3332 76.8335 49.1249V48.7082C76.8335 48.1666 76.7502 47.6666 76.5835 47.1666C75.8335 44.8332 73.6252 43.2499 71.1669 43.3332C68.8752 43.2082 66.7085 44.4166 65.6252 46.4999C65.1252 47.4582 64.8335 48.4582 64.7085 49.4999Z" fill="#9999FF"/>
    </svg>
    