<svg width="32" height="32" viewBox="0 0 100 100" fill="none" xmlns="http://www.w3.org/2000/svg">
    <path d="M44.6537 9.05617L7.37071 24.4832C5.29742 25.3412 5.3189 28.2866 7.40519 29.1136L44.8436 43.9601C48.133 45.2647 51.7963 45.2647 55.0857 43.9601L92.5247 29.113C94.6105 28.2866 94.6331 25.3418 92.5587 24.4837L55.2768 9.0556C51.8754 7.64813 48.0545 7.64813 44.6532 9.0556" fill="#FCB400"/>
    <path d="M53.2866 52.0669V89.156C53.2866 90.9195 55.0654 92.128 56.7051 91.478L98.423 75.2851C98.8883 75.1007 99.2874 74.7807 99.5686 74.3666C99.8498 73.9526 100 73.4636 100 72.9631V35.8745C100 34.1104 98.2212 32.9025 96.5815 33.5525L54.8636 49.7454C54.3984 49.93 53.9994 50.25 53.7182 50.664C53.437 51.078 53.2866 51.567 53.2866 52.0674" fill="#18BFFF"/>
    <path d="M43.5447 53.9806L31.1638 59.9585L29.9067 60.5662L3.77126 73.089C2.11512 73.8882 0 72.6809 0 70.8405V36.0298C0 35.3639 0.341403 34.7891 0.799245 34.3567C0.987073 34.1697 1.20016 34.0098 1.43231 33.8819C2.05633 33.5071 2.94714 33.4071 3.70456 33.7067L43.3367 49.4101C45.3512 50.2093 45.5095 53.0321 43.5447 53.9811" fill="#F82B60"/>
    <path d="M43.5447 53.9806L31.1638 59.9585L0.799255 34.3561C0.98712 34.1693 1.20021 34.0097 1.43232 33.8819C2.05634 33.5071 2.94715 33.4071 3.70457 33.7067L43.3367 49.4101C45.3512 50.2093 45.5095 53.0321 43.5447 53.9811" fill="black" fill-opacity="0.25"/>
    </svg>
    