<svg width="32" height="32" viewBox="0 0 100 100" fill="none" xmlns="http://www.w3.org/2000/svg">
    <g clip-path="url(#clip0_751_7938)">
    <path fill-rule="evenodd" clip-rule="evenodd" d="M43.0722 60.6129L40.8986 65.8794C46.7393 83.8648 46.7394 83.8648 50 99.5542C53.2606 83.8648 53.2606 83.8648 59.1014 65.8794L56.9277 60.6129L50 43.8275L43.0722 60.6129Z" fill="#069EFE"/>
    <path fill-rule="evenodd" clip-rule="evenodd" d="M42.3335 4.46802H57.6665L91.6183 88.7313H77.3805L50 24.3736L22.6195 88.7313H8.38168L42.3335 4.46802Z" fill="url(#paint0_linear_751_7938)"/>
    <mask id="mask0_751_7938" style="mask-type:luminance" maskUnits="userSpaceOnUse" x="40" y="43" width="20" height="58">
    <path d="M40.8986 66.4158L50 43.8275L59.1014 66.4158L50 100.91L40.8986 66.4158Z" fill="white"/>
    </mask>
    <g mask="url(#mask0_751_7938)">
    <g filter="url(#filter0_f_751_7938)">
    <path fill-rule="evenodd" clip-rule="evenodd" d="M50 78.2169L77.1719 10.4939L22.8281 10.7722L50 78.2169Z" fill="white"/>
    </g>
    </g>
    </g>
    <defs>
    <filter id="filter0_f_751_7938" x="18.5557" y="6.22156" width="62.8886" height="76.2677" filterUnits="userSpaceOnUse" color-interpolation-filters="sRGB">
    <feFlood flood-opacity="0" result="BackgroundImageFix"/>
    <feBlend mode="normal" in="SourceGraphic" in2="BackgroundImageFix" result="shape"/>
    <feGaussianBlur stdDeviation="2.13617" result="effect1_foregroundBlur_751_7938"/>
    </filter>
    <linearGradient id="paint0_linear_751_7938" x1="50.1369" y1="4.46802" x2="50.0103" y2="95.5777" gradientUnits="userSpaceOnUse">
    <stop stop-color="#EC2802"/>
    <stop offset="1" stop-color="#FCB200"/>
    </linearGradient>
    <clipPath id="clip0_751_7938">
    <rect width="100" height="100" fill="white" transform="translate(0 -0.000854492)"/>
    </clipPath>
    </defs>
    </svg>
    