<svg width="32" height="32" viewBox="0 0 100 100" fill="none" xmlns="http://www.w3.org/2000/svg">
    <path d="M13.1667 -0.00134277H86.8333C94.0833 -0.00134277 100 5.88616 100 13.1653V86.8362C100 94.0862 94.1125 99.9987 86.8333 99.9987H13.1667C5.91667 99.9987 0 94.1153 0 86.8362V13.132C0 5.88616 5.88333 -0.00134277 13.1667 -0.00134277Z" fill="#5468FF"/>
    <path d="M60.4211 22.3226V18.8934C60.4202 17.7426 59.9624 16.6392 59.1483 15.8258C58.3341 15.0125 57.2303 14.5557 56.0795 14.5559H45.9586C44.8078 14.5557 43.704 15.0125 42.8898 15.8258C42.0757 16.6392 41.6178 17.7426 41.617 18.8934V22.4142C41.617 22.8059 41.9795 23.0809 42.3753 22.9892C45.2383 22.1626 48.2037 21.7446 51.1836 21.7476C54.0711 21.7476 56.9295 22.1392 59.692 22.8976C60.0586 22.9892 60.4211 22.7184 60.4211 22.3226ZM32.6836 26.8101L30.9545 25.0809C30.5516 24.6777 30.0732 24.3579 29.5466 24.1397C29.0201 23.9215 28.4557 23.8092 27.8857 23.8092C27.3157 23.8092 26.7513 23.9215 26.2248 24.1397C25.6982 24.3579 25.2199 24.6777 24.817 25.0809L22.7503 27.1434C22.3463 27.545 22.0257 28.0225 21.8069 28.5484C21.5881 29.0743 21.4754 29.6384 21.4754 30.208C21.4754 30.7776 21.5881 31.3416 21.8069 31.8676C22.0257 32.3935 22.3463 32.871 22.7503 33.2726L24.4503 34.9726C24.7253 35.2434 25.1211 35.1809 25.3628 34.9101C26.3658 33.5326 27.4732 32.2343 28.6753 31.0267C29.8875 29.8104 31.1975 28.6956 32.592 27.6934C32.8953 27.5101 32.9253 27.0851 32.6836 26.8101ZM51.1536 37.6976V52.5309C51.1536 52.9559 51.612 53.2601 52.0036 53.0476L65.1911 46.2226C65.4911 46.0726 65.5828 45.7059 65.4328 45.4059C62.6995 40.6101 57.6245 37.3351 51.762 37.1226C51.4578 37.1226 51.1536 37.3642 51.1536 37.6976ZM51.1536 73.4309C40.1578 73.4309 31.2245 64.5101 31.2245 53.5309C31.2245 42.5517 40.1578 33.6351 51.1536 33.6351C62.1536 33.6351 71.0836 42.5517 71.0836 53.5309C71.0836 64.5101 62.1836 73.4309 51.1536 73.4309ZM51.1536 25.2642C35.537 25.2642 22.8703 37.9142 22.8703 53.5309C22.8703 69.1517 35.537 81.7726 51.1536 81.7726C66.7703 81.7726 79.437 69.1226 79.437 53.5017C79.437 37.8809 66.7995 25.2642 51.1536 25.2642Z" fill="white"/>
    </svg>
    